<?xml version="1.0" encoding="UTF-8" standalone="no"?>
<svg
   xmlns:dc="http://purl.org/dc/elements/1.1/"
   xmlns:cc="http://creativecommons.org/ns#"
   xmlns:rdf="http://www.w3.org/1999/02/22-rdf-syntax-ns#"
   xmlns:svg="http://www.w3.org/2000/svg"
   xmlns="http://www.w3.org/2000/svg"
   xmlns:sodipodi="http://sodipodi.sourceforge.net/DTD/sodipodi-0.dtd"
   xmlns:inkscape="http://www.inkscape.org/namespaces/inkscape"
   id="svg1037"
   viewBox="0 0 83.507994 8.1020696"
   version="1.1"
   sodipodi:docname="CT.svg"
   width="0.86987495in"
   height="0.084396563in"
   inkscape:version="0.92.4 (5da689c313, 2019-01-14)">
  <metadata
     id="metadata9">
    <rdf:RDF>
      <cc:Work
         rdf:about="">
        <dc:format>image/svg+xml</dc:format>
        <dc:type
           rdf:resource="http://purl.org/dc/dcmitype/StillImage" />
        <dc:title></dc:title>
        <dc:title />
      </cc:Work>
    </rdf:RDF>
  </metadata>
  <defs
     id="defs7" />
  <sodipodi:namedview
     pagecolor="#ffffff"
     bordercolor="#666666"
     borderopacity="1"
     objecttolerance="10"
     gridtolerance="10"
     guidetolerance="10"
     inkscape:pageopacity="0"
     inkscape:pageshadow="2"
     inkscape:window-width="1715"
     inkscape:window-height="866"
     id="namedview5"
     showgrid="false"
     inkscape:pagecheckerboard="true"
     units="in"
     fit-margin-top="0"
     fit-margin-left="0"
     fit-margin-right="0"
     fit-margin-bottom="0"
     inkscape:zoom="3.94"
     inkscape:cx="62.297493"
     inkscape:cy="-4.6498774"
     inkscape:window-x="119"
     inkscape:window-y="48"
     inkscape:window-maximized="1"
     inkscape:current-layer="svg1037" />
  <path
     id="path20"
     d="m 3.3289541,2.21364 c -0.0443,-0.0445 -0.0887,-0.13278 -0.0887,-0.22146 0,-0.0885 -0.0442,-0.17705 -0.0885,-0.22134 0,-0.0885 -0.0443,-0.13272 -0.0885,-0.22138 -0.0443,-0.0885 -0.0886,-0.1328 -0.13278,-0.17708 l -0.22143,-0.0885 c -0.1328,-0.0446 -0.2656,-0.0885 -0.39848,-0.0885 -0.13276,-0.0445 -0.30988,-0.0445 -0.44271,-0.0445 -0.0886,0 -0.17712,0 -0.26562,0 -0.0886,0.0445 -0.1771,0.0885 -0.26569,0.1771 -0.13279,0.0885 -0.26559,0.22131 -0.39842003,0.35417 -0.13286,0.17704 -0.26564,0.3542 -0.30993,0.57556 -0.0885,0.26568 -0.13283,0.53128 -0.13283,0.79694 0,0.53124 0.13283,1.06257 0.48704,1.50527 0.22135003,0.35419 0.57554003,0.57559 0.92976003,0.70837 0.13281,0.0443 0.30984,0 0.44267,-0.0443 0.1329,-0.0445 0.26569,-0.1329 0.3985,-0.22133 0.0885,-0.0886 0.17714,-0.17713 0.26563,-0.26572 l 0.17713,-0.22128 0.0442,-0.17717 c 0,-0.0885 0.0443,-0.17711 0.0443,-0.26559 0,-0.0885 0.0443,-0.17712 0.0443,-0.26564 0,-0.0886 0.0443,-0.13278 0.0443,-0.13278 0,-0.0886 0.0443,-0.13283 0.13283,-0.13283 0.0443,-0.0442 0.13281,-0.0442 0.17704,-0.0442 0.0443,0 0.0886,0.0442 0.13291,0.17709 0.0442,0.0884 0.0442,0.2213 0.0442,0.35408 -0.0442,0.0886 -0.0442,0.22146 -0.0885,0.30992 -0.0443,0.17718 -0.0886,0.35426 -0.17714,0.5314 -0.0885,0.17702 -0.2213,0.39838 -0.35423,0.5312 -0.13274,0.17709 -0.35409,0.30992 -0.5755,0.35417 -0.44274,0.1329 -0.92968,0.0886 -1.3282,-0.13281 C 0.89387407,5.40114 0.53974407,5.00272 0.36259407,4.55995 c -0.2656,-0.48699 -0.39845,-1.01824 -0.35422,-1.54956 0.0443,-0.5313 0.13293,-1.06259 0.30995,-1.54961 0.0886,-0.22138 0.22142,-0.44269 0.39851,-0.5755 0.13282,-0.13279 0.30993003,-0.22138 0.48698003,-0.3099 0.13279,-0.0445 0.26572,-0.13286 0.39848,-0.13286 0.0885,0 0.17706,-0.0444 0.22133,-0.0444 0.0886,0 0.17711,0 0.26569,-0.0446 0.0885,0 0.17706,-0.0443 0.26558,-0.0885 0.0443,0 0.0886,0 0.0886,0 0,0 0.0443,0.0442 0.0885,0.0885 0.0443,0.0446 0.1328,0.13284 0.17709,0.17708 l 0.35421,0.35424 c 0.13284,0.13281 0.26565,0.26564 0.35418,0.39848 0.0886,0.0885 0.17705,0.22129 0.22139,0.3099 0.0442,0.13282 0.0442,0.30992 0,0.44272 -0.0444,0.0885 -0.0886,0.17713 -0.13281,0.26558 0,0.0446 -0.0886,0.0446 -0.13283,0.0446 0.0885,0 0,-0.0446 -0.0443,-0.1328 z M 0.93817407,2.39062 c 0.0443,-0.22131 0.13283003,-0.39844 0.26563003,-0.53126 0.0886,-0.13275 0.22138,-0.22124 0.3099,-0.3099 0.0886,-0.0444 0.17708,-0.0885 0.26564,-0.1328 0.0885,0 0.13287,0 0.13287,0 -0.1771,0.0885 -0.30993,0.17714 -0.44268,0.26566 -0.13294,0.13281 -0.22149,0.2656 -0.30997,0.39854 -0.0885,0.22123 -0.17711003,0.4427 -0.17711003,0.66393 -0.0443,0.39852 -0.0443,0.79705 0.0443,1.15117 0.0885,0.26562 0.13281,0.39845 0.13281,0.35425 0,-0.0445 -0.0443,-0.13283 -0.0885,-0.17711 -0.0443,-0.13282 -0.0885,-0.26564 -0.13284009,-0.39843 -0.0443,-0.17709 -0.0885,-0.39854 -0.0885,-0.57558 0,-0.2657 0.0442,-0.48702 0.0885,-0.70847 z m 2.83349003,0.0886 c 0.0444,0 0.0885,0 0.0885,-0.0442 0.0886,-0.0446 0.13282,-0.0885 0.17707,-0.17709 0.0443,-0.13283 0.0443,-0.2657 0,-0.39852 -0.0442,-0.26557 -0.1328,-0.57547 -0.30988,-0.79699 -0.0885,-0.17696 -0.22133,-0.30975 -0.35416,-0.44268 -0.13293,-0.13276 -0.26567,-0.2656 -0.44271,-0.3541 C 2.7533441,0.17714 2.5319641,0.04422 2.3548441,0 c 0.0443,0 0.1329,0 0.17712,0.0444 l 0.17709,0.0886 c 0.0443,0.0445 0.13282,0.0445 0.17712,0.0885 0.17709,0.0886 0.35409,0.22141 0.48702,0.39845 0.2213,0.17714 0.39843,0.39853 0.53124,0.6642 0.1328,0.2213 0.17712,0.48694 0.17712,0.70829 0,0.13287 0,0.30991 -0.0443,0.44279 0,0.0443 -0.0885,0.0886 -0.17707,0.0886 0,0 -0.0442,0 -0.0885,-0.0445 z m 0.35415,1.2839 c 0,0.13284 0,0.26564 0,0.39846 0,0.13283 -0.0442,0.26582 -0.0885,0.44275 -0.0442,0.17706 -0.1328,0.35421 -0.22127,0.53135 -0.0886,0.22132 -0.2657,0.35412 -0.44278,0.48695 -0.13293,0.13281 -0.30993,0.2214 -0.48702,0.3099 -0.17711,0.0886 -0.39842,0.1771 -0.61984,0.22141 0.13278,-0.0445 0.26563,-0.0886 0.39843,-0.13284 l 0.3985,-0.22137 c 0.177,-0.0885 0.30993,-0.22136 0.44276,-0.35412 0.17705,-0.13287 0.26561,-0.30993 0.35415,-0.53133 0.0886,-0.17715 0.13282,-0.39843 0.17707,-0.5756 0.0443,-0.1771 0.0885,-0.3984 0.0885,-0.57556 z"
     inkscape:connector-curvature="0"
     style="stroke-width:0.44273338" />
  <path
     id="path22"
     d="m 6.8708141,0.3541 c 0.0885,0 0.22132,0 0.30993,0 h 0.48698 0.84123 0.44275 c 0.0885,0 0.17703,0 0.26561,-0.0444 0.0443,0 0.0885,-0.0443 0.0885,0 0,0.0444 0,0.0444 0.0443,0.0444 0.0885,0 0.1771,0.0446 0.22136,0.0886 0.0886,0.0885 0.22136,0.13285 0.30988,0.26566 0.1328799,0.1328 0.2656399,0.26562 0.3541799,0.44271 0.13288,0.22135 0.1772,0.48709 0.1772,0.79689 0,0.17714 -0.0443,0.35417 -0.13292,0.48705 -0.0885,0.13281 -0.22134,0.30982 -0.3098699,0.44272 -0.0886,0.13283 -0.22138,0.2214 -0.35423,0.31 -0.0442,0.0442 -0.13278,0.0884 -0.17708,0.13273 -0.0441,0 -0.0441,0.0445 -0.0441,0.0445 0,0 0,0.0443 0,0.0886 0.0441,0.2214 0.13276,0.48701 0.22125,0.7083 0.0444,0.13284 0.0886,0.22145 0.17713,0.35426 0.0885,0.13274 0.13282,0.2213 0.2213899,0.35424 0.0885,0.13278 0.13276,0.22121 0.22131,0.3098 0.0443,0.0445 0.0886,0.13287 0.0886,0.17713 0.0444,0.0886 0.0444,0.17719 0,0.26563 -0.0443,0.0886 -0.0886,0.13281 -0.26563,0.1771 -0.0442,0.0445 -0.1328099,0 -0.2213299,-0.0441 -0.0886,-0.0886 -0.13285,-0.17709 -0.17708,-0.26563 -0.0886,-0.13281 -0.13284,-0.22137 -0.17712,-0.35413 -0.0443,-0.13282 -0.0885,-0.26561 -0.13282,-0.35429 l -0.13281,-0.35399 c -0.0443,-0.1772 -0.13283,-0.31002 -0.17711,-0.48712 -0.0442,-0.17716 -0.13282,-0.30991 -0.1771,-0.4427 -0.0443,-0.0887 -0.0885,-0.17716 -0.17708,-0.22146 -0.0886,-0.0445 -0.22135,-0.0445 -0.31,0 -0.0885,0.0442 -0.22129,0.0886 -0.30979,0.0886 -0.13295,0.0443 -0.30995,0.0443 -0.44274,0.0443 -0.13288,0 -0.22142,0 -0.35425,0.0446 -0.0443,0.0445 -0.0885,0.13276 -0.0443,0.2214 0,0.0884 0,0.17688 0.0443,0.26561 0,0.0445 0,0.0885 0,0.1771 0,0.0885 -0.0443,0.17703 -0.0443,0.26564 0,0.0885 0,0.17706 -0.0443,0.26555 0,0.0886 0,0.17713 -0.0443,0.17713 0,0.0886 0.0443,0.17715 0.0885,0.26558 0.0443,0.0886 0.0443,0.22147 0.0443,0.30999 0,0.0885 -0.0885,0.17708 -0.13279,0.26561 -0.0885,0.0446 -0.17711,0.0886 -0.26563,0.0446 -0.0886,-0.0446 -0.13281,-0.0446 -0.13281,-0.0446 l -0.0886,-0.17712 c -0.0442,-0.0885 -0.0442,-0.22137 -0.0442,-0.35415 0,-0.17712 0,-0.35426 0,-0.48708 0,-0.13274 0,-0.35416 0.0442,-0.487 0,-0.177 0,-0.26562 0,-0.26562 V 3.40967 c 0,-0.26557 0,-0.57549 0,-0.92967 0,-0.35416 0,-0.61986 0,-0.92976 V 1.01899 c 0,-0.13279 0,-0.26558 0.0443,-0.39851 0,-0.0885 0.0885,-0.17704 0.17711,-0.2656 z m 0.48697,3.49746 V 3.67467 c 0,-0.0886 0.0443,-0.0886 0.0885,-0.0886 0.0885,0.0445 0.13284,0.0886 0.22139,0.0886 0.0885,0.0443 0.1328,0.0443 0.22136,0.0443 0.0885,0 0.13283,0.0444 0.17715,0.0886 0.0442,0.0885 0.0442,0.0885 -0.0443,0.0885 -0.0886,0 -0.13283,0 -0.22139,-0.0446 l -0.0885,-0.0441 c -0.0442,0.0441 -0.0442,0.13282 -0.0442,0.17712 0,0.0443 0,0.13281 0,0.22131 0,0.0885 0,0.17714 0,0.26563 0,0.13281 0,0.26562 -0.0443,0.3542 -0.0443,0.13284 -0.0443,0.26556 -0.0886,0.39846 -0.0443,0.13282 -0.0443,0.26563 -0.0885,0.39845 0,0.0886 -0.0442,0.1771 -0.0885,0.2214 -0.0442,0.0444 -0.13279,0.0444 -0.26565,-0.0445 l -0.17709,-0.17699 c 0.0443,0.0444 0.0886,0.0444 0.13289,0.0444 0.0442,0 0.13281,0.0445 0.17706,0.0445 0.0443,0 0.0443,0 0.0443,0 0.0443,-0.0445 0.0443,-0.0886 0.0885,-0.0886 0.0443,-0.0442 0.0885,-0.0884 0.0885,-0.17701 0,-0.0886 0,-0.17718 0,-0.26575 0,-0.0886 0,-0.17701 0,-0.26559 0,-0.13289 0,-0.30995 -0.0442,-0.44276 0,-0.17711 0,-0.30994 0,-0.44276 0.0442,-0.0885 -0.0443,-0.1772 -0.0443,-0.1772 z m 1.68242,-2.78919 h -0.1771 c -0.0443,0 -0.0443,0 -0.0885,0.0446 -0.0886,0 -0.22142,0 -0.30993,0 -0.17715,0 -0.26564,-0.0446 -0.30994,-0.0446 h -0.22144 c -0.0442,0 -0.13276,0 -0.17701,0 -0.0443,0 -0.0885,0 -0.13279,0 -0.0443,0 -0.0443,0 -0.13287,-0.0442 -0.0443,-0.0444 -0.17705,-0.0444 -0.22137,0 0,0.0442 -0.0442,0.13282 -0.0442,0.17714 0,0 0,0.0443 0,0.0885 0,0.0444 0,0.13276 0,0.2213 0,0.0886 0,0.17713 0,0.26566 0,0.0445 0,0.13286 0,0.17708 0,0.0444 0,0.0886 0.0442,0.13294 0,0 0,0.0444 -0.0442,0.0884 -0.0443,0.0445 -0.0443,0.13278 -0.0886,0.17712 -0.0443,0.0885 -0.0443,0.17712 0,0.17712 0.0443,0.0445 0.0886,0.0445 0.22133,0 0.0443,-0.0445 0.13283,-0.0445 0.2214,-0.0886 l 0.13282,0.0443 0.26563,0.0445 c 0.0886,0 0.1771,0.0445 0.30989,0.0445 0.0885,0.0442 0.17715,0.0442 0.26566,0.0442 0.17707,0 0.30992,0 0.48703,0 0.13277,0 0.2656,-0.0885 0.35425,-0.1771 0.13277,-0.0885 0.22126,-0.22132 0.2656,-0.35411 0.0885,-0.13294 0.0885,-0.26572 0.0885,-0.39854 0,-0.13286 -0.0443,-0.26566 -0.0885,-0.39843 -0.0444,-0.0885 -0.13283,-0.17712 -0.22142,-0.26566 -0.13283,0.0885 -0.26566,0.0441 -0.39843,0.0441 z m -1.54959,0.39854 c 0,0 0,0 0.0886,0 0.0443,0 0.0885,0 0.1771,0.0445 l 0.26564,0.0442 h -0.13283 c -0.0886,0 -0.13281,0 -0.22136,0 -0.0443,0.0445 -0.0443,0.0887 0,0.17715 0,0.0441 0.0442,0.0885 0.0442,0.13275 v 0 c -0.0442,-0.0442 -0.0885,-0.0885 -0.0442,-0.0885 0,-0.0441 -0.0443,-0.0885 -0.0443,-0.13272 -0.13288,-0.13297 -0.17716,-0.17724 -0.13288,-0.17724 z m 0.0886,0.61995 0.0443,0.0884 c 0.0443,0.0446 0.0885,0.0886 0.13279,0.0886 l 0.17701,0.0886 c 0.0886,0.044 0.17716,0.044 0.26573,0.044 l -0.57553,-0.044 -0.13288,-0.0886 c 0,0 0,-0.0443 0,-0.0443 0,-0.0886 0.0443,-0.13277 0.0886,-0.13277 z m 1.81528,-1.99238 c 0.2656,0.13276 0.53121,0.30998 0.7525399,0.48703 0.13282,0.13281 0.26574,0.26561 0.35422,0.44271 0.0885,0.13281 0.13281,0.30993 0.13281,0.44269 0,0.17721 0,0.30993 0.0443,0.48701 0,0.17714 -0.0443,0.35417 -0.0886,0.5313 -0.0443,0.17714 -0.1328,0.30994 -0.26563,0.44275 -0.0886,0.13284 -0.17711,0.22134 -0.26563,0.35416 -0.0443,0.0441 -0.0885,0.0886 -0.1328099,0.17715 0,0.0886 0,0.17709 0.0443,0.26558 0.0443,0.1327 0.0885,0.3099 0.1328299,0.44272 0.0442,0.22144 0.13277,0.3985 0.22132,0.61981 -0.1328,-0.22131 -0.22132,-0.44271 -0.30986,-0.61981 -0.0886,-0.17701 -0.1770899,-0.31002 -0.2213899,-0.44272 -0.0443,-0.0885 -0.0443,-0.17702 -0.0885,-0.26558 0,-0.0446 0.0443,-0.0886 0.13285,-0.17715 0.0885,-0.0884 0.2213299,-0.17704 0.3541499,-0.3099 0.17713,-0.17707 0.30992,-0.44267 0.30992,-0.70835 0.0443,-0.35417 0.0443,-0.66408 0,-1.01834 -0.0443,-0.17717 -0.13279,-0.35412 -0.2214,-0.48692 -0.13282,-0.13293 -0.22134,-0.26568 -0.3984499,-0.39852 -0.0885,-0.0444 -0.26565,-0.13286 -0.4869,-0.26562 z M 10.235574,6.0211 c 0,0 0.0443,-0.0441 0.0443,-0.0441 0.0443,0 0.0886,-0.0446 0.13293,-0.0446 0.0442,-0.0442 0.0885,-0.0885 0.0885,-0.1328 0.0443,-0.0441 0.0443,-0.0885 0.0443,-0.17709 l 0.0443,-0.26564 c 0,0.0442 0,0.0886 0,0.13281 0,0.0886 -0.0443,0.22139 -0.0885,0.26564 -0.0443,0.0886 -0.1328,0.17708 -0.2214,0.22143 -0.0443,0.0885 -0.0443,0.0885 -0.0443,0.0441 z"
     inkscape:connector-curvature="0"
     style="stroke-width:0.44273338" />
  <path
     id="path24"
     d="m 15.946854,1.46091 c -0.0443,0 -0.17711,0 -0.39843,0 h -0.66416 c -0.26563,0 -0.61981,0.0445 -0.92977,0.0445 -0.0442,0.0886 -0.0442,0.22142 -0.0442,0.30994 v 0.53131 0.70837 c 0.0885,0 0.13279,0 0.22133,0 h 0.22137 c 0.0443,0 0.0885,0 0.17718,-0.0445 h 0.177 l 0.26568,0.0445 c 0.0885,0 0.17706,0 0.26563,0.0442 h 0.17704 c 0.0886,0 0.2214,-0.0442 0.30991,-0.0886 0.0886,-0.0442 0.2214,-0.0442 0.30993,-0.0442 0.0886,0.0442 0.17707,0.0886 0.22141,0.0886 0.0885,0.0443 0.13281,0.13288 0.0885,0.26561 0,0.13285 -0.0444,0.22142 -0.0444,0.35425 -0.0442,0.0884 -0.13273,0.13278 -0.26557,0.13278 -0.0885,0.0441 -0.17716,0.0441 -0.26563,0 -0.0443,-0.0445 -0.0885,-0.0445 -0.13281,-0.0886 -0.0885,0 -0.13281,-0.0443 -0.22139,-0.0443 h -0.75259 c -0.0443,0 -0.13276,0 -0.22142,0 -0.0885,0.0443 -0.13284,0.0443 -0.22131,0 -0.0443,-0.0445 -0.13281,-0.0445 -0.17712,0 -0.0443,0 -0.0443,0.0443 -0.0886,0.17689 -0.0442,0.13301 -0.0442,0.22153 -0.0442,0.35431 0,0.13281 0,0.22154 0,0.35422 0,0.0885 0,0.13285 0.0442,0.2213 0.0444,0.0887 0.0444,0.13289 0.0444,0.22146 0,0.0444 0,0.0884 0,0.13283 0,0.0442 0,0.13276 -0.0444,0.17707 -0.0442,0.0885 -0.0442,0.13286 0.0444,0.17706 0.0886,0.0446 0.13282,0.0446 0.26563,0 0.0886,-0.0442 0.17708,-0.0442 0.26574,-0.0442 l 0.30979,0.0442 0.48703,0.0446 0.48704,0.0442 c 0.0885,0 0.22133,0 0.30991,0 0.17699,-0.0442 0.35416,-0.0885 0.53122,-0.13275 0.13286,-0.0445 0.30995,-0.0886 0.44274,-0.0445 0.0885,0.0445 0.17713,0.0885 0.17713,0.2656 0,0.13285 0.0444,0.22146 0.0444,0.35421 -0.0444,0.0885 -0.0887,0.17702 -0.22147,0.26569 -0.0885,0.0442 -0.17706,0.0885 -0.2656,0.0885 -0.0443,0 -0.1328,0 -0.17714,0 l -0.26558,-0.0444 -0.26564,-0.0442 c -0.0443,0 -0.13278,-0.0445 -0.17711,-0.0445 h -0.3542 -0.70838 -0.70836 -0.35416 c -0.0886,-0.0445 -0.17708,-0.0885 -0.17708,-0.17711 -0.0443,-0.0444 -0.0443,-0.13283 -0.0886,-0.22133 0,0 0,-0.0886 0,-0.2214 0,-0.13282 -0.0444,-0.30988 -0.0444,-0.48696 0,-0.17711 -0.0442,-0.35428 -0.0442,-0.53134 0,-0.17692 0,-0.26564 0,-0.35412 0,-0.13282 0.0442,-0.30993 0.0442,-0.44276 0.0444,-0.13278 0.0444,-0.26561 0.0887,-0.30987 0,-0.0887 0,-0.13288 0,-0.22145 0,-0.0884 0,-0.22132 0,-0.35416 0,-0.13282 0,-0.26562 -0.0443,-0.35419 -0.0444,-0.13281 0,-0.22135 0,-0.3099 0,-0.0886 0,-0.17701 0,-0.35417 0,-0.1771 0.0443,-0.30992 0.0443,-0.4428 0,-0.13276 0.0443,-0.30986 0.0885,-0.44269 0,-0.0886 0.0443,-0.17709 0.13285,-0.22138 0.0886,-0.0444 0.22135,-0.0444 0.3099,-0.0444 0.17704,0 0.30988,0 0.5313,0 l 0.53123,0.0444 h 0.30995 c 0.0443,0 0.13281,0 0.22132,0 l 0.30993,-0.0444 0.26557,-0.0443 c 0.0887,0 0.13294,-0.0445 0.22145,-0.0445 0.0886,-0.0446 0.17712,-0.0885 0.22134,-0.0885 0.0886,0 0.17713,0 0.22139,0.0441 0.0885,0.0446 0.17712,0.13293 0.22134,0.22146 0.0443,0.0885 0.0886,0.22122 0.0443,0.3099 0,0.0885 -0.0443,0.1771 -0.0885,0.22134 -0.0444,0.0885 -0.17712,0.1328 -0.2656,0.1328 -0.13292,0.0443 -0.26569,0.0443 -0.39853,0 -0.26567,-0.0444 -0.39846,-0.0444 -0.53127,-0.0444 z m -0.70836,0.2657 c -0.13282,0 -0.26563,0.0441 -0.35423,0.0441 -0.0885,0.0445 -0.17707,0.0445 -0.26563,0.0445 -0.0443,0 -0.0884,0 -0.13282,0.0441 -0.0443,0 -0.0443,0.0886 -0.0443,0.2215 0,0.13278 0.0443,0.22123 0.0443,0.35411 0,0.0886 0.0885,0.13281 0.13282,0.13281 l 0.26563,0.0441 c 0.0886,0 0.13281,0.0445 0.22141,0.0445 h 0.0885 c -0.0885,0 -0.1328,0 -0.22131,0 -0.13289,0 -0.26568,0 -0.35424,0.0444 -0.13281,0 -0.30994,0 -0.53123,0 0,-0.0444 0.0443,-0.0885 0.0443,-0.0885 0,-0.0441 0,-0.13285 0,-0.1771 V 2.03667 c 0,-0.0886 0,-0.17715 0.0443,-0.3099 z m -1.15109,2.21367 c 0.0443,0.0885 0.0443,0.13282 0.0885,0.2213 0.0443,0.0886 0.0443,0.1771 0.0443,0.26582 0,0.0884 0,0.22118 0.0443,0.35399 0.0443,0.13289 0,0.22146 0,0.2657 0,0.0442 0,0.0442 0.0443,0.0442 0.0444,0 0.0444,0 0.0886,-0.0442 l -0.22134,0.0442 c 0,-0.177 0,-0.35415 0,-0.48695 0,-0.13281 0,-0.26566 -0.0443,-0.39846 -0.0443,-0.13277 -0.0443,-0.2213 -0.0443,-0.26559 z m 0.30985,0.1771 h 0.0443 c 0.0887,0 0.13282,-0.0445 0.22141,-0.0445 l 0.26562,-0.0445 c 0.0885,0 0.13282,0 0.17711,0.0445 h -0.0886 c -0.0885,0 -0.17709,0 -0.26564,0 l -0.26561,0.0445 z m 1.37249,-1.46102 c 0.0443,0 0.0885,0.0441 0.13283,0.0441 0.0886,0.0444 0.1328,0.0885 0.17708,0.17708 z"
     inkscape:connector-curvature="0"
     style="stroke-width:0.44273338" />
  <path
     id="path26"
     d="m 19.887144,6.24247 c -0.0443,0 -0.0885,-0.0885 -0.0885,-0.17711 0.0443,-0.13283 0.0443,-0.26563 0.13282,-0.35416 0.0442,-0.13283 0.1328,-0.26559 0.2213,-0.39846 0.0444,-0.0886 0.0886,-0.17706 0.177106,-0.26565 0.08854,-0.0885 0.132838,-0.22137 0.177104,-0.35415 0.04431,-0.0886 0.04431,-0.17709 0.08853,-0.26554 0.04431,-0.0887 0.04431,-0.17719 0.04431,-0.26582 0.04431,-0.17701 0.08854,-0.35412 0.177084,-0.53121 0.08854,-0.26567 0.221351,-0.53128 0.354171,-0.79698 0.08858,-0.13277 0.177079,-0.30983 0.221414,-0.48695 0,-0.0446 0,-0.1328 0.04417,-0.17713 0,-0.0442 0.04436,-0.1328 0.04436,-0.17713 0.04431,-0.0885 0.0886,-0.13282 0.13283,-0.22134 0.04431,-0.0441 0.04431,-0.0885 0.08858,-0.17704 0,-0.0445 0,-0.13289 -0.04431,-0.17714 -0.04431,-0.0885 -0.04431,-0.17712 -0.04431,-0.2213 0,-0.0445 0.04431,-0.0886 0.08858,-0.17714 0.04427,-0.0444 0.08848,-0.1328 0.132835,-0.1771 0.04423,-0.0441 0.08852,-0.0885 0.132786,-0.1328 0.04431,-0.0445 0.08855,-0.0445 0.132826,0 0.04431,0.0443 0.08853,0.1328 0.08853,0.2213 0.04426,0.0886 0.04426,0.17714 0.04426,0.26574 0,0.0885 0.04431,0.17702 0.04431,0.26555 0,0.0445 0,0.13289 0.04426,0.17721 0,0.0442 0.04432,0.13272 0.08858,0.3098 0.04435,0.13294 0.132823,0.30996 0.177114,0.48705 0.08849,0.1771 0.13282,0.35419 0.22134,0.57555 0.08859,0.17717 0.132805,0.35418 0.177115,0.48706 0.04427,0.13279 0.08854,0.26554 0.177099,0.48699 0.08852,0.22131 0.132786,0.44283 0.221322,0.61976 0.08863,0.17706 0.177128,0.39852 0.221408,0.57554 0.04427,0.13287 0.08853,0.22141 0.132816,0.35433 0.04417,0.0884 0.08855,0.22124 0.177134,0.26553 0.0885,0.0446 0.132786,0.17715 0.0885,0.26563 0,0.0886 -0.04432,0.17711 -0.0885,0.26569 -0.04431,0.0444 -0.13296,0.0444 -0.30995,0 -0.132776,0 -0.221408,-0.0886 -0.265684,-0.22142 -0.04427,-0.0885 -0.08853,-0.1771 -0.08853,-0.2656 0,-0.0445 -0.04431,-0.13283 -0.04431,-0.17715 -0.04422,-0.0885 -0.04422,-0.13268 -0.08852,-0.22127 -0.04427,-0.0445 -0.04427,-0.13287 -0.08851,-0.17717 -0.04427,-0.0443 -0.04427,-0.0886 -0.08858,-0.0886 0,0 -0.08853,0 -0.177082,0.0445 -0.08857,0.0443 -0.177064,0.0886 -0.265638,0.13282 -0.08854,0.0444 -0.177117,0.0444 -0.309912,0.0444 -0.17704,-0.0444 -0.354139,-0.0444 -0.531274,-0.0444 -0.177109,0 -0.354204,0 -0.487014,0.0444 -0.08853,0.0445 -0.17715,0.0445 -0.265636,0.0445 -0.08853,0 -0.132805,-0.0445 -0.177085,-0.0886 -0.04427,-0.0445 -0.08853,-0.0886 -0.132855,-0.0886 -0.04427,0 -0.08853,0.0445 -0.04427,0.0886 0,0.0441 0,0.13281 0,0.1772 0,0.0884 -0.0443,0.177 -0.08854,0.30984 -0.04431,0.13284 -0.08852,0.22132 -0.177084,0.35406 -0.0443,0.0887 -0.13286,0.13295 -0.17705,0.0887 -0.13291,0 -0.17711,-0.0445 -0.22144,-0.0445 z m 0.885505,-0.44274 c 0,0.17715 -0.04431,0.3099 -0.132814,0.44274 -0.04432,0.0886 -0.13285,0.1328 -0.22141,0.2214 0,-0.0445 0,-0.0445 0.04431,-0.0445 0,-0.0445 0,-0.0445 0.04427,-0.0885 l 0.08853,-0.0442 c 0.04432,-0.0887 0.08861,-0.17715 0.132856,-0.26568 0,-0.0886 0,-0.17707 0.04431,-0.22137 z M 22.720685,4.02876 22.543573,3.63037 C 22.455113,3.40889 22.366449,3.18769 22.277935,2.96623 22.189375,2.74479 22.100851,2.52356 22.01234,2.34644 21.96803,2.25784 21.92375,2.12506 21.835239,2.03651 c -0.04435,-0.0445 -0.08856,0 -0.132836,0.0445 -0.04431,0.0444 -0.04431,0.1328 -0.08858,0.17703 -0.04421,0.0442 -0.08852,0.0885 -0.13283,0.17709 -0.04436,0.0441 -0.04436,0.0886 -0.04436,0.0886 l 0.08866,0.0885 c 0.04432,0 0.04432,0.0445 0.04432,0.0885 0,0 -0.04432,0.0885 -0.0886,0.17708 l -0.177095,0.39844 c -0.04427,0.17715 -0.13281,0.3099 -0.177006,0.44273 -0.04437,0.1327 -0.08862,0.26571 -0.08862,0.30989 0,0.0886 -0.04436,0.13282 -0.08854,0.22146 -0.04432,0.0885 -0.08858,0.13282 -0.132815,0.22131 -0.04427,0.0445 -0.08855,0.1328 -0.08855,0.17705 0,0.0445 0,0.0886 0,0.0886 0.0443,0.0442 0.08855,0.0442 0.177085,0.0442 0.08849,0 0.22144,0 0.30992,-0.0442 0.08853,-0.0444 0.22127,-0.0444 0.309936,-0.0886 0.08852,-0.0443 0.132796,-0.0443 0.132796,0 0.132784,0.0445 0.30992,0.0886 0.442744,0.0445 0.08853,0 0.132769,0 0.221324,0.0444 l 0.2214,0.0441 c 0.04432,0 0.132779,0 0.177111,0 0.04427,0 0.08852,-0.0441 0.08852,-0.0884 0.04431,-0.13285 0.04431,-0.22142 0,-0.35427 0,-0.0885 -0.04431,-0.22128 -0.08852,-0.30992 z m -1.903766,1.63812 c 0.221351,-0.0445 0.44275,-0.0445 0.664076,-0.0445 h 0.48703 c 0.132826,0 0.265594,0 0.398424,0.0445 z m 0.53125,-1.5495 c 0.04437,-0.13281 0.08847,-0.26582 0.132826,-0.39852 0,-0.0885 0.04431,-0.22128 0.0886,-0.30997 0,-0.0885 0.04421,-0.13276 0.132804,-0.17701 -0.04431,0.0445 -0.04431,0.13282 -0.04431,0.17701 0,0.0887 -0.04433,0.17715 -0.08851,0.22148 0,0.0445 -0.04431,0.0885 -0.04431,0.13275 0,0.0445 -0.04431,0.0884 -0.08866,0.17716 z m 0.132826,0.17703 h 0.0886 c 0.04421,0 0.08851,0 0.132804,0 0.04427,0 0.08849,0 0.132836,0.0886 0.04423,0.0446 0.04423,0.0885 0.04423,0.17706 z m 2.567888,0.92977 c -0.04431,0 -0.04431,-0.0885 -0.08857,-0.22133 -0.04421,-0.13278 -0.08852,-0.26572 -0.177171,-0.487 C 23.694682,4.29441 23.650387,4.11738 23.561873,3.85156 23.473373,3.58604 23.384743,3.3647 23.296207,3.09909 23.074858,2.52356 22.853488,1.81513 22.587868,1.06237 c 0.309931,0.79699 0.575554,1.50541 0.841201,2.16951 l 0.265614,0.79688 c 0.08846,0.26565 0.177106,0.48709 0.221418,0.66418 0.0885,0.17713 0.132786,0.30991 0.132786,0.44274 0,0.13276 0.04426,0.13276 0,0.0885 z"
     inkscape:connector-curvature="0"
     style="stroke-width:0.44273338" />
  <path
     id="path28"
     d="m 28.476192,0.79684 h 0.17711 c 0.04431,0 0.08855,0 0.177085,0 0.04426,0 0.132836,-0.0444 0.177106,-0.0444 h 0.30994 c 0.08849,0 0.177094,0 0.2656,-0.0442 0.04431,0 0.08857,-0.0443 0.177138,-0.0443 0.08852,-0.0446 0.132802,-0.0885 0.221336,-0.0885 0.08856,0 0.17705,0 0.265599,0.0441 0.08858,0.0445 0.132935,0.13293 0.177106,0.22144 0.08859,0.17709 0.08859,0.35423 0.04432,0.53125 -0.04432,0.1328 -0.132824,0.17708 -0.265634,0.22141 -0.08857,0 -0.132807,0 -0.221371,0.0444 -0.04422,0 -0.08853,0 -0.132819,-0.0444 -0.04431,-0.0445 -0.177086,-0.0886 -0.265656,-0.0886 l -0.265599,0.0442 -0.0886,0.0445 c -0.04422,0 -0.08853,0 -0.177,0 -0.04436,0 -0.13296,0 -0.177165,-0.0445 -0.04425,-0.0442 -0.08858,-0.0442 -0.177076,-0.0442 h -0.221398 l -0.08855,3.85182 0.04427,0.30988 c 0.0443,0.0886 0.0443,0.13284 0.0443,0.22146 0,0.0442 0,0.0885 -0.0443,0.13275 -0.04427,0.0444 -0.132791,0.0885 -0.177111,0.13285 -0.08848,0.0444 -0.132773,0.0444 -0.22129,0.0444 -0.04431,0 -0.1329,-0.0885 -0.177109,-0.26558 -0.08859,-0.22134 -0.08859,-0.48692 -0.04436,-0.70836 0,-0.17708 0.04436,-0.39845 0.08854,-0.70832 0.04431,-0.30997 0.04431,-0.6643 0.08858,-0.97402 0.04433,-0.30996 0.04433,-0.61986 0.04433,-0.92976 0,-0.1771 0,-0.3542 0,-0.53121 0,-0.0887 -0.04433,-0.17715 -0.04433,-0.22151 0,-0.0885 0,-0.17704 -0.0443,-0.26556 0,-0.0886 -0.04431,-0.13288 -0.08851,-0.22141 0,-0.0441 -0.04435,-0.0885 -0.13282,-0.0885 -0.132749,0 -0.22141,0 -0.22141,0.0443 -0.04431,0.0442 -0.08852,0.0885 -0.132849,0.0885 -0.04426,0 -0.08847,0 -0.13278,0 h -0.221416 -0.221318 c -0.04431,0 -0.08851,0 -0.132805,-0.0445 -0.08867,-0.0441 -0.132801,-0.13284 -0.221411,-0.22133 -0.08852,-0.0887 -0.132803,-0.17711 -0.132803,-0.30992 0,-0.0441 0,-0.13281 0.04431,-0.17709 0,-0.0445 0.08852,-0.0445 0.177128,-0.0445 l 0.309895,0.0445 0.61979,0.0444 c 0.22137,0 0.44272,0.0441 0.619815,0.0441 z m 0.354195,0.974 c 0,-0.0441 0.08848,-0.0441 0.177106,-0.0441 h 0.30994 l 0.354169,0.0441 c 0.132765,0 0.221371,0.0445 0.309905,0.0445 0.1328,0 0.265599,-0.0445 0.35418,-0.13281 0.04435,-0.0442 0.08853,-0.0885 0.132826,-0.13286 0,0.0445 -0.04432,0.0887 -0.08847,0.13286 -0.04437,0.0445 -0.132935,0.13281 -0.221484,0.17704 -0.08849,0 -0.132789,0.0446 -0.22126,0.0446 l -0.354264,0.0444 c -0.132786,0 -0.221446,0 -0.354206,0 h -0.177 c -0.04436,0 -0.0886,0.0442 -0.0886,0.0886 v 0.48705 l -0.04436,1.01828 c 0,0.39844 0,0.75257 0,1.1511 0,0.39834 0,0.66406 0,0.84126 0,0.13269 0,0.26553 0,0.39833 0,0.0446 -0.04423,0.13283 -0.04423,0.1771 -0.04426,0.0445 -0.04426,0.0885 -0.08858,0.0885 0,-0.0443 0.04431,-0.0443 0.04431,-0.0885 0.04427,-0.0885 0.04427,-0.13275 0.04427,-0.2213 V 5.66755 c 0,-0.13269 0,-0.30989 0,-0.48701 0,-0.17702 0,-0.39849 0,-0.66404 0,-0.26563 0,-0.48709 0,-0.75271 -0.08858,-0.57544 -0.04427,-1.23957 -0.04427,-1.99229 z"
     inkscape:connector-curvature="0"
     style="stroke-width:0.44273338" />
  <path
     id="path30"
     d="m 35.781335,1.10676 c 0.04421,0 0.08852,0 0.132796,0 0.04431,0 0.08852,0 0.132831,0 0.04431,0 0.08853,0 0.08853,0.0444 0.04427,0.0445 0.04427,0.0885 0.04427,0.13286 0,0.0444 0,0.13277 0,0.17701 0,0.0886 0,0.17723 -0.04427,0.26571 V 1.46103 c 0,-0.0441 0,-0.13275 0,-0.17701 -0.04427,-0.0885 -0.132849,-0.17712 -0.265639,-0.17712 -0.132852,0 -0.221342,0 -0.221342,0.0442 0,0.0445 -0.04431,0.0445 0,0.0885 0.04427,0.0446 0.08849,0.0446 0.132821,0.0886 0.132796,0.0442 0.221311,0.17704 0.221311,0.30998 0.04433,0.0885 0,0.17701 -0.04423,0.22123 -0.04431,0.0445 -0.132901,0.13282 -0.17711,0.17716 -0.08858,0.0885 -0.177124,0.0885 -0.265565,0.0446 -0.08867,0 -0.17719,-0.0446 -0.221515,-0.0887 -0.08847,-0.0441 -0.177039,-0.0441 -0.265574,0 -0.04431,0.0445 -0.08861,0.0887 -0.08861,0.13288 v 0.26556 l -0.04421,2.83356 V 5.4459 c 0,0.0886 0,0.17703 0,0.26559 0,0.0885 0,0.17713 0,0.26568 0,0.0885 0,0.13276 0.04421,0.13276 0.04433,0 0.08861,-0.0442 0.177141,-0.0885 0.04427,-0.0441 0.132808,-0.0886 0.177039,-0.0886 0.04437,0 0.08857,0.0446 0.132845,0.0886 0.08867,0.0444 0.132837,0.0885 0.177111,0.0444 0.08854,-0.0444 0.221333,0 0.309919,0.0886 0.04431,0.0885 0.04431,0.1771 0.04431,0.26565 -0.04431,0.0885 -0.08859,0.22123 -0.132902,0.3099 -0.04421,0.0886 -0.177029,0.1771 -0.265607,0.1771 -0.132837,0 -0.221357,0 -0.354151,-0.0445 -0.08857,0 -0.221395,-0.0443 -0.39847,-0.0443 l -0.398495,-0.0443 c -0.132797,0 -0.309914,0 -0.531251,0 -0.221414,0 -0.354209,0 -0.354209,-0.0445 -0.04433,-0.0445 -0.04433,-0.0445 0,-0.0886 0.04431,-0.0441 0.04431,-0.13273 0.08856,-0.17697 0.04426,-0.0444 0.08854,-0.0886 0.132829,-0.1771 0.0443,-0.0445 0.08856,-0.0887 0.08856,-0.0887 0.04426,0 0.132778,0 0.17706,0.0446 0.04422,0.0445 0.132835,0.0445 0.177174,0 0.08848,-0.0446 0.13278,-0.0885 0.176995,-0.17711 0.04432,-0.0885 0.04432,-0.17704 0.08861,-0.26563 V 5.31298 c 0,-0.26565 0,-0.6198 0,-0.97406 0,-0.35411 0,-0.66401 0,-0.97398 0,-0.30989 0,-0.48701 0,-0.61991 0.04413,-0.30982 -0.04431,-0.57548 -0.177121,-0.84108 -0.04431,-0.0446 -0.08848,-0.0446 -0.177117,-0.0446 H 33.83327 c -0.08856,0 -0.17715,-0.0442 -0.221388,-0.0442 -0.04433,-0.0445 -0.08856,-0.0885 -0.04433,-0.22133 0,-0.0886 0.04433,-0.17714 0.08852,-0.22142 0.04433,-0.0441 0.132873,-0.0441 0.177152,-0.0885 0.0885,0 0.132778,0 0.221283,0 0.04432,0 0.132952,0 0.177136,0 l 0.309914,0.0443 c 0.132821,0 0.309896,0 0.442751,0 0.132825,0 0.265636,-0.0443 0.354189,-0.13279 0.04427,-0.0445 0.08852,-0.0886 0.132816,-0.13299 0.04441,0 0.08854,-0.0442 0.132815,-0.0884 0.04431,-0.0446 0.132796,-0.0446 0.177125,-0.0446 0.08852,0 0.08852,0.0446 0.08852,0.0886 0,0.0441 -0.04432,0.0441 -0.08852,0.0441 0.04421,0.0446 0,0.0446 0,0.0446 z M 34.320321,0.92962 c 0.132825,-0.0441 0.22132,-0.0441 0.35414,-0.0441 0.177074,0 0.35422,0.0441 0.531325,0.0441 0.177035,0.0445 0.442728,0.0445 0.708345,0.0445 z m 1.018259,3.05495 c 0,0.35411 0,0.70837 0,0.97397 0,0.17714 0,0.3542 0,0.53126 0,0 0,0.0446 0,0.0446 0,0 0,0.0443 0,0.0443 0,0 0,0.0444 0.04427,0.0444 h -0.08857 l 0.04435,-3.05486 z m 0.08852,1.77087 c 0,-0.0886 0.08867,-0.13281 0.132836,-0.0886 0,0 0,0 0.04427,0 0.132793,0.0445 0.221333,0.0886 0.309919,0.17715 0.132831,0.0444 0.17711,0.17707 0.17711,0.30991 0,0.0885 0,0.17711 0,0.26565 0,0.0445 0,0 0,-0.0445 0,-0.0444 0,-0.13281 0,-0.17716 0,-0.0443 -0.04431,-0.13276 -0.0886,-0.17701 -0.04421,-0.0441 -0.08851,-0.0886 -0.132789,-0.13276 h -0.08852 c -0.04435,0 -0.08858,0 -0.177124,0 -0.04426,0 -0.08844,0 -0.132816,0 -0.04433,0 -0.08857,0 -0.08857,-0.0444 0,-0.0445 0.04431,-0.0886 0.04431,-0.0886 0,0 0,0 0,0 z"
     inkscape:connector-curvature="0"
     style="stroke-width:0.44273338" />
  <path
     id="path32"
     d="m 43.706263,1.41666 c -0.04437,0.0885 -0.04437,0.1328 -0.08856,0.22146 -0.04426,0.0885 -0.08854,0.13272 -0.132828,0.22124 -0.04417,0.0446 -0.04417,0.13282 -0.08855,0.17715 -0.04431,0.0885 -0.08856,0.17713 -0.132804,0.30993 -0.04431,0.0885 -0.08855,0.22134 -0.1328,0.35418 -0.04431,0.0885 -0.04431,0.17707 -0.08857,0.26561 -0.04422,0.0886 -0.08853,0.26565 -0.177136,0.53135 l -0.30984,0.92982 c -0.0886,0.35399 -0.221419,0.61969 -0.309914,0.88534 -0.08859,0.26563 -0.177115,0.39846 -0.177115,0.4427 -0.04432,0.0443 -0.04432,0.0886 -0.04432,0.13291 0,0.0885 0,0.17701 0,0.26559 0,0.0885 -0.04437,0.17711 -0.08853,0.26565 -0.04433,0.0445 -0.132819,0.0885 -0.221371,0.0885 -0.04425,0 -0.132854,0 -0.177103,-0.0443 -0.04431,-0.0445 -0.132852,-0.0886 -0.177075,-0.13282 -0.04437,-0.0441 -0.08857,-0.0886 -0.132817,-0.13294 -0.04431,-0.0442 -0.04431,-0.0885 -0.08859,-0.13275 l -0.1328,-0.30992 -0.177094,-0.487 C 40.784176,5.17976 40.695621,4.95845 40.607094,4.60424 40.518494,4.25013 40.34147,3.89589 40.208666,3.45319 40.075745,3.05473 39.942988,2.65627 39.81014,2.30201 39.677345,1.94784 39.632969,1.72653 39.588811,1.59371 c -0.04433,-0.17714 0,-0.39843 0.04415,-0.57557 0.08867,-0.13281 0.177171,-0.1771 0.31002,-0.1771 0.132756,0.0445 0.08856,0.0445 0.132756,0.13281 0.04431,0.0884 0.08863,0.1771 0.132921,0.2656 0.04427,0.0886 0.04427,0.17712 0.04427,0.30992 0,0.0887 0,0.13286 0,0.22139 0,0.17708 0.04425,0.35421 0.08855,0.48703 0.08848,0.22134 0.132804,0.48692 0.22133,0.75265 0.04429,0.17716 0.08866,0.30989 0.17709,0.48705 0.08855,0.1771 0.1328,0.35398 0.221333,0.53118 0.0886,0.17713 0.132921,0.30992 0.177116,0.44276 0.04431,0.0886 0.08859,0.17706 0.132834,0.26562 0.04422,0.0886 0.04422,0.13293 0,0.2214 0,0.0445 0,0.13274 0,0.17714 0.04422,0.0885 0.08857,0.17707 0.132795,0.2656 0.04433,0.13292 0.08857,0.17709 0.132852,0.17709 0.08853,-0.0443 0.13283,-0.13275 0.177102,-0.22137 l 0.221372,-0.48693 c 0.04421,-0.0887 0.13282,-0.30998 0.265629,-0.61985 0.132801,-0.30994 0.221249,-0.61984 0.354221,-0.97409 0.132798,-0.35415 0.2213,-0.66405 0.309839,-0.97403 0.08861,-0.17704 0.13292,-0.39838 0.13292,-0.61978 0,-0.17713 0.08849,-0.35417 0.132786,-0.48695 0.04426,-0.0886 0.132799,-0.17714 0.221314,-0.22143 0.04431,0 0.08867,0 0.132841,0.0444 0.04431,0.0441 0.08858,0.0441 0.13283,0.0885 0.04427,0.0442 0.08856,0.13277 0.132785,0.17712 -0.04423,0.0444 -0.04423,0.0885 -0.04423,0.13277 z m -2.302271,2.74492 c 0,-0.0441 -0.0442,-0.0885 -0.0442,-0.13282 -0.04436,-0.0885 -0.04436,-0.1772 -0.08857,-0.3099 0,-0.0442 -0.04427,-0.17702 -0.132834,-0.44273 C 41.049878,3.01052 40.961273,2.74479 40.872739,2.43497 L 40.518544,1.28389 c 0.04433,0.17702 0.132964,0.35423 0.221393,0.53124 0.08856,0.17705 0.08856,0.26573 0.132802,0.39851 0,0.0885 0.04435,0.1328 0.08853,0.22133 0,0.13281 0.04432,0.22139 0.0886,0.35419 0.04429,0.17707 0.08851,0.35415 0.177102,0.57554 0.04427,0.22134 0.08847,0.39842 0.132818,0.53126 0,0.0445 0.0442,0.17714 0.0442,0.26562 z m 2.523597,-2.61212 c 0,0.13286 -0.04422,0.3099 -0.08853,0.44272 l -0.309902,0.92979 c -0.132839,0.35416 -0.265643,0.7527 -0.398443,1.15113 -0.132786,0.39842 -0.309895,0.79697 -0.442746,1.15108 -0.1328,0.35419 -0.26577,0.70835 -0.354219,0.92976 -0.04431,0.17711 -0.132801,0.30993 -0.221279,0.44271 -0.04437,0.0441 -0.08863,0.0885 -0.132951,0.13284 L 41.8025,6.77399 c -0.04427,0.0443 -0.132826,0.0443 -0.177121,0.0443 L 41.8025,6.72969 c 0.04426,0 0.04426,-0.0446 0.04426,-0.13284 0,-0.0445 0,-0.0445 0,-0.0885 h 0.04431 c 0.04431,0 0.0885,0 0.132822,-0.0445 0.04431,-0.0445 0.132819,-0.0886 0.132819,-0.17709 0.04431,-0.0887 0.08859,-0.17715 0.132806,-0.3099 0.04431,-0.0885 0.0886,-0.17715 0.0886,-0.26569 l 0.177099,-0.53132 c 0.08851,-0.22133 0.17707,-0.48693 0.265652,-0.75246 0.0885,-0.26584 0.221322,-0.53144 0.309894,-0.79704 0.221315,-0.53128 0.486984,-1.28394 0.796876,-2.08091 z"
     inkscape:connector-curvature="0"
     style="stroke-width:0.44273338" />
  <path
     id="path34"
     d="m 49.063297,2.30209 h -1.106794 c -0.265616,0 -0.619841,0 -0.92978,0 -0.04433,0.0885 -0.04433,0.22147 -0.04433,0.30998 v 0.53124 0.70825 c 0.08859,0 0.13281,0 0.221426,0 0.08851,0 0.132802,0 0.221318,0 0.04432,0 0.08859,0 0.177115,-0.0441 0.04433,0 0.132795,0 0.177101,0.0441 l 0.265614,0.0446 c 0.08862,0 0.177105,0 0.26566,0 h 0.17708 c 0.08868,0 0.221414,-0.0446 0.309895,-0.0885 0.08854,-0.0445 0.221455,-0.0445 0.309971,-0.0445 0.08852,0.0445 0.17709,0.0884 0.221308,0.0884 0.08857,0.0446 0.132851,0.13301 0.08857,0.26582 0,0.13283 -0.04427,0.2213 -0.08857,0.35414 -0.04422,0.0886 -0.132785,0.1328 -0.265624,0.1328 -0.08852,0 -0.17712,0 -0.265655,0 l -0.132791,-0.0885 c -0.08843,0 -0.132807,-0.0445 -0.2214,-0.0445 h -0.354114 -0.531411 c -0.08845,0.0445 -0.13274,0.0445 -0.221255,0 -0.04433,-0.0441 -0.132804,-0.0441 -0.17711,0 -0.04431,0 -0.04431,0.0445 -0.08853,0.17706 0,0.0885 -0.04431,0.22148 -0.04431,0.35427 0,0.13283 0,0.22133 0,0.35415 0,0.0886 0,0.1328 0,0.22137 0.04431,0.0885 0.04431,0.13282 0.04431,0.22136 0,0.0886 0,0.1328 0,0.1328 0,0.0446 -0.04431,0.13283 -0.04431,0.17709 -0.04431,0.0885 0,0.13284 0.04431,0.17716 0.04423,0.0441 0.132836,0.0441 0.26564,0 0.08852,-0.0445 0.177106,-0.0445 0.26563,-0.0445 0.04431,0 0.132796,0 0.265645,0.0445 l 0.486969,0.0441 0.48708,0.0444 c 0.08852,0 0.221311,0 0.309905,0 0.17703,-0.0444 0.35413,-0.0885 0.531285,-0.13281 0.13278,-0.0446 0.309906,-0.0885 0.442704,-0.0446 0.08853,0.0446 0.177124,0.13296 0.177124,0.26576 0,0.13278 0.04413,0.2213 0.04413,0.3542 -0.04413,0.0885 -0.08845,0.17703 -0.221243,0.26555 -0.08848,0.0445 -0.177068,0.0886 -0.265629,0.0886 -0.04432,0 -0.132823,0 -0.177075,0 L 49.417473,7.12758 49.15187,7.08308 c -0.04431,0 -0.132794,-0.0445 -0.177113,-0.0445 h -0.3542 -0.708396 l -0.708323,-0.0444 h -0.354225 c -0.08853,-0.0445 -0.17706,-0.0885 -0.17706,-0.17702 -0.04431,-0.0444 -0.04431,-0.13291 -0.08858,-0.17724 0,0 0,-0.0885 0,-0.22124 0,-0.13282 0,-0.30996 -0.04431,-0.48707 -0.04426,-0.17709 0,-0.35415 -0.04426,-0.53123 -0.04437,-0.17712 0,-0.26562 0,-0.35421 0,-0.13281 0,-0.30996 0.04426,-0.44276 0.04431,-0.13279 0.04431,-0.26563 0.08856,-0.30991 0,-0.0885 0,-0.13284 0,-0.22132 0,-0.0885 0,-0.22153 0,-0.35422 0,-0.13282 0,-0.2213 -0.04427,-0.35418 -0.04431,-0.13282 0,-0.22139 0,-0.30989 0,-0.0886 0,-0.17711 0,-0.35419 0,-0.17706 0.04427,-0.31 0.04427,-0.44274 0,-0.13282 0.04431,-0.30996 0.08854,-0.44275 0,-0.0885 0.04431,-0.177 0.13282,-0.22133 0.08858,-0.0445 0.221388,-0.0445 0.30992,-0.0445 h 0.48705 l 0.531266,0.0445 h 0.309878 c 0.08868,0 0.132831,0 0.221414,0 0.08848,0 0.177015,0 0.309936,-0.0445 l 0.265605,-0.0443 c 0.08852,0 0.132791,-0.0445 0.221319,-0.0445 0.08863,-0.0442 0.177155,-0.0442 0.221407,-0.0885 0.08853,0 0.17702,0 0.221385,0.0445 0.08858,0.0441 0.17707,0.1328 0.221363,0.22146 0.04427,0.0885 0.08849,0.22124 0.04427,0.3098 0,0.0886 -0.04427,0.17713 -0.08853,0.2214 -0.04431,0.0886 -0.177067,0.13276 -0.265629,0.13276 -0.132824,0.0446 -0.265605,0.0446 -0.398479,0 -0.132852,-0.0441 -0.265637,0 -0.398476,0 z m -0.75263,0.26569 -0.354164,0.0442 c -0.08857,0.0445 -0.17711,0.0445 -0.265616,0.0445 -0.04431,0 -0.08859,0 -0.13297,0.0441 -0.04416,0.0444 -0.04416,0.0885 -0.04416,0.22136 0,0.13284 0.04416,0.22133 0.04416,0.35415 0,0.0886 0.08869,0.13277 0.13297,0.13277 l 0.265616,0.0446 c 0.0885,0 0.132825,0.0445 0.221363,0.0445 h 0.08856 c -0.08856,0 -0.132802,0 -0.221421,0 -0.132825,0 -0.265614,0 -0.35412,0.0443 h -0.531332 c 0,-0.0443 0.04431,-0.0886 0.04431,-0.0886 0,-0.0445 0,-0.13286 0,-0.17714 V 2.87808 c 0,-0.0885 0,-0.1771 0.04437,-0.30991 z m -1.106808,2.21361 c 0.04435,0.0887 0.04435,0.13289 0.08851,0.22146 0.04433,0.0884 0.04433,0.17702 0.04433,0.26559 0,0.0886 0,0.22136 0.04431,0.35419 0.04423,0.13281 0,0.2214 0,0.26572 0,0.0441 0,0.0441 0.04423,0.0441 0.04432,0 0.04432,-0.0441 0.08859,-0.0441 l -0.2214,0.0441 c 0,-0.17708 0,-0.35418 0,-0.48692 0,-0.13286 0,-0.26574 0,-0.39852 0,-0.13281 -0.08851,-0.22136 -0.08851,-0.2657 z m 0.309909,0.17715 c 0,0 0,0 0.04416,0 0.08868,0 0.13297,-0.0442 0.221476,-0.0442 l 0.265614,-0.0444 c 0.08862,0 0.13286,0 0.177104,0.0444 h -0.08849 c -0.08862,0 -0.177123,0 -0.26569,0.0442 l -0.265644,0.0445 z m 1.416735,-1.46096 c 0.04427,0 0.08859,0.0443 0.132794,0.0443 0.08859,0.0444 0.132839,0.0885 0.177045,0.17701 z"
     inkscape:connector-curvature="0"
     style="stroke-width:0.44273338" />
  <path
     id="path36"
     d="m 61.725501,1.63812 h 0.17712 0.17715 l 0.177,-0.0444 h 0.26565 c 0.13286,0 0.3099,-0.0445 0.44268,-0.0886 0.0886,-0.0445 0.13296,-0.0445 0.22141,-0.0885 0.0885,0 0.17711,0 0.26564,0.0441 0.0886,0.0445 0.13281,0.13288 0.17713,0.2214 0.0885,0.17704 0.0885,0.3542 0.0442,0.53133 -0.0442,0.13279 -0.13276,0.17698 -0.26576,0.22133 -0.0884,0 -0.17694,0 -0.22126,0.0443 -0.0444,0 -0.0884,0 -0.13281,-0.0443 -0.0443,-0.0446 -0.17711,-0.0885 -0.26563,-0.0885 l -0.26564,0.0441 -0.0886,0.0446 c -0.0445,0 -0.0885,0 -0.17709,0 -0.0444,0 -0.13283,0 -0.177,-0.0446 -0.0446,-0.0441 -0.0886,-0.0441 -0.17714,-0.0441 h -0.2214 l -0.0885,3.89603 0.0446,0.30989 c 0.0443,0.0445 0.0443,0.13281 0.0443,0.22144 0,0.0443 0,0.0885 -0.0443,0.1328 -0.0446,0.0441 -0.13298,0.0885 -0.17716,0.13282 -0.0886,0.0444 -0.13286,0.0444 -0.22138,0.0444 -0.0885,-0.0444 -0.13292,-0.13282 -0.17719,-0.26556 -0.0885,-0.22142 -0.0885,-0.48701 -0.0444,-0.70843 0,-0.1771 0.0444,-0.39843 0.0444,-0.70835 0.0443,-0.35419 0.0443,-0.66415 0.0887,-0.97388 0,-0.31002 0.0443,-0.61994 0.0443,-0.92982 0,-0.17716 0,-0.35428 0,-0.53135 0,-0.0885 -0.0443,-0.17708 -0.0443,-0.22144 0,-0.0884 0,-0.17701 -0.0446,-0.26557 0,-0.0886 -0.0443,-0.13278 -0.0443,-0.22134 0,-0.0444 -0.0444,-0.0886 -0.13276,-0.0886 -0.13287,0 -0.22135,0 -0.22135,0.0445 -0.0443,0.0444 -0.0887,0.0884 -0.13284,0.0884 -0.0444,0 -0.0886,0 -0.1328,0 h -0.22136 -0.22138 c -0.0445,0 -0.0885,0 -0.13285,-0.0442 -0.0885,-0.0444 -0.1328,-0.13282 -0.22137,-0.22137 -0.0885,-0.0886 -0.13286,-0.17714 -0.17709,-0.3099 0,-0.0445 0,-0.13281 0.0444,-0.17715 0,-0.0441 0.0886,-0.0441 0.17715,-0.0441 l 0.30992,0.0441 0.61973,0.0445 0.61995,0.0444 z m 0.35427,0.97395 c 0,-0.0443 0.0885,-0.0443 0.177,-0.0443 h 0.30989 c 0.13284,0 0.26566,0 0.35422,0.0443 0.13282,0 0.22134,0 0.30994,0 0.1328,0 0.26565,-0.0443 0.35414,-0.13285 0.0445,-0.0442 0.0886,-0.0886 0.13283,-0.13278 -0.0445,0.044 -0.0445,0.0885 -0.0885,0.13278 -0.0445,0.0445 -0.13281,0.13285 -0.22151,0.17714 -0.0884,0 -0.13272,0.0441 -0.22126,0.0441 l -0.35419,0.0444 c -0.13282,0 -0.22136,0 -0.35418,0 h -0.22137 c -0.0445,0 -0.0885,0.0444 -0.0885,0.0886 V 3.3205 l -0.0445,1.01825 c 0,0.39846 0,0.75261 0,1.15113 0,0.39852 0,0.66414 0,0.84124 0,0.13283 0,0.2656 0,0.39845 0,0.0445 -0.0444,0.13282 -0.0444,0.17709 -0.0446,0.0441 -0.0446,0.0885 -0.0886,0.0885 0,-0.0445 0.0442,-0.0445 0.0442,-0.0885 0.0446,-0.0885 0.0446,-0.13279 0.0446,-0.22142 V 6.46395 c 0,-0.13283 0,-0.30993 0,-0.48699 0,-0.17716 0,-0.39854 0,-0.66414 0,-0.26566 0,-0.48703 0,-0.75266 -0.0446,-0.57552 -0.0446,-1.19538 0,-1.94802 z"
     inkscape:connector-curvature="0"
     style="stroke-width:0.44273338" />
  <path
     id="path38"
     d="m 68.853491,2.78916 c -0.0442,0 -0.17704,0 -0.39844,0 h -0.70837 c -0.26562,0 -0.61987,0.0444 -0.92974,0.0444 0,0.0886 -0.0442,0.22142 -0.0442,0.30992 v 0.53136 0.70835 c 0.0884,0 0.13269,0 0.22116,0 0.0886,0 0.13284,0 0.2215,0 0.0445,0 0.0885,0 0.17702,-0.0445 0.0442,0 0.1328,0 0.17711,0 l 0.22137,0.0445 c 0.0886,0 0.17706,0 0.26563,0.0446 h 0.17712 c 0.0885,0 0.22133,-0.0446 0.30975,-0.0887 0.0887,-0.0443 0.22151,-0.0443 0.31002,-0.0443 0.0886,0.0443 0.1771,0.0886 0.22141,0.0886 0.0885,0.0446 0.13281,0.13281 0.0885,0.26555 0,0.13281 -0.0441,0.2215 -0.0441,0.35428 -0.0445,0.0884 -0.13296,0.13281 -0.26573,0.13281 -0.0885,0 -0.17704,0 -0.26562,0 l -0.17713,-0.0886 c -0.0885,0 -0.13281,-0.0444 -0.22129,-0.0444 h -0.35424 -0.53125 c -0.0885,0.0444 -0.13287,0.0444 -0.22143,0 -0.0886,-0.0445 -0.13275,-0.0445 -0.17703,0 -0.0443,0.0444 -0.0443,0.0444 -0.0886,0.17702 -0.0443,0.13287 -0.0443,0.2214 -0.0443,0.35432 0,0.13269 0,0.22125 0,0.35413 0,0.13277 0,0.17704 0.0443,0.2213 0.0444,0.0885 0.0444,0.13284 0.0444,0.22142 v 0.13283 c 0,0.0443 -0.0444,0.13277 -0.0444,0.17695 -0.0443,0.0887 0,0.13297 0.0444,0.17724 0.0444,0.0441 0.13275,0.0441 0.26559,0 0.0887,-0.0444 0.17716,-0.0444 0.26568,-0.0444 0.0444,0 0.13281,0 0.26567,0.0444 l 0.48698,0.0441 0.48704,0.0445 c 0.0885,0 0.22132,0 0.30989,0 0.17716,-0.0445 0.35414,-0.0885 0.53124,-0.1328 0.13285,-0.0445 0.3099,-0.0886 0.44277,-0.0445 0.0886,0.0445 0.1771,0.13282 0.1771,0.2656 0,0.13285 0.0445,0.22151 0.0445,0.3542 -0.0445,0.0885 -0.0886,0.17705 -0.22139,0.26567 -0.0885,0.0445 -0.17708,0.0885 -0.26564,0.0885 -0.0444,0 -0.13282,0 -0.17714,-0.0444 l -0.26558,-0.0446 -0.26566,-0.0445 c -0.0444,0 -0.13278,-0.0446 -0.17707,-0.0446 h -0.35424 -0.70835 l -0.70843,-0.0444 h -0.44269 c -0.0885,-0.0445 -0.17711,-0.0886 -0.17711,-0.17707 -0.0441,-0.0445 -0.0441,-0.13286 -0.0885,-0.17713 0,0 0,-0.0885 0,-0.22133 0,-0.13282 0,-0.30994 -0.0446,-0.48701 -0.0446,-0.17713 -0.0446,-0.35425 -0.0446,-0.53125 0,-0.17714 0,-0.26572 0,-0.35416 0,-0.1329 0.0446,-0.31001 0.0446,-0.44289 l 0.0887,-0.30989 c 0,-0.0885 0,-0.13281 0,-0.22132 0,-0.0886 0,-0.22139 0,-0.3542 0,-0.1328 0,-0.22132 -0.0445,-0.35431 0,-0.0885 0,-0.22121 0,-0.30974 0,-0.0886 0,-0.17714 0,-0.35415 0,-0.17716 0.0445,-0.31 0.0445,-0.4429 0,-0.13272 0.0441,-0.30982 0.0885,-0.4427 0,-0.0884 0.0445,-0.17704 0.13278,-0.22122 0.0885,-0.0445 0.22153,-0.0445 0.30995,-0.0445 h 0.48696 l 0.53133,0.0445 c 0.17702,0 0.26555,0 0.30987,0 0.0885,0 0.1328,0 0.2213,0 0.0886,0 0.22142,0 0.3099,-0.0445 l 0.26562,-0.0445 c 0.0886,0 0.13296,-0.0441 0.22144,-0.0441 0.0885,-0.0444 0.17709,-0.0885 0.26559,-0.0885 0.0887,0 0.17716,0 0.22145,0.0445 0.0885,0.0444 0.177,0.13282 0.22132,0.22134 0.0445,0.0886 0.0886,0.2214 0.0445,0.30991 0,0.0886 -0.0445,0.1771 -0.0886,0.22141 -0.0444,0.0884 -0.177,0.13279 -0.2656,0.13279 -0.13284,0.0443 -0.26564,0.0443 -0.39843,0 -0.0885,-0.0445 -0.22145,0 -0.35422,0 z m -0.75267,0.26565 c -0.1328,0 -0.26561,0.0442 -0.35414,0.0442 -0.0885,0.0443 -0.17708,0.0443 -0.26562,0.0443 -0.0445,0 -0.0886,0 -0.13281,0.0446 -0.0445,0 -0.0445,0.0884 -0.0445,0.22121 0,0.13295 0.0445,0.22148 0.0445,0.35423 0,0.0884 0.0884,0.13283 0.13281,0.13283 l 0.26562,0.0445 c 0.0885,0 0.1329,0.0445 0.22134,0.0445 h 0.0886 c -0.0886,0 -0.13284,0 -0.22139,0 -0.13282,0 -0.26561,0 -0.35415,0.0441 h -0.53128 c 0,-0.0441 0.0441,-0.0885 0.0441,-0.0885 0,-0.0445 0,-0.13282 0,-0.17715 V 3.36521 c 0,-0.0886 0,-0.17702 0.0446,-0.3099 z m -1.10685,2.21363 c 0.0446,0.0886 0.0446,0.13284 0.0886,0.22136 0.0443,0.0886 0.0443,0.17708 0.0443,0.26564 0,0.0886 0,0.22144 0.0445,0.35419 0.0445,0.13284 0,0.22142 0,0.26564 0,0.0446 0,0.0446 0.0445,0.0446 0.0444,0 0.0444,0 0.0444,-0.0446 l -0.22134,0.0446 c 0,-0.17713 0,-0.35424 0,-0.48707 0,-0.1328 -0.0446,-0.26564 -0.0446,-0.39833 0,-0.13292 0,-0.22145 0,-0.26575 z m 0.26571,0.13284 c 0,0 0,0 0.0443,0 0.0885,0 0.13272,-0.0441 0.22132,-0.0441 l 0.26568,-0.0444 c 0.0886,0 0.13279,0 0.17705,0.0444 h -0.0885 c -0.0886,0 -0.17718,0 -0.26574,0 l -0.26558,0.0441 z m 1.41677,-1.41671 c 0.0444,0 0.0885,0.0443 0.13283,0.0443 0.0885,0.0446 0.13278,0.0886 0.17699,0.17712 z"
     inkscape:connector-curvature="0"
     style="stroke-width:0.44273338" />
  <path
     id="path40"
     d="m 76.025727,4.02876 c -0.0443,-0.0443 -0.0885,-0.1328 -0.0885,-0.2213 0,-0.0886 -0.0443,-0.17709 -0.0443,-0.22142 0,-0.0885 -0.0444,-0.13276 -0.0885,-0.22134 -0.0442,-0.0886 -0.0886,-0.13282 -0.132876,-0.17701 -0.0885,0 -0.13282,-0.0446 -0.22136,-0.0886 -0.13283,-0.0443 -0.26565,-0.0886 -0.39846,-0.0886 -0.13284,-0.0441 -0.30991,-0.0441 -0.44275,-0.0441 -0.0885,0 -0.17709,0 -0.26563,0 -0.0885,0.0441 -0.17715,0.0886 -0.26564,0.17708 -0.13278,0.0886 -0.26558,0.22139 -0.39854,0.35427 -0.13278,0.17709 -0.26559,0.35398 -0.3541,0.57552 -0.0886,0.26558 -0.13282,0.53123 -0.13282,0.79697 0,0.53121 0.13282,1.06246 0.48692,1.5052 0.22149,0.35422 0.57568,0.57555 0.92981,0.70835 0.13284,0.0445 0.30991,0 0.44275,-0.0444 0.13281,-0.0446 0.26563,-0.13282 0.39846,-0.22135 0.0885,-0.0886 0.17706,-0.17722 0.26565,-0.26571 0.0886,-0.0885 0.132816,-0.17708 0.177086,-0.2213 l 0.0443,-0.17711 c 0.0445,-0.0886 0.0445,-0.17707 0.0445,-0.26559 0.0443,-0.0886 0.0443,-0.17716 0.0443,-0.26572 0,-0.0884 0.0446,-0.13283 0.0446,-0.13283 0,-0.0885 0.0443,-0.1328 0.13277,-0.1328 0.0444,-0.0444 0.13279,-0.0444 0.22138,-0.0444 0.0444,0 0.0886,0.0444 0.13284,0.17706 0.0445,0.0886 0.0445,0.22139 0.0445,0.35423 -0.0445,0.0885 -0.0445,0.22132 -0.0886,0.35408 -0.0445,0.17716 -0.0885,0.35424 -0.17714,0.53138 -0.0885,0.1771 -0.22131,0.39844 -0.35411,0.53125 -0.13282,0.17709 -0.354226,0.30991 -0.575546,0.35421 -0.44274,0.13286 -0.9298,0.0885 -1.32822,-0.13282 -0.44274,-0.22139 -0.79692,-0.61982 -0.97408,-1.06254 -0.26558,-0.48707 -0.39842,-1.01832 -0.35411,-1.54953 0.0442,-0.53139 0.13284,-1.01851 0.30991,-1.50537 0.0885,-0.22139 0.22136,-0.44272 0.39849,-0.57554 0.13277,-0.1328 0.30991,-0.2656 0.487,-0.35418 0.13279,-0.0446 0.26562,-0.13288 0.39843,-0.13288 0.0885,0 0.17712,-0.0442 0.26563,-0.0442 0.0887,0 0.17711,0 0.26565,-0.0443 0.0886,0 0.1771,-0.0445 0.2657,-0.0886 0.0443,-0.0444 0.0885,0 0.0885,0 0,0 0.0443,0.0443 0.0885,0.0886 l 0.1771,0.17698 0.354196,0.35417 c 0.13282,0.1329 0.26562,0.26573 0.35415,0.39851 0.0886,0.0886 0.17711,0.2214 0.22138,0.30997 0.0443,0.13278 0.0443,0.30985 0,0.4427 -0.0443,0.0886 -0.0886,0.17712 -0.1328,0.2656 0,0 -0.0444,0.0445 -0.13277,0 0,-0.0441 -0.0886,-0.0441 -0.13294,-0.13282 z m -2.346496,0.17712 c 0.0445,-0.22131 0.13295,-0.39842 0.26575,-0.53121 0.0885,-0.13283 0.22128,-0.22139 0.30993,-0.30997 0.0885,-0.0444 0.17704,-0.0886 0.26563,-0.13282 0.0885,0 0.13278,0 0.13278,0 -0.17713,0.0885 -0.30992,0.17701 -0.44272,0.2657 -0.13283,0.13279 -0.22137,0.26554 -0.30988,0.39838 -0.13284,0.22142 -0.17714,0.44272 -0.17714,0.66412 -0.0446,0.39846 -0.0446,0.79692 0.0445,1.15112 0.0885,0.26568 0.13283,0.39843 0.13283,0.35416 0,-0.0444 -0.0445,-0.13283 -0.0885,-0.17701 -0.0445,-0.13291 -0.0886,-0.26572 -0.13295,-0.39855 -0.0444,-0.17706 -0.0885,-0.39852 -0.0885,-0.57552 -0.0445,-0.2657 0,-0.48688 0.0885,-0.7084 z m 2.789196,0.0885 c 0.0446,0 0.0887,0 0.0887,-0.0443 0.0885,-0.0444 0.13285,-0.0886 0.17709,-0.17712 0.0444,-0.13281 0.0444,-0.26564 0,-0.39842 -0.0441,-0.26578 -0.13278,-0.57558 -0.26575,-0.79698 -0.0884,-0.17708 -0.22125,-0.30992 -0.35409,-0.48707 -0.1328,-0.13274 -0.26562,-0.26557 -0.442726,-0.35411 -0.17709,-0.0886 -0.39845,-0.22138 -0.57558,-0.26566 0.0445,0 0.13289,0 0.17713,0.0445 l 0.17708,0.0886 c 0.0441,0.0444 0.13283,0.0444 0.17707,0.0885 0.177176,0.0887 0.354226,0.22146 0.487026,0.39844 0.22132,0.22144 0.39848,0.44276 0.53123,0.66418 0.13287,0.22132 0.17715,0.48704 0.17715,0.70832 0,0.13283 0,0.30997 -0.0445,0.44276 0,0.0445 -0.0444,0.0885 -0.17706,0.0885 -0.0445,0.0443 -0.0886,0.0443 -0.13296,0 z m 0.35429,1.28396 c 0,0.13283 0,0.26566 0,0.39851 0,0.13275 -0.0445,0.26559 -0.0885,0.44271 -0.0441,0.17706 -0.13278,0.35421 -0.22136,0.53123 -0.0886,0.17712 -0.22138,0.35424 -0.39848,0.48702 -0.1328,0.13282 -0.30985,0.22142 -0.487026,0.30998 -0.17707,0.0885 -0.39839,0.17708 -0.61985,0.22126 0.13295,-0.0442 0.2657,-0.0886 0.39854,-0.13276 0.13279,-0.0444 0.22131,-0.13283 0.398486,-0.22136 0.17705,-0.0886 0.30985,-0.22138 0.44269,-0.35422 0.17706,-0.1328 0.26564,-0.30992 0.35422,-0.53125 0.0885,-0.17714 0.13278,-0.35422 0.17704,-0.57555 0.0445,-0.17706 0.0445,-0.3985 0.0445,-0.57557 z"
     inkscape:connector-curvature="0"
     style="stroke-width:0.44273338" />
  <path
     id="path42"
     d="m 83.463698,2.52356 c 0.0444,0.0444 0.0444,0.1328 0,0.17706 -0.0442,0.0443 -0.0886,0.0885 -0.13276,0.0885 h -0.0886 c -0.0445,0 -0.0445,0 -0.0885,0.0444 l -0.0442,0.0445 0.0442,0.0885 c 0.0885,0.0443 0.13271,0.13285 0.13271,0.17707 0,0.0886 -0.0443,0.17712 -0.0884,0.26558 -0.0444,0.13296 -0.0886,0.22148 -0.0886,0.35424 v 0.30997 0.57547 0.70844 c 0,0.26562 0,0.48702 -0.0444,0.70835 -0.0446,0.22142 0,0.39852 0,0.57547 -0.0446,0.17724 0,0.26576 0,0.30998 0,0.0886 0,0.13282 0,0.22141 0,0.0885 0.0444,0.17707 0.0444,0.26562 0.0442,0.0885 0.0442,0.17713 0.0442,0.26565 0,0.0445 0,0.0886 0,0.177 -0.0885,0.0447 -0.17712,0.13292 -0.26562,0.1772 -0.0886,0.0441 -0.17711,0.0441 -0.26554,0.0441 0,0 -0.0446,-0.0441 -0.0446,-0.13286 -0.0445,-0.0886 -0.0445,-0.17703 0,-0.26559 0.0446,-0.0885 0.0446,-0.17715 0.0446,-0.30991 0,-0.0885 0,-0.17697 0,-0.17697 0,0 0,-0.1772 0,-0.3543 0,-0.17714 0,-0.35419 -0.0446,-0.53126 -0.0445,-0.1771 -0.0445,-0.30996 -0.0445,-0.48702 0,-0.0886 0,-0.17714 0,-0.26568 0,-0.0443 -0.0442,-0.0443 -0.0442,-0.0443 -0.0444,0 -0.0444,-0.0446 -0.0886,-0.0446 l -0.13277,-0.0441 c 0,0 -0.0445,0.0441 -0.0445,0.0441 0,0.0446 -0.0441,0.0885 -0.0886,0.0885 -0.0445,0.0444 -0.0887,0.0444 -0.13285,0.0444 h -0.35416 -0.39845 c -0.13283,0 -0.30983,0 -0.44275,-0.0444 -0.13284,0 -0.26562,-0.0443 -0.3542,-0.0443 h -0.17702 c -0.0445,0 -0.0887,0 -0.13294,-0.0446 -0.0885,0 -0.132791,0 -0.221301,0.0446 -0.0884,0.0443 -0.0884,0.13269 0,0.22125 0.0443,0.0441 0.0885,0.13289 0.0885,0.17708 0,0.0446 0,0.13283 0,0.26559 0,0.13293 -0.0444,0.31 -0.0444,0.48705 l -0.0441,0.70841 0.0885,0.13276 c 0.0442,0.0443 0.0442,0.0886 0.0886,0.13293 0,0.0444 0.0443,0.0885 0.0443,0.0885 0,0.0442 -0.0443,0.13268 -0.177056,0.22126 -0.0885,0.0886 -0.22139,0.13286 -0.30988,0.13286 -0.0443,0 -0.0886,0 -0.13285,-0.0442 -0.0443,-0.0444 -0.0443,-0.0886 -0.0886,-0.13278 -0.0442,-0.0446 -0.0442,-0.0886 -0.0442,-0.13286 0,-0.0441 -0.0444,-0.0886 0,-0.0886 V 7.34884 c 0,-0.22135 0,-0.4427 0.0442,-0.70845 0,-0.26557 0.0446,-0.4869 0.0446,-0.70832 V 5.53375 c 0,-0.0446 0,-0.1772 -0.0446,-0.39852 -0.0442,-0.26562 -0.0442,-0.4871 -0.0442,-0.75266 0,-0.26564 0,-0.53146 0,-0.75265 0,-0.17709 0,-0.35425 0.0885,-0.48707 0.0442,-0.0885 0.13278,-0.17707 0.22133,-0.22133 0.0886,-0.0441 0.17711,-0.0886 0.26565,-0.0886 0.0885,0 0.177056,0 0.265626,0 h 0.17716 c 0.0442,0 0.0442,0.0445 0.0442,0.0886 v 0.0885 l -0.0442,1.23969 c 0,-0.22147 0,-0.44276 0,-0.61984 0,-0.13279 0,-0.26567 -0.0445,-0.39849 0,-0.0886 0,-0.1328 -0.0442,-0.22136 l -0.13289,0.0445 c -0.0442,0 -0.0442,0 -0.0884,0 0,0 0,0.0443 0.0443,0.0443 0,0.0886 0.0443,0.13279 0.0443,0.22133 0,0.13286 -0.0443,0.26561 -0.0884,0.39844 -0.0446,0.0886 -0.0446,0.17709 -0.0446,0.30989 v 0.30993 c 0,0.13284 0,0.26565 0,0.39845 0,0.13294 0.0885,0.17715 0.177111,0.17715 0.0446,0 0.0446,-0.0445 0.0886,-0.0886 0,-0.0445 0.0441,-0.0886 0.0441,-0.13278 l 0.0445,-0.17709 c 0,0.0442 0,0.0885 0,0.0885 0,0.0443 0.0444,0.0886 0.0444,0.1328 0,0.0443 0.0443,0.0886 0.0443,0.13294 0,0.0885 0.0886,0.17702 0.17714,0.17702 0.13284,0.0441 0.30992,0.0441 0.44278,0.0441 0.17712,0 0.35412,0 0.53127,-0.0441 0.2214,-0.0444 0.35417,-0.0444 0.39835,0 l 0.13298,0.17709 c 0.0441,0.0443 0.0885,0.0886 0.177,0.13282 0.0445,0.0442 0.0886,0.0442 0.13282,0.0442 0.0442,-0.0442 0.0886,-0.0885 0.0886,-0.13283 0.0446,-0.0443 0.0446,-0.0886 0.0446,-0.17716 0,-0.0884 0.0443,-0.177 0.0443,-0.3099 0,-0.1328 0,-0.2213 0,-0.35398 V 4.16121 c 0,-0.0441 0,-0.13282 0,-0.22129 0,-0.0887 0,-0.22142 0,-0.30991 0,-0.0885 0,-0.22148 0,-0.30995 0,-0.0442 0,-0.13274 0.0445,-0.17712 0.0442,-0.0444 0.0886,-0.0885 0.17712,-0.13278 0.0885,-0.0442 0.17712,-0.0885 0.26562,-0.13283 0.0444,-0.22134 0.17711,-0.26563 0.30988,-0.35414 z m -3.14337,3.36479 c 0.0443,0.0441 0.0886,0.0885 0.0886,0.22128 v 0.53121 c 0,0.13296 0,0.30998 -0.0445,0.44278 0,0.13299 -0.0443,0.22144 -0.0885,0.35422 -0.0446,0.13282 -0.0446,0.22142 -0.0446,0.3542 v -0.0442 c 0,0 0,-0.0445 0,-0.0445 0,-0.0444 0,-0.0444 0.0446,-0.0885 0.0445,-0.0886 0.0445,-0.22137 0.0445,-0.35421 0,-0.1328 0,-0.22133 0,-0.35415 0,-0.0445 0,-0.0885 0,-0.22142 0,-0.13282 0,-0.26558 0,-0.3984 v -0.3099 c 0,-0.0446 0,-0.0885 0,-0.0885 z m 0.88544,-1.54967 c -0.13283,0 -0.26553,0 -0.39844,0 -0.0885,0 -0.17709,-0.0443 -0.22141,-0.0885 l 1.15119,0.0444 z m 2.30223,-0.0885 c 0,-0.0445 0,-0.0886 0,-0.17711 0,-0.0885 0,-0.17714 0,-0.30998 0,-0.13275 0,-0.26554 0,-0.4427 0,0.39844 0,0.75268 0,1.0626 0,0.26556 0,0.53126 0,0.75266 0,0.22132 0,0.35412 0,0.39852 0,0.0443 0,0.0884 -0.0445,0.13268 0,0.0445 -0.0442,0.0886 -0.0442,0.13285 0,0.0446 0,0.0886 0,0.17715 v 0.48699 0.57553 c 0,0.0444 0,0.13282 0,0.17721 0,0.0442 0,0.13269 0,0.17697 V 6.90656 6.50809 c 0,-0.0885 0,-0.17707 0,-0.26565 0,-0.0445 0,-0.13284 0,-0.17711 0,-0.0885 0,-0.17701 0,-0.26563 V 5.17984 4.87004 c 0,-0.13294 0,-0.26574 0,-0.39855 0,-0.13284 0.0885,-0.17711 0.0885,-0.22131 z"
     inkscape:connector-curvature="0"
     style="stroke-width:0.44273338" />
</svg>
