<?xml version="1.0" encoding="UTF-8" standalone="no"?>
<svg
   xmlns:dc="http://purl.org/dc/elements/1.1/"
   xmlns:cc="http://creativecommons.org/ns#"
   xmlns:rdf="http://www.w3.org/1999/02/22-rdf-syntax-ns#"
   xmlns:svg="http://www.w3.org/2000/svg"
   xmlns="http://www.w3.org/2000/svg"
   xmlns:sodipodi="http://sodipodi.sourceforge.net/DTD/sodipodi-0.dtd"
   xmlns:inkscape="http://www.inkscape.org/namespaces/inkscape"
   id="svg1037"
   viewBox="0 0 34.927891 9.0673392"
   version="1.1"
   sodipodi:docname="EDI_text.svg"
   width="0.36383221in"
   height="0.094451457in"
   inkscape:version="0.92.4 (5da689c313, 2019-01-14)">
  <metadata
     id="metadata9">
    <rdf:RDF>
      <cc:Work
         rdf:about="">
        <dc:format>image/svg+xml</dc:format>
        <dc:type
           rdf:resource="http://purl.org/dc/dcmitype/StillImage" />
        <dc:title></dc:title>
        <dc:title />
      </cc:Work>
    </rdf:RDF>
  </metadata>
  <defs
     id="defs7" />
  <sodipodi:namedview
     pagecolor="#ffffff"
     bordercolor="#666666"
     borderopacity="1"
     objecttolerance="10"
     gridtolerance="10"
     guidetolerance="10"
     inkscape:pageopacity="0"
     inkscape:pageshadow="2"
     inkscape:window-width="1715"
     inkscape:window-height="866"
     id="namedview5"
     showgrid="false"
     inkscape:pagecheckerboard="true"
     units="in"
     fit-margin-top="0"
     fit-margin-left="0"
     fit-margin-right="0"
     fit-margin-bottom="0"
     inkscape:zoom="3.94"
     inkscape:cx="48.199688"
     inkscape:cy="-36.055161"
     inkscape:window-x="119"
     inkscape:window-y="48"
     inkscape:window-maximized="1"
     inkscape:current-layer="svg1037" />
  <path
     id="path2"
     d="m 2.823505,3.0542902 -0.470544,0.0523 -0.836672,0.10458 c -0.313694,0.0523 -0.731959,0.0523 -1.097959,0.10457 0,0.10457 0,0.26143 0,0.36601 l 0.05226,0.62744 0.05231,0.8366 c 0.104588,0 0.156863,0 0.261433,-0.0523 l 0.261407,-0.0523 c 0.05228,0 0.104562,0 0.20917,-0.0523 0.05223,0 0.156858,0 0.209108,0 h 0.313786 0.313694 0.209126 c 0.104628,-0.0523 0.2092,-0.0523 0.36599,-0.10457 0.104584,-0.0523 0.261489,-0.0523 0.366064,-0.0523 0.104549,0.0523 0.20912,0.10458 0.31366,0.10458 0.104586,0.0523 0.156924,0.15686 0.156924,0.31372 0,0.15686 0,0.26144 -0.05234,0.41829 0,0.10459 -0.104586,0.15687 -0.313696,0.20916 -0.104549,0.0523 -0.209124,0.0523 -0.366029,0 l -0.209085,-0.0523 c -0.10458,0 -0.156862,0 -0.26149,0 l -0.41819,0.0523 -0.418416,0.0523 H 1.25491 c -0.05231,0.0523 -0.156892,0.0523 -0.261467,0.0523 -0.104629,0 -0.156789,0 -0.20911,0.0523 -0.05227,0.0523 -0.05227,0.0523 -0.05227,0.20914 0,0.15688 0,0.26144 0,0.4183 0,0.15687 0,0.31374 0,0.4183 0,0.10458 0,0.15686 0.05227,0.26144 0.05232,0.10458 0.05232,0.15687 0.05232,0.26144 0,0.0523 0,0.10458 0,0.15685 0,0.0523 0,0.15687 -0.05232,0.20915 -0.05227,0.10458 0,0.20915 0.05232,0.20915 0.05216,0.0523 0.156789,0.0523 0.313648,0 0.104607,-0.0523 0.209141,-0.0523 0.313715,-0.0523 0.05227,0 0.156796,0 0.366125,0 l 0.575109,0.0523 0.575117,0.0523 c 0.104566,0 0.26143,0 0.365969,-0.0523 0.209266,-0.0523 0.41839,-0.10457 0.575256,-0.20915 0.156829,-0.10456 0.313689,-0.15686 0.52282,-0.10456 0.104583,0 0.209149,0.10456 0.261445,0.26142 0.05228,0.15686 0.05228,0.26145 0.05228,0.41831 0,0.10457 -0.104575,0.26143 -0.209141,0.31372 -0.104583,0.10459 -0.209082,0.15686 -0.313714,0.15686 -0.05229,0 -0.15686,0 -0.209154,0 H 3.764727 l -0.313803,-0.0523 c -0.05234,0 -0.156832,0 -0.209126,0 h -0.41829 l -0.836564,0.0523 c -0.313822,0 -0.575176,0.0523 -0.836642,0.0523 H 0.732055 c -0.10457,-0.0523 -0.209158,-0.10457 -0.261464,-0.20916 -0.05226,-0.0523 -0.104556,-0.15686 -0.104556,-0.20914 0,0 0,-0.10458 -0.05231,-0.26144 -0.05226,-0.15686 -0.05226,-0.36601 -0.104551,-0.57516 -0.05228,-0.20915 -0.05228,-0.4183 -0.104494,-0.57516 -0.05234,-0.20915 -0.05234,-0.31372 -0.05234,-0.4183 0,-0.15686 0,-0.366 0.05234,-0.52287 0,-0.20916 0.05221,-0.31373 0.05221,-0.36601 0,-0.10458 0,-0.15686 0,-0.26144 0,-0.10458 -0.05221,-0.26144 -0.05221,-0.36601 0,-0.15686 -0.05234,-0.26144 -0.05234,-0.41829 C 0.05234,4.7797802 0,4.6229202 0,4.5183402 c 0,-0.10456 0,-0.20915 0,-0.4183 0,-0.20914 0,-0.36601 0,-0.52287 0,-0.15686 0.05234,-0.366 0.05234,-0.52287 0,-0.10457 0.05234,-0.20915 0.104556,-0.31372 0.104568,-0.0523 0.261433,-0.0523 0.366,-0.0523 0.209158,0 0.365914,-0.0523 0.627402,-0.0523 H 1.7778 c 0.20914,0 0.313694,0 0.366005,0 0.104549,0 0.156815,0 0.261443,0 0.104572,0 0.2092,-0.0523 0.365946,-0.0523 l 0.313736,-0.0523 c 0.104604,0 0.156864,-0.0523 0.261404,-0.10458 0.104586,-0.0523 0.156924,-0.10457 0.261606,-0.10457 0.104488,-0.0523 0.209042,-0.0523 0.261354,0 0.10455,0.0523 0.209124,0.15686 0.261416,0.26143 0.05227,0.10458 0.104568,0.20916 0.104568,0.36602 0,0.10457 -0.05229,0.20914 -0.104568,0.26144 -0.05229,0.10457 -0.156866,0.15686 -0.313728,0.15686 -0.156864,0 -0.313724,0 -0.470648,0 -0.209111,-0.36602 -0.36597,-0.36602 -0.52283,-0.31373 z m -0.784261,0.36602 -0.418433,0.10457 c -0.104522,0.0523 -0.209046,0.0523 -0.313676,0.10457 -0.05223,0 -0.10454,0 -0.156836,0.0523 -0.05229,0.0523 -0.05229,0.10457 -0.05229,0.26143 0,0.15686 0.05229,0.26144 0.10458,0.4183 0,0.10458 0.10454,0.15686 0.20917,0.15686 l 0.313694,0.0523 c 0.10468,0 0.156971,0 0.261482,0 h 0.104554 c -0.104554,0 -0.156829,0 -0.261356,0 -0.15702,0 -0.31385,0.0523 -0.418374,0.0523 -0.156858,0 -0.366028,0.0523 -0.627435,0.0523 0,-0.0523 0,-0.10458 0.05232,-0.10458 0,-0.0523 0,-0.15685 0,-0.20914 v -0.52288 c 0,-0.10458 0,-0.26144 0,-0.36602 z m -1.098093,2.71894 c 0.05229,0.10456 0.104586,0.15686 0.104586,0.26144 0.05228,0.10456 0.05228,0.20913 0.104562,0.31371 0,0.10458 0.05229,0.26145 0.104608,0.41829 0.05223,0.15687 0.05223,0.26145 0.05223,0.26145 0,0.0523 0.05231,0.0523 0.05231,0.0523 0,0 0.05233,-0.0523 0.05233,-0.10458 l -0.261466,0.0523 c 0,-0.20915 -0.05229,-0.41829 -0.05229,-0.57516 0,-0.15687 -0.05228,-0.31373 -0.05228,-0.47059 0,-0.15686 -0.104587,-0.15686 -0.104587,-0.20914 z m 0.313756,0.15686 h 0.05223 c 0.104631,-0.0523 0.15688,-0.0523 0.261466,-0.0523 l 0.31383,-0.0523 c 0.05223,-0.0523 0.156814,-0.0523 0.209064,0 H 1.986944 c -0.104511,0 -0.209141,0.0523 -0.313822,0.0523 -0.104519,0 -0.209105,0.0523 -0.313679,0.0523 z m 1.516288,-1.83006 c 0.05231,0 0.104565,0.0523 0.156905,0.0523 0.104575,0.0523 0.156831,0.10458 0.209124,0.15687 z"
     inkscape:connector-curvature="0"
     style="stroke-width:0.5228731" />
  <path
     id="path4"
     d="m 9.568629,7.6032902 c -0.209167,0 -0.418325,0 -0.575187,-0.0523 -0.261465,-0.10457 -0.522929,-0.20915 -0.732052,-0.41831 -0.104571,-0.10456 -0.209172,-0.26142 -0.261466,-0.41829 -0.05227,-0.15686 -0.05227,-0.36601 -0.05227,-0.52287 0,-0.15686 0,-0.31372 0.05227,-0.47059 0,-0.15687 0.05229,-0.26143 0.104569,-0.41829 v -0.10458 c 0,0 0,-0.0523 0,-0.0523 0,-0.10458 0.05233,-0.15686 0.10459,-0.20915 0.05231,-0.10458 0.156859,-0.15686 0.26143,-0.26144 l 0.261464,-0.20915 0.261465,-0.15686 0.104565,-0.15686 -0.05231,-0.0523 -0.156833,-0.15686 c -0.05221,-0.0523 -0.104551,-0.10457 -0.156893,-0.15686 -0.05234,-0.0523 -0.104678,-0.10457 -0.104678,-0.15687 -0.104494,-0.15686 -0.156786,-0.31372 -0.209046,-0.52286 -0.05231,-0.20916 -0.05231,-0.4706 -0.05231,-0.67974 0,-0.20915 0.104571,-0.36601 0.261357,-0.52288 0.15702,-0.15686 0.366143,-0.26143 0.627576,-0.366 l 0.209152,-0.0523 c 0.05228,0 0.156757,-0.0523 0.261386,-0.0523 0.156866,0 0.313695,0 0.41833,0.10458 0.10452,0.10457 0.209046,0.15686 0.26135,0.20914 0.05235,0.0523 0.157025,0.10458 0.209315,0.15686 0.05223,0.10458 0.156815,0.20915 0.209059,0.31373 0.05231,0.10457 0.104556,0.26143 0.156866,0.36601 0.05226,0.15686 0.05226,0.31372 0.05226,0.47058 0,0.15687 -0.05226,0.31373 -0.156814,0.47059 -0.104556,0.15686 -0.20914,0.26144 -0.313661,0.36601 -0.104681,0.10457 -0.209329,0.20915 -0.313855,0.26143 -0.05227,0.0523 -0.10452,0.0523 -0.10452,0.10458 h -0.05233 v 0.0523 c 0,0.0523 0.05233,0.10459 0.05233,0.10459 0.05225,0.0523 0.10452,0.15685 0.15683,0.26142 0.05221,0.10458 0.10452,0.15686 0.156864,0.26144 0.05234,0.0523 0.104681,0.15686 0.156971,0.20915 0.05223,0.0523 0.104509,0.10457 0.156815,0.10457 l 0.1568,0.15686 0.10457,0.10458 c 0.05234,0.0523 0.05234,0.0523 0.05234,0.0523 l 0.05229,0.0523 0.26136,-0.47058 c 0,-0.0523 0,-0.0523 0,-0.10458 0,-0.0523 0,-0.10457 0,-0.20915 0,-0.0523 0,-0.0523 0,-0.10457 0.05232,-0.0523 0.05232,-0.15686 0.104584,-0.20916 0.05231,-0.0523 0.104571,-0.10456 0.156912,-0.10456 h 0.104568 c 0.05226,0 0.104556,0.0523 0.104556,0.0523 l 0.05231,0.0523 c 0,0 0.05225,0.0523 0.05225,0.0523 0,0.10458 0,0.20916 0,0.31373 0,0.10457 -0.05225,0.20915 -0.104566,0.31372 -0.05229,0.10457 -0.05229,0.15687 -0.104555,0.26144 -0.05231,0.0523 -0.05231,0.10456 -0.104569,0.15686 0,0.0523 -0.05234,0.10457 -0.05234,0.10457 l -0.05226,0.15686 -0.05231,0.15686 v 0 0 c 0,0.0523 0,0.10458 0.05231,0.15686 0,0.0523 0.05226,0.10458 0.104602,0.20916 v 0 c 0.05226,0.0523 0.104568,0.10457 0.156828,0.10457 0.104606,0.0523 0.156862,0.15686 0.209156,0.26144 0.156829,0.20915 0.10449,0.4183 -0.209156,0.57516 0,0 -0.05226,0 -0.05226,0 0,0 -0.05231,0 -0.05231,0 -0.05226,0 -0.104599,-0.0523 -0.104599,-0.0523 -0.05226,-0.0523 -0.05226,-0.10456 -0.104571,-0.15686 v 0 l -0.05227,-0.10457 -0.104475,-0.15686 c -0.05234,-0.0523 -0.05234,-0.10457 -0.104628,-0.15687 0,-0.0523 -0.05229,-0.0523 -0.05229,-0.10458 l -0.05228,-0.0523 -0.05229,0.0523 c -0.05234,0.0523 -0.104598,0.0523 -0.209153,0.10458 -0.104556,0.10458 -0.20914,0.15687 -0.261371,0.26145 -0.05229,0.10457 -0.15697,0.20915 -0.261619,0.26143 -0.156801,0.10458 -0.365904,0.15686 -0.57508,0.20915 0,0 -0.10458,0.10457 -0.209079,0.15686 z m -0.418325,-3.45096 c 0,0 -0.0523,0.0523 -0.104601,0.10458 l -0.209044,0.20914 c -0.05234,0.0523 -0.15702,0.15686 -0.209361,0.20915 l -0.104494,0.15686 c -0.05229,0.0523 -0.05229,0.10458 -0.05229,0.20915 0,0.10458 0,0.20915 0,0.31373 0,0.10457 0,0.26143 0.05229,0.366 0,0.10458 0,0.20916 0.05228,0.31373 0,0.10458 0.05221,0.20914 0.104556,0.26144 0.05234,0.10458 0.10468,0.20914 0.15702,0.31371 0.10449,0.10458 0.209044,0.15687 0.313645,0.20916 0.156835,0.0523 0.313723,0.10457 0.47048,0.0523 h 0.104629 c 0.05229,0 0.05229,0 0.104574,-0.0523 0.156898,-0.0523 0.313756,-0.0523 0.470586,-0.15687 0.10452,-0.0523 0.209206,-0.10457 0.261545,-0.20914 0.05229,-0.0523 0.104521,-0.10458 0.156799,-0.15686 0,-0.0523 0.05231,-0.10458 0.05231,-0.15686 0,-0.10458 0,-0.20915 -0.05231,-0.31373 -0.05228,-0.15687 -0.104509,-0.26145 -0.209138,-0.36601 0,-0.0523 -0.05234,-0.0523 -0.05234,-0.10457 0,-0.0523 -0.05235,-0.0523 -0.05235,-0.10458 -0.05231,-0.0523 -0.10452,-0.10457 -0.10452,-0.20915 -0.05231,-0.10457 -0.15683,-0.20915 -0.261465,-0.36601 -0.104535,-0.10457 -0.209122,-0.26143 -0.313696,-0.36601 -0.104628,-0.10457 -0.209104,-0.15686 -0.209104,-0.15686 z m 1.464104,3.50324 -0.366145,0.15686 c -0.10452,0.0523 -0.156847,0.10458 -0.261379,0.15686 -0.05231,0.0523 -0.156898,0.0523 -0.209176,0.0523 -0.05229,0 -0.10458,0 -0.209079,0 l -0.261491,-0.0523 -0.313696,-0.10456 h 0.104565 0.104556 c 0.05231,0 0.104575,0 0.156899,0 0.104565,0 0.156846,0 0.261322,0 l 0.3661,-0.0523 c 0.156859,-0.0523 0.261379,-0.0523 0.365904,-0.10457 z m -1.202674,-2.71893 c 0,0.0523 0,0.0523 -0.05227,0.10457 0,0.0523 -0.05233,0.10458 -0.104587,0.15686 -0.05231,0.0523 -0.05231,0.10458 -0.104571,0.15687 0,0.0523 -0.0523,0.10457 -0.104601,0.10457 -0.05226,0.0523 -0.05226,0.10456 -0.05226,0.15686 0,0.0523 0,0.15687 0,0.20915 0,0.0523 0,0.10458 0,0.15686 0,0 -0.05229,0 -0.104572,-0.10457 -0.05221,-0.10457 -0.05221,-0.0523 -0.05221,-0.0523 0,0 0,0 0,0 v 0 c 0,0 0,-0.0523 0,-0.0523 0,-0.15686 0,-0.31372 0,-0.47059 0,-0.15686 0.05221,-0.26144 0.104489,-0.41829 0.05229,-0.0523 0.156859,-0.10458 0.209155,-0.0523 z m -0.418292,1.46405 0.156862,0.0523 0.104571,0.0523 c 0.05227,0 0.05227,0 0.104587,0 0.05227,0 0.05227,0 0.05227,0.0523 l 0.05229,0.0523 H 9.307133 c -0.05227,0 -0.104575,-0.0523 -0.156834,-0.10456 -0.0523,0 -0.104601,-0.0523 -0.156862,-0.10457 z m 0.470585,-4.39214 c -0.104565,0 -0.156889,0.0523 -0.261464,0.10457 -0.104556,0.0523 -0.15686,0.10458 -0.209121,0.20915 0,0.10458 -0.05229,0.20915 -0.05229,0.26144 0,0.10458 0,0.15686 0,0.26144 0,0.10457 0,0.15686 0.05229,0.20914 0.05226,0.0523 0.104565,0.15687 0.156862,0.31373 0.05226,0.0523 0.104571,0.10457 0.156834,0.15686 l 0.156889,0.15687 c 0.05228,0.0523 0.104602,0.10457 0.209101,0.15686 l 0.05229,0.0523 0.104574,-0.0523 c 0.104587,-0.0523 0.209121,-0.15686 0.313757,-0.20916 0.10452,-0.0523 0.15683,-0.15686 0.26135,-0.20914 0.05235,-0.0523 0.157024,-0.15687 0.209314,-0.26144 0.05223,-0.10458 0.104509,-0.20915 0.104509,-0.31372 0,-0.10458 0,-0.26144 0,-0.36602 0,-0.10457 -0.05228,-0.20914 -0.104509,-0.31372 -0.05229,-0.10457 -0.104629,-0.15686 -0.15697,-0.20915 -0.05235,-0.0523 -0.156864,-0.0523 -0.209174,-0.0523 -0.10452,0 -0.209156,0 -0.31369,0 l -0.31379,0.0523 z m 0.156757,0.20915 c 0,0.0523 0,0.10457 -0.05215,0.15686 -0.05232,0.10457 -0.156895,0.20915 -0.209166,0.31373 -0.05233,0.10457 -0.05233,0.15686 -0.05233,0.26143 0,0.10457 0.05233,0.20915 0.104595,0.31372 0.05229,0.10458 0.104575,0.20915 0.156896,0.31372 l -0.104602,-0.15685 c -0.104565,-0.10458 -0.156889,-0.20915 -0.209152,-0.36602 -0.05231,-0.15686 -0.05231,-0.31372 0,-0.4183 0,-0.0523 0.05227,-0.10457 0.104587,-0.15686 0,-0.0523 0.05227,-0.10457 0.104565,-0.10457 0.05228,-0.10457 0.104602,-0.10457 0.156757,-0.15686 z m 1.568718,0.88889 c 0,0 0,0.0523 0,0.0523 0.05229,0.10457 0.05229,0.15686 0,0.26144 l -0.05228,0.20914 c 0,0.0523 -0.05229,0.10457 -0.05229,0.20915 0,0.0523 -0.05234,0.10458 -0.05234,0.15686 -0.05226,0.0523 -0.05226,0.0523 -0.104571,0.10458 l -0.1568,0.10458 -0.156814,0.10456 -0.156971,0.0523 0.104681,0.0523 c 0,0.0523 0.05229,0.0523 0.05229,0.10456 0.05223,0.0523 0.05223,0.10458 0.104509,0.10458 0,0 0.05231,0.0523 0.05231,0.0523 l 0.05225,0.0523 0.05231,0.15686 0.104554,0.20915 -0.156866,-0.20915 c -0.05225,-0.0523 -0.10455,-0.10457 -0.10455,-0.15686 0,-0.0523 -0.05228,-0.0523 -0.104509,-0.10458 0,0 -0.05229,-0.0523 -0.05229,-0.0523 l -0.05234,-0.10457 -0.05234,-0.10457 c 0.05234,-0.0523 0.104681,-0.15686 0.209202,-0.20916 0.05228,-0.0523 0.104584,-0.10457 0.156828,-0.15686 l 0.156866,-0.15686 c 0.05226,-0.0523 0.104599,-0.15686 0.104599,-0.20915 0,-0.0523 0,-0.10457 0.05229,-0.20914 0.05228,-0.10458 0,-0.15687 0.05228,-0.20915 -0.05228,-0.0523 0,-0.10457 0,-0.10457 z m -0.522864,-1.6732 c 0.05228,0 0.05228,0 0.104584,0 0.05225,0.0523 0.1568,0.10458 0.209111,0.15686 0.05226,0.0523 0.104599,0.15686 0.209169,0.20915 0.05229,0.0523 0.05229,0.0523 0.104586,0.10457 l 0.05234,0.57516 c 0,0 0,0 -0.05234,0 -0.05229,-0.0523 -0.05229,-0.15686 -0.05229,-0.20914 0,-0.10458 -0.05229,-0.15687 -0.104576,-0.26144 -0.05229,-0.10458 -0.10463,-0.20915 -0.2092,-0.26144 -0.05225,-0.10457 -0.1568,-0.20914 -0.261384,-0.31372 z"
     inkscape:connector-curvature="0"
     style="stroke-width:0.5228731" />
  <path
     id="path6"
     d="m 15.215598,2.1654102 v -0.10457 c 0,-0.0523 0,-0.10458 0,-0.15687 0,-0.0523 0,-0.15686 0,-0.20914 0,-0.10458 0.104553,-0.20916 0.209109,-0.26144 0.104584,-0.0523 0.209106,-0.10458 0.366126,-0.10458 h 0.575107 c 0.156862,0 0.36596,0 0.522852,-0.10457 0.104575,0 0.209123,0 0.313695,0 0.156784,0 0.313804,0 0.470633,0.0523 0.156866,0.0523 0.36599,0.10457 0.522886,0.15686 0.156756,0.0523 0.31368,0.15686 0.470541,0.31373 0.156844,0.20914 0.313693,0.41829 0.418215,0.62744 0.15699,0.31373 0.313848,0.62745 0.418433,0.99346 0.104561,0.36601 0.209111,0.73202 0.209111,1.15031 0.05227,0.31373 0,0.67974 -0.05231,0.99347 -0.1568,0.52287 -0.418244,1.04574 -0.784279,1.46405 -0.418325,0.41829 -0.993435,0.67972 -1.568655,0.67972 -0.313694,0.0523 -0.62744,0 -0.941121,-0.0523 -0.156894,-0.0523 -0.313755,-0.10457 -0.470583,-0.15686 -0.104524,-0.0523 -0.156866,-0.10457 -0.209206,-0.20915 0,-0.0523 -0.05234,-0.15686 -0.05234,-0.20915 0,-0.10457 -0.05229,-0.26143 -0.05229,-0.47059 0,-0.20914 -0.05223,-0.36601 -0.05223,-0.41829 0,-0.0523 0,-0.20915 -0.05228,-0.47059 l -0.104549,-0.88888 c -0.05231,-0.31372 -0.104556,-0.62745 -0.104556,-0.94117 0,-0.20915 -0.05231,-0.47058 -0.05231,-0.67974 0.05231,-0.20914 0.104553,-0.366 0.104553,-0.57516 -0.104553,-0.15686 -0.104553,-0.26143 -0.104553,-0.4183 z m 0.470553,0 c 0,0.0523 0,0.15686 0,0.20915 0,0.0523 0,0.10457 0,0.20915 0,0.10458 0,0.26144 0.05234,0.57516 0.05234,0.31372 0.05234,0.62745 0.104649,0.94117 0.05221,0.31373 0.05221,0.67974 0.104526,0.94117 0.05227,0.26144 0.05227,0.47059 0.05227,0.47059 0,0.15685 0.05225,0.31372 0.104577,0.4183 0.05231,0.15685 0.104534,0.26143 0.104534,0.41829 0.05231,0.10458 0.05231,0.15686 0,0.15686 -0.05223,0.0523 -0.05223,0.10457 -0.05223,0.10457 -0.05231,0.10458 -0.05231,0.15687 0,0.15687 0.05223,0.0523 0.104534,0.0523 0.156829,0.10458 0.05229,0.0523 0.104569,0 0.156865,-0.0523 0.05229,0 0.05229,-0.0523 0.05229,-0.0523 h 0.261393 c 0.104597,0 0.156861,0 0.261432,0 0.05229,0 0.15686,0 0.209154,0 l 0.26151,0.0523 c 0.104553,0 0.261385,0 0.36599,-0.0523 0.156828,-0.0523 0.313724,-0.20915 0.47048,-0.31372 0.209199,-0.20916 0.418318,-0.47059 0.575204,-0.73203 0.156796,-0.31372 0.209104,-0.73201 0.209104,-1.09803 0,-0.366 -0.05231,-0.73202 -0.156829,-1.04575 -0.104524,-0.31372 -0.209161,-0.57515 -0.365989,-0.83659 -0.104566,-0.20915 -0.26149,-0.36601 -0.36597,-0.57516 -0.10457,-0.10457 -0.261436,-0.15686 -0.418296,-0.20915 -0.156866,-0.0523 -0.313694,-0.0523 -0.470714,-0.0523 -0.156784,0 -0.313644,0.0523 -0.418215,0.0523 -0.10459,0 -0.156861,0.0523 -0.261435,0.10458 -0.156819,0.0523 -0.36597,0.0523 -0.575109,0 -0.156846,-0.0523 -0.261372,-0.0523 -0.418361,-0.10458 z m 0.418361,0.31372 c 0.05231,-0.0523 0.104534,-0.0523 0.156845,-0.0523 l 0.261445,-0.0523 c 0.15682,0 0.261394,0 0.418254,0 l -0.575116,0.10458 c 0,0.10457 0,0.20915 0,0.31372 0,0.10458 0,0.20915 0,0.31373 v 0.20915 c 0,0.10457 0,0.26142 0.05228,0.57515 0.05229,0.31373 0,0.62744 0.05229,0.99346 0.05229,0.36601 0,0.62745 0,0.94117 0,0.31373 0,0.41829 0,0.36601 -0.05229,-0.20915 -0.05229,-0.36601 -0.05229,-0.57516 0,-0.36601 -0.05228,-0.83659 -0.104569,-1.30718 -0.104605,-0.52287 -0.156829,-1.15032 -0.209139,-1.83005 z m 3.764688,0.73203 c 0.156859,0.62745 0.209201,1.25489 0.156859,1.88234 -0.05229,0.67974 -0.313753,1.30719 -0.679678,1.88235 -0.156969,0.26142 -0.418415,0.47058 -0.679834,0.62744 -0.209155,0.10458 -0.470541,0.20914 -0.73201,0.26144 -0.261417,0.0523 -0.522925,0.0523 -0.784311,0.0523 h 0.313724 c 0.156894,0 0.313726,-0.0523 0.470587,-0.10458 0.209174,-0.0523 0.470563,-0.15686 0.679714,-0.31371 0.418301,-0.26145 0.73213,-0.62745 0.993505,-0.99347 0.209154,-0.26144 0.31372,-0.62744 0.366016,-0.94118 0.05229,-0.366 0.05229,-0.73201 0.104629,-1.09802 -0.104629,-0.4183 -0.156925,-0.8366 -0.209201,-1.25489 z"
     inkscape:connector-curvature="0"
     style="stroke-width:0.5228731" />
  <path
     id="path8"
     d="m 33.986743,0.12621019 h 0.3137 c 0.0523,0 0.10456,0 0.10456,0.0523 0.0523,0.0523 0.0523,0.10457 0.10459,0.15686 0,0.0523 0.0523,0.15686 0.0523,0.20914 0,0.10458 0,0.20916 0,0.31373 v -0.10458 -0.20915 c 0,-0.0523 0,-0.10457 0,-0.20914 -0.0523,-0.15687 -0.20912,-0.20915 -0.31373,-0.15687 0,0 -0.0523,0 -0.0523,0 -0.15673,0 -0.26138,0.0523 -0.26138,0.0523 0,0 -0.0523,0.0523 0,0.10458 0.0523,0.0523 0.10465,0.0523 0.1568,0.10457 0.15689,0.0523 0.26149,0.15686 0.31375,0.31372 0.0523,0.10457 0,0.20915 -0.0523,0.26144001 -0.0523,0.10457 -0.15691,0.15686 -0.2092,0.20915 -0.10444,0.10457 -0.2091,0.15686 -0.31364,0.10457 -0.1046,0 -0.15691,-0.0523 -0.26144,-0.0523 -0.1046,-0.0523 -0.20915,-0.0523 -0.3137,0 -0.0523,0.0523 -0.0523,0.10457 -0.0523,0.15686 v 0.26144 l 0.20917,3.34638 v 0.26144 c 0,0.10457 0,0.20915 0.0523,0.31373 0.0523,0.10456 0,0.20914 0.0523,0.31372 0.0523,0.10457 0.0523,0.15685 0.0523,0.15685 0,0 0.10453,-0.0523 0.20913,-0.10457 0.0523,-0.0523 0.15685,-0.10457 0.2615,-0.10457 0.0521,0 0.15674,0.0523 0.20904,0.0523 0.0523,0.0523 0.1046,0.0523 0.20917,0.0523 0.10456,-0.0523 0.26143,-0.0523 0.36589,0.0523 0.0523,0.0523 0.1047,0.20915 0.0523,0.26144 0,0.10458 -0.0523,0.26143 -0.10455,0.36601 -0.0523,0.10458 -0.20914,0.20915 -0.3137,0.20915 -0.15687,0 -0.26147,0 -0.41821,0 -0.10465,0 -0.2615,0 -0.41832,0 -0.15691,0 -0.3137,0 -0.47066,0 -0.1569,0 -0.366037,0.0523 -0.575184,0.0523 -0.156853,0.0523 -0.313647,0.0523 -0.418233,0 -0.05233,0 -0.05233,-0.0523 0,-0.10458 0.05227,-0.0523 0.05227,-0.15686 0.104586,-0.20916 0.05213,-0.0523 0.104487,-0.15684 0.104487,-0.20913 0.05233,-0.0523 0.104627,-0.10458 0.104627,-0.10458 0.05227,0 0.156873,0 0.20916,0 0.05227,0.0523 0.156837,0.0523 0.209097,0 0.10456,-0.0523 0.15681,-0.10458 0.15681,-0.20916 0.0523,-0.10457 0.0523,-0.20914 0.0523,-0.31371 l -0.0523,-0.57516 c 0,-0.31372 -0.0523,-0.73202 -0.10451,-1.15032 -0.0523,-0.4183 -0.0523,-0.78432 -0.10456,-1.15033 -0.05233,-0.36601 -0.05233,-0.57516 -0.05233,-0.73202 0,-0.36601 -0.10452,-0.67974 -0.26142,-0.94117 -0.05227,0 -0.156887,0 -0.209234,0 h -0.313606 c -0.1046,0 -0.209134,0 -0.261454,-0.0523 -0.05227,-0.0523 -0.104573,-0.10457 -0.104573,-0.20914001 0,-0.10458 0.05227,-0.20916 0.104573,-0.26144 0.05233,-0.0523 0.156854,-0.10458 0.20916,-0.10458 0.10462,0 0.15686,0 0.261454,0 0.05233,0 0.156793,0 0.2091,0 h 0.366 c 0.15688,0 0.36604,0 0.523,-0.0523 0.15678,0 0.31369,-0.10457 0.41822,-0.20914 0.0523,-0.0523 0.1046,-0.10457 0.15687,-0.15687 0.0523,-0.0523 0.10457,-0.0523 0.15693,-0.10457 0.0521,-0.0523 0.10444,-0.10457 0.20904,-0.0523 0.1046,0 0.15686,0.0523 0.15686,0.0523 0,0 -0.0523,0.0523 -0.10456,0.10457 -0.0523,0.0523 -0.26134,0 -0.3137,-0.0523 z m -1.777762,-0.0523 c 0.104447,-0.0523 0.26142,-0.0523 0.418293,-0.0523 0.209119,0 0.418199,0 0.627499,0 0.2091,0 0.52283,0 0.83648,0 z m 1.516322,3.50324001 c 0.0523,0.4183 0.10461,0.83661 0.10461,1.15033 0,0.20915 0.0523,0.4183 0.0523,0.62745 0,0.0523 0,0.0523 0,0.0523 0,0 0,0 0,0.0523 0,0 0,0.0523 0.0523,0.0523 l -0.10454,0.0523 -0.26145,-3.60782 z m 0.3138,2.03921 c 0,-0.10457 0.0521,-0.15686 0.15673,-0.15686 0,0 0.0523,0 0.0523,0 0.15686,0.0523 0.26145,0.10456 0.41828,0.15686 0.15677,0.0523 0.26148,0.20915 0.26148,0.36601 0,0.10457 0,0.20915 0,0.31373 0,0.0523 0,0 0,-0.0523 0,-0.0523 0,-0.15687 -0.0523,-0.20915 0,-0.0523 -0.0523,-0.15686 -0.10454,-0.20914 -0.0523,-0.0523 -0.10459,-0.10458 -0.15685,-0.15687 h -0.10457 -0.20915 c -0.0523,0 -0.10461,0 -0.15689,0 -0.10445,0 -0.10445,-0.0523 -0.10445,-0.0523 z"
     inkscape:connector-curvature="0"
     style="stroke-width:0.5228731" />
</svg>
