<?xml version="1.0" encoding="UTF-8" standalone="no"?>
<!-- Generator: Adobe Illustrator 24.2.3, SVG Export Plug-In . SVG Version: 6.00 Build 0)  -->

<svg
   xmlns:dc="http://purl.org/dc/elements/1.1/"
   xmlns:cc="http://creativecommons.org/ns#"
   xmlns:rdf="http://www.w3.org/1999/02/22-rdf-syntax-ns#"
   xmlns:svg="http://www.w3.org/2000/svg"
   xmlns="http://www.w3.org/2000/svg"
   xmlns:sodipodi="http://sodipodi.sourceforge.net/DTD/sodipodi-0.dtd"
   xmlns:inkscape="http://www.inkscape.org/namespaces/inkscape"
   version="1.1"
   id="Layer_1"
   text-rendering="geometricPrecision"
   image-rendering="optimizeQuality"
   shape-rendering="geometricPrecision"
   x="0px"
   y="0px"
   viewBox="0 0 100 100"
   style="enable-background:new 0 0 100 100;"
   xml:space="preserve"
   sodipodi:docname="github.svg"
   inkscape:version="0.92.4 (5da689c313, 2019-01-14)"><metadata
     id="metadata11"><rdf:RDF><cc:Work
         rdf:about=""><dc:format>image/svg+xml</dc:format><dc:type
           rdf:resource="http://purl.org/dc/dcmitype/StillImage" /><dc:title /></cc:Work></rdf:RDF></metadata><defs
     id="defs9" /><sodipodi:namedview
     pagecolor="#ffffff"
     bordercolor="#666666"
     borderopacity="1"
     objecttolerance="10"
     gridtolerance="10"
     guidetolerance="10"
     inkscape:pageopacity="0"
     inkscape:pageshadow="2"
     inkscape:window-width="1689"
     inkscape:window-height="876"
     id="namedview7"
     showgrid="false"
     inkscape:pagecheckerboard="true"
     inkscape:zoom="2.36"
     inkscape:cx="-19.70339"
     inkscape:cy="50"
     inkscape:window-x="0"
     inkscape:window-y="0"
     inkscape:window-maximized="0"
     inkscape:current-layer="Layer_1" /><style
     type="text/css"
     id="style2">
	.st0{fill-rule:evenodd;clip-rule:evenodd;fill:#9644A2;stroke:#FFFFFF;stroke-miterlimit:10;}
</style><path
     class="st0"
     d="M50,0C21.7,0-1.3,23-1.3,51.3c0,22.6,14.7,41.9,35.1,48.6c2.6,0.5,3.5-1.1,3.5-2.5c0-1.2-0.1-5.3-0.1-9.5  C23,91,20,81.9,20,81.9c-2.3-5.9-5.7-7.5-5.7-7.5c-4.7-3.2,0.4-3.1,0.4-3.1c5.1,0.4,7.9,5.3,7.9,5.3c4.6,7.8,12,5.6,14.9,4.3  c0.5-3.3,1.8-5.6,3.3-6.9c-11.4-1.3-23.4-5.7-23.4-25.3c0-5.6,2-10.2,5.3-13.8c-0.5-1.3-2.3-6.5,0.5-13.6c0,0,4.3-1.4,14.1,5.3  c4.1-1.1,8.5-1.7,12.8-1.7c4.4,0,8.7,0.6,12.8,1.7c9.8-6.6,14.1-5.3,14.1-5.3c2.8,7.1,1,12.3,0.5,13.6c3.3,3.6,5.3,8.2,5.3,13.8  c0,19.7-12,24-23.4,25.3c1.8,1.6,3.5,4.7,3.5,9.5c0,6.9-0.1,12.4-0.1,14.1c0,1.4,0.9,3,3.5,2.5c20.4-6.8,35-26,35-48.6  C101.3,23,78.3,0,50,0L50,0L50,0z"
     id="path4"
     style="stroke-width:2;stroke-miterlimit:10;stroke-dasharray:none;stroke:none;stroke-opacity:1" /></svg>