<?xml version="1.0" encoding="UTF-8" standalone="no"?>
<!-- Generator: Adobe Illustrator 24.2.3, SVG Export Plug-In . SVG Version: 6.00 Build 0)  -->

<svg
   xmlns:dc="http://purl.org/dc/elements/1.1/"
   xmlns:cc="http://creativecommons.org/ns#"
   xmlns:rdf="http://www.w3.org/1999/02/22-rdf-syntax-ns#"
   xmlns:svg="http://www.w3.org/2000/svg"
   xmlns="http://www.w3.org/2000/svg"
   xmlns:sodipodi="http://sodipodi.sourceforge.net/DTD/sodipodi-0.dtd"
   xmlns:inkscape="http://www.inkscape.org/namespaces/inkscape"
   version="1.1"
   id="Layer_1"
   text-rendering="geometricPrecision"
   image-rendering="optimizeQuality"
   shape-rendering="geometricPrecision"
   x="0px"
   y="0px"
   viewBox="0 0 100 100"
   style="enable-background:new 0 0 100 100;"
   xml:space="preserve"
   sodipodi:docname="instagram-round-line-color.svg"
   inkscape:version="0.92.2 5c3e80d, 2017-08-06"><metadata
     id="metadata22"><rdf:RDF><cc:Work
         rdf:about=""><dc:format>image/svg+xml</dc:format><dc:type
           rdf:resource="http://purl.org/dc/dcmitype/StillImage" /><dc:title></dc:title></cc:Work></rdf:RDF></metadata><defs
     id="defs20" /><sodipodi:namedview
     pagecolor="#ffffff"
     bordercolor="#666666"
     borderopacity="1"
     objecttolerance="10"
     gridtolerance="10"
     guidetolerance="10"
     inkscape:pageopacity="0"
     inkscape:pageshadow="2"
     inkscape:window-width="774"
     inkscape:window-height="480"
     id="namedview18"
     showgrid="false"
     inkscape:pagecheckerboard="true"
     inkscape:zoom="2.36"
     inkscape:cx="50"
     inkscape:cy="50"
     inkscape:window-x="0"
     inkscape:window-y="0"
     inkscape:window-maximized="0"
     inkscape:current-layer="Layer_1" /><style
     type="text/css"
     id="style2">
	.st0{fill-rule:evenodd;clip-rule:evenodd;fill:url(#SVGID_1_);}
</style><linearGradient
     id="SVGID_1_"
     gradientUnits="userSpaceOnUse"
     x1="-148319.8281"
     y1="157285.7656"
     x2="-147350.5156"
     y2="161119"
     gradientTransform="matrix(2.457603e-02 0 0 -2.457603e-02 3683.2009 3962.5615)"><stop
       offset="0"
       style="stop-color:#F58529"
       id="stop4" /><stop
       offset="0.129"
       style="stop-color:#FEDA77"
       id="stop6" /><stop
       offset="0.431"
       style="stop-color:#DD2A7B"
       id="stop8" /><stop
       offset="0.741"
       style="stop-color:#8134AF"
       id="stop10" /><stop
       offset="1"
       style="stop-color:#515BD4"
       id="stop12" /></linearGradient><path
     class="st0"
     d="M38.9,24.1h22.1c8.3,0,15.1,6.7,15.1,14.9V61c0,8.2-6.8,14.9-15.1,14.9H38.9c-8.3,0-15.1-6.7-15.1-14.9V39  C23.8,30.8,30.6,24.1,38.9,24.1z M50,0c13.8,0,26.3,5.6,35.4,14.6c9,9,14.6,21.5,14.6,35.4c0,13.8-5.6,26.3-14.6,35.4  c-9,9-21.5,14.6-35.4,14.6c-13.8,0-26.3-5.6-35.4-14.6C5.6,76.3,0,63.8,0,50s5.6-26.3,14.6-35.4C23.7,5.6,36.2,0,50,0z M81.5,18.5  c-8.1-8.1-19.2-13-31.5-13c-12.3,0-23.4,5-31.5,13c-8.1,8.1-13,19.2-13,31.5c0,12.3,5,23.4,13,31.5c8.1,8.1,19.2,13,31.5,13  s23.4-5,31.5-13c8.1-8.1,13-19.2,13-31.5S89.5,26.6,81.5,18.5z M49.9,36c8.1,0,14.6,6.5,14.6,14.6c0,8.1-6.5,14.6-14.6,14.6  c-8.1,0-14.6-6.5-14.6-14.6C35.2,42.5,41.8,36,49.9,36z M49.9,40.9c5.3,0,9.7,4.3,9.7,9.7c0,5.3-4.3,9.7-9.7,9.7  c-5.3,0-9.7-4.3-9.7-9.7C40.2,45.3,44.5,40.9,49.9,40.9z M64,34c1.3,0,2.4,1.1,2.4,2.4c0,1.3-1.1,2.4-2.4,2.4  c-1.3,0-2.4-1.1-2.4-2.4C61.6,35,62.7,34,64,34z M40.8,28.3h18.5c6.9,0,12.6,5.7,12.6,12.6v18.6c0,6.9-5.7,12.6-12.6,12.6l-18.5,0  c-6.9,0-12.6-5.7-12.6-12.6V40.9C28.1,34,33.8,28.3,40.8,28.3L40.8,28.3z"
     id="path15" /></svg>