<?xml version="1.0" encoding="UTF-8" standalone="no"?>
<svg
   xmlns:dc="http://purl.org/dc/elements/1.1/"
   xmlns:cc="http://creativecommons.org/ns#"
   xmlns:rdf="http://www.w3.org/1999/02/22-rdf-syntax-ns#"
   xmlns:svg="http://www.w3.org/2000/svg"
   xmlns="http://www.w3.org/2000/svg"
   xmlns:sodipodi="http://sodipodi.sourceforge.net/DTD/sodipodi-0.dtd"
   xmlns:inkscape="http://www.inkscape.org/namespaces/inkscape"
   id="svg1037"
   viewBox="0 0 83.605881 5.8932995"
   version="1.1"
   sodipodi:docname="other_projects.svg"
   width="0.87089461in"
   height="0.061388541in"
   inkscape:version="0.92.4 (5da689c313, 2019-01-14)">
  <metadata
     id="metadata9">
    <rdf:RDF>
      <cc:Work
         rdf:about="">
        <dc:format>image/svg+xml</dc:format>
        <dc:type
           rdf:resource="http://purl.org/dc/dcmitype/StillImage" />
        <dc:title></dc:title>
        <dc:title />
      </cc:Work>
    </rdf:RDF>
  </metadata>
  <defs
     id="defs7" />
  <sodipodi:namedview
     pagecolor="#ffffff"
     bordercolor="#666666"
     borderopacity="1"
     objecttolerance="10"
     gridtolerance="10"
     guidetolerance="10"
     inkscape:pageopacity="0"
     inkscape:pageshadow="2"
     inkscape:window-width="1715"
     inkscape:window-height="866"
     id="namedview5"
     showgrid="false"
     inkscape:pagecheckerboard="true"
     units="in"
     fit-margin-top="0"
     fit-margin-left="0"
     fit-margin-right="0"
     fit-margin-bottom="0"
     inkscape:zoom="3.94"
     inkscape:cx="-58.012592"
     inkscape:cy="-37.367743"
     inkscape:window-x="119"
     inkscape:window-y="48"
     inkscape:window-maximized="1"
     inkscape:current-layer="svg1037" />
  <path
     id="path44"
     d="m 2.90553,0.77772 c 0.40917,0.40918 0.69566,0.9412 0.81842,1.51414 0.041,0.20463 0.0819,0.40918 0.0819,0.61384 0,0.24543 0,0.45021 -0.0409,0.69571 C 3.72395,3.84696 3.68315,4.05154 3.60123,4.29709 3.51953,4.50171 3.4784,4.70624 3.35567,4.91095 3.23292,5.07462 3.11015,5.2383 2.94645,5.36104 2.78278,5.48378 2.57813,5.56576 2.33261,5.60664 2.0871,5.64784 1.84154,5.60664 1.59603,5.56554 1.30956,5.48354 1.02306,5.31991 0.77754,5.11537 0.53203,4.91075 0.32737,4.62429 0.20458,4.29688 0.08188,3.96955 0.04095,3.6012 0,3.27381 0,2.90549 0.041,2.57816 0.1637,2.20976 0.2455,1.92331 0.32737,1.59586 0.49108,1.35039 0.61383,1.1458 0.77754,0.94117 0.98212,0.85938 1.18686,0.77748 1.39137,0.69566 1.63696,0.65471 1.80059,0.61361 2.00525,0.61361 2.1689,0.61361 c 0.16371,0 0.20467,0 0.20467,-0.0412 -0.041,-0.12275 -0.041,-0.12275 0.0818,-0.0818 0.2046,0.0411 0.3274,0.16365 0.45019,0.28644 z m -0.73666,0.3274 c -0.12275,0 -0.2045,0 -0.32737,0.0411 C 1.63692,1.18732 1.47319,1.26902 1.30953,1.39175 1.10487,1.55548 0.94121,1.71915 0.81845,1.92375 0.65473,2.2102 0.57292,2.53767 0.57292,2.86504 c -0.041,0.32741 0,0.69566 0.12273,0.98215 0.0819,0.24553 0.24556,0.45013 0.40922,0.65474 0.1637,0.1637 0.3274,0.28646 0.53205,0.36832 0.16364,0.0818 0.36829,0.12276 0.57292,0.12276 0.1637,0 0.32732,-0.0818 0.4501,-0.16372 C 2.82365,4.70647 2.94641,4.54282 3.02827,4.33827 3.15108,4.13367 3.23288,3.92889 3.27382,3.68345 c 0.0409,-0.20465 0.0818,-0.45011 0.0818,-0.6548 0,-0.20452 -0.041,-0.45009 -0.0818,-0.6548 C 3.23282,2.16931 3.11012,1.96466 3.02827,1.76009 2.94637,1.5963 2.82365,1.43267 2.65994,1.30993 2.53716,1.18713 2.37354,1.10535 2.16887,1.10535 Z M 1.67781,1.47338 C 1.55504,1.59608 1.43227,1.71892 1.30953,1.88263 1.18683,2.04637 1.10487,2.20997 1.06397,2.37362 c -0.0819,0.20473 -0.0819,0.45028 -0.041,0.65481 0,0.20468 0.041,0.40931 0.0819,0.61389 0.0409,0.12276 0.082,0.24556 0.1637,0.36833 0.041,0.0818 0.12277,0.16367 0.1637,0.20462 L 1.59599,4.33804 1.8415,4.54259 c 0.0818,0.0819 0.0818,0.12282 0.0818,0.16365 -0.0409,0 -0.0818,0 -0.12272,0 C 1.71878,4.66514 1.63695,4.66514 1.55506,4.62454 1.47316,4.58334 1.39136,4.50175 1.30955,4.46082 1.22765,4.37902 1.14576,4.29713 1.10489,4.21531 0.98211,3.9698 0.94123,3.68326 0.90029,3.39683 0.85939,3.06943 0.85939,2.742 0.98209,2.41476 1.06399,2.16912 1.22768,1.92356 1.43228,1.71896 1.47318,1.59612 1.55505,1.51438 1.67781,1.47342 Z M 3.192,0.45032 c 0.16363,0.12275 0.28636,0.24553 0.40919,0.40927 0.12276,0.20458 0.20461,0.3683 0.28646,0.57285 0.0819,0.16364 0.12277,0.36838 0.20459,0.53199 0.041,0.16374 0.0819,0.28647 0.0819,0.36833 0,0.082 0,0.24559 0,0.4092 0,0.2047 0,0.40917 -0.041,0.61395 -0.041,0.2455 -0.0818,0.49105 -0.12276,0.73658 C 3.96948,4.33804 3.88761,4.54259 3.76487,4.7882 3.6421,4.99278 3.47832,5.15652 3.31466,5.32012 3.15104,5.44292 2.94637,5.56576 2.78271,5.6476 2.57806,5.7294 2.33254,5.81119 2.12796,5.89309 2.25068,5.85189 2.41442,5.81119 2.53712,5.72937 2.65991,5.64757 2.82361,5.60664 2.94637,5.52487 3.11008,5.44287 3.23284,5.32012 3.39654,5.19743 3.6421,4.95184 3.80576,4.70624 3.9286,4.37894 4.0104,4.09249 4.0922,3.806 4.13314,3.5195 c 0,-0.16359 0,-0.32727 0,-0.53195 0,-0.20461 -0.041,-0.4092 -0.0818,-0.61393 C 4.01034,2.16908 3.96954,1.96443 3.92861,1.80082 3.88761,1.63717 3.84671,1.47338 3.76489,1.3097 3.68309,1.14599 3.60116,1.02328 3.47834,0.90049 3.35561,0.77772 3.23286,0.65493 3.06915,0.53217 2.94639,0.45027 2.78272,0.32758 2.65992,0.28661 2.57802,0.24551 2.53714,0.20481 2.45533,0.16387 L 2.08704,0.04094 c 0.12277,0 0.20456,0 0.3274,0.0413 0.1227,0.0411 0.20458,0.0818 0.32744,0.12276 0.1227,0.12276 0.28636,0.1636 0.4501,0.2455 z m 1.39134,3.56033 c -0.0409,0 -0.0409,-0.0411 -0.0818,-0.0411 0,-0.0412 0,-0.0412 0,-0.0819 0,0 0,-0.0411 0.041,-0.0411 z"
     inkscape:connector-curvature="0"
     style="stroke-width:0.4092302" />
  <path
     id="path46"
     d="m 8.30737,0.36844 h 0.16366 0.16373 c 0.0409,0 0.1227,-0.0409 0.16364,-0.0409 h 0.24555 c 0.0819,0 0.16374,0 0.24554,-0.0412 0.041,0 0.0819,-0.0411 0.16373,-0.0818 0.0818,-0.0412 0.12272,-0.0819 0.20456,-0.0819 0.082,0 0.16371,0 0.24559,0.0411 0.0819,0.0412 0.12276,0.12274 0.16365,0.20456 0.0819,0.16374 0.0819,0.32742 0.0819,0.49116 -0.041,0.12275 -0.1228,0.16369 -0.24556,0.20458 -0.0819,0 -0.16358,0 -0.20467,0.0412 -0.041,0 -0.0818,0 -0.12277,-0.0412 -0.0818,-0.0411 -0.16363,-0.0818 -0.20453,-0.0411 l -0.24557,0.0411 c -0.041,0 -0.0819,0.0412 -0.0819,0.0412 -0.0409,0 -0.0817,0 -0.1637,0 -0.0409,0 -0.12279,0 -0.16363,-0.0412 -0.041,-0.0411 -0.0819,-0.0411 -0.16374,-0.0411 h -0.0819 -0.0818 -0.0409 v 3.60121 l 0.0819,0.28646 c 0.0409,0.0818 0.0409,0.12272 0.0818,0.20462 0,0.0412 0,0.0819 -0.0409,0.12275 C 8.43015,5.27908 8.34832,5.31978 8.30738,5.3607 8.22548,5.4019 8.18472,5.4019 8.10273,5.4019 8.06183,5.3607 7.97994,5.32 7.9391,5.15641 7.8572,4.95173 7.8572,4.74723 7.8981,4.5016 c 0,-0.16367 0.041,-0.36827 0.041,-0.65475 0,-0.32746 0.0409,-0.61384 0.0409,-0.9003 0,-0.2865 0.041,-0.57304 0.041,-0.8185 0,-0.16373 0,-0.32736 0,-0.49099 0,-0.0819 -0.041,-0.16379 -0.041,-0.20473 0,-0.0818 0,-0.16365 -0.0409,-0.24554 0,-0.0818 -0.041,-0.12273 -0.0819,-0.20456 0,-0.0412 -0.0819,-0.0819 -0.12282,-0.0819 -0.12274,0 -0.20458,0 -0.20458,0.0411 -0.041,0.0412 -0.0819,0.0819 -0.12267,0.0819 -0.0411,0 -0.082,0 -0.12289,0 H 7.07966 6.87506 c -0.041,0 -0.0819,0 -0.12279,-0.0412 C 6.67037,0.94093 6.6296,0.85938 6.54761,0.81828 6.46571,0.73658 6.42482,0.65472 6.38398,0.53196 c 0,-0.0411 0,-0.12284 0.0409,-0.16374 0.041,-0.0409 0.0819,-0.0409 0.12278,-0.0409 h 0.2865 l 0.57303,0.0409 0.57276,0.041 z m 0.36831,0.90035 c 0,-0.0409 0.041,-0.0409 0.16366,-0.0409 h 0.2865 0.32738 c 0.0818,0 0.16366,0 0.28657,0 0.12265,0 0.24544,-0.0412 0.32723,-0.16373 0.041,-0.0411 0.0819,-0.0818 0.12282,-0.12279 0,0.0412 -0.0409,0.0819 -0.0819,0.12279 -0.041,0.0412 -0.12273,0.12273 -0.20459,0.16373 -0.0819,0 -0.12275,0.0409 -0.20466,0.0409 -0.0818,0 -0.20456,0 -0.32731,0.0411 -0.1228,0 -0.20466,0 -0.32745,0 h -0.1637 c -0.0819,0 -0.0819,0.0411 -0.0819,0.0818 V 2.7831 c 0,0.36819 0,0.69563 0,1.06403 0,0.3683 0,0.6138 0,0.77753 0,0.12284 0,0.24553 0,0.36829 0,0.0818 -0.041,0.12279 -0.041,0.16373 -0.0409,0.0411 -0.0409,0.0818 -0.0818,0.0818 0,-0.0407 0.041,-0.0407 0.041,-0.0818 0.0409,-0.0819 0.0409,-0.12284 0.0409,-0.20469 V 4.7475 c 0,-0.12284 0,-0.28657 0,-0.45025 0,-0.16365 0,-0.36843 0,-0.61387 0,-0.24548 0,-0.45011 0,-0.69567 -0.0818,-0.4501 -0.0818,-1.06402 -0.0818,-1.71876 z"
     inkscape:connector-curvature="0"
     style="stroke-width:0.4092302" />
  <path
     id="path48"
     d="m 16.24644,0.65493 c 0.0409,0.0412 0.0409,0.12279 0,0.16357 0,0 0,0 0,0 -0.0409,0.0412 -0.0819,0.082 -0.12275,0.082 h -0.0819 c -0.0409,0 -0.0409,0 -0.0817,0.0411 l -0.041,0.0412 0.041,0.0412 c 0.0817,0.0411 0.12267,0.12271 0.12267,0.16362 0,0.0819 -0.041,0.16367 -0.041,0.24554 -0.0409,0.1228 -0.0409,0.20472 -0.0409,0.32742 v 1.47325 c 0,0.24545 0,0.45011 0,0.65472 0,0.20466 0,0.36831 0,0.53202 0,0.16368 0,0.24553 0,0.28639 0,0.0819 0,0.12282 0,0.2047 0,0.0818 0.0409,0.16368 0.0819,0.24558 0.0409,0.0818 0.0409,0.1636 0.0409,0.20452 0,0.0412 0,0.12273 0,0.16383 -0.0819,0.0411 -0.16358,0.12273 -0.24561,0.16361 -0.0818,0.0411 -0.16361,0.0411 -0.24548,0.0411 -0.0409,-0.0411 -0.0409,-0.0818 -0.0409,-0.12272 -0.041,-0.0818 -0.041,-0.16372 0,-0.2456 0.0409,-0.0818 0.0409,-0.20453 0.0409,-0.28642 0,-0.0818 0,-0.16368 0,-0.16368 0,0 0,-0.16361 0,-0.32742 0,-0.16368 0,-0.32738 -0.0409,-0.49104 -0.041,-0.16382 -0.041,-0.28648 -0.041,-0.45016 0,-0.0819 0,-0.16376 0,-0.24554 0,-0.0411 -0.041,-0.0411 -0.041,-0.0411 -0.0409,0 -0.0409,-0.0412 -0.0818,-0.0412 l -0.12276,-0.0412 c 0,0.0412 -0.041,0.0412 -0.041,0.0412 0,0.0412 -0.0409,0.0818 -0.0817,0.0818 -0.0411,0.0412 -0.082,0.0412 -0.12291,0.0412 h -0.69571 c -0.16373,0 -0.28643,0 -0.40925,-0.0412 -0.12274,0 -0.24553,-0.0411 -0.32721,-0.0411 h -0.16381 c -0.041,0 -0.0818,0 -0.12278,-0.0412 -0.0818,0 -0.1228,0 -0.16373,0.0412 -0.0818,0.0411 -0.0818,0.12266 0,0.20456 0.041,0.0412 0.0819,0.12274 0.0819,0.16373 0,0.0411 0,0.12276 0,0.24556 0,0.12273 0,0.28638 -0.041,0.45009 l -0.041,0.65477 0.0819,0.12281 c 0.0409,0.0411 0.0409,0.0818 0.0818,0.1227 0,0.0412 0.041,0.0819 0.041,0.0819 0,0.0411 -0.041,0.12286 -0.16374,0.20463 -0.0818,0.0818 -0.20458,0.12273 -0.28646,0.12273 -0.0409,0 -0.0817,0 -0.12279,-0.0411 -0.0409,-0.0409 -0.0409,-0.0818 -0.0818,-0.12275 -0.0409,-0.0411 -0.0409,-0.082 -0.0409,-0.12282 0,-0.0411 -0.041,-0.0411 -0.041,-0.0819 V 5.03366 c 0,-0.20461 0,-0.40918 0.041,-0.65474 0.0409,-0.2455 0.0409,-0.45028 0.0409,-0.65474 V 3.35589 c 0,-0.12279 -0.0409,-0.24561 -0.0409,-0.36836 -0.041,-0.20461 -0.041,-0.4501 -0.041,-0.69569 0,-0.24549 0,-0.49106 0,-0.69578 0,-0.16364 0,-0.32728 0.041,-0.49096 0.0409,-0.0818 0.12271,-0.16374 0.20462,-0.20462 0.0818,-0.0411 0.16366,-0.082 0.24551,-0.082 0.0818,0 0.16371,0 0.24556,-0.0407 h 0.16363 c 0.0409,0 0.0409,0.0407 0.0409,0.0819 v 0.0818 1.1459 c 0,-0.20466 0,-0.40922 0,-0.57294 0,-0.12282 0,-0.24555 -0.0409,-0.36835 0,-0.0818 0,-0.12271 -0.0409,-0.20461 l -0.12276,0.0412 h -0.24556 l 0.0409,0.0412 c 0.041,0.0818 0.041,0.1227 0.041,0.2046 0,0.12269 -0.041,0.24549 -0.0818,0.36818 0,0.0819 -0.0409,0.1638 -0.0409,0.28656 0,0.0818 0,0.20465 0,0.28646 0,0.12276 0,0.24562 0.0409,0.36836 0,0.12271 0.0818,0.16359 0.16371,0.16359 0.0409,0 0.0409,-0.0411 0.0819,-0.0818 0,-0.0411 0.0409,-0.0818 0.0409,-0.12272 l 0.041,-0.16372 c 0,0.0411 0,0.0411 0,0.0819 0,0.0411 0.0409,0.0818 0.0409,0.12274 0,0.0411 0.0409,0.0818 0.0409,0.12271 0,0.0818 0.082,0.16374 0.16371,0.16374 0.12279,0.0411 0.28646,0.0411 0.40927,0.0411 0.16369,0 0.3274,-0.0411 0.49106,-0.0411 0.20466,-0.0412 0.32741,-0.0412 0.36825,0 0.041,0.0411 0.0819,0.0818 0.16374,0.16365 0.0411,0.0411 0.0819,0.0818 0.16374,0.0818 0.0409,0.0411 0.0818,0.0411 0.12276,0 0.0409,-0.0412 0.0409,-0.0818 0.0818,-0.12272 0.041,-0.0412 0.041,-0.0819 0.041,-0.16373 0,-0.0819 0.041,-0.16373 0.041,-0.28645 0,-0.0818 0,-0.20464 0,-0.3274 V 1.92406 c 0,-0.0411 0,-0.12272 0,-0.2046 l -0.041,-0.28648 c 0,-0.0819 0,-0.20455 0,-0.28645 0,-0.0818 0,-0.1227 0.041,-0.16365 0.0409,-0.0412 0.0818,-0.0819 0.12277,-0.12275 0.0818,-0.0413 0.16362,-0.0819 0.24564,-0.12278 0.0817,0.0411 0.16358,0 0.28633,-0.0819 z m -2.82375,3.23295 c 0.041,0.0407 0.0819,0.0819 0.0819,0.20461 v 0.49104 c 0,0.12271 0,0.28649 0,0.40925 0,0.1228 -0.0409,0.20465 -0.0409,0.32734 -0.041,0.1228 -0.041,0.24564 -0.041,0.32748 V 5.6064 c 0,0 0,-0.0411 0,-0.0411 l 0.041,-0.082 c 0.0409,-0.1227 0.0409,-0.20453 0.0409,-0.32725 0,-0.12284 0,-0.20469 0,-0.32745 0,-0.0407 0,-0.0817 0,-0.20457 0,-0.12279 0,-0.24556 0,-0.36834 v -0.2864 c -0.12276,-0.0412 -0.12276,-0.0819 -0.0819,-0.0819 z m 0.73669,-1.47316 c -0.12275,0 -0.24556,0 -0.3683,0 -0.0819,0 -0.16358,-0.0413 -0.20469,-0.082 h 1.10497 z m 2.12795,-0.12286 c 0,-0.0412 0,-0.0819 0,-0.16369 0,-0.0818 0,-0.16374 0,-0.28649 0,-0.12276 0,-0.2456 0,-0.40924 0,0.36838 0,0.69573 0,0.98228 0,0.24544 0,0.49098 0.041,0.69558 0.041,0.20468 0,0.32744 0,0.36827 0,0.0412 0,0.0819 0,0.12284 0,0.0411 0,0.0818 0,0.12279 0,0.0411 0,0.12276 0,0.16368 0,0.16366 0,0.32739 0,0.45016 v 0.53198 c 0,0.0412 0,0.12276 0,0.16366 0,0.0412 0,0.12284 0,0.16375 V 4.41986 c 0,-0.0818 0,-0.16372 0,-0.24554 0,-0.0411 0,-0.12278 0,-0.16367 0,-0.082 0,-0.16369 0,-0.24557 V 2.8239 c 0,-0.12286 0,-0.24555 0,-0.3683 0,-0.12284 -0.041,-0.16374 -0.041,-0.16374 z"
     inkscape:connector-curvature="0"
     style="stroke-width:0.4092302" />
  <path
     id="path50"
     d="M 21.11628,1.26879 H 20.748 l -0.65478,0.0411 c -0.24542,0 -0.57293,0.0411 -0.85938,0.0411 0,0.0819 -0.0409,0.20468 0,0.28659 v 1.14578 c 0.0818,0 0.12275,0 0.20457,-0.0412 0.0819,0 0.1228,0 0.20458,0 0.041,0 0.0819,0 0.16373,-0.0411 0.0411,0 0.12287,0 0.16375,0 l 0.20454,0.0411 c 0.0819,0 0.16373,0 0.24551,0 h 0.16374 c 0.0819,0 0.20465,-0.0411 0.2865,-0.0818 0.0818,-0.0412 0.2046,-0.0412 0.28649,-0.0412 0.0818,0.0412 0.16366,0.0818 0.20455,0.0818 0.0819,0.0411 0.12286,0.12286 0.0819,0.24563 0,0.12272 0,0.20447 -0.0408,0.32736 -0.0411,0.0819 -0.1229,0.12277 -0.24563,0.16371 -0.0819,0.0409 -0.16376,0.0409 -0.24559,0 l -0.16366,-0.0818 c -0.0819,0 -0.12266,-0.0412 -0.20462,-0.0412 h -0.32743 c -0.12272,0 -0.20456,0 -0.32733,0 h -0.20462 c -0.0818,0.0412 -0.12278,0.0412 -0.2046,0 -0.041,-0.0412 -0.12281,0 -0.16371,0.0412 -0.0409,0 -0.0409,0.0411 -0.0409,0.1636 0,0.12282 -0.0409,0.2047 -0.0409,0.32746 0,0.1228 0,0.20457 0,0.32736 0,0.0818 0,0.12276 0.0409,0.20462 0.0409,0.0818 0.0409,0.12276 0.0409,0.20459 0,0.0819 0,0.12271 0,0.12271 0,0.0413 0,0.12282 -0.0409,0.16378 -0.0409,0.0818 0,0.12276 0.0409,0.16366 0.0409,0.0412 0.12273,0.0412 0.24553,0 0.0818,-0.0411 0.16369,-0.0411 0.24551,-0.0411 l 0.24555,0.0411 0.45017,0.0412 0.45012,0.0412 c 0.0819,0 0.20469,0 0.2865,0 0.16382,-0.0412 0.32741,-0.0819 0.45014,-0.12278 0.1228,-0.0818 0.2864,-0.0818 0.40925,-0.0818 0.082,0.0411 0.16374,0.0818 0.16374,0.24558 0.0408,0.12272 0.0408,0.20452 0.0408,0.32725 -0.0408,0.082 -0.0818,0.16383 -0.16373,0.24559 -0.0818,0.0412 -0.16374,0.0818 -0.24552,0.12277 -0.0409,0 -0.1228,0 -0.1637,0 -0.0818,0 -0.16365,-0.0412 -0.24545,-0.0412 l -0.2456,-0.0411 c -0.041,0 -0.12278,-0.0412 -0.1637,-0.0412 h -1.9643 c -0.0819,-0.041 -0.1637,-0.0818 -0.1637,-0.16362 -0.0409,-0.0411 -0.0819,-0.12283 -0.0819,-0.16374 0,0 0,-0.0819 0,-0.20458 0,-0.12281 -0.0408,-0.28646 -0.0408,-0.4501 0,-0.1638 -0.0409,-0.32748 -0.0409,-0.49119 0,-0.16365 0,-0.24549 0,-0.32748 0,-0.12265 0,-0.28634 0.0409,-0.40916 0.0408,-0.12271 0.0408,-0.24548 0.0408,-0.28639 0,-0.082 0,-0.12282 0,-0.20466 0,-0.0818 0,-0.20456 -0.0408,-0.3274 l -0.0409,-0.32744 c 0,-0.1227 0,-0.20453 0,-0.28633 0,-0.0819 0,-0.16376 0,-0.32741 0,-0.1638 0,-0.28649 0.0409,-0.40928 0,-0.1227 0.0408,-0.28642 0.0818,-0.40921 0,-0.0818 0.0409,-0.16367 0.12274,-0.24551 0.0819,-0.0412 0.20465,-0.0412 0.28649,-0.0412 h 0.45016 l 0.49109,0.0412 h 0.28645 0.20462 l 0.28646,-0.0412 0.24552,-0.0411 c 0.0818,0 0.1229,-0.0412 0.20468,-0.0412 0.0818,-0.0411 0.16364,-0.0818 0.20454,-0.0818 0.0818,-0.0412 0.1637,-0.0412 0.20462,0 0.0818,0.0411 0.1637,0.12274 0.20463,0.2046 0.0409,0.0819 0.082,0.20461 0.082,0.28647 0,0.0818 -0.041,0.16367 -0.082,0.20456 -0.0409,0.0819 -0.16366,0.1228 -0.24555,0.1228 -0.12278,0.0411 -0.24556,0.0411 -0.36824,0 -0.16375,-0.0818 -0.2456,-0.0818 -0.36838,-0.0407 z m -0.65476,0.24555 -0.3274,0.0411 c -0.0819,0.0411 -0.16365,0.0411 -0.24551,0.0411 -0.0408,0 -0.0819,0 -0.12277,0.0413 -0.041,0.0408 -0.041,0.0817 -0.041,0.20451 0,0.12275 0.041,0.20469 0.0818,0.32741 0,0.0818 0.0819,0.12276 0.12287,0.12276 l 0.24542,0.0411 c 0.0819,0 0.12282,0 0.2047,0 h 0.0818 c -0.0818,0 -0.12278,0 -0.20459,0 -0.12281,0 -0.24555,0 -0.32734,0.0411 h -0.4911 c 0,-0.0411 0.041,-0.0818 0.041,-0.0818 0,-0.0412 0,-0.12277 0,-0.16374 V 1.76092 c 0,-0.0818 0,-0.20462 0,-0.28648 z m -0.98213,2.08707 c 0.0409,0.0818 0.0409,0.12279 0.0818,0.20459 0.041,0.0819 0.041,0.16376 0.041,0.24554 0,0.0819 0.0408,0.2046 0.0408,0.3274 0,0.12277 0,0.20459 0,0.24556 0,0.0411 0,0.0411 0.041,0.0411 0.0409,0 0.0409,-0.0411 0.0819,-0.0411 l -0.24555,0.0411 c 0,-0.1637 0,-0.32736 -0.0409,-0.45014 -0.041,-0.16373 -0.041,-0.24551 -0.041,-0.36831 0,-0.12276 0.041,-0.20463 0.041,-0.24555 z M 19.7249,3.7242 h 0.041 c 0.082,0 0.12277,-0.0412 0.20463,-0.0412 l 0.24548,-0.0411 c 0.041,0 0.1228,0 0.16377,0.0411 h -0.0819 c -0.0819,0 -0.16371,0 -0.24556,0.0412 l -0.24555,0.0411 z m 1.26858,-1.35058 c 0.041,0 0.0819,0.0413 0.1228,0.0413 0.0818,0.0411 0.12278,0.0818 0.1637,0.16362 z"
     inkscape:connector-curvature="0"
     style="stroke-width:0.4092302" />
  <path
     id="path52"
     d="m 25.00401,0.45032 c 0.0817,0 0.20459,-0.0412 0.28655,-0.0412 h 1.18667 0.40922 c 0.0819,0 0.16366,0 0.24551,-0.0409 0.0409,0 0.0818,-0.0409 0.0409,0 -0.0409,0.0409 0,0.0409 0.0409,0.0409 0.0819,0 0.16377,0.0412 0.20459,0.0819 0.24562,0.16368 0.45023,0.40924 0.61394,0.65474 0.12279,0.2046 0.1636,0.45008 0.1636,0.73664 0,0.16374 -0.0408,0.32734 -0.1227,0.45013 -0.0819,0.12284 -0.16371,0.28645 -0.28642,0.40921 -0.0818,0.12284 -0.20465,0.20469 -0.32743,0.32742 -0.041,0.0411 -0.12274,0.0817 -0.16369,0.12284 -0.0409,0 -0.0409,0.0411 -0.0409,0.0411 0,0.0411 0,0.0411 0,0.0819 0.0409,0.20451 0.12278,0.4501 0.20459,0.65478 0.041,0.12272 0.0819,0.20456 0.16382,0.32732 l 0.20447,0.32741 0.20466,0.28645 c 0.0409,0.0411 0.0819,0.12273 0.12278,0.16368 0.0408,0.0819 0.0408,0.16368 0,0.2455 0,0.0819 -0.0819,0.12279 -0.24559,0.20474 -0.0819,0.0411 -0.16361,0 -0.20454,-0.0413 C 27.62314,5.40178 27.58211,5.31993 27.50029,5.23814 27.41829,5.11538 27.37753,5.03348 27.3366,4.91077 27.2956,4.78802 27.2547,4.70605 27.21376,4.58333 27.17286,4.50153 27.13196,4.37874 27.05009,4.25595 L 26.88643,3.76489 c -0.0819,-0.16368 -0.12277,-0.28651 -0.20462,-0.40916 -0.041,-0.0819 -0.0818,-0.1637 -0.1637,-0.2048 -0.0819,-0.0411 -0.20461,-0.0411 -0.28642,0 -0.0818,0.0413 -0.20465,0.082 -0.28647,0.082 -0.12276,0.0411 -0.28653,0.0411 -0.40925,0.0411 -0.12273,0 -0.24543,0 -0.32739,0.0412 -0.0409,0.0412 -0.0409,0.0818 -0.0409,0.20452 0,0.0819 0,0.16372 0.0409,0.24558 0,0.0412 0,0.1228 0,0.16358 0,0.082 0,0.16383 0,0.24566 -0.0409,0.0818 0,0.16372 -0.0409,0.24553 0,0.0411 0,0.12274 0,0.16368 0,0.0819 0.0409,0.16381 0.0818,0.24553 0.0411,0.0819 0.0819,0.20462 0.0819,0.28652 0,0.0819 -0.0819,0.16366 -0.12277,0.24546 -0.0819,0.0819 -0.16366,0.0819 -0.24555,0.0819 -0.0819,-0.0411 -0.12278,-0.0411 -0.12278,-0.0411 0,-0.0412 -0.0409,-0.0819 -0.0818,-0.1637 -0.041,-0.0818 -0.041,-0.20462 -0.041,-0.32736 0,-0.16361 0,-0.32741 0,-0.45016 0,-0.12274 0,-0.32734 0,-0.45014 0,-0.12277 0,-0.24556 0,-0.24556 v -0.4501 c 0,-0.2456 0,-0.53204 0,-0.85938 0,-0.32744 0,-0.61392 0,-0.85953 V 1.10521 c 0,-0.12278 0,-0.24554 0.041,-0.36832 0.12272,-0.12279 0.1637,-0.20463 0.24556,-0.28648 z m 0.53198,3.192 c 0,-0.0411 0,-0.0819 0,-0.16375 0,-0.0818 0,-0.0818 0.0818,-0.0818 0.0819,0.0412 0.12278,0.0412 0.20467,0.0818 0.0818,0.0412 0.12276,0.0412 0.20458,0.0412 0.0819,0 0.12283,0.0412 0.16373,0.0819 0.0409,0.0411 0.0409,0.0818 -0.0409,0.0818 -0.0818,0 -0.16374,-0.0411 -0.2456,-0.0411 l -0.0818,-0.0411 c -0.041,0.0411 -0.041,0.12279 -0.041,0.16368 0,0.0819 0,0.12279 0,0.20468 0,0.0818 0,0.16367 0,0.2455 0,0.12278 0,0.24552 -0.041,0.32732 l -0.0819,0.36836 c 0,0.12273 -0.0409,0.24557 -0.0818,0.36829 0,0.0818 -0.0409,0.16368 -0.0819,0.20453 -0.0408,0.0413 -0.12268,0.0413 -0.24552,-0.0411 l -0.16376,-0.16368 0.12285,0.0411 c 0.0409,0 0.12277,0.0412 0.16375,0.0412 0.0409,0 0.0409,0 0.0409,0 0.0409,-0.0412 0.0409,-0.0818 0.0818,-0.0818 0.041,-0.041 0.0819,-0.0818 0.0819,-0.16366 0,-0.0819 0,-0.16375 0,-0.24556 0,-0.0412 0,-0.12268 0,-0.24552 0,-0.1228 -0.0409,-0.28646 -0.0409,-0.40923 0,-0.12278 -0.041,-0.28661 -0.041,-0.40927 0,-0.12278 0.041,-0.16368 0.041,-0.16368 z m 1.47326,-2.61904 h -0.1228 c -0.0408,0 -0.0408,0.0411 -0.0819,0.0411 -0.0818,0 -0.20459,0 -0.28647,0 -0.16371,0 -0.24555,0 -0.28642,0 -0.0818,0 -0.1228,0 -0.20465,0 -0.0409,0 -0.12277,0 -0.16377,0 -0.0408,0 -0.0817,0 -0.1227,0 -0.0409,0 -0.0409,0 -0.12278,-0.0411 -0.0818,-0.0412 -0.16364,-0.0412 -0.20455,0 0,0.0411 0,0.12271 0,0.16362 0,0 0,0.0413 0,0.0819 0,0.0411 0,0.12273 0,0.20459 0,0.0819 0,0.16379 0.0409,0.24554 0,0.0412 0,0.12276 0,0.16371 0,0.0411 0,0.0818 0.0409,0.1228 0,0 0,0.0412 -0.0409,0.0819 -0.0409,0.041 -0.0409,0.12269 -0.0818,0.16362 -0.041,0.0819 -0.041,0.16382 0,0.16382 0.0409,0.0411 0.0818,0.0411 0.20453,0 0.0409,-0.0413 0.12281,-0.0413 0.16371,-0.082 0.041,0 0.0819,0 0.12269,0.0411 l 0.24563,0.0413 0.28643,0.0411 c 0.0819,0 0.16374,0.0411 0.24548,0.0411 0.16377,0 0.2866,0 0.45024,-0.0411 0.12272,0 0.24556,-0.082 0.3273,-0.16373 0.12285,-0.0819 0.20481,-0.20457 0.24562,-0.32742 0.0819,-0.12275 0.0819,-0.24551 0.041,-0.36836 0,-0.12269 -0.041,-0.2455 -0.0818,-0.32728 -0.0411,-0.0819 -0.12286,-0.16367 -0.20481,-0.2455 -0.1227,0.0411 -0.2864,0 -0.40912,0 z m -1.43236,0.40916 c 0,0 0.0409,-0.0411 0.0818,-0.0411 0.041,0 0.0819,0 0.16377,0.0411 l 0.20458,0.0412 h -0.16377 c -0.0817,0 -0.1227,0 -0.20458,0.0412 -0.0409,0.0411 -0.0409,0.0817 0,0.16368 0,0.0411 0.041,0.0819 0.041,0.12278 V 1.7601 c -0.041,-0.0412 -0.041,-0.0818 -0.041,-0.0818 0,-0.0411 -0.0409,-0.082 -0.0409,-0.12281 -0.0818,-0.0819 -0.0818,-0.0819 -0.0409,-0.12284 z m 0.1228,0.61393 0.0819,0.0818 c 0.0409,0.0408 0.0817,0.0818 0.12275,0.0818 l 0.16382,0.0412 c 0.0818,0.0412 0.16361,0.0412 0.24541,0.0412 l -0.53198,-0.0411 -0.12283,-0.0818 c 0,0 0,-0.0411 0,-0.0411 -0.0409,-0.0411 0,-0.0818 0.041,-0.0818 z m 1.63693,-1.8825 c 0.24551,0.12274 0.49103,0.28645 0.69569,0.45014 0.16359,0.1228 0.24554,0.24558 0.36841,0.40927 0.0818,0.12271 0.1227,0.24551 0.1227,0.40916 0,0.16364 0.0409,0.28648 0.0409,0.45019 0,0.16374 0,0.32734 -0.0818,0.49099 -0.041,0.16383 -0.12283,0.28654 -0.20465,0.40932 -0.082,0.12276 -0.16369,0.20461 -0.24554,0.32736 -0.041,0.0411 -0.0819,0.12281 -0.12281,0.16372 0,0.0819 0,0.16372 0.041,0.24548 0.0409,0.12282 0.0819,0.2865 0.12278,0.40916 0.041,0.16383 0.1227,0.36843 0.20464,0.57305 L 27.95052,3.92866 C 27.86872,3.806 27.78688,3.64232 27.74598,3.5195 c -0.041,-0.0818 -0.0819,-0.16359 -0.0819,-0.24548 0,-0.0411 0.041,-0.0818 0.1228,-0.16372 0.0818,-0.0819 0.20454,-0.16364 0.32737,-0.2864 0.16369,-0.16374 0.24552,-0.40918 0.24552,-0.65482 0.0411,-0.3274 0.0411,-0.61382 -0.0409,-0.94119 C 28.27797,1.06417 28.19601,0.94138 28.11426,0.8185 27.99143,0.69585 27.8687,0.57307 27.746,0.49125 27.6641,0.32758 27.50042,0.24578 27.33673,0.16387 Z m 0.85928,5.44277 c 0,0 0.041,-0.0411 0.041,-0.0411 0.041,0 0.0819,-0.0411 0.12277,-0.0411 0.0411,-0.0413 0.0819,-0.0819 0.0819,-0.12286 0,-0.0412 0.041,-0.0819 0.041,-0.16368 l 0.0409,-0.24554 c 0,0.0411 0,0.0818 0,0.12279 0,0.0819 -0.0409,0.20455 -0.0819,0.24549 -0.0408,0.0819 -0.12276,0.1638 -0.20462,0.20469 0,0.0819 -0.041,0.0819 -0.041,0.0411 z"
     inkscape:connector-curvature="0"
     style="stroke-width:0.4092302" />
  <path
     id="path54"
     d="m 38.18126,3.43774 c -0.041,0 -0.082,0 -0.12279,0 l -0.0819,-0.0412 -0.12269,-0.0411 c 0,0.16357 0,0.2864 0,0.40916 0,0.12279 0,0.24556 0,0.32741 v 0.24556 c 0,0.12273 0,0.20454 0.0409,0.32735 0,0.0819 0.0409,0.12281 0.0818,0.20462 0.041,0.0412 0.041,0.0818 0.0819,0.16365 0.0409,0.0819 0.0409,0.12284 0.0409,0.20466 -0.0409,0.0818 -0.0409,0.16367 -0.0818,0.20458 -0.041,0.082 -0.12271,0.082 -0.28635,0 -0.12287,-0.0819 -0.24563,-0.16367 -0.32745,-0.32734 -0.041,-0.12279 -0.041,-0.24555 0,-0.36824 0,-0.0413 0.0409,-0.1638 0.0409,-0.28655 l 0.0409,-0.40925 c 0,-0.16366 0.0408,-0.28645 0.0408,-0.36832 0.0411,-0.16372 0.0411,-0.32729 0,-0.49098 0,-0.12284 -0.0408,-0.24557 -0.0408,-0.36834 0,-0.12284 0,-0.28644 -0.0409,-0.45028 -0.0409,-0.16364 0,-0.28633 0,-0.36819 0,-0.0819 0,-0.24555 0,-0.36825 0,-0.12283 0,-0.24565 0,-0.36837 0,-0.12279 0,-0.24552 0.0409,-0.32743 0.0408,-0.0818 0,-0.16366 0,-0.16366 0,-0.0818 0.0408,-0.12279 0.0408,-0.1637 0.0411,-0.0412 0.082,-0.0818 0.12287,-0.12276 0.0819,0 0.16373,0 0.24558,0 h 1.30949 c 0.12279,0 0.20467,0 0.32737,0.0411 0.16373,0.0411 0.3273,0.0818 0.4911,0.20464 0.20465,0.12278 0.32737,0.28647 0.45017,0.49108 0.16357,0.28645 0.20461,0.61379 0.20461,0.94119 0.0409,0.32741 -0.0819,0.65482 -0.32741,0.85936 -0.20457,0.16378 -0.45012,0.28654 -0.69575,0.36835 -0.24542,0.0412 -0.49101,0.0818 -0.73652,0.0818 -0.12281,0 -0.28644,0 -0.40916,0 -0.041,0.0411 -0.12287,0.0411 -0.16377,0.0411 -0.0819,-0.0411 -0.12276,-0.0818 -0.16368,-0.0818 z M 37.93568,2.08728 c 0,0.041 0,0.12269 0,0.16362 0,0.0819 0,0.12272 0,0.2047 0,0.0819 0,0.16361 0,0.24544 0,0.0819 0.16363,0.0819 0.2865,0.0411 h 0.0817 c 0.0411,0 0.0819,0 0.0819,-0.0411 0.0409,0 0.0819,0 0.0819,0 h 0.40916 c 0.12286,0.0411 0.20458,0.0411 0.32744,0.0411 h 0.20468 c 0.0818,0 0.12269,-0.0411 0.16363,-0.0411 0.0818,-0.0411 0.16373,-0.0818 0.24555,-0.16359 0.0819,-0.0819 0.16368,-0.16383 0.20462,-0.24559 0.0818,-0.0819 0.0818,-0.20458 0.0818,-0.32743 0,-0.20456 -0.0409,-0.40917 -0.12279,-0.57291 -0.0818,-0.0818 -0.16368,-0.16363 -0.2455,-0.24553 -0.041,-0.0411 -0.12278,-0.0411 -0.20467,-0.0411 h -1.18672 c -0.0819,0 -0.12276,0 -0.20462,-0.0412 -0.041,0 -0.1228,-0.0411 -0.16373,-0.0411 -0.0409,0 -0.0409,0 -0.0818,0 0,0 -0.0409,0 -0.0409,0.0411 0,0.0412 0,0.12273 0,0.16372 0,0.0818 0,0.20455 0,0.28646 V 1.8412 c 0.0818,0.16375 0.0818,0.2456 0.0818,0.2456 z M 38.09931,1.3097 c 0.082,-0.0411 0.12287,0.0411 0.16377,0.20464 0.0408,0.12283 0.0819,0.28648 0.0408,0.45009 -0.0408,0.0412 -0.0408,0.12285 -0.0817,0.16374 0,0.0408 -0.0409,0.0818 -0.0819,0.12273 -0.041,0.0412 -0.041,0.0819 -0.0819,0.0819 0,-0.0411 0,-0.0411 0,-0.0411 0,-0.0412 0.0409,-0.0819 0.0409,-0.16368 0,-0.0818 0,-0.12275 0,-0.20465 0,-0.0818 0,-0.1227 0,-0.2046 0,-0.0817 0,-0.16367 -0.0409,-0.24554 0.0409,-0.0819 0.0409,-0.12278 0.0409,-0.16368 z m 0,2.25077 c 0.041,0.0412 0.12287,0.0819 0.20459,0.12275 0.0819,0 0.20481,0.0412 0.2866,0.0412 0.12271,0.0411 0.24551,0.0411 0.3683,0 l -0.69572,0.0818 -0.0409,1.10494 V 4.50192 c 0,-0.12276 0,-0.20462 0,-0.32738 0,-0.12279 0,-0.16369 0,-0.16369 0,-0.0411 0,-0.082 0,-0.12276 0,-0.0411 -0.0409,-0.0819 -0.0409,-0.12279 z m 0.94131,-2.16895 c 0,0.0411 -0.0409,0.0411 -0.0818,0.0411 -0.082,0.0412 -0.16374,0.0412 -0.24559,0 0,0 0,0 0,-0.0411 0.0409,0 0.0819,0 0.1228,0 z m 0.0408,1.14593 c -0.0408,0.0411 -0.12263,0.0411 -0.20458,0 -0.0409,0 -0.0818,-0.0412 -0.12273,-0.0819 z m 1.80073,0.0411 c -0.0819,0.20461 -0.24565,0.40922 -0.40922,0.5728 -0.16373,0.16385 -0.36832,0.2866 -0.61397,0.32744 0.0819,-0.0818 0.20481,-0.12266 0.2866,-0.16359 0.0819,-0.0412 0.16364,-0.0819 0.24551,-0.16385 0.0819,-0.0411 0.12279,-0.1227 0.20462,-0.16358 0.12275,-0.16366 0.2046,-0.36834 0.28646,-0.57284 0.0819,-0.20474 0.0819,-0.40928 0.0819,-0.65484 0,-0.20462 -0.041,-0.40929 -0.0819,-0.57297 -0.0409,-0.16362 -0.12278,-0.32731 -0.24565,-0.45009 -0.0408,-0.0412 -0.0817,-0.0819 -0.12264,-0.0819 -0.041,-0.0411 -0.041,-0.0411 -0.0819,-0.0819 0,-0.0411 -0.0409,-0.0411 -0.0818,-0.0411 0.0818,0.0411 0.16373,0.0818 0.20466,0.16368 0.0409,0.0819 0.12275,0.12264 0.16366,0.20464 0.0409,0.0819 0.12286,0.16368 0.1637,0.28641 0.0819,0.24554 0.1228,0.49117 0.1228,0.73662 0,0.20465 -0.0409,0.4501 -0.1228,0.65483 z"
     inkscape:connector-curvature="0"
     style="stroke-width:0.4092302" />
  <path
     id="path56"
     d="m 43.37844,0.45032 c 0.0819,0 0.20465,-0.0412 0.28651,-0.0412 h 1.18678 0.40919 c 0.0819,0 0.16368,0 0.24563,-0.0409 0.0409,0 0.0818,-0.0409 0.0409,0 -0.0409,0.0409 0,0.0409 0.041,0.0409 0.0819,0 0.16363,0.0412 0.20456,0.0819 0.0818,0.0818 0.20466,0.12276 0.2866,0.20462 0.12264,0.12263 0.24543,0.24551 0.32731,0.40925 0.12269,0.20458 0.16363,0.45013 0.16363,0.73656 0,0.16375 -0.041,0.32741 -0.12272,0.45017 -0.0818,0.12286 -0.16364,0.28652 -0.2865,0.40918 -0.0817,0.12286 -0.20459,0.20467 -0.32737,0.32742 -0.041,0.0411 -0.1228,0.0818 -0.16367,0.12268 -0.0409,0 -0.0409,0.0413 -0.0409,0.0413 0,0 0,0.0411 0,0.0818 0.0409,0.20455 0.1227,0.45018 0.20459,0.65464 0.0409,0.12288 0.0819,0.20478 0.16371,0.32748 l 0.20458,0.32739 c 0.0819,0.12271 0.16373,0.20466 0.20467,0.28649 0.0409,0.0412 0.0818,0.12276 0.12269,0.16366 0.041,0.0819 0.041,0.16375 0,0.24556 0,0.0818 -0.0818,0.12276 -0.20458,0.20454 -0.0819,0.0413 -0.16371,0 -0.2046,-0.0411 -0.0819,-0.0819 -0.12276,-0.16367 -0.20462,-0.24549 -0.0819,-0.1228 -0.1228,-0.20464 -0.16374,-0.3274 -0.0409,-0.12269 -0.0818,-0.20462 -0.1227,-0.32744 -0.041,-0.0818 -0.0819,-0.20454 -0.16373,-0.32732 L 45.26105,3.76482 c -0.0818,-0.16367 -0.12276,-0.28651 -0.20461,-0.40915 -0.041,-0.0819 -0.0819,-0.1637 -0.16366,-0.2048 -0.0819,-0.0411 -0.20466,-0.0411 -0.28651,0 -0.0817,0.0413 -0.20459,0.082 -0.28653,0.082 -0.12272,0.0411 -0.28636,0.0411 -0.40916,0.0411 -0.12275,0 -0.20461,0 -0.32736,0.0412 -0.041,0.0412 -0.041,0.0818 -0.041,0.20451 0,0.0819 0,0.16372 0.041,0.24559 0.041,0.0819 0,0.0819 0,0.16357 0,0.082 0,0.16384 0,0.24567 0,0.0818 0,0.16372 -0.041,0.24553 0,0.0818 0,0.16368 0,0.16368 0,0.0819 0.041,0.1638 0.0819,0.24553 0.0409,0.0819 0.0818,0.20461 0.0818,0.28651 0,0.0819 -0.0409,0.16366 -0.12276,0.24547 -0.0819,0.0819 -0.16373,0.0819 -0.24551,0.0819 -0.0818,-0.0411 -0.1228,-0.0411 -0.1228,-0.0411 -0.0409,-0.0412 -0.0409,-0.0819 -0.0819,-0.16371 -0.041,-0.0818 -0.041,-0.20462 -0.041,-0.32734 0,-0.16362 0,-0.32742 0,-0.45019 0,-0.12272 0,-0.32732 0,-0.45011 0,-0.12278 0,-0.24557 0,-0.24557 V 3.27403 c 0,-0.24559 0,-0.53206 0,-0.85931 0,-0.32743 0,-0.61392 0,-0.85946 V 1.06418 c 0,-0.1228 0,-0.24568 0.041,-0.36832 0.16373,-0.12278 0.20465,-0.2046 0.24551,-0.24554 z m 0.57303,3.192 c 0,-0.0411 0,-0.0819 0,-0.16375 0,-0.0818 0.0409,-0.0818 0.0818,-0.0818 0.0819,0.0412 0.12272,0.0412 0.20457,0.0818 0.0818,0.0412 0.1228,0.0412 0.20465,0.0412 0.082,0 0.12276,0.0412 0.16367,0.0819 0.0409,0.0411 0.0409,0.0818 -0.0409,0.0818 -0.0819,0 -0.16369,-0.0411 -0.24563,-0.0411 l -0.0818,-0.0411 c -0.041,0.0411 -0.041,0.12279 -0.041,0.16368 0,0.0819 0,0.12279 0,0.20468 0,0.0818 0,0.16367 0,0.2455 0,0.12278 0,0.24552 -0.0409,0.32732 l -0.0409,0.36836 c 0,0.12273 -0.0409,0.24557 -0.0818,0.36829 0,0.0818 -0.041,0.16368 -0.0818,0.20453 -0.041,0.0413 -0.12286,0.0413 -0.24562,-0.0411 l -0.16377,-0.16368 0.12287,0.0411 c 0.0409,0 0.12276,0.0412 0.16366,0.0412 0.0409,0 0.0819,0 0.0819,0 0.041,-0.0412 0.041,-0.0818 0.0819,-0.0818 0.041,-0.041 0.0819,-0.0818 0.0819,-0.16366 0,-0.0412 0,-0.1228 0,-0.24556 0,-0.0818 0,-0.16378 0,-0.24552 0,-0.1228 -0.041,-0.28646 -0.041,-0.40923 0,-0.12278 0,-0.28661 -0.041,-0.40927 -0.0409,-0.0818 -0.0409,-0.16368 -0.0409,-0.16368 z M 45.4246,1.02328 h -0.16368 c -0.0409,0 -0.0409,0 -0.0818,0.0411 -0.0819,0 -0.20467,0 -0.28645,0 -0.16364,0 -0.24558,0 -0.2865,0 -0.0817,0 -0.12276,0 -0.20459,0 -0.041,0 -0.12278,0 -0.16373,0 -0.041,0 -0.0819,0 -0.12272,0 -0.0409,0 -0.0409,0 -0.1228,-0.0411 -0.12278,-0.0412 -0.1637,-0.0412 -0.2046,0 0,0.0411 0,0.12271 0,0.16362 0,0 0,0.0413 0,0.0819 0,0.0411 0,0.12273 0,0.20459 0,0.0819 0,0.16379 0.0409,0.24554 0.0409,0.0819 0,0.12276 0,0.16371 0,0.0411 0,0.0818 0.0409,0.1228 0,0 0,0.0412 -0.0409,0.0819 -0.0409,0.041 -0.0409,0.12269 -0.0817,0.16362 -0.0411,0.0819 -0.0411,0.16382 0,0.16382 0.0408,0 0.0817,0.0411 0.20457,0 0.0409,-0.0413 0.12273,-0.0413 0.20451,-0.082 0.0409,0 0.0819,0 0.1228,0.0411 l 0.24566,0.0413 0.28637,0.0411 c 0.0819,0 0.16363,0.0411 0.24551,0.0411 0.1637,0 0.28647,0 0.45023,-0.0411 0.12272,0 0.24543,-0.082 0.32731,-0.16373 0.0819,-0.0819 0.1637,-0.20457 0.24565,-0.32742 0.0817,-0.12275 0.0817,-0.24551 0.0408,-0.36836 0,-0.12269 -0.0408,-0.2455 -0.0819,-0.32728 -0.0409,-0.0819 -0.12277,-0.16367 -0.20462,-0.2455 -0.12281,0.0411 -0.28647,0 -0.40925,0 z m -1.43229,0.40916 c 0,0 0.041,-0.0411 0.0819,-0.0411 0.0409,0 0.0818,0 0.16363,0.0411 l 0.20466,0.0412 h -0.12288 c -0.0818,0 -0.12272,0 -0.2045,0.0412 -0.0409,0.0411 -0.0409,0.0817 0,0.16368 0,0.0411 0.0409,0.0819 0.0409,0.12278 l -0.0409,-0.0412 c -0.0409,-0.0412 -0.0409,-0.0818 -0.0409,-0.0818 0,-0.0411 -0.041,-0.082 -0.041,-0.12281 -0.0818,-0.0819 -0.0818,-0.0819 -0.041,-0.12281 z m 0.0819,0.61393 0.0409,0.0818 c 0.0409,0.0408 0.0818,0.0818 0.12272,0.0818 l 0.16373,0.0412 c 0.0818,0.0412 0.16368,0.0412 0.2455,0.0412 l -0.53195,-0.0412 -0.1228,-0.0818 c 0,0 0,-0.0411 0,-0.0411 0.041,-0.041 0.041,-0.0818 0.0819,-0.0818 z m 1.63685,-1.8825 c 0.24559,0.12274 0.49109,0.28645 0.69576,0.45014 0.16364,0.1228 0.24542,0.24558 0.36829,0.40927 0.0819,0.12271 0.12276,0.28642 0.12276,0.40916 0,0.16364 0.041,0.28648 0.041,0.45019 0,0.16374 0,0.32734 -0.0817,0.49099 -0.0411,0.16383 -0.12287,0.28654 -0.20481,0.40932 -0.0818,0.12276 -0.16364,0.24549 -0.24542,0.32736 -0.041,0.0411 -0.0819,0.12281 -0.12273,0.16372 0,0.0819 0,0.16372 0.0409,0.24548 0.041,0.12282 0.0819,0.2865 0.16367,0.40916 0.0409,0.16383 0.1228,0.36843 0.20468,0.57305 L 46.36606,3.92866 C 46.28426,3.806 46.20233,3.64232 46.16141,3.5195 c -0.0409,-0.0818 -0.0817,-0.16359 -0.0817,-0.24548 0,-0.0411 0.0408,-0.0818 0.12263,-0.16372 C 46.32513,3.0284 46.40701,2.9057 46.52971,2.8239 46.69348,2.66016 46.7753,2.41472 46.7753,2.16908 46.8162,1.84168 46.8162,1.55526 46.7344,1.22789 46.6935,1.06417 46.61161,0.94138 46.52973,0.8185 46.40703,0.69585 46.28431,0.57307 46.16144,0.49125 46.07974,0.32758 45.91593,0.24578 45.71127,0.16387 Z m 0.90034,5.44277 c 0,0 0.0409,-0.0411 0.0409,-0.0411 0.0411,0 0.0819,-0.0411 0.12287,-0.0411 0.0409,-0.0413 0.0409,-0.0819 0.0819,-0.12286 0,-0.0412 0.0408,-0.0819 0.0408,-0.16368 l 0.041,-0.24554 c 0,0.0411 0,0.0818 0,0.12279 0,0.0819 -0.041,0.20455 -0.0817,0.24549 -0.0411,0.0819 -0.12287,0.1638 -0.20481,0.20469 0,0.0819 -0.0409,0.0819 -0.0409,0.0411 z"
     inkscape:connector-curvature="0"
     style="stroke-width:0.4092302" />
  <path
     id="path58"
     d="m 51.89049,0.77772 c 0.40931,0.40918 0.69569,0.9412 0.81843,1.51414 0.0409,0.20463 0.0818,0.40918 0.0818,0.61384 0,0.24543 0,0.45021 -0.041,0.69571 -0.0409,0.24555 -0.0818,0.45013 -0.16363,0.69568 -0.0818,0.20462 -0.16371,0.40915 -0.24556,0.61386 -0.12276,0.16367 -0.24562,0.32735 -0.40923,0.45009 -0.16364,0.12274 -0.3683,0.20472 -0.57289,0.2456 -0.24555,0.0412 -0.4911,0 -0.73662,-0.0411 C 50.33533,5.48354 50.04885,5.31991 49.80334,5.11537 49.55779,4.91075 49.35314,4.62429 49.23038,4.29688 49.10762,3.96955 49.0667,3.6012 49.0258,3.27381 c 0,-0.36832 0.0409,-0.69565 0.0818,-1.06405 0.0819,-0.28645 0.16369,-0.5728 0.32743,-0.85937 0.12274,-0.20459 0.2864,-0.40922 0.49103,-0.49101 0.20459,-0.0819 0.40925,-0.16372 0.65479,-0.20467 0.16377,-0.0411 0.36836,-0.0411 0.53199,-0.0411 0.16367,0 0.20451,0 0.20451,-0.0412 -0.0409,-0.12275 -0.0409,-0.12275 0.082,-0.0818 0.20459,0.0411 0.32743,0.16365 0.49107,0.28644 z m -0.73664,0.3274 c -0.12275,0 -0.20454,0 -0.32738,0.0411 -0.20459,0.0411 -0.36834,0.1228 -0.53197,0.24553 -0.20464,0.16373 -0.36834,0.3274 -0.49108,0.532 -0.16376,0.28645 -0.24555,0.61392 -0.24555,0.94129 -0.0409,0.32741 0,0.69566 0.12272,0.98215 0.0818,0.24553 0.24557,0.45013 0.40927,0.65474 0.1637,0.1637 0.32733,0.28646 0.53202,0.36832 0.16366,0.0818 0.36833,0.0818 0.53197,0.12276 0.1636,0 0.32742,-0.0818 0.45016,-0.16372 0.16374,-0.12282 0.28648,-0.28647 0.36826,-0.45012 0.12272,-0.20462 0.20468,-0.40918 0.24559,-0.65474 0.041,-0.2047 0.0819,-0.45018 0.0819,-0.65482 0,-0.20457 -0.041,-0.45017 -0.0819,-0.65467 C 52.17696,2.2102 52.09499,2.00565 51.97227,1.80103 51.89047,1.6374 51.76775,1.47361 51.60401,1.35083 51.48127,1.18713 51.31745,1.10535 51.15385,1.10535 Z m -0.53197,0.36826 c -0.1228,0.1227 -0.24557,0.24554 -0.36832,0.40925 -0.1228,0.16374 -0.20462,0.32734 -0.24556,0.49099 -0.0818,0.20473 -0.0818,0.45028 -0.0408,0.65481 0,0.20468 0.0408,0.40931 0.0817,0.61389 0.0409,0.12276 0.0818,0.24556 0.16374,0.36833 0.0409,0.0818 0.12274,0.16367 0.16363,0.20462 l 0.16361,0.12277 0.24563,0.20455 c 0.0819,0.0819 0.0819,0.12282 0.0819,0.16365 0,0.0413 -0.0819,0 -0.12267,0 -0.0819,-0.0411 -0.16377,-0.0411 -0.24565,-0.0817 -0.0819,-0.0412 -0.16367,-0.12279 -0.24552,-0.16372 -0.0818,-0.0818 -0.1637,-0.16369 -0.20462,-0.24551 -0.12278,-0.24551 -0.16369,-0.53205 -0.2046,-0.81848 -0.0409,-0.3274 -0.0409,-0.65483 0.0818,-0.98207 0.0411,-0.16382 0.12277,-0.28655 0.20459,-0.40929 0.0819,-0.1228 0.16374,-0.20461 0.24555,-0.28651 0.0409,-0.12284 0.16361,-0.20458 0.24557,-0.24554 z m 1.51416,-1.02306 c 0.16376,0.12275 0.28643,0.24553 0.40925,0.40927 0.12274,0.16369 0.20452,0.3683 0.28643,0.57285 0.0819,0.16364 0.12277,0.36838 0.20462,0.53199 l 0.0818,0.36833 c 0,0.082 0,0.24559 0,0.4092 0,0.2047 0,0.40917 -0.0408,0.61395 -0.041,0.2455 -0.082,0.49105 -0.12285,0.73658 -0.0409,0.24555 -0.12277,0.4501 -0.24557,0.69571 -0.12274,0.20458 -0.28645,0.36832 -0.45011,0.53192 -0.16382,0.1228 -0.36832,0.24564 -0.53196,0.32748 -0.20458,0.0818 -0.45023,0.16359 -0.65482,0.24549 0.1227,-0.0412 0.28647,-0.0819 0.40924,-0.16372 0.12274,-0.0818 0.28648,-0.12273 0.40922,-0.2045 0.16369,-0.082 0.28646,-0.20475 0.45013,-0.32744 0.24556,-0.24559 0.40919,-0.49119 0.53191,-0.81849 0.082,-0.28645 0.16381,-0.57294 0.20481,-0.85944 0.0408,-0.16359 0.0408,-0.32727 0.0408,-0.53195 0,-0.20461 -0.0408,-0.4092 -0.0818,-0.61393 -0.041,-0.20454 -0.0819,-0.40919 -0.12277,-0.5728 C 52.87247,1.63717 52.83167,1.47338 52.74981,1.3097 52.70891,1.14599 52.58618,1.02328 52.46337,0.90049 52.34062,0.77772 52.21786,0.65493 52.05418,0.53217 51.93138,0.45027 51.76775,0.32758 51.68583,0.28661 51.60403,0.24551 51.56308,0.20481 51.48127,0.16387 L 51.11295,0.04094 c 0.12272,0 0.2045,0 0.32737,0.0413 0.12276,0.0411 0.20461,0.0818 0.32743,0.12276 0.0818,0.12276 0.20452,0.1636 0.36829,0.2455 z m 1.39132,3.56033 c -0.0409,0 -0.0409,-0.0411 -0.0409,-0.0411 0,-0.0412 0,-0.0412 0,-0.0819 0,0 0,-0.0411 0.0409,-0.0411 z"
     inkscape:connector-curvature="0"
     style="stroke-width:0.4092302" />
  <path
     id="path60"
     d="m 58.60185,1.10512 c 0,0.57294 0,1.06396 -0.041,1.55504 0,0.40923 0,0.81841 -0.0408,1.1868 -0.041,0.36831 -0.041,0.65475 -0.041,0.81845 -0.041,0.28643 -0.20462,0.57289 -0.45013,0.77751 -0.20466,0.16372 -0.45017,0.28645 -0.69569,0.28645 -0.24556,0 -0.4911,-0.0818 -0.73667,-0.24559 -0.28642,-0.20454 -0.45012,-0.491 -0.53197,-0.81837 -0.082,-0.12282 -0.082,-0.28647 -0.082,-0.45014 0,-0.0818 0.0411,-0.20462 0.082,-0.28661 0.0409,-0.0407 0.0819,-0.0817 0.12285,-0.12266 0.0408,0 0.0817,-0.0412 0.0817,-0.0818 0,-0.0412 0.041,-0.0412 0.041,-0.0412 0.0409,-0.0411 0.0409,-0.0411 0.0819,-0.0818 l 0.12272,-0.0412 0.0818,0.16373 c -0.0409,0 -0.0818,0 -0.0818,0 -0.0409,0.0411 -0.0818,0.0411 -0.0818,0.0818 -0.0409,0.0819 -0.0409,0.16374 -0.0409,0.24552 0,0.16373 0,0.2865 0.0409,0.45017 0.0409,0.1637 0.12277,0.28651 0.24545,0.36832 0.12283,0.0818 0.20466,0.12275 0.2456,0.16365 0.0818,0.0412 0.1637,0.0819 0.24559,0.0819 0.0409,0.0412 0.12272,0.0412 0.16366,0.0412 l -0.12277,0.0818 c 0.0409,0 0.0818,0 0.12277,-0.041 0.0409,0 0.12269,-0.0411 0.16367,-0.0411 0.0819,0 0.12277,0 0.20463,-0.0412 0.16369,-0.0412 0.24557,-0.1228 0.24557,-0.20462 0,-0.12275 0.0409,-0.28647 0.0818,-0.40926 0.0409,-0.12276 0.0409,-0.24554 0.0409,-0.36826 0,-0.16368 0,-0.40924 0.041,-0.65484 0,-0.24549 0,-0.49106 0,-0.77755 0,-0.28634 0,-0.49109 0,-0.73663 0,-0.2455 0,-0.45008 0,-0.61383 V 1.06346 c 0.0409,-0.0818 0.0818,-0.16368 0.16367,-0.24565 0.0408,-0.0817 0.12277,-0.16359 0.16367,-0.16359 0.041,0 0.0819,0.0412 0.0819,0.12279 0.0817,0.16367 0.0817,0.24556 0.0817,0.3274 z m -1.84163,3.0692 c 0,0.0818 0.0411,0.20462 0.12287,0.24554 l 0.20464,0.16367 c 0.0409,0.0412 0.0819,0.0819 0.12278,0.0819 0.0409,0 0.0818,0 0.0818,0.0411 0,0.0413 -0.0409,0.0413 -0.0409,0.0413 -0.0409,0 -0.0818,0.0408 -0.0818,0.0408 -0.041,0 -0.12283,-0.0408 -0.16376,-0.0819 -0.0408,-0.0411 -0.12276,-0.12271 -0.12276,-0.16365 -0.0409,-0.0818 -0.0818,-0.16365 -0.0818,-0.2455 -0.0411,-0.0818 -0.0411,-0.16365 -0.0411,-0.12276 z m 2.04629,-3.60125 c -0.0409,0.0412 -0.0818,0.0819 -0.1228,0.0819 -0.0819,0.0412 -0.0819,0 -0.0409,-0.0411 0.0409,-0.0412 0.0819,-0.0818 0.12278,-0.0818 0.0409,0 0.0409,0 0.0409,0.0411 z m 0.0818,0.90031 c 0,0.49105 0,0.94134 0.0409,1.35052 0,0.32723 0,0.65467 0,0.9821 0,0.20465 0,0.40927 0,0.57294 0,0.12277 -0.0409,0.24556 -0.0818,0.3684 -0.0409,0.041 -0.0409,0.0817 -0.0409,0.16361 v -0.0412 c 0,-0.0412 0.0409,-0.0818 0.0409,-0.12269 0.041,-0.0413 0.041,-0.12284 0.041,-0.1638 0,-0.0412 0,-0.12276 0,-0.16368 V 2.94639 c 0,-0.49107 0,-0.94124 0,-1.47329 z m 0,-0.57289 c 0,0 0,0.0411 0,0 0,0 0,0 0,0 0,-0.0411 -0.041,-0.082 -0.041,-0.082 h 0.041 c 0,0 0,0.0412 0,0.0412 0,0 0,0 0,0.0411 z"
     inkscape:connector-curvature="0"
     style="stroke-width:0.4092302" />
  <path
     id="path62"
     d="m 64.08557,1.26879 h -0.36832 l -0.61383,0.0411 c -0.24556,0 -0.57292,0.0411 -0.85936,0.0411 0,0.0819 0,0.20468 0,0.28659 v 1.14578 c 0.0818,0 0.12274,0 0.20455,-0.0412 0.0819,0 0.12279,0 0.20469,0 0.0409,0 0.0818,0 0.16364,-0.0411 0.0409,0 0.12277,0 0.16358,0 l 0.20482,0.0411 c 0.0818,0 0.16359,0 0.2455,0 h 0.16364 c 0.0818,0 0.20465,-0.0411 0.28647,-0.0818 0.0819,-0.0412 0.20462,-0.0412 0.2865,-0.0412 0.0818,0.0412 0.16368,0.0818 0.20457,0.0818 0.0819,0.0411 0.12277,0.12286 0.0819,0.24563 0,0.12272 -0.041,0.20447 -0.041,0.32736 -0.0409,0.0819 -0.12276,0.12277 -0.24548,0.16371 -0.0819,0.0409 -0.16377,0.0409 -0.24559,0 l -0.1638,-0.0818 c -0.0818,0 -0.12267,-0.0412 -0.20448,-0.0412 h -0.32744 c -0.12272,0 -0.24562,0 -0.32741,0 h -0.16363 c -0.0818,0.0412 -0.12272,0.0412 -0.2046,0 -0.0409,-0.0412 -0.1227,0 -0.1637,0.0412 -0.0409,0 -0.0409,0.0411 -0.0409,0.1636 0,0.12282 -0.041,0.2047 -0.041,0.32746 0,0.1228 0,0.20457 0,0.32736 0,0.0818 0,0.12276 0.041,0.20462 0.0409,0.0818 0.0409,0.12276 0.0409,0.20459 0,0.0819 0,0.12271 0,0.12271 0,0.0413 0,0.12282 -0.0409,0.16378 -0.041,0.0818 0,0.12276 0.0409,0.16366 0.0818,0.0412 0.1637,0.0412 0.24558,0 0.0818,-0.0411 0.16367,-0.0411 0.24548,-0.0411 l 0.24556,0.0411 c 0.12273,0 0.2865,0.0412 0.45017,0.0412 l 0.4501,0.0412 c 0.0819,0 0.2047,0 0.28648,0 0.16375,-0.0412 0.32739,-0.0819 0.45024,-0.12278 0.12269,-0.0818 0.2864,-0.0818 0.40915,-0.0818 0.0819,0.0411 0.16357,0.0818 0.16357,0.24558 0.0411,0.12272 0.0411,0.20452 0.0411,0.32725 -0.0411,0.082 -0.0819,0.16383 -0.16373,0.24559 -0.0818,0.0412 -0.16366,0.0818 -0.24549,0.12277 -0.041,0 -0.1228,0 -0.16377,0 -0.0818,0 -0.16366,-0.0412 -0.24562,-0.0412 l -0.24542,-0.0411 c -0.0409,0 -0.12272,-0.0412 -0.1637,-0.0412 h -2.00528 c -0.0818,-0.041 -0.16363,-0.0818 -0.20454,-0.16362 -0.0409,-0.0411 -0.0409,-0.12283 -0.0818,-0.16374 0,0 0,-0.0819 0,-0.20458 0,-0.12281 -0.041,-0.28646 -0.041,-0.4501 0,-0.1638 -0.0409,-0.32748 -0.0409,-0.49119 0,-0.16365 0,-0.24549 0,-0.32748 0,-0.12265 0,-0.28634 0.0409,-0.40916 0,-0.0818 0.041,-0.20452 0.041,-0.28639 0,-0.082 0,-0.12282 0,-0.20466 0,-0.0818 0,-0.20456 -0.041,-0.3274 0,-0.12268 -0.0409,-0.24546 -0.0409,-0.32744 0,-0.1227 0,-0.20453 0,-0.28633 0,-0.0819 0,-0.16376 0,-0.32741 0,-0.1638 0,-0.28649 0.0409,-0.40928 0,-0.1227 0.041,-0.28642 0.0819,-0.40921 0,-0.0818 0.0409,-0.16367 0.12278,-0.24551 0.0818,-0.0412 0.20446,-0.0412 0.28643,-0.0412 h 0.45015 l 0.49105,0.0412 h 0.28649 0.20461 l 0.28644,-0.0412 0.24559,-0.0411 c 0.0819,0 0.12274,-0.0412 0.16366,-0.0412 0.0819,-0.0411 0.16373,-0.0818 0.24556,-0.0818 0.0819,-0.0412 0.16369,-0.0412 0.20461,0 0.0819,0.0411 0.16371,0.12274 0.20461,0.2046 0.041,0.0819 0.0818,0.20461 0.0818,0.28647 0,0.0818 -0.0409,0.16367 -0.0818,0.20456 -0.0409,0.0819 -0.16371,0.1228 -0.24553,0.1228 -0.12278,0.0411 -0.24552,0.0411 -0.36827,0 -0.12279,-0.0818 -0.24553,-0.0818 -0.36835,-0.0407 z m -0.65473,0.24555 -0.32742,0.0411 c -0.0818,0.0411 -0.16371,0.0411 -0.24556,0.0411 -0.0409,0 -0.0818,0 -0.12276,0.0413 -0.0409,0.0408 -0.0409,0.0817 -0.0409,0.20451 0,0.12275 0.0409,0.20469 0.0409,0.32741 0,0.0818 0.0819,0.12276 0.12276,0.12276 l 0.24556,0.0411 c 0.0819,0 0.12272,0 0.20461,0 h 0.0819 c -0.0819,0 -0.1228,0 -0.20458,0 -0.12285,0 -0.24562,0 -0.32748,0.0411 h -0.49106 c 0,-0.0411 0.041,-0.0818 0.041,-0.0818 0,-0.0412 0,-0.12277 0,-0.16374 V 1.76092 c 0,-0.0818 0,-0.20462 0,-0.28648 z m -0.98223,2.08707 c 0.041,0.0818 0.041,0.12279 0.0819,0.20459 0.0409,0.0819 0.0409,0.16376 0.0409,0.24554 0,0.0819 0.041,0.2046 0.041,0.3274 0.0409,0.12277 0,0.20459 0,0.24556 0,0.0411 0,0.0411 0.0409,0.0411 0.0409,0 0.0409,-0.0411 0.0409,-0.0411 l -0.24559,0.0411 c 0,-0.1637 0,-0.32736 -0.0408,-0.45014 -0.041,-0.16373 -0.041,-0.24551 -0.041,-0.36831 0.0818,-0.12276 0.0818,-0.20463 0.0818,-0.24555 z M 62.6942,3.7242 h 0.0409 C 62.817,3.683 62.85786,3.683 62.93971,3.683 c 0.0819,0 0.16371,-0.0411 0.24563,-0.0411 0.0408,0 0.12269,0 0.16359,0.0411 h -0.0818 c -0.0818,0 -0.16369,0 -0.24552,0.0412 l -0.24554,0.0411 z m 1.26867,-1.35058 c 0.0408,0 0.0818,0.0413 0.1227,0.0413 0.0819,0.0411 0.12281,0.0818 0.1637,0.16362 z"
     inkscape:connector-curvature="0"
     style="stroke-width:0.4092302" />
  <path
     id="path64"
     d="M 70.7559,2.2509 C 70.7151,2.2097 70.6742,2.12817 70.6742,2.04637 c 0,-0.0819 -0.0409,-0.16374 -0.0819,-0.20469 0,-0.0818 -0.0409,-0.12276 -0.0819,-0.20451 -0.0409,-0.0819 -0.0818,-0.12283 -0.12273,-0.16379 l -0.20458,-0.0819 c -0.12278,-0.0412 -0.24562,-0.0818 -0.36839,-0.0818 -0.12274,-0.0411 -0.28644,-0.0411 -0.40914,-0.0411 -0.0819,0 -0.16374,0 -0.24563,0.0411 -0.0818,0.0411 -0.16365,0.12274 -0.24551,0.16368 -0.1228,0.0819 -0.24556,0.20468 -0.3274,0.32744 -0.12274,0.16361 -0.20462,0.32735 -0.28648,0.53194 -0.0818,0.24559 -0.12276,0.49114 -0.12276,0.73663 0,0.49108 0.16374,0.98215 0.45024,1.39139 0.20458,0.28656 0.53191,0.532 0.90024,0.61384 0.12281,0.0412 0.28644,0 0.40921,-0.0412 0.12284,-0.0411 0.24562,-0.12271 0.36831,-0.20461 0.0819,-0.0817 0.16372,-0.16366 0.24557,-0.24553 l 0.12279,-0.2046 c 0,-0.041 0,-0.0819 0.0409,-0.16367 0.0408,-0.0818 0.0408,-0.16373 0.0408,-0.24551 0.0411,-0.0819 0.0411,-0.16374 0.0411,-0.24556 0,-0.0819 0.0409,-0.12279 0.0409,-0.12279 0,-0.0819 0.0409,-0.12283 0.12277,-0.12283 0.041,-0.0407 0.1227,-0.0407 0.20457,-0.0407 0.0411,0 0.0818,0.0407 0.12272,0.16368 0.0411,0.0818 0.0411,0.20459 0.0411,0.32725 -0.0411,0.082 -0.0411,0.20478 -0.0411,0.32748 C 71.2468,4.41972 71.2061,4.5834 71.16518,4.7472 71.08328,4.91082 71.00146,5.11544 70.83784,5.23818 70.715,5.40187 70.51039,5.52474 70.30578,5.60651 69.8966,5.72924 69.44639,5.68831 69.07811,5.52471 68.66886,5.31997 68.34152,4.99262 68.13688,4.58337 67.8913,4.13328 67.76856,3.64216 67.76856,3.15097 c 0,-0.49097 0.0819,-0.98204 0.24551,-1.43222 0.0819,-0.20457 0.20466,-0.40921 0.36832,-0.57292 0.12284,-0.12271 0.28647,-0.2455 0.4502,-0.3275 0.12273,-0.0408 0.24552,-0.12262 0.36815,-0.12262 0.082,0 0.16381,-0.0412 0.24565,-0.0412 0.0819,0 0.16374,0 0.24556,-0.0411 0.0819,0 0.16369,-0.0412 0.24552,-0.0818 0.0408,-0.0411 0.0819,-0.0411 0.0819,0 0,0.0411 0.0409,0.0411 0.0818,0.0818 l 0.20461,0.16372 c 0.0819,0.0819 0.20461,0.20461 0.36835,0.32739 0.12279,0.12277 0.24549,0.24548 0.36827,0.36826 0.0818,0.0819 0.16371,0.20469 0.20461,0.28649 0.041,0.12276 0.041,0.2865 0,0.40922 -0.0411,0.0818 -0.0818,0.16368 -0.12279,0.24563 0,0.0411 -0.0411,0.0411 -0.12276,0.0411 -0.12276,-0.082 -0.20454,-0.12284 -0.24564,-0.20469 z m -2.1688,0.2047 c 0.041,-0.2047 0.12278,-0.36832 0.24558,-0.53208 0.0818,-0.1227 0.16368,-0.2046 0.28646,-0.32744 0.0817,-0.0411 0.16371,-0.1227 0.2455,-0.1227 0.041,0 0.0818,0 0.12278,0 -0.1637,0.0819 -0.2866,0.16379 -0.40923,0.28649 -0.12279,0.12276 -0.20458,0.24556 -0.28649,0.3683 -0.0818,0.20459 -0.1636,0.40928 -0.1636,0.61379 -0.041,0.36834 0,0.73661 0.0818,1.06404 0.0818,0.24554 0.1228,0.32744 0.1228,0.32744 0,-0.0412 -0.041,-0.12279 -0.0819,-0.16368 C 68.7099,3.84696 68.6689,3.7242 68.6281,3.60141 68.5871,3.43774 68.5462,3.23311 68.5462,3.06939 68.5053,2.86481 68.5053,2.66016 68.5871,2.4556 Z m 2.6191,0.0411 c 0.0411,0 0.0818,0 0.0818,-0.0411 0.0411,-0.0411 0.12281,-0.082 0.16378,-0.16374 0.0411,-0.12278 0.0411,-0.24549 0,-0.36834 C 71.41068,1.67806 71.288,1.43244 71.16528,1.1869 71.08338,1.02328 70.96072,0.90049 70.797,0.77772 70.67422,0.65493 70.55144,0.57307 70.38776,0.45032 70.22402,0.36842 70.01948,0.28661 69.85574,0.20482 c 0.0409,0 0.12263,0 0.16374,0.0412 l 0.1637,0.0818 c 0.0409,0.0408 0.12269,0.0408 0.1636,0.0818 0.1637,0.0819 0.32744,0.20468 0.45022,0.32748 0.20456,0.16368 0.36828,0.3683 0.491,0.61378 0.12281,0.20466 0.20466,0.4502 0.20466,0.65483 0,0.12271 0,0.28643 -0.0411,0.40929 0,0.0411 -0.0411,0.0818 -0.16378,0.0818 0,0 -0.0411,0 -0.0818,0 z m 0.32724,1.14583 c 0,0.12276 0,0.24556 0,0.3683 -0.041,0.12282 -0.041,0.24552 -0.0817,0.40923 -0.0411,0.16368 -0.0819,0.32749 -0.20467,0.4911 -0.0818,0.16367 -0.20461,0.32734 -0.36831,0.49105 -0.1229,0.12287 -0.28646,0.20464 -0.45011,0.28648 -0.16373,0.0818 -0.36829,0.16366 -0.57295,0.20461 0.12263,-0.0412 0.24552,-0.0819 0.36828,-0.12278 L 70.5923,5.56594 c 0.16356,-0.082 0.28646,-0.20469 0.40922,-0.32744 0.16372,-0.12271 0.24555,-0.28646 0.32741,-0.49095 0.16369,-0.3684 0.24559,-0.73672 0.20447,-1.10502 z"
     inkscape:connector-curvature="0"
     style="stroke-width:0.4092302" />
  <path
     id="path66"
     d="m 75.62592,0.36844 h 0.16361 0.16371 c 0.0412,0 0.12278,-0.0409 0.16374,-0.0409 h 0.24558 c 0.0817,0 0.1636,0 0.24548,-0.0412 0.0412,0 0.12274,-0.0411 0.16371,-0.0818 0.0818,-0.0412 0.12277,-0.0819 0.20447,-0.0819 0.082,0 0.16386,0 0.24566,0.0411 0.0818,0.0412 0.12274,0.12274 0.16369,0.20456 0.0819,0.16374 0.0819,0.32742 0.0412,0.49116 -0.0412,0.12275 -0.12282,0.16369 -0.24551,0.20458 -0.0819,0 -0.12281,0 -0.2048,0.0412 -0.041,0 -0.0817,0 -0.12266,-0.0412 -0.0818,-0.0411 -0.16366,-0.0818 -0.24552,-0.0411 l -0.2455,0.0411 c -0.0412,0 -0.0818,0.0412 -0.0818,0.0412 -0.0412,0 -0.082,0 -0.16372,0 -0.0412,0 -0.12278,0 -0.16374,-0.0412 -0.041,-0.0411 -0.0818,-0.0411 -0.16371,-0.0411 h -0.0818 -0.0818 -0.0411 v 3.60121 l 0.0818,0.28646 c 0.0412,0.0818 0.0412,0.12272 0.0412,0.20462 0,0.0412 0,0.0819 0,0.12275 -0.0412,0.0411 -0.1227,0.0818 -0.16364,0.12272 -0.0818,0.0412 -0.12288,0.0412 -0.20461,0.0412 C 75.29876,5.3607 75.21706,5.32 75.1761,5.15641 75.0943,4.95173 75.0943,4.74723 75.1352,4.5016 c 0,-0.16367 0.0409,-0.36827 0.0409,-0.65475 0,-0.32746 0.0412,-0.61384 0.0412,-0.9003 0,-0.2865 0.0411,-0.57304 0.0411,-0.85938 0,-0.16376 0,-0.32741 0,-0.4912 0,-0.0817 -0.0411,-0.16364 -0.0411,-0.20455 0,-0.0818 0,-0.16363 -0.0412,-0.24553 0,-0.0818 -0.0409,-0.12272 -0.0818,-0.20462 0,-0.0411 -0.0819,-0.0818 -0.1228,-0.0818 -0.12273,0 -0.20461,0 -0.20461,0.0411 -0.0411,0.0819 -0.16373,0.1228 -0.24553,0.0819 h -0.20461 -0.20463 c -0.0411,0 -0.0818,0 -0.12276,-0.0412 -0.0818,-0.0411 -0.12292,-0.12289 -0.20459,-0.16366 -0.0819,-0.0819 -0.12278,-0.16371 -0.16375,-0.28647 0,-0.0412 0,-0.12282 0.0412,-0.16367 0.0411,-0.0412 0.0818,-0.0412 0.16362,-0.0412 h 0.28651 l 0.57298,0.0412 0.57284,0.0408 z m 0.36828,0.90035 c 0,-0.0409 0.0818,-0.0409 0.16366,-0.0409 h 0.28646 0.32743 c 0.0818,0 0.16365,0 0.28646,0 0.12281,0 0.2455,-0.0412 0.32736,-0.16373 0.0412,-0.0411 0.0819,-0.0818 0.12273,-0.12279 0,0.0412 -0.0411,0.0819 -0.0818,0.12279 -0.0412,0.0412 -0.12282,0.12273 -0.20465,0.16373 -0.0818,0 -0.12276,0.0409 -0.20456,0.0409 -0.0819,0 -0.20466,0 -0.32742,0.0411 -0.12284,0.0411 -0.24558,0 -0.32734,0 h -0.16387 c -0.041,0 -0.0817,0.0411 -0.0817,0.0818 V 2.7831 c 0,0.36819 0,0.69563 0,1.06403 0,0.3683 0,0.6138 0,0.77753 0,0.12284 0,0.24553 0,0.36829 0,0.0818 -0.0412,0.12279 -0.0412,0.16373 0,0.0411 -0.0411,0.0818 -0.0818,0.0818 0,-0.0407 0.041,-0.0407 0.041,-0.0818 0.041,-0.0819 0.041,-0.12284 0.041,-0.20469 V 4.7475 c 0,-0.12284 0,-0.28657 0,-0.45025 0,-0.16365 0,-0.36843 0,-0.61387 0,-0.24548 0,-0.45011 0,-0.69567 -0.0818,-0.4501 -0.0818,-1.06402 -0.0818,-1.71876 z"
     inkscape:connector-curvature="0"
     style="stroke-width:0.4092302" />
  <path
     id="path68"
     d="m 82.8693,1.92352 c -0.0412,0 -0.0412,0.0411 -0.0819,0.0411 -0.0818,0 -0.12276,-0.0411 -0.16364,-0.0818 -0.0412,-0.0412 -0.0819,-0.0818 -0.0819,-0.16371 0,-0.0407 0,-0.12284 -0.0411,-0.16366 -0.0411,-0.0819 -0.12282,-0.16373 -0.20468,-0.24556 -0.0818,-0.0818 -0.16362,-0.1637 -0.28645,-0.24553 -0.12276,-0.0818 -0.28641,-0.0818 -0.40921,-0.0818 -0.16367,0 -0.32738,0.0412 -0.49108,0.0412 -0.0818,0 -0.16368,0.0411 -0.24562,0.0818 -0.0817,0.0411 -0.20451,0.0818 -0.28636,0.16367 -0.0819,0.0411 -0.16374,0.12273 -0.24554,0.16365 -0.0818,0.0412 -0.0818,0.12282 -0.0818,0.20473 0,0.1227 0.0818,0.28635 0.16363,0.36825 0.0819,0.0819 0.16374,0.1227 0.24559,0.16366 h 0.0818 c 0,0 0.0412,0.0411 0.16378,0.0818 0.12272,0.0819 0.28637,0.12272 0.45009,0.12272 0.12271,0 0.28637,0.0413 0.40922,0.082 0.12275,0.0411 0.24551,0.0411 0.36834,0.0411 0.0818,0 0.12269,0 0.20459,0 v 0 c 0,-0.0411 0,-0.0411 0,-0.0818 0.0411,0 0.0817,0 0.12283,0.0411 0.0818,0.0819 0.16366,0.12276 0.24545,0.20456 0.0818,0.0818 0.20465,0.24554 0.32737,0.40925 0.12277,0.20463 0.20472,0.40918 0.20472,0.65481 0.0411,0.24556 -0.0413,0.49105 -0.16378,0.73656 -0.12273,0.20463 -0.28647,0.40926 -0.4501,0.57292 -0.12277,0.0819 -0.2456,0.16376 -0.36839,0.20461 -0.1636,0.0412 -0.32735,0.0818 -0.49103,0.12276 -0.20461,0.0412 -0.36835,0.0412 -0.57294,0 -0.16365,0 -0.3683,-0.0412 -0.49109,-0.12276 C 80.53646,5.15735 80.41363,5.07548 80.29095,4.99364 80.16814,4.87088 80.04532,4.7482 79.9635,4.62536 79.8817,4.50257 79.79984,4.3798 79.75892,4.21611 c -0.0412,-0.12276 -0.0819,-0.24549 -0.0819,-0.36829 0,-0.0819 0,-0.16374 0.0819,-0.24555 0.0411,-0.0412 0.0818,-0.0819 0.12279,-0.12284 0.041,-0.0409 0.12274,-0.0409 0.16361,0 0,0 0,0 0,-0.0409 -0.0409,-0.041 -0.0409,-0.0818 0,-0.0818 0,-0.0412 0.0411,-0.0819 0.0819,-0.12279 0.0411,0 0.0818,0 0.0818,-0.0411 0,0 0,0.0411 0,0.0411 -0.0411,0.0411 -0.0411,0.0819 -0.0411,0.12279 0,0.0411 0,0.0818 0,0.12267 0,0.0411 0.0411,0.0819 0.0819,0.0819 0,0.0412 0.0412,0.0412 0.0818,0.0412 0.0412,0 0.0818,0.0411 0.0818,0.12278 0.0411,0.0411 0.0411,0.0818 0,0.12277 -0.041,0.0407 -0.041,0.0817 -0.041,0.1228 0,0.0411 0,0.12273 0.041,0.16368 l 0.20462,0.24549 c 0.0412,0.0411 0.0819,0.12278 0.16376,0.16366 0.0411,0.0412 0.0817,0.0819 0.16366,0.12279 0.0819,0.0411 0.16368,0.0819 0.24552,0.0819 0.12282,0 0.28646,0.0407 0.40924,0.0407 0.28646,0 0.57294,-0.0819 0.77752,-0.24557 0.16374,-0.12274 0.28648,-0.2455 0.36829,-0.40914 0.0412,-0.16368 0.0412,-0.32744 0,-0.45023 C 82.70493,3.52041 82.62334,3.35682 82.50057,3.23402 82.41857,3.15202 82.33685,3.11119 82.2141,3.11119 82.09135,3.07009 81.9276,3.02929 81.76392,3.02929 L 81.3138,2.94749 C 81.15008,2.90629 81.02733,2.90629 80.94546,2.86559 L 80.61804,2.78369 C 80.49529,2.74249 80.37255,2.6609 80.29074,2.57908 80.16793,2.45633 80.08597,2.33352 80.04512,2.16984 79.96332,1.96518 79.92238,1.71967 79.92238,1.5151 c 0,-0.24556 0.0819,-0.49106 0.24555,-0.65476 0.16369,-0.16374 0.36832,-0.32742 0.57291,-0.40929 0.20462,-0.0819 0.45014,-0.16369 0.69571,-0.20454 0.20452,-0.0412 0.36831,-0.0412 0.57289,0 0.16372,0.0411 0.28644,0.0818 0.40914,0.16357 0.1229,0.0819 0.24564,0.16374 0.32745,0.28652 0.0819,0.0818 0.16375,0.20462 0.24563,0.32744 0.041,0.0818 0.0818,0.16362 0.12274,0.2455 0.041,0.12274 0.041,0.24556 0,0.36838 -0.0411,0.20452 -0.12274,0.28636 -0.24554,0.28636 z m -2.12803,1.39146 c 0.0412,0 0.0819,0.0412 0.0819,0.0412 l 0.16369,0.0411 c 0.0412,0.0412 0.12276,0.0412 0.16371,0.0412 h -0.20462 c -0.041,0 -0.0819,0 -0.16366,0 -0.0412,0 -0.0819,0 -0.1228,0 h -0.0819 c -0.0411,0 -0.0819,0 -0.0819,0 l -0.12274,-0.0412 c 0.0411,0 0.0411,0.0412 0.0411,0.0818 0.0411,0.0412 0.0819,0.12284 0.0819,0.16375 0,0.0819 0.0412,0.16368 0.0819,0.28634 0.0411,0.082 0.0411,0.16383 0.12275,0.20478 0.0412,0.0411 0.0819,0.0411 0.16362,0.0818 0.0412,0.0411 0.0819,0.0411 0.1638,0.0411 0.0412,0 0.0818,0 0.12277,0 h 0.16371 c 0.0409,0 0.12276,0 0.16362,0.0412 h -0.28644 c -0.0818,0 -0.16366,0 -0.24551,0 -0.0819,0 -0.12279,-0.0412 -0.20463,-0.0818 C 80.61874,4.09349 80.53695,3.92966 80.496,3.76606 80.4549,3.64332 80.37325,3.47957 80.29144,3.39779 c -0.0412,-0.0411 -0.0819,-0.0818 -0.1228,-0.12277 -0.0411,-0.0411 -0.0411,-0.0411 -0.0411,-0.0411 0.0818,0 0.16367,0.0411 0.24547,0.0819 0.16371,0 0.28647,0 0.36829,0 z m 1.30956,-1.18681 c -0.0819,0 -0.20461,0 -0.28647,0 h -0.24558 c -0.0411,0 -0.12278,0 -0.16366,-0.0411 h -0.16371 c -0.0818,0 -0.16366,0 -0.24551,-0.0411 -0.0819,0 -0.16366,-0.0412 -0.24557,-0.0819 -0.0819,-0.0411 -0.12274,-0.0818 -0.16365,-0.16362 -0.0412,-0.12275 0,-0.24556 0.0818,-0.36838 0.0819,-0.0818 0.20465,-0.16364 0.32743,-0.16364 h 0.16367 0.20466 c 0.0818,0 0.12275,0.0411 0.20455,0.0411 h -0.40921 c -0.12276,0 -0.20453,0.0411 -0.28645,0.0818 -0.0819,0.0411 -0.0819,0.12281 -0.0411,0.20454 0,0 0,0 0,0.0413 0.0411,0.0411 0.0817,0.0817 0.16366,0.1227 0.0819,0.0412 0.16367,0.0818 0.24551,0.0818 l 0.28644,0.0412 c 0.0411,0 0.0819,0.0411 0.16366,0.0411 0.0819,0 0.16378,0.0411 0.20472,0.0819 z m 0.85938,0.40928 c 0.0411,-0.0412 0.0819,0 0.16366,0.0818 l 0.20465,0.2456 c 0.0819,0.0819 0.1637,0.20458 0.2046,0.32742 0.0411,0.0818 0.0818,0.20456 0.12276,0.28634 0,0.12284 0,0.24563 0,0.36839 0,0.16369 -0.0409,0.32736 -0.0819,0.49108 -0.0411,0.20455 -0.12268,0.3682 -0.20459,0.57291 -0.0818,0.20463 -0.24555,0.32735 -0.40921,0.45009 -0.16375,0.12274 -0.3683,0.20472 -0.6139,0.28656 -0.20453,0.0408 -0.4092,0.0818 -0.61372,0.0818 -0.16381,0 -0.32748,0 -0.49118,0 l -0.2046,-0.0411 c -0.0411,-0.0408 0.0412,-0.0408 0.1637,0 0.16372,0.0411 0.28647,0 0.40923,0 0.16371,0 0.32737,-0.0408 0.49109,-0.12273 0.20454,-0.082 0.40928,-0.16375 0.57294,-0.24563 0.16364,-0.1227 0.36832,-0.2455 0.49106,-0.3683 0.20459,-0.24559 0.32738,-0.53198 0.36829,-0.81839 0.0411,-0.16367 0.0411,-0.36835 0,-0.53203 C 83.44199,3.43759 83.40129,3.27388 83.31939,3.15098 83.23759,2.9874 83.15567,2.86466 83.07384,2.70089 L 82.9511,2.61909 C 82.8693,2.57829 82.8693,2.57829 82.91,2.53729 Z m 0.12273,-0.45017 c 0.0412,0 0.0412,-0.0411 0.0819,-0.0411 0.0409,0 0.1228,-0.0412 0.16368,-0.0819 0.0411,-0.0411 0.0819,-0.12276 0.0819,-0.16362 0,-0.0819 0,-0.16365 0,-0.24556 0,-0.0819 -0.0412,-0.20466 -0.0412,-0.28646 l -0.0411,-0.0819 v -0.0818 c 0,-0.0412 0,-0.0818 -0.0411,-0.0818 -0.0413,-0.0412 -0.0413,-0.0819 -0.0819,-0.1228 -0.0409,-0.0411 -0.0409,-0.12277 -0.12274,-0.20461 -0.0818,-0.0819 -0.20462,-0.1637 -0.2865,-0.24556 C 82.62319,0.36827 82.45953,0.28646 82.29573,0.20468 L 81.68202,0 c 0,0 0.041,0 0.041,0 h 0.16365 c 0.12276,0.0411 0.28649,0.0819 0.40921,0.12281 0.1638,0.0819 0.32746,0.12282 0.45015,0.20462 0.12283,0.0817 0.20467,0.2046 0.3274,0.28644 0.1227,0.1637 0.16379,0.24558 0.16379,0.24558 0,0.0411 0,0.0411 0,0.0818 0,0 0,0.0412 0.0411,0.0412 l 0.0819,0.0412 c 0.0412,0 0.0818,0.0411 0.0818,0.0411 l -0.0411,0.0412 c 0,0 -0.0412,0 -0.0412,0.0411 0,0.0819 0.0412,0.1228 0.0412,0.20458 0,0.0819 0,0.12281 0,0.20466 0,0.0819 0,0.12278 0,0.16369 0,0.0819 -0.0412,0.2046 -0.12281,0.24551 -0.0411,0.0413 -0.082,0.12285 -0.16369,0.16369 -0.0412,0.0412 -0.0412,0.0412 -0.0819,0 -0.041,-0.0407 -0.0818,-0.0817 -0.041,-0.12271 z"
     inkscape:connector-curvature="0"
     style="stroke-width:0.4092302" />
</svg>
