<?xml version="1.0" encoding="UTF-8" standalone="no"?>
<!-- Generator: Adobe Illustrator 24.2.3, SVG Export Plug-In . SVG Version: 6.00 Build 0)  -->

<svg
   xmlns:dc="http://purl.org/dc/elements/1.1/"
   xmlns:cc="http://creativecommons.org/ns#"
   xmlns:rdf="http://www.w3.org/1999/02/22-rdf-syntax-ns#"
   xmlns:svg="http://www.w3.org/2000/svg"
   xmlns="http://www.w3.org/2000/svg"
   xmlns:sodipodi="http://sodipodi.sourceforge.net/DTD/sodipodi-0.dtd"
   xmlns:inkscape="http://www.inkscape.org/namespaces/inkscape"
   version="1.1"
   id="svg4"
   x="0px"
   y="0px"
   viewBox="0 0 100 100"
   style="enable-background:new 0 0 100 100;"
   xml:space="preserve"
   sodipodi:docname="twitter-round-color.svg"
   inkscape:version="0.92.2 5c3e80d, 2017-08-06"><metadata
     id="metadata10"><rdf:RDF><cc:Work
         rdf:about=""><dc:format>image/svg+xml</dc:format><dc:type
           rdf:resource="http://purl.org/dc/dcmitype/StillImage" /><dc:title></dc:title></cc:Work></rdf:RDF></metadata><defs
     id="defs8" /><sodipodi:namedview
     pagecolor="#ffffff"
     bordercolor="#666666"
     borderopacity="1"
     objecttolerance="10"
     gridtolerance="10"
     guidetolerance="10"
     inkscape:pageopacity="0"
     inkscape:pageshadow="2"
     inkscape:window-width="774"
     inkscape:window-height="480"
     id="namedview6"
     showgrid="false"
     inkscape:pagecheckerboard="true"
     inkscape:zoom="2.36"
     inkscape:cx="50"
     inkscape:cy="50"
     inkscape:window-x="0"
     inkscape:window-y="0"
     inkscape:window-maximized="0"
     inkscape:current-layer="svg4" /><style
     type="text/css"
     id="style2">
	.st0{fill-rule:evenodd;clip-rule:evenodd;fill:#1DA1F2;}
</style><path
     id="path2"
     inkscape:connector-curvature="0"
     class="st0"
     d="M50,0c27.6,0,50,22.4,50,50s-22.4,50-50,50S0,77.6,0,50  S22.4,0,50,0z M77.1,33.2c-2,0.9-4.1,1.5-6.4,1.8c2.3-1.4,4.1-3.6,4.9-6.2c-2.2,1.3-4.5,2.2-7.1,2.7c-2-2.2-4.9-3.5-8.1-3.5  c-6.2,0-11.1,5-11.1,11.1c0,0.9,0.1,1.7,0.3,2.5c-9.3-0.5-17.5-4.9-23-11.6c-1,1.7-1.5,3.6-1.5,5.6v0c0,3.9,2,7.3,4.9,9.3  c-1.8-0.1-3.5-0.6-5-1.4v0.1c0,5.4,3.8,9.9,8.9,10.9c-0.9,0.3-1.9,0.4-2.9,0.4c-0.7,0-1.4-0.1-2.1-0.2c1.4,4.4,5.5,7.6,10.4,7.7  c-3.8,3-8.6,4.8-13.8,4.8c-0.9,0-1.8-0.1-2.7-0.2c4.9,3.2,10.8,5,17.1,5c20.5,0,31.7-17,31.7-31.7c0-0.5,0-1,0-1.4  C73.8,37.4,75.7,35.4,77.1,33.2L77.1,33.2L77.1,33.2z" /></svg>