<?xml version="1.0" encoding="utf-8"?>
<!-- Generator: Adobe Illustrator 24.2.0, SVG Export Plug-In . SVG Version: 6.00 Build 0)  -->
<svg version="1.1"
	 id="svg1037" xmlns:cc="http://creativecommons.org/ns#" xmlns:dc="http://purl.org/dc/elements/1.1/" xmlns:inkscape="http://www.inkscape.org/namespaces/inkscape" xmlns:rdf="http://www.w3.org/1999/02/22-rdf-syntax-ns#" xmlns:sodipodi="http://sodipodi.sourceforge.net/DTD/sodipodi-0.dtd" xmlns:svg="http://www.w3.org/2000/svg"
	 xmlns="http://www.w3.org/2000/svg" xmlns:xlink="http://www.w3.org/1999/xlink" x="0px" y="0px" viewBox="0 0 62.6 10.2"
	 style="enable-background:new 0 0 62.6 10.2;" xml:space="preserve">
<sodipodi:namedview  bordercolor="#666666" borderopacity="1" fit-margin-bottom="0" fit-margin-left="0" fit-margin-right="0" fit-margin-top="0" gridtolerance="10" guidetolerance="10" id="namedview5" inkscape:current-layer="svg1037" inkscape:cx="62.297493" inkscape:cy="-4.6498774" inkscape:pagecheckerboard="true" inkscape:pageopacity="0" inkscape:pageshadow="2" inkscape:window-height="866" inkscape:window-maximized="1" inkscape:window-width="1715" inkscape:window-x="119" inkscape:window-y="48" inkscape:zoom="3.94" objecttolerance="10" pagecolor="#ffffff" showgrid="false" units="in">
	</sodipodi:namedview>
<path id="path20" inkscape:connector-curvature="0" d="M2.6,2.6c0,0-0.1-0.1-0.1-0.2c0-0.1,0-0.1-0.1-0.2c0-0.1,0-0.1-0.1-0.2
	C2.4,2,2.3,2,2.3,2L2.1,1.9C2,1.9,1.9,1.8,1.8,1.8c-0.1,0-0.2,0-0.3,0c-0.1,0-0.1,0-0.2,0c-0.1,0-0.1,0.1-0.2,0.1
	C1,2,0.9,2.1,0.8,2.1C0.7,2.3,0.6,2.4,0.5,2.6C0.5,2.8,0.4,3,0.4,3.2c0,0.4,0.1,0.8,0.3,1.1c0.2,0.3,0.4,0.4,0.7,0.6
	c0.1,0,0.2,0,0.3,0c0.1,0,0.2-0.1,0.3-0.2c0.1-0.1,0.1-0.1,0.2-0.2l0.1-0.2l0-0.1c0-0.1,0-0.1,0-0.2c0-0.1,0-0.1,0-0.2
	c0-0.1,0-0.1,0-0.1c0-0.1,0-0.1,0.1-0.1c0,0,0.1,0,0.1,0c0,0,0.1,0,0.1,0.1c0,0.1,0,0.2,0,0.3c0,0.1,0,0.2-0.1,0.2
	c0,0.1-0.1,0.3-0.1,0.4C2.6,4.7,2.5,4.9,2.4,5C2.3,5.1,2.1,5.2,2,5.3c-0.3,0.1-0.7,0-1-0.1C0.7,4.9,0.4,4.6,0.3,4.3
	C0.1,3.9,0,3.5,0.1,3.1c0-0.4,0.1-0.8,0.3-1.2c0.1-0.2,0.2-0.3,0.3-0.4C0.8,1.4,0.9,1.4,1,1.3c0.1,0,0.2-0.1,0.3-0.1
	c0.1,0,0.1,0,0.2,0c0.1,0,0.1,0,0.2,0c0.1,0,0.1,0,0.2-0.1c0,0,0.1,0,0.1,0s0,0,0.1,0.1c0,0,0.1,0.1,0.1,0.1l0.3,0.3
	c0.1,0.1,0.2,0.2,0.3,0.3C2.7,2,2.8,2.1,2.8,2.2c0,0.1,0,0.2,0,0.3c0,0.1-0.1,0.1-0.1,0.2c0,0-0.1,0-0.1,0C2.7,2.7,2.6,2.7,2.6,2.6
	L2.6,2.6z M0.8,2.7c0-0.2,0.1-0.3,0.2-0.4c0.1-0.1,0.2-0.2,0.2-0.2C1.3,2,1.4,2,1.4,2c0.1,0,0.1,0,0.1,0C1.4,2,1.3,2.1,1.2,2.2
	C1.1,2.3,1,2.4,1,2.5C0.9,2.6,0.8,2.8,0.8,2.9c0,0.3-0.1,0.6,0,0.9C0.9,4,0.9,4.1,0.9,4.1c0,0,0-0.1-0.1-0.1c0-0.1-0.1-0.2-0.1-0.3
	c0-0.1-0.1-0.3,0-0.4C0.7,3,0.7,2.8,0.8,2.7L0.8,2.7z M2.9,2.8C2.9,2.8,3,2.8,2.9,2.8C3,2.8,3.1,2.7,3.1,2.7c0-0.1,0-0.2,0-0.3
	c0-0.2-0.1-0.4-0.2-0.6C2.8,1.6,2.7,1.5,2.7,1.4C2.6,1.3,2.5,1.2,2.3,1.1C2.2,1.1,2,1,1.9,0.9c0,0,0.1,0,0.1,0L2.2,1
	c0,0,0.1,0,0.1,0.1c0.1,0.1,0.3,0.2,0.4,0.3C2.8,1.6,2.9,1.7,3,1.9c0.1,0.2,0.1,0.4,0.1,0.5c0,0.1,0,0.2,0,0.3
	C3.1,2.8,3,2.9,2.9,2.8C3,2.9,2.9,2.9,2.9,2.8L2.9,2.8z M3.1,3.8c0,0.1,0,0.2,0,0.3c0,0.1,0,0.2-0.1,0.3c0,0.1-0.1,0.3-0.2,0.4
	C2.8,5,2.6,5.1,2.5,5.2C2.4,5.3,2.3,5.3,2.1,5.4C2,5.5,1.8,5.5,1.7,5.5c0.1,0,0.2-0.1,0.3-0.1l0.3-0.2C2.4,5.2,2.5,5.1,2.6,5
	c0.1-0.1,0.2-0.2,0.3-0.4C3,4.5,3,4.4,3,4.2C3.1,4.1,3.1,3.9,3.1,3.8z"/>
<path id="path22" inkscape:connector-curvature="0" d="M5.3,1.3c0.1,0,0.2,0,0.2,0l0.4,0l0.6,0l0.3,0c0.1,0,0.1,0,0.2,0
	c0,0,0.1,0,0.1,0c0,0,0,0,0,0c0.1,0,0.1,0,0.2,0.1c0.1,0.1,0.2,0.1,0.2,0.2C7.6,1.8,7.7,1.9,7.8,2c0.1,0.2,0.1,0.4,0.1,0.6
	c0,0.1,0,0.3-0.1,0.4C7.7,3.1,7.6,3.2,7.5,3.3C7.5,3.4,7.4,3.5,7.3,3.5c0,0-0.1,0.1-0.1,0.1c0,0,0,0,0,0s0,0,0,0.1
	c0,0.2,0.1,0.4,0.1,0.5c0,0.1,0.1,0.2,0.1,0.3c0.1,0.1,0.1,0.2,0.2,0.3C7.6,4.9,7.6,5,7.7,5c0,0,0.1,0.1,0.1,0.1c0,0.1,0,0.1,0,0.2
	c0,0.1-0.1,0.1-0.2,0.1c0,0-0.1,0-0.2,0C7.3,5.4,7.3,5.3,7.2,5.3C7.2,5.2,7.1,5.1,7.1,5C7.1,4.9,7,4.8,7,4.7L6.9,4.4
	c0-0.1-0.1-0.2-0.1-0.4c0-0.1-0.1-0.2-0.1-0.3c0-0.1-0.1-0.1-0.1-0.2c-0.1,0-0.2,0-0.2,0c-0.1,0-0.2,0.1-0.2,0.1c-0.1,0-0.2,0-0.3,0
	c-0.1,0-0.2,0-0.3,0c0,0-0.1,0.1,0,0.2c0,0.1,0,0.1,0,0.2c0,0,0,0.1,0,0.1c0,0.1,0,0.1,0,0.2c0,0.1,0,0.1,0,0.2c0,0.1,0,0.1,0,0.1
	c0,0.1,0,0.1,0.1,0.2c0,0.1,0,0.2,0,0.2c0,0.1-0.1,0.1-0.1,0.2c-0.1,0-0.1,0.1-0.2,0c-0.1,0-0.1,0-0.1,0L5,5.2c0-0.1,0-0.2,0-0.3
	c0-0.1,0-0.3,0-0.4c0-0.1,0-0.3,0-0.4C5,4,5,4,5,4l0-0.4c0-0.2,0-0.4,0-0.7c0-0.3,0-0.5,0-0.7l0-0.4c0-0.1,0-0.2,0-0.3
	C5.1,1.5,5.2,1.4,5.3,1.3L5.3,1.3z M5.5,4l0-0.1c0-0.1,0-0.1,0.1-0.1c0.1,0,0.1,0.1,0.2,0.1c0.1,0,0.1,0,0.2,0c0.1,0,0.1,0,0.1,0.1
	C6.1,4,6.1,4,6,4C6,4,5.9,4,5.9,4l-0.1,0c0,0,0,0.1,0,0.1c0,0,0,0.1,0,0.2c0,0.1,0,0.1,0,0.2c0,0.1,0,0.2,0,0.3c0,0.1,0,0.2-0.1,0.3
	c0,0.1,0,0.2-0.1,0.3c0,0.1,0,0.1-0.1,0.2c0,0-0.1,0-0.2,0L5.2,5.3c0,0,0.1,0,0.1,0c0,0,0.1,0,0.1,0c0,0,0,0,0,0c0,0,0-0.1,0.1-0.1
	c0,0,0.1-0.1,0.1-0.1c0-0.1,0-0.1,0-0.2c0-0.1,0-0.1,0-0.2c0-0.1,0-0.2,0-0.3c0-0.1,0-0.2,0-0.3C5.6,4,5.5,4,5.5,4L5.5,4z M6.9,1.9
	l-0.1,0c0,0,0,0-0.1,0c-0.1,0-0.2,0-0.2,0c-0.1,0-0.2,0-0.2,0l-0.2,0c0,0-0.1,0-0.1,0c0,0-0.1,0-0.1,0c0,0,0,0-0.1,0
	c0,0-0.1,0-0.2,0c0,0,0,0.1,0,0.1c0,0,0,0,0,0.1c0,0,0,0.1,0,0.2c0,0.1,0,0.1,0,0.2c0,0,0,0.1,0,0.1c0,0,0,0.1,0,0.1c0,0,0,0,0,0.1
	c0,0,0,0.1-0.1,0.1c0,0.1,0,0.1,0,0.1c0,0,0.1,0,0.2,0c0,0,0.1,0,0.2-0.1l0.1,0L6,3c0.1,0,0.1,0,0.2,0c0.1,0,0.1,0,0.2,0
	c0.1,0,0.2,0,0.4,0C6.9,3.1,7,3,7.1,3c0.1-0.1,0.2-0.2,0.2-0.3c0.1-0.1,0.1-0.2,0.1-0.3c0-0.1,0-0.2-0.1-0.3C7.3,2,7.2,2,7.2,1.9
	C7.1,2,7,1.9,6.9,1.9L6.9,1.9z M5.7,2.2C5.7,2.2,5.7,2.2,5.7,2.2c0.1,0,0.1,0,0.2,0l0.2,0L6,2.3c-0.1,0-0.1,0-0.2,0c0,0,0,0.1,0,0.1
	c0,0,0,0.1,0,0.1l0,0c0,0-0.1-0.1,0-0.1c0,0,0-0.1,0-0.1C5.7,2.2,5.7,2.2,5.7,2.2L5.7,2.2z M5.8,2.6L5.8,2.6
	c0.1,0.1,0.1,0.1,0.1,0.1L6,2.8c0.1,0,0.1,0,0.2,0l-0.4,0L5.7,2.8L5.8,2.6C5.7,2.7,5.7,2.6,5.8,2.6L5.8,2.6z M7.2,1.2
	c0.2,0.1,0.4,0.2,0.5,0.4C7.8,1.7,7.9,1.8,8,1.9C8,2,8.1,2.2,8.1,2.3c0,0.1,0,0.2,0,0.4C8.1,2.8,8,2.9,8,3c0,0.1-0.1,0.2-0.2,0.3
	C7.7,3.4,7.7,3.5,7.6,3.6c0,0-0.1,0.1-0.1,0.1c0,0.1,0,0.1,0,0.2c0,0.1,0.1,0.2,0.1,0.3c0,0.2,0.1,0.3,0.1,0.5
	C7.6,4.6,7.6,4.4,7.5,4.3C7.5,4.1,7.4,4,7.4,3.9c0-0.1,0-0.1-0.1-0.2c0,0,0-0.1,0.1-0.1c0.1-0.1,0.2-0.1,0.3-0.2
	c0.1-0.1,0.2-0.3,0.3-0.5C8,2.6,8,2.4,8,2.1c0-0.1-0.1-0.3-0.2-0.4C7.7,1.6,7.7,1.5,7.5,1.4C7.5,1.4,7.3,1.3,7.2,1.2L7.2,1.2z
	 M7.6,5.7L7.6,5.7c0.1,0,0.1-0.1,0.1-0.1c0,0,0.1-0.1,0.1-0.1c0,0,0-0.1,0-0.1l0-0.2c0,0,0,0.1,0,0.1c0,0.1,0,0.2-0.1,0.2
	C7.8,5.5,7.7,5.6,7.6,5.7C7.6,5.7,7.6,5.7,7.6,5.7L7.6,5.7z"/>
<path id="path24" inkscape:connector-curvature="0" d="M12.1,2.4c0,0-0.1,0-0.3,0l-0.5,0c-0.2,0-0.5,0-0.7,0c0,0.1,0,0.2,0,0.2
	l0,0.4l0,0.5c0.1,0,0.1,0,0.2,0l0.2,0c0,0,0.1,0,0.1,0l0.1,0l0.2,0c0.1,0,0.1,0,0.2,0l0.1,0c0.1,0,0.2,0,0.2-0.1c0.1,0,0.2,0,0.2,0
	c0.1,0,0.1,0.1,0.2,0.1c0.1,0,0.1,0.1,0.1,0.2c0,0.1,0,0.2,0,0.3c0,0.1-0.1,0.1-0.2,0.1c-0.1,0-0.1,0-0.2,0c0,0-0.1,0-0.1-0.1
	c-0.1,0-0.1,0-0.2,0L11,4c0,0-0.1,0-0.2,0c-0.1,0-0.1,0-0.2,0c0,0-0.1,0-0.1,0c0,0,0,0-0.1,0.1c0,0.1,0,0.2,0,0.3c0,0.1,0,0.2,0,0.3
	c0,0.1,0,0.1,0,0.2c0,0.1,0,0.1,0,0.2c0,0,0,0.1,0,0.1c0,0,0,0.1,0,0.1c0,0.1,0,0.1,0,0.1c0.1,0,0.1,0,0.2,0c0.1,0,0.1,0,0.2,0
	l0.2,0l0.4,0l0.4,0c0.1,0,0.2,0,0.2,0c0.1,0,0.3-0.1,0.4-0.1c0.1,0,0.2-0.1,0.3,0c0.1,0,0.1,0.1,0.1,0.2c0,0.1,0,0.2,0,0.3
	c0,0.1-0.1,0.1-0.2,0.2c-0.1,0-0.1,0.1-0.2,0.1c0,0-0.1,0-0.1,0l-0.2,0L12,6c0,0-0.1,0-0.1,0l-0.3,0l-0.5,0l-0.5,0l-0.3,0
	c-0.1,0-0.1-0.1-0.1-0.1c0,0,0-0.1-0.1-0.2c0,0,0-0.1,0-0.2c0-0.1,0-0.2,0-0.4c0-0.1,0-0.3,0-0.4c0-0.1,0-0.2,0-0.3
	c0-0.1,0-0.2,0-0.3c0-0.1,0-0.2,0.1-0.2c0-0.1,0-0.1,0-0.2c0-0.1,0-0.2,0-0.3c0-0.1,0-0.2,0-0.3c0-0.1,0-0.2,0-0.2
	c0-0.1,0-0.1,0-0.3c0-0.1,0-0.2,0-0.3c0-0.1,0-0.2,0.1-0.3c0-0.1,0-0.1,0.1-0.2c0.1,0,0.2,0,0.2,0c0.1,0,0.2,0,0.4,0l0.4,0l0.2,0
	c0,0,0.1,0,0.2,0l0.2,0l0.2,0c0.1,0,0.1,0,0.2,0c0.1,0,0.1-0.1,0.2-0.1c0.1,0,0.1,0,0.2,0C12.9,1.9,13,1.9,13,2c0,0.1,0.1,0.2,0,0.2
	c0,0.1,0,0.1-0.1,0.2c0,0.1-0.1,0.1-0.2,0.1c-0.1,0-0.2,0-0.3,0C12.2,2.4,12.2,2.4,12.1,2.4L12.1,2.4z M11.5,2.6c-0.1,0-0.2,0-0.3,0
	c-0.1,0-0.1,0-0.2,0c0,0-0.1,0-0.1,0c0,0,0,0.1,0,0.2c0,0.1,0,0.2,0,0.3c0,0.1,0.1,0.1,0.1,0.1l0.2,0c0.1,0,0.1,0,0.2,0l0.1,0
	c-0.1,0-0.1,0-0.2,0c-0.1,0-0.2,0-0.3,0c-0.1,0-0.2,0-0.4,0c0,0,0-0.1,0-0.1c0,0,0-0.1,0-0.1l0-0.3c0-0.1,0-0.1,0-0.2L11.5,2.6z
	 M10.6,4.2c0,0.1,0,0.1,0.1,0.2c0,0.1,0,0.1,0,0.2c0,0.1,0,0.2,0,0.3c0,0.1,0,0.2,0,0.2c0,0,0,0,0,0c0,0,0,0,0.1,0l-0.2,0
	c0-0.1,0-0.3,0-0.4c0-0.1,0-0.2,0-0.3C10.6,4.3,10.6,4.3,10.6,4.2L10.6,4.2z M10.8,4.4L10.8,4.4c0.1,0,0.1,0,0.2,0l0.2,0
	c0.1,0,0.1,0,0.1,0l-0.1,0c-0.1,0-0.1,0-0.2,0L10.8,4.4L10.8,4.4z M11.9,3.3C11.9,3.3,11.9,3.3,11.9,3.3c0.2,0.1,0.2,0.1,0.2,0.2
	L11.9,3.3z"/>
<path id="path26" inkscape:connector-curvature="0" d="M14.9,6.1c0,0-0.1-0.1-0.1-0.1c0-0.1,0-0.2,0.1-0.3c0-0.1,0.1-0.2,0.2-0.3
	c0-0.1,0.1-0.1,0.1-0.2c0.1-0.1,0.1-0.2,0.1-0.3c0-0.1,0-0.1,0.1-0.2c0-0.1,0-0.1,0-0.2c0-0.1,0.1-0.3,0.1-0.4
	c0.1-0.2,0.2-0.4,0.3-0.6c0.1-0.1,0.1-0.2,0.2-0.4c0,0,0-0.1,0-0.1c0,0,0-0.1,0-0.1c0-0.1,0.1-0.1,0.1-0.2c0,0,0-0.1,0.1-0.1
	c0,0,0-0.1,0-0.1c0-0.1,0-0.1,0-0.2c0,0,0-0.1,0.1-0.1c0,0,0.1-0.1,0.1-0.1c0,0,0.1-0.1,0.1-0.1c0,0,0.1,0,0.1,0
	c0,0,0.1,0.1,0.1,0.2c0,0.1,0,0.1,0,0.2c0,0.1,0,0.1,0,0.2c0,0,0,0.1,0,0.1c0,0,0,0.1,0.1,0.2c0,0.1,0.1,0.2,0.1,0.4
	c0.1,0.1,0.1,0.3,0.1,0.4c0.1,0.1,0.1,0.3,0.1,0.4c0,0.1,0.1,0.2,0.1,0.4c0.1,0.2,0.1,0.3,0.1,0.5c0.1,0.1,0.1,0.3,0.1,0.4
	c0,0.1,0.1,0.2,0.1,0.3c0,0.1,0.1,0.2,0.1,0.2C18,5.9,18,6,18,6.1c0,0.1,0,0.1-0.1,0.2c0,0-0.1,0-0.2,0c-0.1,0-0.2-0.1-0.2-0.2
	c0-0.1-0.1-0.1-0.1-0.2c0,0,0-0.1,0-0.1c0-0.1,0-0.1-0.1-0.2c0,0,0-0.1-0.1-0.1c0,0,0-0.1-0.1-0.1c0,0-0.1,0-0.1,0
	c-0.1,0-0.1,0.1-0.2,0.1c-0.1,0-0.1,0-0.2,0c-0.1,0-0.3,0-0.4,0c-0.1,0-0.3,0-0.4,0c-0.1,0-0.1,0-0.2,0c-0.1,0-0.1,0-0.1-0.1
	c0,0-0.1-0.1-0.1-0.1c0,0-0.1,0,0,0.1c0,0,0,0.1,0,0.1c0,0.1,0,0.1-0.1,0.2c0,0.1-0.1,0.2-0.1,0.3c0,0.1-0.1,0.1-0.1,0.1
	C14.9,6.2,14.9,6.1,14.9,6.1L14.9,6.1z M15.5,5.8c0,0.1,0,0.2-0.1,0.3c0,0.1-0.1,0.1-0.2,0.2c0,0,0,0,0,0c0,0,0,0,0-0.1l0.1,0
	c0-0.1,0.1-0.1,0.1-0.2C15.5,5.9,15.5,5.8,15.5,5.8L15.5,5.8z M17.1,4.5l-0.1-0.3c-0.1-0.2-0.1-0.3-0.2-0.5
	c-0.1-0.2-0.1-0.3-0.2-0.5c0-0.1-0.1-0.2-0.1-0.2c0,0-0.1,0-0.1,0c0,0,0,0.1-0.1,0.1c0,0-0.1,0.1-0.1,0.1c0,0,0,0.1,0,0.1l0.1,0.1
	c0,0,0,0,0,0.1c0,0,0,0.1-0.1,0.1L16,3.9c0,0.1-0.1,0.2-0.1,0.3c0,0.1-0.1,0.2-0.1,0.2c0,0.1,0,0.1-0.1,0.2c0,0.1-0.1,0.1-0.1,0.2
	c0,0-0.1,0.1-0.1,0.1c0,0,0,0.1,0,0.1c0,0,0.1,0,0.1,0c0.1,0,0.2,0,0.2,0C16,5,16.1,5,16.1,5c0.1,0,0.1,0,0.1,0c0.1,0,0.2,0.1,0.3,0
	c0.1,0,0.1,0,0.2,0l0.2,0c0,0,0.1,0,0.1,0c0,0,0.1,0,0.1-0.1c0-0.1,0-0.2,0-0.3C17.1,4.7,17.1,4.6,17.1,4.5L17.1,4.5z M15.6,5.7
	c0.2,0,0.3,0,0.5,0l0.4,0c0.1,0,0.2,0,0.3,0L15.6,5.7z M16,4.6c0-0.1,0.1-0.2,0.1-0.3c0-0.1,0-0.2,0.1-0.2c0-0.1,0-0.1,0.1-0.1
	c0,0,0,0.1,0,0.1c0,0.1,0,0.1-0.1,0.2c0,0,0,0.1,0,0.1c0,0,0,0.1-0.1,0.1L16,4.6z M16.1,4.7L16.1,4.7c0.1,0,0.1,0,0.2,0
	c0,0,0.1,0,0.1,0.1c0,0,0,0.1,0,0.1L16.1,4.7z M18,5.5c0,0,0-0.1-0.1-0.2c0-0.1-0.1-0.2-0.1-0.4c-0.1-0.2-0.1-0.3-0.1-0.5
	c-0.1-0.2-0.1-0.4-0.2-0.6c-0.1-0.4-0.3-1-0.5-1.5c0.2,0.6,0.4,1.1,0.6,1.7l0.2,0.6c0.1,0.2,0.1,0.4,0.1,0.5C18,5.2,18,5.3,18,5.5
	C18,5.5,18,5.5,18,5.5z"/>
<path id="path28" inkscape:connector-curvature="0" d="M21.5,2.3l0.1,0c0,0,0.1,0,0.1,0c0,0,0.1,0,0.1,0l0.2,0c0.1,0,0.1,0,0.2,0
	c0,0,0.1,0,0.1,0c0.1,0,0.1-0.1,0.2-0.1c0.1,0,0.1,0,0.2,0c0.1,0,0.1,0.1,0.1,0.2c0.1,0.1,0.1,0.3,0,0.4c0,0.1-0.1,0.1-0.2,0.2
	c-0.1,0-0.1,0-0.2,0c0,0-0.1,0-0.1,0c0,0-0.1-0.1-0.2-0.1l-0.2,0l-0.1,0c0,0-0.1,0-0.1,0c0,0-0.1,0-0.1,0c0,0-0.1,0-0.1,0l-0.2,0
	l-0.2,2.9l0,0.2c0,0.1,0,0.1,0,0.2c0,0,0,0.1,0,0.1c0,0-0.1,0.1-0.1,0.1c-0.1,0-0.1,0-0.2,0c0,0-0.1-0.1-0.1-0.2
	c-0.1-0.2-0.1-0.4,0-0.5c0-0.1,0-0.3,0.1-0.5C21,4.8,21,4.6,21,4.3c0-0.2,0.1-0.5,0.1-0.7c0-0.1,0-0.3,0-0.4c0-0.1,0-0.1,0-0.2
	c0-0.1,0-0.1,0-0.2c0-0.1,0-0.1-0.1-0.2c0,0,0-0.1-0.1-0.1c-0.1,0-0.2,0-0.2,0c0,0-0.1,0.1-0.1,0.1c0,0-0.1,0-0.1,0l-0.2,0l-0.2,0
	c0,0-0.1,0-0.1,0c-0.1,0-0.1-0.1-0.2-0.2c-0.1-0.1-0.1-0.1-0.1-0.2c0,0,0-0.1,0-0.1c0,0,0.1,0,0.1,0l0.2,0l0.5,0.1
	c0.2,0,0.3,0,0.5,0.1L21.5,2.3z M21.7,3c0,0,0.1,0,0.1,0l0.2,0l0.3,0c0.1,0,0.2,0,0.2,0c0.1,0,0.2,0,0.3-0.1c0,0,0.1-0.1,0.1-0.1
	c0,0,0,0.1-0.1,0.1c0,0-0.1,0.1-0.2,0.1c-0.1,0-0.1,0-0.2,0l-0.3,0c-0.1,0-0.2,0-0.3,0l-0.1,0c0,0-0.1,0-0.1,0.1l0,0.4l-0.1,0.8
	c0,0.3,0,0.6,0,0.9c0,0.3,0,0.5,0,0.6c0,0.1,0,0.2,0,0.3c0,0,0,0.1,0,0.1c0,0,0,0.1-0.1,0.1c0,0,0,0,0-0.1c0-0.1,0-0.1,0-0.2l0-0.2
	c0-0.1,0-0.2,0-0.4c0-0.1,0-0.3,0-0.5c0-0.2,0-0.4,0-0.6C21.6,4.1,21.7,3.6,21.7,3L21.7,3z"/>
<path id="path30" inkscape:connector-curvature="0" d="M26.9,2.7C27,2.7,27,2.7,26.9,2.7c0.1,0,0.2,0,0.2,0c0,0,0.1,0,0.1,0
	c0,0,0,0.1,0,0.1c0,0,0,0.1,0,0.1c0,0.1,0,0.1,0,0.2l0-0.2c0,0,0-0.1,0-0.1C27.2,2.8,27.1,2.7,26.9,2.7c0,0-0.1,0-0.1,0
	c0,0,0,0,0,0.1c0,0,0.1,0,0.1,0.1c0.1,0,0.2,0.1,0.2,0.2c0,0.1,0,0.1,0,0.2c0,0-0.1,0.1-0.1,0.1c-0.1,0.1-0.1,0.1-0.2,0
	c-0.1,0-0.1,0-0.2-0.1c-0.1,0-0.1,0-0.2,0c0,0-0.1,0.1-0.1,0.1l0,0.2l-0.1,2.1l0,0.2c0,0.1,0,0.1,0,0.2c0,0.1,0,0.1,0,0.2
	c0,0.1,0,0.1,0,0.1c0,0,0.1,0,0.1-0.1c0,0,0.1-0.1,0.1-0.1c0,0,0.1,0,0.1,0.1c0.1,0,0.1,0.1,0.1,0c0.1,0,0.2,0,0.2,0.1
	c0,0.1,0,0.1,0,0.2c0,0.1-0.1,0.2-0.1,0.2c0,0.1-0.1,0.1-0.2,0.1c-0.1,0-0.2,0-0.3,0c-0.1,0-0.2,0-0.3,0l-0.3,0c-0.1,0-0.2,0-0.4,0
	c-0.2,0-0.3,0-0.3,0c0,0,0,0,0-0.1c0,0,0-0.1,0.1-0.1c0,0,0.1-0.1,0.1-0.1c0,0,0.1-0.1,0.1-0.1c0,0,0.1,0,0.1,0c0,0,0.1,0,0.1,0
	c0.1,0,0.1-0.1,0.1-0.1c0-0.1,0-0.1,0.1-0.2l0-0.4c0-0.2,0-0.5,0-0.7c0-0.3,0-0.5,0-0.7c0-0.2,0-0.4,0-0.5c0-0.2,0-0.4-0.1-0.6
	c0,0-0.1,0-0.1,0l-0.2,0c-0.1,0-0.1,0-0.2,0c0,0-0.1-0.1,0-0.2c0-0.1,0-0.1,0.1-0.2c0,0,0.1,0,0.1-0.1c0.1,0,0.1,0,0.2,0
	c0,0,0.1,0,0.1,0l0.2,0c0.1,0,0.2,0,0.3,0c0.1,0,0.2,0,0.3-0.1c0,0,0.1-0.1,0.1-0.1c0,0,0.1,0,0.1-0.1c0,0,0.1,0,0.1,0
	C27,2.6,27,2.6,26.9,2.7C27,2.7,27,2.7,26.9,2.7C27,2.7,26.9,2.7,26.9,2.7L26.9,2.7z M25.8,2.6c0.1,0,0.2,0,0.3,0c0.1,0,0.3,0,0.4,0
	c0.1,0,0.3,0,0.5,0.1L25.8,2.6z M26.5,4.9c0,0.3,0,0.5,0,0.7c0,0.1,0,0.3,0,0.4l0,0l0,0c0,0,0,0,0,0l-0.1,0l0.1-2.3L26.5,4.9z
	 M26.5,6.2c0-0.1,0.1-0.1,0.1-0.1c0,0,0,0,0,0c0.1,0,0.2,0.1,0.2,0.1C27,6.3,27,6.4,27,6.5c0,0.1,0,0.1,0,0.2c0,0,0,0,0,0
	c0,0,0-0.1,0-0.1c0,0,0-0.1-0.1-0.1c0,0-0.1-0.1-0.1-0.1l-0.1,0c0,0-0.1,0-0.1,0c0,0-0.1,0-0.1,0C26.5,6.3,26.5,6.3,26.5,6.2
	C26.5,6.2,26.5,6.2,26.5,6.2L26.5,6.2L26.5,6.2z"/>
<path id="path32" inkscape:connector-curvature="0" d="M32.9,3.2c0,0.1,0,0.1-0.1,0.2c0,0.1-0.1,0.1-0.1,0.2c0,0,0,0.1-0.1,0.1
	c0,0.1-0.1,0.1-0.1,0.2c0,0.1-0.1,0.2-0.1,0.3c0,0.1,0,0.1-0.1,0.2c0,0.1-0.1,0.2-0.1,0.4l-0.3,0.7c-0.1,0.3-0.2,0.5-0.3,0.7
	c-0.1,0.2-0.1,0.3-0.1,0.3c0,0,0,0.1,0,0.1c0,0.1,0,0.1,0,0.2c0,0.1,0,0.1-0.1,0.2c0,0-0.1,0.1-0.2,0.1c0,0-0.1,0-0.1,0
	c0,0-0.1-0.1-0.1-0.1c0,0-0.1-0.1-0.1-0.1c0,0,0-0.1-0.1-0.1l-0.1-0.2L30.6,6c0-0.1-0.1-0.2-0.1-0.5c-0.1-0.3-0.2-0.5-0.3-0.9
	C30.1,4.3,30,4,29.9,3.7c-0.1-0.3-0.1-0.4-0.1-0.5c0-0.1,0-0.3,0-0.4c0.1-0.1,0.1-0.1,0.2-0.1c0.1,0,0.1,0,0.1,0.1
	c0,0.1,0.1,0.1,0.1,0.2c0,0.1,0,0.1,0,0.2c0,0.1,0,0.1,0,0.2c0,0.1,0,0.3,0.1,0.4c0.1,0.2,0.1,0.4,0.1,0.6c0,0.1,0.1,0.2,0.1,0.4
	c0.1,0.1,0.1,0.3,0.2,0.4c0.1,0.1,0.1,0.2,0.1,0.3c0,0.1,0.1,0.1,0.1,0.2c0,0.1,0,0.1,0,0.2c0,0,0,0.1,0,0.1C31,6,31,6,31,6.1
	c0,0.1,0.1,0.1,0.1,0.1c0.1,0,0.1-0.1,0.1-0.2l0.2-0.4c0-0.1,0.1-0.2,0.2-0.5c0.1-0.2,0.2-0.5,0.3-0.7c0.1-0.3,0.2-0.5,0.3-0.7
	c0.1-0.1,0.1-0.3,0.1-0.5c0-0.1,0.1-0.3,0.1-0.4c0-0.1,0.1-0.1,0.2-0.2c0,0,0.1,0,0.1,0c0,0,0.1,0,0.1,0.1C32.8,3,32.9,3.1,32.9,3.2
	C32.9,3.1,32.9,3.2,32.9,3.2L32.9,3.2z M31,5.2c0,0,0-0.1,0-0.1C31,5,31,5,31,4.9c0,0,0-0.1-0.1-0.3c-0.1-0.2-0.1-0.4-0.2-0.6
	L30.5,3c0,0.1,0.1,0.3,0.2,0.4c0.1,0.1,0.1,0.2,0.1,0.3c0,0.1,0,0.1,0.1,0.2c0,0.1,0,0.2,0.1,0.3c0,0.1,0.1,0.3,0.1,0.4
	C31,4.8,31,4.9,31,5C31,5,31.1,5.1,31,5.2z M33,3.3c0,0.1,0,0.2-0.1,0.3l-0.3,0.7c-0.1,0.3-0.2,0.6-0.3,0.9C32.2,5.5,32.1,5.8,32,6
	c-0.1,0.3-0.2,0.5-0.3,0.7c0,0.1-0.1,0.2-0.2,0.3c0,0-0.1,0.1-0.1,0.1l-0.1,0c0,0-0.1,0-0.1,0l0.1-0.1c0,0,0,0,0-0.1c0,0,0,0,0-0.1
	l0,0c0,0,0.1,0,0.1,0c0,0,0.1-0.1,0.1-0.1c0-0.1,0.1-0.1,0.1-0.2c0-0.1,0.1-0.1,0.1-0.2L31.9,6C32,5.8,32,5.6,32.1,5.4
	c0.1-0.2,0.2-0.4,0.3-0.6C32.5,4.4,32.8,3.9,33,3.3L33,3.3z"/>
<path id="path34" inkscape:connector-curvature="0" d="M36.8,4L36,4c-0.2,0-0.5,0-0.7,0c0,0.1,0,0.2,0,0.2l0,0.4l0,0.5
	c0.1,0,0.1,0,0.2,0c0.1,0,0.1,0,0.2,0c0,0,0.1,0,0.1,0c0,0,0.1,0,0.1,0l0.2,0c0.1,0,0.1,0,0.2,0l0.1,0c0.1,0,0.2,0,0.2-0.1
	c0.1,0,0.2,0,0.2,0c0.1,0,0.1,0.1,0.2,0.1c0.1,0,0.1,0.1,0.1,0.2c0,0.1,0,0.2-0.1,0.3c0,0.1-0.1,0.1-0.2,0.1c-0.1,0-0.1,0-0.2,0
	l-0.1-0.1c-0.1,0-0.1,0-0.2,0l-0.3,0l-0.4,0c-0.1,0-0.1,0-0.2,0c0,0-0.1,0-0.1,0c0,0,0,0-0.1,0.1c0,0.1,0,0.2,0,0.3
	c0,0.1,0,0.2,0,0.3c0,0.1,0,0.1,0,0.2c0,0.1,0,0.1,0,0.2c0,0.1,0,0.1,0,0.1c0,0,0,0.1,0,0.1c0,0.1,0,0.1,0,0.1c0,0,0.1,0,0.2,0
	c0.1,0,0.1,0,0.2,0c0,0,0.1,0,0.2,0l0.4,0l0.4,0c0.1,0,0.2,0,0.2,0C36.9,7,37.1,7,37.2,7c0.1,0,0.2-0.1,0.3,0c0.1,0,0.1,0.1,0.1,0.2
	c0,0.1,0,0.2,0,0.3c0,0.1-0.1,0.1-0.2,0.2c-0.1,0-0.1,0.1-0.2,0.1c0,0-0.1,0-0.1,0l-0.2,0l-0.2,0c0,0-0.1,0-0.1,0l-0.3,0l-0.5,0
	l-0.5-0.1l-0.3,0c-0.1,0-0.1-0.1-0.1-0.1c0,0,0-0.1-0.1-0.1c0,0,0-0.1,0-0.2c0-0.1,0-0.2,0-0.4c0-0.1,0-0.3,0-0.4c0-0.1,0-0.2,0-0.3
	c0-0.1,0-0.2,0-0.3c0-0.1,0-0.2,0.1-0.2c0-0.1,0-0.1,0-0.2c0-0.1,0-0.2,0-0.3c0-0.1,0-0.2,0-0.3c0-0.1,0-0.2,0-0.2
	c0-0.1,0-0.1,0-0.3c0-0.1,0-0.2,0-0.3c0-0.1,0-0.2,0.1-0.3c0-0.1,0-0.1,0.1-0.2c0.1,0,0.2,0,0.2,0l0.4,0l0.4,0l0.2,0
	c0.1,0,0.1,0,0.2,0c0.1,0,0.1,0,0.2,0l0.2,0c0.1,0,0.1,0,0.2,0c0.1,0,0.1,0,0.2-0.1c0.1,0,0.1,0,0.2,0c0.1,0,0.1,0.1,0.2,0.2
	c0,0.1,0.1,0.2,0,0.2c0,0.1,0,0.1-0.1,0.2C37.6,4,37.5,4,37.4,4c-0.1,0-0.2,0-0.3,0C37,4,36.9,4,36.8,4L36.8,4z M36.3,4.2l-0.3,0
	c-0.1,0-0.1,0-0.2,0c0,0-0.1,0-0.1,0c0,0,0,0.1,0,0.2c0,0.1,0,0.2,0,0.3c0,0.1,0.1,0.1,0.1,0.1l0.2,0c0.1,0,0.1,0,0.2,0l0.1,0
	c-0.1,0-0.1,0-0.2,0c-0.1,0-0.2,0-0.3,0l-0.4,0c0,0,0-0.1,0-0.1c0,0,0-0.1,0-0.1l0-0.3c0-0.1,0-0.1,0-0.2L36.3,4.2z M35.4,5.8
	c0,0.1,0,0.1,0.1,0.2c0,0.1,0,0.1,0,0.2c0,0.1,0,0.2,0,0.3c0,0.1,0,0.2,0,0.2c0,0,0,0,0,0c0,0,0,0,0.1,0l-0.2,0c0-0.1,0-0.3,0-0.4
	c0-0.1,0-0.2,0-0.3C35.4,5.9,35.4,5.9,35.4,5.8L35.4,5.8z M35.6,6C35.6,6,35.6,6,35.6,6c0.1,0,0.1,0,0.2,0l0.2,0c0.1,0,0.1,0,0.1,0
	l-0.1,0c-0.1,0-0.1,0-0.2,0L35.6,6L35.6,6z M36.7,4.9C36.7,4.9,36.8,4.9,36.7,4.9C36.9,5,36.9,5,36.9,5.1L36.7,4.9z"/>
<path id="path36" inkscape:connector-curvature="0" d="M46.4,3.9l0.1,0l0.1,0l0.1,0l0.2,0c0.1,0,0.2,0,0.3-0.1c0.1,0,0.1,0,0.2-0.1
	c0.1,0,0.1,0,0.2,0c0.1,0,0.1,0.1,0.1,0.2c0.1,0.1,0.1,0.3,0,0.4c0,0.1-0.1,0.1-0.2,0.2c-0.1,0-0.1,0-0.2,0c0,0-0.1,0-0.1,0
	c0,0-0.1-0.1-0.2-0.1l-0.2,0l-0.1,0c0,0-0.1,0-0.1,0c0,0-0.1,0-0.1,0c0,0-0.1,0-0.1,0l-0.2,0l-0.2,2.9l0,0.2c0,0,0,0.1,0,0.2
	c0,0,0,0.1,0,0.1c0,0-0.1,0.1-0.1,0.1c-0.1,0-0.1,0-0.2,0c-0.1,0-0.1-0.1-0.1-0.2c-0.1-0.2-0.1-0.4,0-0.5c0-0.1,0-0.3,0.1-0.5
	c0-0.3,0.1-0.5,0.1-0.7c0-0.2,0.1-0.5,0.1-0.7c0-0.1,0-0.3,0-0.4c0-0.1,0-0.1,0-0.2c0-0.1,0-0.1,0-0.2c0-0.1,0-0.1,0-0.2
	c0,0,0-0.1-0.1-0.1c-0.1,0-0.2,0-0.2,0c0,0-0.1,0.1-0.1,0.1c0,0-0.1,0-0.1,0l-0.2,0l-0.2,0c0,0-0.1,0-0.1,0c-0.1,0-0.1-0.1-0.2-0.2
	c-0.1-0.1-0.1-0.1-0.1-0.2c0,0,0-0.1,0-0.1c0,0,0.1,0,0.1,0l0.2,0l0.5,0.1L46,3.9L46.4,3.9z M46.6,4.6c0,0,0.1,0,0.1,0l0.2,0
	c0.1,0,0.2,0,0.3,0c0.1,0,0.2,0,0.2,0c0.1,0,0.2,0,0.3-0.1c0,0,0.1-0.1,0.1-0.1c0,0,0,0.1-0.1,0.1c0,0-0.1,0.1-0.2,0.1
	c-0.1,0-0.1,0-0.2,0l-0.3,0c-0.1,0-0.2,0-0.3,0l-0.2,0c0,0-0.1,0-0.1,0.1l0,0.4l-0.1,0.8c0,0.3,0,0.6,0,0.9c0,0.3,0,0.5,0,0.6
	c0,0.1,0,0.2,0,0.3c0,0,0,0.1,0,0.1c0,0,0,0.1-0.1,0.1c0,0,0,0,0-0.1c0-0.1,0-0.1,0-0.2l0-0.2c0-0.1,0-0.2,0-0.4c0-0.1,0-0.3,0-0.5
	c0-0.2,0-0.4,0-0.6C46.5,5.7,46.5,5.2,46.6,4.6L46.6,4.6z"/>
<path id="path38" inkscape:connector-curvature="0" d="M51.7,5c0,0-0.1,0-0.3,0l-0.5,0c-0.2,0-0.5,0-0.7,0c0,0.1,0,0.2,0,0.2l0,0.4
	l0,0.5c0.1,0,0.1,0,0.2,0c0.1,0,0.1,0,0.2,0c0,0,0.1,0,0.1,0c0,0,0.1,0,0.1,0l0.2,0c0.1,0,0.1,0,0.2,0l0.1,0c0.1,0,0.2,0,0.2-0.1
	c0.1,0,0.2,0,0.2,0c0.1,0,0.1,0.1,0.2,0.1c0.1,0,0.1,0.1,0.1,0.2c0,0.1,0,0.2,0,0.3c0,0.1-0.1,0.1-0.2,0.1c-0.1,0-0.1,0-0.2,0
	l-0.1-0.1c-0.1,0-0.1,0-0.2,0l-0.3,0l-0.4,0c-0.1,0-0.1,0-0.2,0c-0.1,0-0.1,0-0.1,0c0,0,0,0-0.1,0.1c0,0.1,0,0.2,0,0.3
	c0,0.1,0,0.2,0,0.3c0,0.1,0,0.1,0,0.2c0,0.1,0,0.1,0,0.2l0,0.1c0,0,0,0.1,0,0.1c0,0.1,0,0.1,0,0.1c0,0,0.1,0,0.2,0
	c0.1,0,0.1,0,0.2,0c0,0,0.1,0,0.2,0L51,8l0.4,0c0.1,0,0.2,0,0.2,0C51.7,8,51.9,8,52,8c0.1,0,0.2-0.1,0.3,0c0.1,0,0.1,0.1,0.1,0.2
	c0,0.1,0,0.2,0,0.3c0,0.1-0.1,0.1-0.2,0.2c-0.1,0-0.1,0.1-0.2,0.1c0,0-0.1,0-0.1,0l-0.2,0l-0.2,0c0,0-0.1,0-0.1,0l-0.3,0l-0.5,0
	l-0.5-0.1l-0.3,0c-0.1,0-0.1-0.1-0.1-0.1c0,0,0-0.1-0.1-0.1c0,0,0-0.1,0-0.2c0-0.1,0-0.2,0-0.4c0-0.1,0-0.3,0-0.4c0-0.1,0-0.2,0-0.3
	c0-0.1,0-0.2,0-0.3l0.1-0.2c0-0.1,0-0.1,0-0.2c0-0.1,0-0.2,0-0.3c0-0.1,0-0.2,0-0.3c0-0.1,0-0.2,0-0.2c0-0.1,0-0.1,0-0.3
	c0-0.1,0-0.2,0-0.3c0-0.1,0-0.2,0.1-0.3c0-0.1,0-0.1,0.1-0.2c0.1,0,0.2,0,0.2,0l0.4,0l0.4,0c0.1,0,0.2,0,0.2,0c0.1,0,0.1,0,0.2,0
	c0.1,0,0.2,0,0.2,0l0.2,0c0.1,0,0.1,0,0.2,0c0.1,0,0.1-0.1,0.2-0.1c0.1,0,0.1,0,0.2,0c0.1,0,0.1,0.1,0.2,0.2c0,0.1,0.1,0.2,0,0.2
	c0,0.1,0,0.1-0.1,0.2C52.4,5,52.3,5,52.2,5c-0.1,0-0.2,0-0.3,0C51.9,4.9,51.8,5,51.7,5L51.7,5z M51.1,5.1c-0.1,0-0.2,0-0.3,0
	c-0.1,0-0.1,0-0.2,0c0,0-0.1,0-0.1,0c0,0,0,0.1,0,0.2c0,0.1,0,0.2,0,0.3c0,0.1,0.1,0.1,0.1,0.1l0.2,0c0.1,0,0.1,0,0.2,0l0.1,0
	c-0.1,0-0.1,0-0.2,0c-0.1,0-0.2,0-0.3,0l-0.4,0c0,0,0-0.1,0-0.1c0,0,0-0.1,0-0.1l0-0.3c0-0.1,0-0.1,0-0.2L51.1,5.1z M50.2,6.8
	c0,0.1,0,0.1,0.1,0.2c0,0.1,0,0.1,0,0.2c0,0.1,0,0.2,0,0.3c0,0.1,0,0.2,0,0.2c0,0,0,0,0,0c0,0,0,0,0,0l-0.2,0c0-0.1,0-0.3,0-0.4
	c0-0.1,0-0.2,0-0.3C50.2,6.9,50.2,6.8,50.2,6.8L50.2,6.8z M50.4,6.9C50.4,6.9,50.4,6.9,50.4,6.9c0.1,0,0.1,0,0.2,0l0.2,0
	c0.1,0,0.1,0,0.1,0l-0.1,0c-0.1,0-0.1,0-0.2,0L50.4,6.9L50.4,6.9z M51.5,5.9C51.5,5.9,51.6,5.9,51.5,5.9C51.7,5.9,51.7,6,51.7,6
	L51.5,5.9z"/>
<path id="path40" inkscape:connector-curvature="0" d="M57,6.1c0,0-0.1-0.1-0.1-0.2c0-0.1,0-0.1,0-0.2c0-0.1,0-0.1-0.1-0.2
	c0-0.1-0.1-0.1-0.1-0.1c-0.1,0-0.1,0-0.2-0.1c-0.1,0-0.2-0.1-0.3-0.1c-0.1,0-0.2,0-0.3,0c-0.1,0-0.1,0-0.2,0c-0.1,0-0.1,0.1-0.2,0.1
	c-0.1,0.1-0.2,0.2-0.3,0.3C55.2,5.8,55,5.9,55,6.1c-0.1,0.2-0.1,0.4-0.1,0.6c0,0.4,0.1,0.8,0.3,1.1c0.2,0.3,0.4,0.4,0.7,0.6
	c0.1,0,0.2,0,0.3,0c0.1,0,0.2-0.1,0.3-0.2C56.6,8.1,56.6,8,56.7,8c0.1-0.1,0.1-0.1,0.1-0.2l0-0.1c0-0.1,0-0.1,0-0.2
	c0-0.1,0-0.1,0-0.2c0-0.1,0-0.1,0-0.1c0-0.1,0-0.1,0.1-0.1c0,0,0.1,0,0.2,0c0,0,0.1,0,0.1,0.1c0,0.1,0,0.2,0,0.3
	c0,0.1,0,0.2-0.1,0.3c0,0.1-0.1,0.3-0.1,0.4c-0.1,0.1-0.2,0.3-0.3,0.4c-0.1,0.1-0.3,0.2-0.4,0.2c-0.3,0.1-0.7,0-1-0.1
	c-0.3-0.2-0.6-0.5-0.7-0.8c-0.2-0.4-0.3-0.8-0.2-1.2c0-0.4,0.1-0.8,0.3-1.1c0.1-0.2,0.2-0.3,0.3-0.4c0.1-0.1,0.2-0.2,0.4-0.3
	c0.1,0,0.2-0.1,0.3-0.1c0.1,0,0.1,0,0.2,0c0.1,0,0.1,0,0.2,0c0.1,0,0.1,0,0.2-0.1c0,0,0.1,0,0.1,0s0,0,0.1,0.1l0.1,0.1l0.3,0.3
	c0.1,0.1,0.2,0.2,0.3,0.3c0.1,0.1,0.1,0.2,0.2,0.2c0,0.1,0,0.2,0,0.3c0,0.1-0.1,0.1-0.1,0.2c0,0,0,0-0.1,0C57.1,6.2,57,6.2,57,6.1
	L57,6.1z M55.2,6.2c0-0.2,0.1-0.3,0.2-0.4c0.1-0.1,0.2-0.2,0.2-0.2c0.1,0,0.1-0.1,0.2-0.1c0.1,0,0.1,0,0.1,0
	c-0.1,0.1-0.2,0.1-0.3,0.2c-0.1,0.1-0.2,0.2-0.2,0.3c-0.1,0.2-0.1,0.3-0.2,0.5c0,0.3-0.1,0.6,0,0.9c0.1,0.2,0.1,0.3,0.1,0.3
	c0,0,0-0.1-0.1-0.1c0-0.1-0.1-0.2-0.1-0.3c0-0.1-0.1-0.3,0-0.4C55.1,6.5,55.2,6.3,55.2,6.2L55.2,6.2z M57.3,6.3
	C57.4,6.3,57.4,6.3,57.3,6.3c0.1-0.1,0.2-0.1,0.2-0.2c0-0.1,0-0.2,0-0.3c0-0.2-0.1-0.4-0.2-0.6c-0.1-0.1-0.2-0.2-0.3-0.4
	c-0.1-0.1-0.2-0.2-0.3-0.3c-0.1-0.1-0.3-0.2-0.4-0.2c0,0,0.1,0,0.1,0l0.1,0.1c0,0,0.1,0,0.1,0.1c0.1,0.1,0.3,0.2,0.4,0.3
	c0.2,0.2,0.3,0.3,0.4,0.5c0.1,0.2,0.1,0.4,0.1,0.5c0,0.1,0,0.2,0,0.3C57.6,6.3,57.5,6.3,57.3,6.3C57.4,6.3,57.4,6.3,57.3,6.3
	L57.3,6.3z M57.6,7.3c0,0.1,0,0.2,0,0.3c0,0.1,0,0.2-0.1,0.3c0,0.1-0.1,0.3-0.2,0.4c-0.1,0.1-0.2,0.3-0.3,0.4
	c-0.1,0.1-0.2,0.2-0.4,0.2C56.5,8.9,56.3,9,56.1,9c0.1,0,0.2-0.1,0.3-0.1c0.1,0,0.2-0.1,0.3-0.2c0.1-0.1,0.2-0.2,0.3-0.3
	c0.1-0.1,0.2-0.2,0.3-0.4c0.1-0.1,0.1-0.3,0.1-0.4C57.5,7.6,57.5,7.4,57.6,7.3L57.6,7.3z"/>
<path id="path42" inkscape:connector-curvature="0" d="M62.6,5.2c0,0,0,0.1,0,0.1c0,0-0.1,0.1-0.1,0.1l-0.1,0c0,0,0,0-0.1,0l0,0
	l0,0.1c0.1,0,0.1,0.1,0.1,0.1c0,0.1,0,0.1-0.1,0.2c0,0.1-0.1,0.2-0.1,0.3l0,0.2l0,0.4l0,0.5c0,0.2,0,0.4-0.1,0.5c0,0.2,0,0.3,0,0.4
	c0,0.1,0,0.2,0,0.2c0,0.1,0,0.1,0,0.2c0,0.1,0,0.1,0,0.2c0,0.1,0,0.1,0,0.2c0,0,0,0.1,0,0.1c-0.1,0-0.1,0.1-0.2,0.1
	c-0.1,0-0.1,0-0.2,0c0,0,0,0,0-0.1c0-0.1,0-0.1,0-0.2c0-0.1,0-0.1,0-0.2c0-0.1,0-0.1,0-0.1s0-0.1,0-0.3c0-0.1,0-0.3,0-0.4
	c0-0.1,0-0.2,0-0.4c0-0.1,0-0.1,0-0.2c0,0,0,0,0,0c0,0,0,0-0.1,0l-0.1,0l0,0c0,0,0,0.1-0.1,0.1c0,0-0.1,0-0.1,0l-0.3,0l-0.3,0
	c-0.1,0-0.2,0-0.3,0c-0.1,0-0.2,0-0.3,0l-0.1,0c0,0-0.1,0-0.1,0c-0.1,0-0.1,0-0.2,0c-0.1,0-0.1,0.1,0,0.2c0,0,0.1,0.1,0.1,0.1
	c0,0,0,0.1,0,0.2c0,0.1,0,0.2,0,0.4l-0.1,0.5l0.1,0.1c0,0,0,0.1,0.1,0.1c0,0,0,0.1,0,0.1c0,0,0,0.1-0.1,0.2
	c-0.1,0.1-0.2,0.1-0.2,0.1c0,0-0.1,0-0.1,0c0,0,0-0.1-0.1-0.1c0,0,0-0.1,0-0.1c0,0,0-0.1,0-0.1l0-0.3c0-0.2,0-0.3,0.1-0.5
	c0-0.2,0-0.4,0.1-0.5l0-0.3c0,0,0-0.1,0-0.3c0-0.2,0-0.4,0-0.6c0-0.2,0-0.4,0-0.6c0-0.1,0-0.3,0.1-0.4c0-0.1,0.1-0.1,0.2-0.2
	c0.1,0,0.1-0.1,0.2-0.1c0.1,0,0.1,0,0.2,0l0.1,0c0,0,0,0,0,0.1l0,0.1l-0.1,0.9c0-0.2,0-0.3,0-0.5c0-0.1,0-0.2,0-0.3
	c0-0.1,0-0.1,0-0.2l-0.1,0c0,0,0,0-0.1,0c0,0,0,0,0,0c0,0.1,0,0.1,0,0.2c0,0.1,0,0.2-0.1,0.3c0,0.1,0,0.1,0,0.2l0,0.2
	c0,0.1,0,0.2,0,0.3c0,0.1,0.1,0.1,0.1,0.1c0,0,0,0,0.1-0.1c0,0,0-0.1,0-0.1l0-0.1c0,0,0,0.1,0,0.1c0,0,0,0.1,0,0.1c0,0,0,0.1,0,0.1
	c0,0.1,0.1,0.1,0.1,0.1c0.1,0,0.2,0,0.3,0c0.1,0,0.3,0,0.4,0c0.2,0,0.3,0,0.3,0l0.1,0.1c0,0,0.1,0.1,0.1,0.1c0,0,0.1,0,0.1,0
	c0,0,0.1-0.1,0.1-0.1c0,0,0-0.1,0-0.1c0-0.1,0-0.1,0-0.2c0-0.1,0-0.2,0-0.3l0-0.2c0,0,0-0.1,0-0.2c0-0.1,0-0.2,0-0.2
	c0-0.1,0-0.2,0-0.2c0,0,0-0.1,0-0.1c0,0,0.1-0.1,0.1-0.1c0.1,0,0.1-0.1,0.2-0.1C62.4,5.3,62.5,5.2,62.6,5.2L62.6,5.2z M60.2,7.6
	c0,0,0.1,0.1,0.1,0.2l0,0.4c0,0.1,0,0.2,0,0.3c0,0.1,0,0.2-0.1,0.3c0,0.1,0,0.2,0,0.3l0,0l0,0c0,0,0,0,0-0.1c0-0.1,0-0.2,0-0.3
	c0-0.1,0-0.2,0-0.3c0,0,0-0.1,0-0.2c0-0.1,0-0.2,0-0.3L60.2,7.6C60.2,7.7,60.2,7.6,60.2,7.6L60.2,7.6z M60.9,6.5c-0.1,0-0.2,0-0.3,0
	c-0.1,0-0.1,0-0.2-0.1l0.9,0.1L60.9,6.5z M62.6,6.5c0,0,0-0.1,0-0.1c0-0.1,0-0.1,0-0.2c0-0.1,0-0.2,0-0.3
	C62.6,6.1,62.6,6.4,62.6,6.5c0,0.3,0,0.5,0,0.7c0,0.2,0,0.3,0,0.3c0,0,0,0.1,0,0.1c0,0,0,0.1,0,0.1c0,0,0,0.1,0,0.1l0,0.4l0,0.4
	c0,0,0,0.1,0,0.1c0,0,0,0.1,0,0.1l0-0.4l0-0.3c0-0.1,0-0.1,0-0.2c0,0,0-0.1,0-0.1c0-0.1,0-0.1,0-0.2l0-0.5l0-0.2c0-0.1,0-0.2,0-0.3
	C62.5,6.5,62.6,6.5,62.6,6.5L62.6,6.5z"/>
</svg>
