<?xml version="1.0" encoding="utf-8"?>
<!-- Generator: Adobe Illustrator 24.2.0, SVG Export Plug-In . SVG Version: 6.00 Build 0)  -->
<svg version="1.1"
	 id="svg1037" xmlns:cc="http://creativecommons.org/ns#" xmlns:dc="http://purl.org/dc/elements/1.1/" xmlns:inkscape="http://www.inkscape.org/namespaces/inkscape" xmlns:rdf="http://www.w3.org/1999/02/22-rdf-syntax-ns#" xmlns:sodipodi="http://sodipodi.sourceforge.net/DTD/sodipodi-0.dtd" xmlns:svg="http://www.w3.org/2000/svg"
	 xmlns="http://www.w3.org/2000/svg" xmlns:xlink="http://www.w3.org/1999/xlink" x="0px" y="0px" viewBox="0 0 26.8 8.3"
	 style="enable-background:new 0 0 26.8 8.3;" xml:space="preserve">
<sodipodi:namedview  bordercolor="#666666" borderopacity="1" fit-margin-bottom="0" fit-margin-left="0" fit-margin-right="0" fit-margin-top="0" gridtolerance="10" guidetolerance="10" id="namedview5" inkscape:current-layer="svg1037" inkscape:cx="48.199688" inkscape:cy="-36.055161" inkscape:pagecheckerboard="true" inkscape:pageopacity="0" inkscape:pageshadow="2" inkscape:window-height="866" inkscape:window-maximized="1" inkscape:window-width="1715" inkscape:window-x="119" inkscape:window-y="48" inkscape:zoom="3.94" objecttolerance="10" pagecolor="#ffffff" showgrid="false" units="in">
	</sodipodi:namedview>
<path id="path2" inkscape:connector-curvature="0" d="M2.7,3.1L2.3,3.1L1.7,3.2c-0.2,0-0.5,0.1-0.8,0.1c0,0.1,0,0.2,0,0.3L1,4.1
	L1,4.7c0.1,0,0.1,0,0.2,0l0.2,0c0,0,0.1,0,0.2,0c0,0,0.1,0,0.2,0l0.2,0l0.2,0l0.2,0c0.1,0,0.2,0,0.3-0.1c0.1,0,0.2,0,0.3,0
	c0.1,0,0.2,0.1,0.2,0.1c0.1,0,0.1,0.1,0.1,0.2s0,0.2,0,0.3c0,0.1-0.1,0.1-0.2,0.2c-0.1,0-0.2,0-0.3,0l-0.2,0c-0.1,0-0.1,0-0.2,0
	l-0.3,0l-0.3,0l-0.2,0c0,0-0.1,0-0.2,0c-0.1,0-0.1,0-0.2,0c0,0,0,0,0,0.2c0,0.1,0,0.2,0,0.3c0,0.1,0,0.2,0,0.3c0,0.1,0,0.1,0,0.2
	c0,0.1,0,0.1,0,0.2c0,0,0,0.1,0,0.1c0,0,0,0.1,0,0.2c0,0.1,0,0.2,0,0.2c0,0,0.1,0,0.2,0c0.1,0,0.2,0,0.2,0c0,0,0.1,0,0.3,0l0.4,0
	l0.4,0c0.1,0,0.2,0,0.3,0c0.2,0,0.3-0.1,0.4-0.2C3.8,6.7,3.9,6.6,4,6.6c0.1,0,0.2,0.1,0.2,0.2c0,0.1,0,0.2,0,0.3
	c0,0.1-0.1,0.2-0.1,0.2C4.1,7.5,4,7.5,3.9,7.5c0,0-0.1,0-0.2,0l-0.2,0l-0.2,0c0,0-0.1,0-0.2,0l-0.3,0L2.2,7.6C2,7.6,1.8,7.6,1.6,7.6
	l-0.3,0c-0.1,0-0.2-0.1-0.2-0.2C1,7.5,1,7.4,1,7.3c0,0,0-0.1,0-0.2c0-0.1,0-0.3-0.1-0.4c0-0.2,0-0.3-0.1-0.4c0-0.2,0-0.2,0-0.3
	c0-0.1,0-0.3,0-0.4c0-0.2,0-0.2,0-0.3c0-0.1,0-0.1,0-0.2c0-0.1,0-0.2,0-0.3c0-0.1,0-0.2,0-0.3c0-0.1,0-0.2,0-0.3c0-0.1,0-0.2,0-0.3
	c0-0.2,0-0.3,0-0.4c0-0.1,0-0.3,0-0.4c0-0.1,0-0.2,0.1-0.2c0.1,0,0.2,0,0.3,0c0.2,0,0.3,0,0.5-0.1l0.5,0c0.2,0,0.2,0,0.3,0
	c0.1,0,0.1,0,0.2,0c0.1,0,0.2,0,0.3,0l0.2,0c0.1,0,0.1,0,0.2-0.1c0.1,0,0.1-0.1,0.2-0.1c0.1,0,0.2,0,0.2,0c0.1,0,0.2,0.1,0.2,0.2
	c0,0.1,0.1,0.2,0.1,0.3c0,0.1,0,0.2-0.1,0.2c0,0.1-0.1,0.1-0.2,0.1c-0.1,0-0.2,0-0.4,0C2.9,3,2.8,3,2.7,3.1L2.7,3.1z M2.1,3.4
	L1.8,3.5c-0.1,0-0.2,0-0.2,0.1c0,0-0.1,0-0.1,0c0,0,0,0.1,0,0.2s0,0.2,0.1,0.3c0,0.1,0.1,0.1,0.2,0.1l0.2,0c0.1,0,0.1,0,0.2,0l0.1,0
	c-0.1,0-0.1,0-0.2,0c-0.1,0-0.2,0-0.3,0c-0.1,0-0.3,0-0.5,0.1c0,0,0-0.1,0-0.1c0,0,0-0.1,0-0.2l0-0.4c0-0.1,0-0.2,0-0.3L2.1,3.4z
	 M1.4,5.4c0,0.1,0.1,0.1,0.1,0.2c0,0.1,0,0.2,0.1,0.2c0,0.1,0,0.2,0.1,0.3c0,0.1,0,0.2,0,0.2c0,0,0,0,0,0s0,0,0-0.1l-0.2,0
	c0-0.2,0-0.3-0.1-0.4c0-0.1,0-0.2-0.1-0.4S1.4,5.5,1.4,5.4L1.4,5.4z M1.6,5.6L1.6,5.6c0.1,0,0.2,0,0.2,0l0.2,0c0,0,0.1,0,0.2,0
	l-0.1,0c-0.1,0-0.2,0-0.2,0C1.8,5.5,1.8,5.5,1.6,5.6L1.6,5.6z M2.7,4.1c0,0,0.1,0,0.1,0c0.1,0,0.1,0.1,0.2,0.1L2.7,4.1z"/>
<path id="path4" inkscape:connector-curvature="0" d="M7.9,6.3c-0.2,0-0.3,0-0.4,0C7.2,6.2,7,6.2,6.9,6C6.8,5.9,6.7,5.8,6.7,5.7
	c0-0.1,0-0.3-0.1-0.4c0-0.1,0-0.2,0-0.4c0-0.1,0-0.2,0.1-0.3l0-0.1l0,0c0-0.1,0-0.1,0.1-0.2c0-0.1,0.1-0.1,0.2-0.2L7.2,4l0.2-0.1
	l0.1-0.1l0,0L7.3,3.6c0,0-0.1-0.1-0.1-0.1c0,0-0.1-0.1-0.1-0.1C7,3.3,6.9,3.1,6.9,3c0-0.2-0.1-0.4-0.1-0.5c0-0.2,0.1-0.3,0.2-0.4
	C7.1,2,7.3,1.9,7.5,1.8l0.2,0c0,0,0.1,0,0.2,0c0.1,0,0.2,0,0.3,0.1c0.1,0.1,0.2,0.1,0.2,0.2C8.4,2,8.5,2,8.5,2
	c0,0.1,0.1,0.2,0.2,0.2c0,0.1,0.1,0.2,0.1,0.3c0,0.1,0,0.2,0.1,0.4c0,0.1,0,0.2-0.1,0.4C8.7,3.4,8.6,3.4,8.5,3.5
	C8.4,3.6,8.4,3.7,8.3,3.7c0,0-0.1,0-0.1,0.1l0,0l0,0c0,0,0,0.1,0,0.1c0,0,0.1,0.1,0.1,0.2c0,0.1,0.1,0.1,0.1,0.2
	c0,0,0.1,0.1,0.1,0.2c0,0,0.1,0.1,0.1,0.1l0.1,0.1l0.1,0.1c0,0,0,0,0,0l0,0l0.2-0.4c0,0,0,0,0-0.1c0,0,0-0.1,0-0.2c0,0,0,0,0-0.1
	c0,0,0-0.1,0.1-0.2c0,0,0.1-0.1,0.1-0.1l0.1,0c0,0,0.1,0,0.1,0l0,0l0,0c0,0.1,0,0.2,0,0.2s0,0.2-0.1,0.2c0,0.1,0,0.1-0.1,0.2
	c0,0,0,0.1-0.1,0.1c0,0,0,0.1,0,0.1l0,0.1l0,0.1l0,0l0,0c0,0,0,0.1,0,0.1c0,0,0,0.1,0.1,0.2l0,0c0,0,0.1,0.1,0.1,0.1
	c0.1,0,0.1,0.1,0.2,0.2c0.1,0.2,0.1,0.3-0.1,0.4l0,0l0,0c0,0-0.1,0-0.1,0c0,0,0-0.1-0.1-0.1l0,0l0-0.1L9.2,5.7c0,0,0-0.1-0.1-0.1
	c0,0,0,0,0-0.1l0,0l0,0c0,0-0.1,0-0.2,0.1C8.7,5.7,8.7,5.7,8.6,5.8C8.6,5.9,8.5,6,8.4,6C8.3,6.1,8.2,6.2,8,6.2
	C8,6.2,7.9,6.3,7.9,6.3L7.9,6.3z M7.5,3.7C7.5,3.7,7.4,3.8,7.5,3.7L7.2,4c0,0-0.1,0.1-0.2,0.2L7,4.3c0,0,0,0.1,0,0.2
	c0,0.1,0,0.2,0,0.2c0,0.1,0,0.2,0,0.3c0,0.1,0,0.2,0,0.2c0,0.1,0,0.2,0.1,0.2c0,0.1,0.1,0.2,0.1,0.2c0.1,0.1,0.2,0.1,0.2,0.1
	c0.1,0,0.2,0.1,0.4,0l0.1,0c0,0,0,0,0.1,0c0.1,0,0.2,0,0.3-0.1c0.1,0,0.2-0.1,0.2-0.2c0,0,0.1-0.1,0.1-0.1c0,0,0-0.1,0-0.1
	c0-0.1,0-0.2,0-0.2c0-0.1-0.1-0.2-0.2-0.3c0,0,0,0,0-0.1c0,0,0,0,0-0.1c0,0-0.1-0.1-0.1-0.2c0-0.1-0.1-0.2-0.2-0.3
	C8.1,4,8,3.9,7.9,3.9C7.8,3.8,7.7,3.7,7.7,3.7L7.5,3.7z M8.6,6.3L8.4,6.5c-0.1,0-0.1,0.1-0.2,0.1c0,0-0.1,0-0.2,0c0,0-0.1,0-0.2,0
	l-0.2,0L7.4,6.5l0.1,0l0.1,0c0,0,0.1,0,0.1,0c0.1,0,0.1,0,0.2,0l0.3,0c0.1,0,0.2,0,0.3-0.1L8.6,6.3z M7.7,4.3
	C7.7,4.4,7.7,4.4,7.7,4.3c0,0.1-0.1,0.2-0.1,0.2c0,0,0,0.1-0.1,0.1c0,0,0,0.1-0.1,0.1c0,0,0,0.1,0,0.1c0,0,0,0.1,0,0.2
	c0,0,0,0.1,0,0.1c0,0,0,0-0.1-0.1c0-0.1,0,0,0,0l0,0l0,0l0,0c0-0.1,0-0.2,0-0.4c0-0.1,0-0.2,0.1-0.3c0,0,0.1-0.1,0.2,0L7.7,4.3z
	 M7.4,5.4l0.1,0l0.1,0c0,0,0,0,0.1,0c0,0,0,0,0,0l0,0l-0.1,0c0,0-0.1,0-0.1-0.1C7.5,5.5,7.4,5.5,7.4,5.4L7.4,5.4z M7.6,2.1
	c-0.1,0-0.1,0-0.2,0.1c-0.1,0-0.1,0.1-0.2,0.2c0,0.1,0,0.2,0,0.2c0,0.1,0,0.1,0,0.2c0,0.1,0,0.1,0,0.2c0,0,0.1,0.1,0.1,0.2
	c0,0,0.1,0.1,0.1,0.1l0.1,0.1c0,0,0.1,0.1,0.2,0.1l0,0l0.1,0c0.1,0,0.2-0.1,0.2-0.2c0.1,0,0.1-0.1,0.2-0.2c0,0,0.1-0.1,0.2-0.2
	c0-0.1,0.1-0.2,0.1-0.2c0-0.1,0-0.2,0-0.3c0-0.1,0-0.2-0.1-0.2c0-0.1-0.1-0.1-0.1-0.2c0,0-0.1,0-0.2,0C8.1,2,8.1,2,8,2l-0.2,0
	L7.6,2.1z M7.8,2.3c0,0,0,0.1,0,0.1c0,0.1-0.1,0.2-0.1,0.2c0,0.1,0,0.1,0,0.2c0,0.1,0,0.2,0.1,0.2c0,0.1,0.1,0.2,0.1,0.2L7.7,3.2
	C7.6,3.1,7.6,3,7.5,2.9c0-0.1,0-0.2,0-0.3c0,0,0-0.1,0.1-0.1c0,0,0-0.1,0.1-0.1C7.7,2.3,7.7,2.3,7.8,2.3z M9,2.9L9,2.9
	C9,3,9,3.1,9,3.1l0,0.2c0,0,0,0.1,0,0.2c0,0,0,0.1,0,0.1c0,0,0,0-0.1,0.1L8.7,3.7L8.6,3.8l-0.1,0l0.1,0c0,0,0,0,0,0.1
	c0,0,0,0.1,0.1,0.1l0,0l0,0l0,0.1l0.1,0.2L8.7,4.3c0,0-0.1-0.1-0.1-0.1c0,0,0,0-0.1-0.1l0,0l0-0.1l0-0.1c0,0,0.1-0.1,0.2-0.2
	c0,0,0.1-0.1,0.1-0.1l0.1-0.1c0,0,0.1-0.1,0.1-0.2c0,0,0-0.1,0-0.2C9,3.1,8.9,3,9,2.9C8.9,3,9,2.9,9,2.9L9,2.9z M8.5,1.7
	C8.6,1.7,8.6,1.7,8.5,1.7c0.1,0,0.2,0.1,0.2,0.1c0,0,0.1,0.1,0.2,0.2C9,2,9,2,9,2l0.1,0.4c0,0,0,0,0,0c0,0,0-0.1,0-0.2
	c0-0.1,0-0.1-0.1-0.2c0-0.1-0.1-0.2-0.2-0.2C8.7,1.8,8.6,1.7,8.5,1.7z"/>
<path id="path6" inkscape:connector-curvature="0" d="M12,2.1L12,2.1c0-0.1,0-0.2,0-0.2c0,0,0-0.1,0-0.2c0-0.1,0.1-0.2,0.2-0.2
	c0.1,0,0.2-0.1,0.3-0.1l0.4,0c0.1,0,0.3,0,0.4-0.1c0.1,0,0.2,0,0.2,0c0.1,0,0.2,0,0.4,0c0.1,0,0.3,0.1,0.4,0.1
	c0.1,0,0.2,0.1,0.4,0.2c0.1,0.2,0.2,0.3,0.3,0.5c0.1,0.2,0.3,0.5,0.3,0.7c0.1,0.3,0.2,0.5,0.2,0.9c0,0.2,0,0.5,0,0.7
	c-0.1,0.4-0.3,0.8-0.6,1.1c-0.3,0.3-0.7,0.5-1.2,0.5c-0.2,0-0.5,0-0.7,0c-0.1,0-0.2-0.1-0.4-0.1c-0.1,0-0.1-0.1-0.2-0.2
	c0,0,0-0.1,0-0.2c0-0.1,0-0.2-0.1-0.4c0-0.2,0-0.3,0-0.3c0,0,0-0.2-0.1-0.4l-0.1-0.7c0-0.2-0.1-0.5-0.1-0.7C12,3.2,12,3,12,2.8
	C12,2.7,12,2.6,12,2.4C12,2.3,12,2.2,12,2.1z M12.3,2.1c0,0,0,0.1,0,0.2c0,0,0,0.1,0,0.2s0,0.2,0.1,0.4c0,0.2,0.1,0.5,0.1,0.7
	c0,0.2,0.1,0.5,0.1,0.7c0,0.2,0.1,0.4,0.1,0.4c0,0.1,0,0.2,0.1,0.3c0,0.1,0.1,0.2,0.1,0.3c0,0.1,0,0.1,0,0.1c0,0,0,0.1,0,0.1
	c0,0.1,0,0.1,0,0.1c0,0,0.1,0,0.1,0.1c0,0,0.1,0,0.1,0c0,0,0,0,0,0l0.2,0c0.1,0,0.1,0,0.2,0c0,0,0.1,0,0.2,0l0.2,0
	c0.1,0,0.2,0,0.3,0c0.1,0,0.2-0.2,0.3-0.2c0.2-0.2,0.3-0.4,0.4-0.6C14.9,4.4,15,4.1,15,3.8c0-0.3-0.1-0.5-0.1-0.8
	c-0.1-0.2-0.2-0.4-0.3-0.6c-0.1-0.2-0.2-0.3-0.3-0.4C14.1,2,14,1.9,13.9,1.9c-0.1,0-0.2,0-0.4,0c-0.1,0-0.2,0-0.3,0
	c-0.1,0-0.1,0-0.2,0.1c-0.1,0-0.3,0-0.4,0c-0.1,0-0.2,0-0.3-0.1L12.3,2.1z M12.6,2.3c0,0,0.1,0,0.1,0l0.2,0c0.1,0,0.2,0,0.3,0
	l-0.4,0.1c0,0.1,0,0.2,0,0.2c0,0.1,0,0.2,0,0.2l0,0.2c0,0.1,0,0.2,0.1,0.4c0,0.2,0,0.5,0.1,0.7c0,0.3,0,0.5,0,0.7c0,0.2,0,0.3,0,0.3
	c0-0.2,0-0.3-0.1-0.4c0-0.3-0.1-0.6-0.1-1C12.7,3.3,12.7,2.8,12.6,2.3L12.6,2.3z M15.5,2.8c0.1,0.5,0.2,0.9,0.2,1.4
	c0,0.5-0.2,1-0.5,1.4c-0.1,0.2-0.3,0.4-0.5,0.5c-0.2,0.1-0.3,0.2-0.5,0.2c-0.2,0-0.4,0.1-0.6,0.1l0.2,0c0.1,0,0.2,0,0.4-0.1
	c0.2,0,0.3-0.1,0.5-0.3c0.3-0.2,0.5-0.5,0.7-0.8c0.2-0.2,0.2-0.5,0.3-0.7c0-0.3,0-0.6,0.1-0.8C15.6,3.4,15.5,3.1,15.5,2.8L15.5,2.8z
	"/>
<path id="path8" inkscape:connector-curvature="0" d="M26,0.1l0.2,0c0,0,0.1,0,0.1,0c0,0,0,0.1,0.1,0.1c0,0,0,0.1,0,0.2
	c0,0.1,0,0.2,0,0.2l0-0.1l0-0.2c0,0,0-0.1,0-0.2c0-0.1-0.2-0.2-0.2-0.1l0,0C26,0.1,25.9,0.2,26,0.1c0,0.1-0.1,0.1,0,0.2
	c0,0,0.1,0,0.1,0.1c0.1,0,0.2,0.1,0.2,0.2c0,0.1,0,0.2,0,0.2c0,0.1-0.1,0.1-0.2,0.2C26,1,26,1,25.9,1c-0.1,0-0.1,0-0.2,0
	c-0.1,0-0.2,0-0.2,0c0,0,0,0.1,0,0.1l0,0.2l0.2,2.5l0,0.2c0,0.1,0,0.2,0,0.2c0,0.1,0,0.2,0,0.2c0,0.1,0,0.1,0,0.1s0.1,0,0.2-0.1
	c0,0,0.1-0.1,0.2-0.1c0,0,0.1,0,0.2,0c0,0,0.1,0,0.2,0c0.1,0,0.2,0,0.3,0c0,0,0.1,0.2,0,0.2c0,0.1,0,0.2-0.1,0.3
	c0,0.1-0.2,0.2-0.2,0.2c-0.1,0-0.2,0-0.3,0c-0.1,0-0.2,0-0.3,0c-0.1,0-0.2,0-0.4,0c-0.1,0-0.3,0-0.4,0.1c-0.1,0-0.2,0-0.3,0
	c0,0,0,0,0-0.1c0,0,0-0.1,0.1-0.2c0,0,0.1-0.1,0.1-0.2c0,0,0.1-0.1,0.1-0.1c0,0,0.1,0,0.2,0c0,0,0.1,0,0.2,0c0.1,0,0.1-0.1,0.1-0.2
	c0-0.1,0-0.2,0-0.2l-0.1-0.4c0-0.2-0.1-0.5-0.1-0.9c0-0.3-0.1-0.6-0.1-0.9c0-0.3-0.1-0.4-0.1-0.5c0-0.3-0.1-0.5-0.2-0.7
	c0,0-0.1,0-0.2,0l-0.2,0c-0.1,0-0.2,0-0.2,0c0,0-0.1-0.1-0.1-0.2c0-0.1,0-0.2,0.1-0.2c0,0,0.1-0.1,0.2-0.1c0.1,0,0.1,0,0.2,0
	c0,0,0.1,0,0.2,0l0.3,0c0.1,0,0.3,0,0.4-0.1c0.1,0,0.2-0.1,0.3-0.2C25.8,0.2,25.9,0.2,26,0.1C25.9,0.1,26,0.1,26,0.1
	C26,0,26.1,0,26.2,0c0.1,0,0.1,0,0.1,0s0,0-0.1,0.1C26.2,0.2,26,0.1,26,0.1z M24.6,0.1c0.1,0,0.2,0,0.3,0c0.2,0,0.3,0,0.5,0
	c0.2,0,0.4,0,0.6,0L24.6,0.1z M25.9,2.7C25.9,3,26,3.3,26,3.6C26,3.7,26,3.9,26,4c0,0,0,0,0,0s0,0,0,0c0,0,0,0,0,0l-0.1,0l-0.3-2.7
	L25.9,2.7z M26.2,4.2c0-0.1,0-0.1,0.1-0.1l0,0c0.1,0,0.2,0.1,0.3,0.1c0.1,0,0.2,0.2,0.2,0.3c0,0.1,0,0.2,0,0.2c0,0,0,0,0,0
	c0,0,0-0.1,0-0.2c0,0,0-0.1-0.1-0.2c0,0-0.1-0.1-0.1-0.1l-0.1,0l-0.2,0C26.3,4.2,26.3,4.2,26.2,4.2C26.2,4.3,26.2,4.2,26.2,4.2
	L26.2,4.2z"/>
</svg>
