<?xml version="1.0" encoding="UTF-8" standalone="no"?>
<svg
   xmlns:dc="http://purl.org/dc/elements/1.1/"
   xmlns:cc="http://creativecommons.org/ns#"
   xmlns:rdf="http://www.w3.org/1999/02/22-rdf-syntax-ns#"
   xmlns:svg="http://www.w3.org/2000/svg"
   xmlns="http://www.w3.org/2000/svg"
   xmlns:sodipodi="http://sodipodi.sourceforge.net/DTD/sodipodi-0.dtd"
   xmlns:inkscape="http://www.inkscape.org/namespaces/inkscape"
   id="svg1037"
   viewBox="0 0 36.135898 6.0672694"
   version="1.1"
   sodipodi:docname="EDII.svg"
   width="0.37641561in"
   height="0.063200727in"
   inkscape:version="0.92.4 (5da689c313, 2019-01-14)">
  <metadata
     id="metadata9">
    <rdf:RDF>
      <cc:Work
         rdf:about="">
        <dc:format>image/svg+xml</dc:format>
        <dc:type
           rdf:resource="http://purl.org/dc/dcmitype/StillImage" />
        <dc:title></dc:title>
        <dc:title />
      </cc:Work>
    </rdf:RDF>
  </metadata>
  <defs
     id="defs7" />
  <sodipodi:namedview
     pagecolor="#ffffff"
     bordercolor="#666666"
     borderopacity="1"
     objecttolerance="10"
     gridtolerance="10"
     guidetolerance="10"
     inkscape:pageopacity="0"
     inkscape:pageshadow="2"
     inkscape:window-width="1715"
     inkscape:window-height="866"
     id="namedview5"
     showgrid="false"
     inkscape:pagecheckerboard="true"
     units="in"
     fit-margin-top="0"
     fit-margin-left="0"
     fit-margin-right="0"
     fit-margin-bottom="0"
     inkscape:zoom="3.94"
     inkscape:cx="23.057436"
     inkscape:cy="-22.828759"
     inkscape:window-x="119"
     inkscape:window-y="48"
     inkscape:window-maximized="1"
     inkscape:current-layer="svg1037" />
  <path
     id="path10"
     d="M 2.524256,1.06285 H 2.125677 l -0.708544,0.0445 c -0.265681,0 -0.61995,0.0443 -0.929964,0.0443 0,0.0886 -0.04425,0.22143 -0.04425,0.31 v 1.23994 c 0.08846,0 0.132834,0 0.221403,0 0.08856,0 0.132871,0 0.221401,0 0.04426,0 0.132875,0 0.17713,-0.0443 0.04431,0 0.1329,0 0.177154,0 l 0.221405,0.0443 c 0.08861,0 0.177151,0 0.265815,0 h 0.177107 c 0.0885,0 0.221355,-0.0443 0.309914,-0.0886 0.0886,-0.0442 0.221412,-0.0442 0.31002,-0.0442 0.0885,0.0442 0.177146,0.0886 0.265602,0.0886 0.08866,0.0443 0.13295,0.13286 0.08866,0.2657 0,0.13286 -0.04432,0.2214 -0.04432,0.35428 -0.0444,0.0886 -0.13283,0.13285 -0.265694,0.13285 -0.08858,0.0441 -0.177136,0.0441 -0.2657,0 L 2.125657,3.32162 c -0.08856,0 -0.132855,-0.0443 -0.221357,-0.0443 H 1.549989 c -0.132879,0 -0.221404,0 -0.354269,0 H 0.974275 c -0.08858,0.0443 -0.132839,0.0443 -0.221418,0 -0.04432,-0.0445 -0.132841,-0.0445 -0.177131,0 -0.04441,0 -0.04441,0.0443 -0.04441,0.17711 0,0.13288 -0.04421,0.22144 -0.04421,0.3543 0,0.13284 0,0.22142 0,0.35426 0,0.0886 0,0.13285 0.04421,0.22141 0.04441,0.0886 0.04441,0.13288 0.04441,0.22144 0,0.0885 0,0.13287 0,0.13287 0,0.0443 0,0.13282 -0.04441,0.17712 -0.04421,0.0885 0,0.13286 0.04441,0.17714 0.04431,0.0445 0.132831,0.0445 0.26571,0 0.08852,-0.0442 0.177135,-0.0442 0.265681,-0.0442 h 0.31 l 0.487188,0.0442 0.48708,0.0445 c 0.08855,0 0.221351,0 0.31,0 0.177122,0 0.354276,0 0.487071,-0.0445 0.132859,-0.0886 0.310015,-0.0886 0.442889,-0.0886 0.08853,0 0.177141,0.0886 0.177141,0.26573 0.04425,0.13284 0.04425,0.2214 0.04425,0.35425 -0.04425,0.0886 -0.08856,0.17715 -0.177138,0.26573 -0.08853,0.0442 -0.177136,0.0886 -0.265682,0.13284 -0.04431,0 -0.13286,0 -0.177159,0 L 2.967041,5.97862 2.701376,5.93412 c -0.04432,0 -0.132863,-0.0442 -0.177145,-0.0442 H 0.354239 C 0.265739,5.84542 0.17713,5.80132 0.17713,5.71276 0.13287,5.62416 0.13287,5.57994 0.13287,5.49134 c 0,0 0,-0.0886 0,-0.2214 C 0.13287,5.13708 0.04431,4.95995 0.04431,4.7828 0.04431,4.60566 0,4.42855 0,4.25139 0,4.07424 0,3.94141 0,3.89713 0,3.76425 0,3.58714 0.04431,3.45426 c 0,-0.0885 0.04432,-0.2214 0.04432,-0.30999 0,-0.0885 0,-0.13284 0,-0.22141 0,-0.0886 0,-0.22142 -0.04432,-0.35425 C 0.04431,2.43574 0,2.34718 0,2.2143 0,2.08147 0,1.9929 0,1.90432 0,1.81572 0,1.72721 0,1.55007 0,1.37292 0,1.24008 0.04431,1.10723 c 0,-0.13288 0.04432,-0.30999 0.08856,-0.44287 0,-0.0885 0.04426,-0.17711 0.132854,-0.22141 0.0885,-0.0442 0.221406,-0.0442 0.30998,-0.0442 0.177131,0 0.354234,0 0.487101,0 h 0.531428 0.31005 0.221357 l 0.30997,-0.0445 0.265753,-0.0442 c 0.08846,0 0.13283,-0.0445 0.177121,-0.0445 0.08854,-0.0443 0.177156,-0.0443 0.265679,-0.0443 0.08858,-0.0445 0.17713,-0.0445 0.221422,0 0.08861,0.0443 0.177163,0.13282 0.221473,0.2214 0.04427,0.0886 0.08853,0.2214 0.08853,0.30999 0,0.0886 -0.04427,0.17715 -0.08853,0.22141 -0.04431,0.0886 -0.177154,0.13288 -0.265765,0.13288 -0.132859,0.0444 -0.265653,0.0444 -0.398524,0 C 2.745625,1.06243 2.612714,1.06243 2.524218,1.06243 Z M 1.771417,1.32857 1.417133,1.41717 c -0.08852,0.0443 -0.177136,0.0443 -0.265681,0.0443 -0.04431,0 -0.08861,0 -0.132864,0.0445 -0.04431,0 -0.04431,0.0885 -0.04431,0.22143 0,0.13285 0.04431,0.22143 0.08855,0.35426 0,0.0886 0.08861,0.13283 0.132899,0.13283 l 0.265659,0.0445 c 0.08861,0 0.13287,0 0.221442,0 h 0.08857 c -0.08857,0 -0.132864,0 -0.221405,0 -0.132879,0 -0.26572,0 -0.354269,0.0444 H 0.664298 c 0,-0.0444 0.04426,-0.0886 0.04426,-0.0886 0,-0.0441 0,-0.13283 0,-0.17711 V 1.59482 c 0,-0.0886 0,-0.22141 0,-0.31 z M 0.708573,3.58706 c 0.04432,0.0885 0.04432,0.13285 0.08861,0.22142 0.04426,0.0886 0.04426,0.17713 0.04426,0.26567 0,0.0886 0.04427,0.22144 0.04427,0.35432 0,0.13282 0,0.22141 0,0.26566 0,0.0445 0.04426,0.0445 0.04426,0.0445 0.04431,0 0.04431,0 0.08861,-0.0886 l -0.221404,0.0442 c 0,-0.17711 -0.04431,-0.35424 -0.04431,-0.5314 0,-0.17713 -0.04432,-0.26569 -0.04432,-0.39857 0,-0.0442 0,-0.13284 0,-0.1771 z m 0.265719,0.13285 h 0.04431 c 0.08854,-0.0445 0.132864,-0.0445 0.221409,-0.0445 0.08861,0 0.177136,-0.0443 0.265716,-0.0443 0.04431,0 0.13284,0 0.177131,0.0443 v 0 c -0.08857,0 -0.177131,0 -0.265711,0.0445 L 1.151466,3.76401 H 0.974302 Z m 1.41711,-1.46137 c 0.04427,0 0.08855,0.0444 0.132854,0.0444 0.0885,0.0445 0.132826,0.0886 0.177146,0.13286 z"
     inkscape:connector-curvature="0"
     style="stroke-width:0.44284126" />
  <path
     id="path12"
     d="m 7.926925,5.22555 c -0.177158,0 -0.354269,-0.0443 -0.487138,-0.0885 C 7.218381,5.04855 6.99694,4.91562 6.86413,4.7385 6.77552,4.6499 6.686911,4.51708 6.642656,4.33994 6.598386,4.2071 6.598386,4.02995 6.598386,3.8971 c 0,-0.13288 0.04427,-0.26572 0.04427,-0.39856 0.04426,-0.13286 0.04426,-0.22142 0.08856,-0.30998 0,-0.0445 0,-0.0445 0,-0.0886 0,0 0,-0.0445 0,-0.0445 0.04432,-0.0886 0.0886,-0.13286 0.132909,-0.17712 0.0885,-0.0886 0.13281,-0.13287 0.221392,-0.17716 L 7.35121,2.52403 7.52834,2.39119 7.61692,2.25836 7.57266,2.21386 C 7.52834,2.16946 7.48405,2.12536 7.48405,2.08104 7.43979,2.03664 7.39551,1.99244 7.39551,1.9482 L 7.30685,1.81536 C 7.21839,1.68252 7.17407,1.54967 7.17407,1.37253 7.12972,1.19538 7.12972,0.97395 7.17407,0.79684 7.21838,0.61971 7.30685,0.48685 7.439795,0.35397 7.616934,0.22114 7.79407,0.13257 7.971223,0.08831 l 0.221391,-0.0445 c 0.04426,0 0.13288,0 0.177141,0 0.132945,0 0.265719,0.0445 0.354265,0.13288 l 0.221388,0.1771 c 0.04432,0.0445 0.13291,0.0886 0.177221,0.13288 0.04426,0.0886 0.13281,0.17712 0.13281,0.2657 0.04431,0.0886 0.08858,0.2214 0.08858,0.35429 0.04421,0.13285 0.04421,0.26569 0.04421,0.39854 0,0.13287 -0.04421,0.26572 -0.132794,0.35429 -0.08856,0.0886 -0.177121,0.22142 -0.265719,0.30999 -0.08856,0.0886 -0.17712,0.17713 -0.2657,0.22142 -0.08855,0.0443 -0.132861,0.0886 -0.132861,0.0886 h -0.04427 v 0 c 0,0 0,0.0441 0.04427,0.0886 l 0.08865,0.2214 c 0.04421,0.0886 0.0885,0.13284 0.132796,0.22143 0.04431,0.0441 0.08856,0.13282 0.132808,0.17714 0.04432,0.0443 0.08861,0.0885 0.13291,0.13285 l 0.132806,0.13282 0.08861,0.0886 c 0.04431,0.0445 0.04431,0.0445 0.04431,0.0445 l 0.04421,0.0444 0.265772,-0.39857 c 0,-0.0445 0,-0.0445 0.04431,-0.0886 0,-0.0441 0,-0.0885 0,-0.17711 0,-0.0444 0,-0.0444 0,-0.0886 0.04427,-0.0445 0.04427,-0.13287 0.08855,-0.17714 0.04431,-0.0445 0.08858,-0.0886 0.132841,-0.0886 0.04427,0 0.04427,0 0.08858,0 0.04432,0 0.08855,0.0444 0.08855,0.0444 0,0 0.04431,0.0445 0.04431,0.0445 0,0 0.04431,0.0445 0.04431,0.0445 0,0.0885 0,0.17713 0,0.26569 0,0.0886 -0.04431,0.17716 -0.08861,0.26572 -0.04427,0.0886 -0.04427,0.13286 -0.08855,0.22143 -0.0443,0.0441 -0.0443,0.0886 -0.08858,0.13283 0,0.0445 -0.04427,0.0445 -0.04427,0.0886 0,0.0441 -0.04427,0.0886 -0.04427,0.0886 0,0.0443 -0.04432,0.0886 -0.04432,0.13284 v 0 0 c 0,0.0444 0,0.0886 0.04432,0.13283 0,0.0445 0.04427,0.13289 0.08853,0.17715 v 0 c 0.04427,0.0444 0.08858,0.0886 0.13288,0.13284 0.04425,0.0886 0.13286,0.13288 0.177151,0.22144 0.08855,0.17713 0.04426,0.35429 -0.177151,0.48713 0,0 -0.04432,0 -0.04432,0 h -0.04431 c -0.04426,0 -0.08853,-0.0442 -0.08853,-0.0886 -0.04427,-0.0441 -0.04427,-0.0886 -0.08858,-0.13284 v 0 c 0,-0.0443 -0.0443,-0.0443 -0.0443,-0.0886 0,-0.0443 -0.04427,-0.0886 -0.08855,-0.13283 l -0.04431,-0.0445 c -0.04442,-0.0444 -0.04442,-0.0886 -0.04442,-0.0886 l -0.04421,-0.0886 -0.04427,0.0443 C 9.432498,4.51725 9.343948,4.51725 9.299663,4.56145 9.211053,4.60595 9.122558,4.69429 9.078246,4.78287 9.033936,4.87147 8.945336,4.91572 8.812528,4.96002 8.635402,5.04862 8.502628,5.09286 8.325422,5.09286 8.192543,5.22571 8.059703,5.22571 7.926862,5.22571 Z M 7.794061,2.3471 c 0,0 -0.04431,0.0443 -0.08861,0.0886 L 7.528345,2.61283 C 7.484015,2.65733 7.395507,2.74569 7.351215,2.78999 L 7.218381,2.92282 c -0.04432,0.0445 -0.04432,0.0886 -0.04432,0.17715 0,0.0886 -0.04435,0.17714 -0.04435,0.2657 0,0.0885 0,0.22143 0,0.30998 0,0.0886 0,0.17714 0.04435,0.26571 0,0.0886 0.04432,0.17715 0.04432,0.22142 0.04427,0.0886 0.08846,0.17715 0.132834,0.26573 0.04431,0.0886 0.132832,0.13282 0.221441,0.17711 0.132795,0.0445 0.265659,0.0885 0.398559,0.0885 h 0.08855 c 0.04431,0 0.04431,0 0.08858,0 0.132841,0 0.265681,-0.0442 0.398545,-0.0885 0.08858,-0.0443 0.177121,-0.0885 0.265701,-0.13285 0.04431,-0.0443 0.08856,-0.0886 0.132809,-0.13284 0,-0.0445 0.04432,-0.0886 0.04432,-0.13284 0,-0.0886 0,-0.17715 0,-0.26573 C 8.98972,3.80852 8.9454,3.71995 8.856913,3.5871 8.812603,3.5427 8.812603,3.4985 8.812603,3.4985 8.812603,3.454 8.768293,3.454 8.768293,3.4099 8.723983,3.3655 8.723983,3.3213 8.679793,3.23276 L 8.502689,2.92277 C 8.458269,2.83417 8.369744,2.70134 8.281183,2.61278 8.192603,2.52418 8.148343,2.47995 8.104074,2.47995 Z M 8.856905,5.35843 C 8.768295,5.40273 8.635466,5.44703 8.54689,5.49126 l -0.265704,0.0886 -0.177109,0.0441 c -0.04431,0 -0.08861,0 -0.177152,-0.0441 L 7.705451,5.53536 7.439787,5.44686 h 0.04427 0.08861 c 0.04427,0 0.08853,0 0.132795,0.0444 0.08861,0 0.132864,0 0.221474,0 0.08854,0 0.22142,-0.0444 0.309949,-0.0444 L 8.5469,5.40236 Z M 7.971215,2.96708 c 0,0.0444 0,0.0444 -0.04433,0.0886 -0.04431,0.0445 -0.04431,0.0885 -0.08861,0.13287 l -0.08855,0.13283 c -0.04432,0.0445 -0.04432,0.0445 -0.08858,0.0886 -0.04427,0.0441 -0.04427,0.0886 -0.08853,0.13285 0,0.0445 0,0.13285 0,0.17715 0,0.0441 0,0.0886 0,0.13284 0,0 -0.04432,-0.0442 -0.04432,-0.0886 0,0 -0.04433,-0.0442 -0.04433,-0.0442 v 0 0 c 0,0 0,-0.0445 0,-0.0886 0,-0.13283 0.04433,-0.26569 0.04433,-0.39855 0,-0.13284 0.04432,-0.22143 0.08858,-0.31 0.04427,-0.0442 0.132842,-0.0886 0.177137,-0.0442 z m -0.44287,1.28422 0.13284,0.0886 0.08858,0.0441 c 0,0 0.04431,0 0.04431,0 0.04425,0 0.04425,0.0445 0.04425,0.0445 l 0.04432,0.0442 H 7.749786 c -0.04432,0 -0.08858,-0.0442 -0.132842,-0.0886 0,-0.0886 -0.04426,-0.0886 -0.08858,-0.13285 z m 0.62,-3.71987 c -0.08858,0 -0.132879,0 -0.22142,0.0445 -0.08861,0.0445 -0.132864,0.0886 -0.177158,0.17714 -0.04432,0.0886 -0.04432,0.17715 -0.04432,0.2214 0,0.0886 -0.04427,0.13289 -0.04427,0.22144 0,0.0885 0,0.13287 0.04427,0.22143 0.04432,0.0886 0.04432,0.17711 0.08861,0.2657 0.04427,0.0444 0.08854,0.0886 0.132864,0.13284 l 0.132842,0.13288 0.177107,0.13283 0.04432,0.0444 0.0443,-0.0444 C 8.502695,1.99299 8.6798,1.86019 8.856909,1.72733 8.945409,1.68283 8.989715,1.59445 9.034015,1.5502 c 0.04431,-0.0886 0.08861,-0.17715 0.08861,-0.26574 0,-0.0885 0.04427,-0.2214 0.04427,-0.30999 0,-0.0886 0,-0.17711 -0.04427,-0.26567 0,-0.0886 -0.04432,-0.13287 -0.132909,-0.17716 -0.04432,-0.0444 -0.132806,-0.0444 -0.17712,-0.0444 -0.08858,0 -0.177126,0 -0.265702,0 H 8.281191 Z m 0.132841,0.17716 c 0,0.0444 0,0.0886 -0.04432,0.13284 -0.08853,0.0886 -0.132798,0.13284 -0.177107,0.22142 -0.04432,0.0445 -0.04432,0.13285 -0.04432,0.17715 0,0.0886 0,0.13284 0.04432,0.22141 0.0443,0.0886 0.08858,0.17715 0.132839,0.30998 L 8.104068,1.63856 C 8.059758,1.54996 7.971207,1.46141 7.971207,1.32857 c -0.04432,-0.13287 -0.04432,-0.26572 0,-0.3543 0.04427,-0.0442 0.04427,-0.0886 0.08855,-0.13284 0.04431,-0.0444 0.08858,-0.0886 0.08858,-0.0886 0.04427,0 0.08853,-0.0444 0.13284,-0.0444 z m 1.284144,0.7971 c 0,0 0,0.0445 0,0.0886 0,0.0445 0,0.0886 0.04441,0.0886 0,0.0445 0,0.0886 -0.04441,0.0886 L 9.52112,1.94865 c 0,0.0444 -0.04427,0.0886 -0.08857,0.17712 0,0.0445 -0.04436,0.0885 -0.08855,0.0885 -0.0443,0.0445 -0.0443,0.0445 -0.08858,0.0886 l -0.13281,0.0886 -0.132908,0.0886 c -0.04432,0 -0.04432,0.0441 -0.08856,0.0441 l 0.04425,0.0445 0.04432,0.0886 c 0.04431,0.0443 0.04431,0.0886 0.0886,0.0886 0,0.0445 0,0.0445 0.04432,0.0885 0,0 0.04426,0.0445 0.04426,0.0445 l 0.04427,0.0886 c 0.04431,0.0443 0.04431,0.0885 0.08861,0.1771 L 9.166921,2.96747 c -0.04427,-0.0445 -0.08857,-0.0886 -0.08857,-0.13288 0,-0.0442 -0.04431,-0.0442 -0.04431,-0.0886 0,0 -0.04431,-0.0445 -0.04431,-0.0445 0,-0.0444 0,-0.0444 -0.04432,-0.0886 L 8.901151,2.52429 C 8.945411,2.48019 9.034012,2.39145 9.07831,2.34718 L 9.211116,2.2143 9.344012,2.08147 c 0.04422,-0.0444 0.08854,-0.0886 0.132859,-0.17715 0,-0.0444 0.04427,-0.0886 0.04427,-0.17711 0,-0.0886 0.04421,-0.13288 0.04421,-0.17713 -0.04421,0 0,0 0,-0.0445 z M 9.211115,0.08862 c 0.04431,0 0.04431,0 0.08861,0 0.0885,0.0443 0.132829,0.0886 0.177142,0.13283 0.04427,0.0886 0.08846,0.13284 0.132837,0.22142 0.04431,0.0445 0.04431,0.0445 0.08857,0.0886 l 0.04427,0.57572 c 0,0 0,0 -0.04427,0 -0.04431,-0.0444 -0.04431,-0.13288 -0.04431,-0.17714 0,-0.0886 -0.04431,-0.13286 -0.08867,-0.22142 C 9.521084,0.62003 9.476834,0.53147 9.43252,0.44291 9.34398,0.31007 9.299691,0.22149 9.211082,0.08866 Z"
     inkscape:connector-curvature="0"
     style="stroke-width:0.44284126" />
  <path
     id="path14"
     d="M 13.019675,0.97427 V 0.84143 c 0,-0.0444 0,-0.0886 0.04422,-0.13284 0,-0.0445 0,-0.0886 0,-0.13286 0,-0.0886 0.08858,-0.17712 0.177126,-0.22144 0.08857,-0.0444 0.22139,-0.0886 0.31,-0.0886 h 0.487119 c 0.132865,0 0.310015,0 0.44281,-0.0444 0.08861,0 0.177155,0 0.265767,0 0.132858,0 0.265654,0.0444 0.398524,0.0444 0.13295,0.0445 0.310054,0.0886 0.442848,0.17714 0.132811,0.0886 0.26572,0.17716 0.354281,0.26572 0.132856,0.17712 0.221357,0.35426 0.31,0.57566 0.08846,0.31 0.177125,0.57573 0.265666,0.88572 0.08861,0.30999 0.132879,0.66423 0.132879,0.97422 0,0.26572 -0.04425,0.57572 -0.132879,0.84142 -0.177207,0.44286 -0.398525,0.8414 -0.708525,1.19565 -0.354216,0.35428 -0.885667,0.53142 -1.372824,0.48715 -0.265682,0 -0.531456,0 -0.752807,-0.0886 -0.132859,-0.0445 -0.265725,-0.0886 -0.39858,-0.17715 -0.08849,-0.0442 -0.132823,-0.0886 -0.177145,-0.17715 0,-0.0443 -0.04427,-0.13284 -0.04427,-0.1771 0,-0.0886 0,-0.22144 0,-0.39857 0,-0.17715 0,-0.30999 0,-0.35429 0,-0.0444 0,-0.17712 -0.04422,-0.39854 -0.04441,-0.22144 -0.04441,-0.48714 -0.04441,-0.75286 0,-0.26568 -0.04431,-0.5314 -0.04431,-0.79709 0,-0.17713 0,-0.39855 0,-0.57571 0.04431,-0.17714 0.08866,-0.30998 0.132861,-0.48714 -0.04422,-0.0885 -0.04422,-0.2214 -0.04422,-0.30998 z m 0.398454,0.0445 c 0,0.0441 0,0.13282 0,0.17712 0,0.0445 0,0.13287 0,0.17714 0,0.0445 0,0.2214 0,0.48714 0,0.26569 0,0.53139 0.04427,0.79711 0.04431,0.26568 0.04431,0.57568 0.04431,0.79708 0,0.22144 0,0.39858 0,0.44287 0,0.13285 0.04431,0.26569 0.04431,0.35425 0.04431,0.13285 0.04431,0.22144 0.08861,0.35428 0.04425,0.0886 0.04425,0.13288 0,0.13288 -0.04431,0.0443 -0.04431,0.0886 -0.04431,0.0886 -0.04432,0.0885 -0.04432,0.13286 0,0.13286 0.04431,0.0442 0.08857,0.0886 0.13281,0.0886 0.04431,0.0442 0.08861,0 0.177106,-0.0445 0.04437,0 0.04437,-0.0441 0.04437,-0.0886 h 0.221445 0.221421 c 0.04427,0 0.132839,0 0.177134,0 l 0.221405,0.0445 c 0.08861,0 0.221405,0 0.310015,-0.0445 0.132834,-0.0443 0.265671,-0.13285 0.398532,-0.26568 0.177134,-0.17716 0.309999,-0.39858 0.442858,-0.61998 0.132855,-0.26574 0.221356,-0.57572 0.221356,-0.88572 0,-0.30998 0,-0.57566 -0.0885,-0.88564 C 16.030951,1.99285 15.942416,1.77142 15.809557,1.50572 15.765257,1.32861 15.676692,1.19574 15.588136,1.06289 15.499556,0.97429 15.366697,0.88575 15.23386,0.84146 c -0.132834,-0.0444 -0.265709,-0.0444 -0.398549,-0.0886 -0.132839,0 -0.265705,0 -0.354315,0.0445 -0.08852,0 -0.132795,0.0444 -0.221405,0.0444 -0.177205,0.0444 -0.309985,0 -0.487104,-0.0444 -0.08856,-0.0445 -0.22142,-0.0886 -0.354286,-0.13288 z m 0.354286,0.22142 c 0.04433,-0.0445 0.08858,-0.0445 0.13279,-0.0445 0.08865,0 0.177109,0 0.221486,0 0.13283,0 0.221438,0 0.354232,0.0445 l -0.531387,0.0444 c 0,0.0886 0,0.17715 0,0.26573 0,0.0886 0,0.17714 -0.04437,0.2657 v 0.22142 c 0,0.0886 0,0.22143 0,0.4871 0,0.26574 0,0.53143 0,0.84142 0,0.30998 -0.04423,0.53142 -0.04423,0.79712 0,0.26572 0,0.35428 -0.04431,0.30998 -0.04431,-0.17714 -0.08861,-0.35426 -0.08861,-0.48712 0,-0.35428 0,-0.70854 0,-1.10709 0.04432,-0.48715 0.04432,-1.01853 0.04432,-1.63851 z m 3.099863,0.84138 c 0.08861,0.53141 0.132901,1.06281 0.04431,1.59423 -0.08854,0.57568 -0.309949,1.1071 -0.664225,1.54994 -0.177144,0.22144 -0.398561,0.39855 -0.619964,0.53142 -0.177111,0.0886 -0.398592,0.17712 -0.620035,0.17712 -0.221406,0.0445 -0.44281,0.0445 -0.664216,0 h 0.26566 c 0.132902,0 0.265761,0 0.398556,-0.0886 0.221443,-0.0445 0.398594,-0.0886 0.575718,-0.22143 0.354282,-0.22141 0.664281,-0.48711 0.885687,-0.79709 0.177139,-0.22144 0.30998,-0.48712 0.354279,-0.79712 0.04427,-0.30998 0.08854,-0.61998 0.13286,-0.92996 -0.0443,-0.35428 -0.0443,-0.66428 -0.08861,-1.01855 z"
     inkscape:connector-curvature="0"
     style="stroke-width:0.44284126" />
  <path
     id="path16"
     d="m 28.961886,0.17718 c 0.04436,0 0.08854,0 0.132823,0 h 0.132857 c 0.04425,0 0.08856,0 0.08856,0.0444 0.04432,0.0445 0.04432,0.0886 0.08859,0.13284 0,0.0445 0,0.13288 0,0.17715 0,0.0886 0,0.17716 -0.04431,0.26572 V 0.53157 c 0,-0.0444 0,-0.13283 0,-0.17715 -0.04432,-0.0885 -0.08861,-0.17711 -0.265721,-0.17711 -0.177143,0 -0.221404,0 -0.221404,0.0444 0,0.0445 -0.04422,0.0445 0,0.0886 0.04427,0.0443 0.08858,0.0443 0.13291,0.0886 0.132794,0.0444 0.221351,0.13283 0.265604,0.30999 0.04431,0.0886 0,0.17712 -0.04427,0.22142 -0.04427,0.0442 -0.132856,0.13284 -0.177135,0.17713 -0.08854,0.0885 -0.177125,0.0885 -0.265697,0.0885 -0.08857,0 -0.177128,-0.0444 -0.221444,-0.0885 -0.08853,-0.0444 -0.177104,-0.0444 -0.265654,0 -0.04433,0.0443 -0.08861,0.0885 -0.04433,0.13285 v 3.27702 c 0,0.0886 0,0.17711 0,0.2657 0,0.0886 0,0.17715 0,0.26572 0,0.0886 0,0.13282 0.04433,0.13282 0.04427,0 0.08855,0 0.177128,-0.0885 0.04427,-0.0441 0.132842,-0.0886 0.177137,-0.0886 0.04427,0 0.132833,0.0445 0.132833,0.0886 0.08857,0.0445 0.132832,0.0885 0.177152,0.0885 0.08854,-0.0443 0.221435,0 0.309934,0.0886 0.04431,0.0886 0.08861,0.17713 0.04431,0.26568 -0.04431,0.0886 -0.08857,0.22144 -0.13281,0.30999 -0.04432,0.13287 -0.13289,0.17714 -0.265755,0.22144 -0.132831,0 -0.221405,0 -0.354275,-0.0445 L 28.164695,5.97847 H 27.76617 c -0.132946,0 -0.310056,0 -0.487161,0.0445 -0.17711,0.0444 -0.309969,0 -0.354215,-0.0445 -0.04431,-0.0445 -0.04431,-0.0445 0,-0.0886 0.04427,-0.0445 0.04427,-0.13286 0.0885,-0.17715 l 0.132909,-0.17715 c 0.04431,-0.0445 0.08857,-0.0885 0.08857,-0.0885 0.04427,0 0.132856,0 0.177134,0.0443 0.04422,0.0445 0.132866,0.0445 0.177126,0 0.08858,-0.0443 0.132861,-0.0886 0.177146,-0.17714 0.04425,-0.0886 0.04425,-0.17712 0.08856,-0.26568 V 4.56141 c 0,-0.31 0,-0.61998 0,-0.97424 0,-0.35428 0,-0.66428 -0.04431,-0.97426 -0.04427,-0.30999 0,-0.48713 0,-0.57569 0.04431,-0.30998 -0.04427,-0.61998 -0.221406,-0.8857 -0.04427,-0.0444 -0.08858,-0.0444 -0.177124,-0.0444 h -0.2657 c -0.08859,0 -0.17716,0 -0.221405,-0.0445 -0.04432,-0.0444 -0.08861,-0.13285 -0.04432,-0.22143 0,-0.0886 0.04432,-0.17716 0.08856,-0.2214 0.04425,-0.0445 0.132861,-0.0886 0.177159,-0.0886 0.08857,0 0.13281,0 0.221422,0 0.04431,0 0.132824,0 0.177143,0 h 0.309979 c 0.132841,0 0.30997,0 0.442872,0 0.132858,0 0.265653,-0.0444 0.354264,-0.13284 0.04427,-0.0445 0.08854,-0.0886 0.132833,-0.13288 0.04441,0 0.08857,-0.0444 0.132831,-0.0885 0.04432,-0.0445 0.08865,-0.0445 0.177144,-0.0445 0.08861,0 0.08861,0.0445 0.08861,0.0886 0,0.0445 -0.04432,0.0445 -0.08861,0.0445 -0.08849,-0.0445 -0.08849,-0.0445 -0.132824,-0.0886 z M 27.500481,0.0443 C 27.63326,0 27.72192,0 27.854765,0 c 0.177106,0 0.354261,0 0.531421,0.0443 0.177104,0.0445 0.442924,0 0.708523,0.0445 z m 1.107125,3.01134 c 0,0.35427 0.04431,0.70853 0.04431,0.97426 0,0.17715 0,0.35425 0.04426,0.53139 0,0 0,0.0445 0,0.0445 0,0 0,0.0445 0,0.0445 0,0 0,0.0442 0.04432,0.0442 h -0.08856 l -0.04431,-3.09988 z m 0.13284,1.77137 c 0,-0.0886 0.08866,-0.13288 0.17712,-0.13288 0,0 0,0 0.04431,0 0.132823,0.0445 0.221435,0.0886 0.309934,0.13288 0.132904,0.0443 0.22147,0.17711 0.17722,0.30999 0,0.0885 0,0.17711 0,0.2657 0,0.0445 0,0 0,-0.0442 0,-0.0445 0,-0.13288 0,-0.17717 0,-0.0444 -0.04431,-0.13282 -0.08861,-0.17714 -0.04432,-0.0443 -0.08861,-0.0886 -0.132864,-0.13284 h -0.08855 c -0.04431,0 -0.08858,0 -0.177124,0 -0.04431,0 -0.08858,0 -0.132776,0 -0.08866,0 -0.08866,0 -0.08866,-0.0444 z"
     inkscape:connector-curvature="0"
     style="stroke-width:0.44284126" />
  <path
     id="path18"
     d="m 35.69304,0.17718 c 0.0443,0 0.0887,0 0.13286,0 h 0.13289 c 0.0443,0 0.0885,0 0.0885,0.0444 0.0443,0.0445 0.0443,0.0886 0.0443,0.13284 0,0.0445 0,0.13288 0,0.17715 0,0.0886 0,0.17716 -0.0443,0.26572 V 0.53157 c 0,-0.0444 0,-0.13283 0,-0.17715 -0.0443,-0.0885 -0.13281,-0.17711 -0.2656,-0.17711 -0.13291,0 -0.22149,0 -0.22149,0.0444 0,0.0445 -0.0443,0.0445 0,0.0886 0.0444,0.0443 0.0886,0.0443 0.13284,0.0886 0.13286,0.0444 0.22144,0.13283 0.26575,0.30999 0.0443,0.0886 0,0.17712 -0.0443,0.22142 -0.0443,0.0442 -0.13279,0.13284 -0.17712,0.17713 -0.0886,0.0885 -0.17715,0.0885 -0.26572,0.0885 -0.0886,0 -0.17714,-0.0444 -0.2214,-0.0885 -0.0886,-0.0444 -0.17712,-0.0444 -0.26574,0 -0.0443,0.0443 -0.0885,0.0885 -0.0885,0.13285 v 3.27702 c 0,0.0886 0,0.17711 0,0.2657 0,0.0886 0,0.17715 0,0.26572 0,0.0886 0,0.13282 0.0443,0.13282 0.0443,0 0.0886,0 0.17716,-0.0885 0.0443,-0.0441 0.13288,-0.0886 0.17714,-0.0886 0.0443,0 0.13287,0.0445 0.13287,0.0886 0.0885,0.0445 0.13283,0.0885 0.17722,0.0885 0.0885,-0.0443 0.22131,0 0.30989,0.0886 0.0443,0.0886 0.0886,0.17713 0.0443,0.26568 -0.0443,0.0886 -0.0886,0.22144 -0.13289,0.30999 -0.0442,0.0886 -0.17713,0.17714 -0.2657,0.17714 -0.13283,0 -0.22144,0 -0.35424,-0.0443 L 34.85175,5.93417 H 34.4532 c -0.13283,0 -0.30998,0 -0.487086,0.0445 -0.177221,0.0443 -0.31003,0 -0.354326,-0.0445 -0.04431,-0.0442 -0.04431,-0.0442 0,-0.0886 0.04431,-0.0442 0.04431,-0.13285 0.08861,-0.17712 0.04427,-0.0445 0.08849,-0.13288 0.132809,-0.17716 0.04433,-0.0443 0.08859,-0.0886 0.08859,-0.0886 0.04432,0 0.132813,0 0.177123,0.0445 0.0443,0.0443 0.13279,0.0443 0.17712,0 0.0886,-0.0445 0.13278,-0.0886 0.17716,-0.17714 0.0443,-0.0886 0.0443,-0.17714 0.0886,-0.26573 v -0.4871 c 0,-0.30998 0,-0.61998 0,-0.97426 0,-0.35426 0,-0.66425 -0.0443,-0.97423 -0.0443,-0.30999 0,-0.48715 0,-0.57572 C 34.5418,1.72732 34.4532,1.41733 34.32038,1.1516 34.27608,1.1073 34.23168,1.1073 34.14323,1.1073 h -0.265705 c -0.08861,0 -0.177104,0 -0.22142,-0.0445 -0.04432,-0.0443 -0.08858,-0.13284 -0.04432,-0.22143 0,-0.0886 0.04432,-0.17715 0.08861,-0.2214 0.04427,-0.0445 0.132809,-0.0886 0.177104,-0.0886 0.08861,0 0.132865,0 0.221421,0 0.0443,0 0.13279,0 0.17712,0 h 0.30999 c 0.13287,0 0.31001,0 0.44287,0 0.13285,0 0.26569,-0.0445 0.35426,-0.13282 0.0443,-0.0445 0.0886,-0.0886 0.13285,-0.13288 0.0443,0 0.0887,-0.0445 0.13286,-0.0885 0.0443,-0.0445 0.13291,-0.0445 0.17712,-0.0445 0.0886,0 0.0886,0.0445 0.0886,0.0886 0,0.0445 -0.0443,0.0445 -0.0886,0.0445 -0.0442,-0.0445 -0.0885,-0.0445 -0.13286,-0.0885 z M 34.18741,0.0443 C 34.32027,0 34.40873,0 34.54168,0 c 0.17713,0 0.35427,0 0.53143,0.0443 0.17713,0.0445 0.48709,0 0.70858,0.0445 z m 1.10709,3.01134 c 0,0.35427 0.0443,0.70853 0.0443,0.97426 0,0.17715 0,0.35425 0.0443,0.53139 0,0 0,0.0445 0,0.0445 0,0 0,0.0445 0,0.0445 0,0 0,0.0442 0.0443,0.0442 H 35.3388 L 35.2945,1.59461 Z m 0.17713,1.77137 c 0.0443,-0.0886 0.0886,-0.13288 0.17715,-0.0886 0.13291,0.0443 0.2214,0.0886 0.31001,0.13283 0.13281,0.0444 0.17711,0.17717 0.17711,0.30998 0,0.0886 0,0.17717 0,0.26573 0,0.0443 0,0 0,-0.0445 0,-0.0442 0,-0.13285 0,-0.17714 0,-0.0443 -0.0443,-0.13285 -0.0886,-0.17711 C 36.003,5.0037 35.9588,4.9596 35.91449,4.91532 h -0.0886 c -0.0442,0 -0.13287,0 -0.17713,0 -0.0442,0 -0.0886,0 -0.13286,0 -0.0443,-0.0442 -0.0443,-0.0442 -0.0443,-0.0885 z"
     inkscape:connector-curvature="0"
     style="stroke-width:0.44284126" />
</svg>
