<?xml version="1.0" encoding="utf-8"?>
<!-- Generator: Adobe Illustrator 24.2.0, SVG Export Plug-In . SVG Version: 6.00 Build 0)  -->
<svg version="1.1"
	 id="svg1037" xmlns:cc="http://creativecommons.org/ns#" xmlns:dc="http://purl.org/dc/elements/1.1/" xmlns:inkscape="http://www.inkscape.org/namespaces/inkscape" xmlns:rdf="http://www.w3.org/1999/02/22-rdf-syntax-ns#" xmlns:sodipodi="http://sodipodi.sourceforge.net/DTD/sodipodi-0.dtd" xmlns:svg="http://www.w3.org/2000/svg"
	 xmlns="http://www.w3.org/2000/svg" xmlns:xlink="http://www.w3.org/1999/xlink" x="0px" y="0px" viewBox="0 0 62.7 7.6"
	 style="enable-background:new 0 0 62.7 7.6;" xml:space="preserve">
<sodipodi:namedview  bordercolor="#666666" borderopacity="1" fit-margin-bottom="0" fit-margin-left="0" fit-margin-right="0" fit-margin-top="0" gridtolerance="10" guidetolerance="10" id="namedview5" inkscape:current-layer="svg1037" inkscape:cx="-58.012592" inkscape:cy="-37.367743" inkscape:pagecheckerboard="true" inkscape:pageopacity="0" inkscape:pageshadow="2" inkscape:window-height="866" inkscape:window-maximized="1" inkscape:window-width="1715" inkscape:window-x="119" inkscape:window-y="48" inkscape:zoom="3.94" objecttolerance="10" pagecolor="#ffffff" showgrid="false" units="in">
	</sodipodi:namedview>
<path id="path44" inkscape:connector-curvature="0" d="M2.2,3.6c0.3,0.3,0.5,0.7,0.7,1.1c0,0.2,0.1,0.3,0.1,0.5c0,0.2,0,0.3,0,0.5
	c0,0.2,0,0.3-0.1,0.5C2.7,6.3,2.7,6.5,2.6,6.7C2.5,6.8,2.5,6.9,2.3,7C2.2,7.1,2.1,7.2,1.9,7.2c-0.2,0-0.4,0-0.6,0
	C1.1,7.1,0.9,7,0.7,6.9C0.5,6.7,0.4,6.5,0.3,6.3C0.2,6,0.1,5.8,0.1,5.5c0-0.3,0-0.5,0.1-0.8c0.1-0.2,0.1-0.5,0.2-0.7
	c0.1-0.2,0.2-0.3,0.4-0.4C0.9,3.6,1,3.6,1.2,3.5c0.1,0,0.3,0,0.4,0c0.1,0,0.2,0,0.2,0c0-0.1,0-0.1,0.1-0.1C2,3.4,2.1,3.5,2.2,3.6
	L2.2,3.6z M1.6,3.8c-0.1,0-0.2,0-0.2,0C1.2,3.9,1.1,4,1,4.1C0.8,4.2,0.7,4.3,0.6,4.5C0.5,4.7,0.5,5,0.5,5.2c0,0.2,0,0.5,0.1,0.7
	c0.1,0.2,0.2,0.3,0.3,0.5c0.1,0.1,0.3,0.2,0.4,0.3c0.1,0.1,0.3,0.1,0.4,0.1c0.1,0,0.2-0.1,0.3-0.1c0.1-0.1,0.2-0.2,0.3-0.4
	c0.1-0.2,0.1-0.3,0.2-0.5c0-0.2,0-0.3,0-0.5c0-0.2,0-0.3-0.1-0.5c0-0.2-0.1-0.3-0.2-0.5C2.2,4.2,2.1,4.1,2,4
	C1.9,3.9,1.8,3.8,1.6,3.8L1.6,3.8z M1.3,4.1C1.2,4.2,1.1,4.3,1,4.4C0.9,4.6,0.9,4.7,0.8,4.8c-0.1,0.2,0,0.3,0,0.5
	c0,0.2,0,0.3,0.1,0.5C0.9,5.9,1,6,1,6c0,0.1,0.1,0.1,0.1,0.1l0.1,0.1l0.2,0.1c0.1,0.1,0.1,0.1,0.1,0.1c0,0-0.1,0-0.1,0
	c-0.1,0-0.1,0-0.2-0.1c-0.1,0-0.1-0.1-0.2-0.1C1,6.3,1,6.3,0.9,6.2C0.8,6,0.8,5.8,0.7,5.6c0-0.2-0.1-0.5,0-0.7
	c0.1-0.2,0.2-0.4,0.3-0.5C1.1,4.2,1.2,4.2,1.3,4.1L1.3,4.1z M2.4,3.3c0.1,0.1,0.2,0.2,0.3,0.3C2.8,3.8,2.9,3.9,2.9,4
	C3,4.1,3,4.3,3.1,4.4c0,0.1,0.1,0.2,0.1,0.3c0,0.1,0,0.2,0,0.3c0,0.2,0,0.3,0,0.5c0,0.2,0,0.4-0.1,0.6c0,0.2-0.1,0.3-0.2,0.5
	C2.8,6.7,2.7,6.8,2.6,7C2.5,7.1,2.3,7.2,2.2,7.2C2.1,7.3,1.9,7.4,1.7,7.4C1.8,7.4,2,7.4,2,7.3c0.1-0.1,0.2-0.1,0.3-0.2
	C2.5,7.1,2.6,7,2.7,6.9C2.8,6.7,3,6.5,3,6.2C3.1,6,3.2,5.8,3.2,5.6c0-0.1,0-0.2,0-0.4c0-0.2,0-0.3-0.1-0.5C3,4.6,3,4.4,3,4.3
	c0-0.1-0.1-0.2-0.1-0.4C2.8,3.8,2.7,3.7,2.6,3.6C2.5,3.6,2.4,3.5,2.4,3.3C2.2,3.3,2.1,3.2,2,3.2c-0.1,0-0.1-0.1-0.2-0.1L1.5,3
	c0.1,0,0.2,0,0.2,0c0.1,0,0.2,0.1,0.2,0.1C2.1,3.2,2.2,3.3,2.4,3.3L2.4,3.3z M3.5,5.9C3.5,5.9,3.5,5.9,3.5,5.9
	C3.5,5.9,3.5,5.9,3.5,5.9c-0.1-0.1-0.1-0.1,0-0.1L3.5,5.9z"/>
<path id="path46" inkscape:connector-curvature="0" d="M6.2,3.1l0.1,0l0.1,0c0,0,0.1,0,0.1,0l0.2,0c0.1,0,0.1,0,0.2,0
	C7,3,7,3,7.1,2.9c0.1,0,0.1-0.1,0.2-0.1c0.1,0,0.1,0,0.2,0C7.5,2.9,7.5,3,7.5,3c0.1,0.1,0.1,0.2,0.1,0.4c0,0.1-0.1,0.1-0.2,0.2
	c-0.1,0-0.1,0-0.2,0c0,0-0.1,0-0.1,0c-0.1,0-0.1-0.1-0.2,0l-0.2,0c0,0-0.1,0-0.1,0c0,0-0.1,0-0.1,0c0,0-0.1,0-0.1,0c0,0-0.1,0-0.1,0
	l-0.1,0l-0.1,0l0,0l0.1,2.7l0.1,0.2c0,0.1,0,0.1,0.1,0.2c0,0,0,0.1,0,0.1c0,0-0.1,0.1-0.1,0.1c-0.1,0-0.1,0-0.2,0
	c0,0-0.1-0.1-0.1-0.2C6,6.5,6,6.4,6,6.2c0-0.1,0-0.3,0-0.5C6,5.5,6,5.3,6,5c0-0.2,0-0.4,0-0.6c0-0.1,0-0.2,0-0.4C6,4,6,3.9,6,3.9
	c0-0.1,0-0.1,0-0.2c0-0.1,0-0.1-0.1-0.2c0,0-0.1-0.1-0.1-0.1c-0.1,0-0.2,0-0.2,0c0,0-0.1,0.1-0.1,0.1c0,0-0.1,0-0.1,0l-0.2,0l-0.2,0
	c0,0-0.1,0-0.1,0C5,3.6,5,3.5,4.9,3.5C4.8,3.4,4.8,3.4,4.8,3.3c0,0,0-0.1,0-0.1c0,0,0.1,0,0.1,0l0.2,0l0.4,0l0.4,0L6.2,3.1z
	 M6.5,3.8c0,0,0,0,0.1,0l0.2,0l0.2,0c0.1,0,0.1,0,0.2,0c0.1,0,0.2,0,0.2-0.1c0,0,0.1-0.1,0.1-0.1c0,0,0,0.1-0.1,0.1
	c0,0-0.1,0.1-0.1,0.1c-0.1,0-0.1,0-0.2,0c-0.1,0-0.2,0-0.2,0c-0.1,0-0.2,0-0.2,0l-0.1,0C6.6,3.8,6.6,3.8,6.5,3.8l0.1,1.1
	c0,0.3,0,0.5,0,0.8c0,0.3,0,0.5,0,0.6c0,0.1,0,0.2,0,0.3c0,0.1,0,0.1,0,0.1c0,0,0,0.1-0.1,0.1c0,0,0,0,0-0.1c0-0.1,0-0.1,0-0.2
	l0-0.2c0-0.1,0-0.2,0-0.3c0-0.1,0-0.3,0-0.5c0-0.2,0-0.3,0-0.5C6.5,4.7,6.5,4.3,6.5,3.8L6.5,3.8z"/>
<path id="path48" inkscape:connector-curvature="0" d="M12.2,3.1c0,0,0,0.1,0,0.1l0,0c0,0-0.1,0.1-0.1,0.1l-0.1,0c0,0,0,0-0.1,0l0,0
	l0,0c0.1,0,0.1,0.1,0.1,0.1c0,0.1,0,0.1,0,0.2c0,0.1,0,0.2,0,0.2l0,1.1c0,0.2,0,0.3,0,0.5c0,0.2,0,0.3,0,0.4c0,0.1,0,0.2,0,0.2
	c0,0.1,0,0.1,0,0.2c0,0.1,0,0.1,0.1,0.2c0,0.1,0,0.1,0,0.2c0,0,0,0.1,0,0.1c-0.1,0-0.1,0.1-0.2,0.1c-0.1,0-0.1,0-0.2,0
	c0,0,0-0.1,0-0.1c0-0.1,0-0.1,0-0.2c0-0.1,0-0.2,0-0.2c0-0.1,0-0.1,0-0.1s0-0.1,0-0.2c0-0.1,0-0.2,0-0.4c0-0.1,0-0.2,0-0.3
	c0-0.1,0-0.1,0-0.2c0,0,0,0,0,0c0,0,0,0-0.1,0l-0.1,0c0,0,0,0,0,0c0,0,0,0.1-0.1,0.1c0,0-0.1,0-0.1,0l-0.5,0c-0.1,0-0.2,0-0.3,0
	c-0.1,0-0.2,0-0.2,0l-0.1,0c0,0-0.1,0-0.1,0c-0.1,0-0.1,0-0.1,0c-0.1,0-0.1,0.1,0,0.2c0,0,0.1,0.1,0.1,0.1c0,0,0,0.1,0,0.2
	c0,0.1,0,0.2,0,0.3l0,0.5l0.1,0.1c0,0,0,0.1,0.1,0.1c0,0,0,0.1,0,0.1c0,0,0,0.1-0.1,0.2C10,6.9,9.9,7,9.8,7c0,0-0.1,0-0.1,0
	c0,0,0-0.1-0.1-0.1c0,0,0-0.1,0-0.1c0,0,0,0,0-0.1l0-0.2c0-0.2,0-0.3,0-0.5c0-0.2,0-0.3,0-0.5l0-0.3c0-0.1,0-0.2,0-0.3
	c0-0.2,0-0.3-0.1-0.5c0-0.2,0-0.4,0-0.5c0-0.1,0-0.2,0-0.4c0-0.1,0.1-0.1,0.1-0.2c0.1,0,0.1-0.1,0.2-0.1c0.1,0,0.1,0,0.2,0l0.1,0
	c0,0,0,0,0,0.1l0,0.1l0,0.9c0-0.2,0-0.3,0-0.4c0-0.1,0-0.2,0-0.3c0-0.1,0-0.1,0-0.2l-0.1,0l-0.2,0l0,0c0,0.1,0,0.1,0,0.2
	c0,0.1,0,0.2-0.1,0.3c0,0.1,0,0.1,0,0.2c0,0.1,0,0.2,0,0.2c0,0.1,0,0.2,0,0.3c0,0.1,0.1,0.1,0.1,0.1c0,0,0,0,0.1-0.1
	c0,0,0-0.1,0-0.1l0-0.1c0,0,0,0,0,0.1c0,0,0,0.1,0,0.1c0,0,0,0.1,0,0.1c0,0.1,0.1,0.1,0.1,0.1c0.1,0,0.2,0,0.3,0c0.1,0,0.2,0,0.4,0
	c0.2,0,0.2,0,0.3,0c0,0,0.1,0.1,0.1,0.1c0,0,0.1,0.1,0.1,0.1c0,0,0.1,0,0.1,0c0,0,0-0.1,0.1-0.1c0,0,0-0.1,0-0.1c0-0.1,0-0.1,0-0.2
	c0-0.1,0-0.2,0-0.2l0-0.2c0,0,0-0.1,0-0.2l0-0.2c0-0.1,0-0.2,0-0.2c0-0.1,0-0.1,0-0.1c0,0,0.1-0.1,0.1-0.1c0.1,0,0.1-0.1,0.2-0.1
	C12,3.2,12.1,3.1,12.2,3.1L12.2,3.1z M10.1,5.6c0,0,0.1,0.1,0.1,0.2l0,0.4c0,0.1,0,0.2,0,0.3c0,0.1,0,0.2,0,0.2c0,0.1,0,0.2,0,0.2
	l0,0l0,0l0-0.1c0-0.1,0-0.2,0-0.2c0-0.1,0-0.2,0-0.2c0,0,0-0.1,0-0.2c0-0.1,0-0.2,0-0.3L10.1,5.6C10.1,5.6,10.1,5.6,10.1,5.6
	L10.1,5.6z M10.7,4.5c-0.1,0-0.2,0-0.3,0c-0.1,0-0.1,0-0.2-0.1l0.8,0L10.7,4.5z M12.2,4.3c0,0,0-0.1,0-0.1c0-0.1,0-0.1,0-0.2
	c0-0.1,0-0.2,0-0.3C12.2,3.9,12.2,4.2,12.2,4.3c0,0.3,0,0.5,0.1,0.6c0,0.2,0,0.2,0,0.3c0,0,0,0.1,0,0.1c0,0,0,0.1,0,0.1
	c0,0,0,0.1,0,0.1c0,0.1,0,0.2,0,0.3l0,0.4c0,0,0,0.1,0,0.1c0,0,0,0.1,0,0.1l0-0.6c0-0.1,0-0.1,0-0.2c0,0,0-0.1,0-0.1
	c0-0.1,0-0.1,0-0.2l0-0.7c0-0.1,0-0.2,0-0.3C12.3,4.3,12.2,4.3,12.2,4.3z"/>
<path id="path50" inkscape:connector-curvature="0" d="M15.8,3.4l-0.3,0l-0.5,0.1c-0.2,0-0.4,0-0.6,0.1c0,0.1,0,0.2,0,0.2l0,0.9
	c0.1,0,0.1,0,0.2,0c0.1,0,0.1,0,0.2,0c0,0,0.1,0,0.1,0c0,0,0.1,0,0.1,0l0.2,0c0.1,0,0.1,0,0.2,0l0.1,0c0.1,0,0.2,0,0.2-0.1
	c0.1,0,0.2,0,0.2,0c0.1,0,0.1,0.1,0.2,0.1c0.1,0,0.1,0.1,0.1,0.2c0,0.1,0,0.2,0,0.2C16.1,4.9,16,5,15.9,5c-0.1,0-0.1,0-0.2,0L15.6,5
	c-0.1,0-0.1,0-0.2,0l-0.2,0c-0.1,0-0.2,0-0.2,0l-0.2,0c-0.1,0-0.1,0-0.2,0c0,0-0.1,0-0.1,0c0,0,0,0,0,0.1c0,0.1,0,0.2,0,0.2
	c0,0.1,0,0.2,0,0.2c0,0.1,0,0.1,0,0.2c0,0.1,0,0.1,0,0.2c0,0.1,0,0.1,0,0.1c0,0,0,0.1,0,0.1c0,0.1,0,0.1,0,0.1c0,0,0.1,0,0.2,0
	c0.1,0,0.1,0,0.2,0l0.2,0l0.3,0l0.3,0c0.1,0,0.2,0,0.2,0c0.1,0,0.2-0.1,0.3-0.1c0.1-0.1,0.2-0.1,0.3-0.1c0.1,0,0.1,0.1,0.1,0.2
	c0,0.1,0,0.2,0,0.2c0,0.1-0.1,0.1-0.1,0.2c-0.1,0-0.1,0.1-0.2,0.1c0,0-0.1,0-0.1,0c-0.1,0-0.1,0-0.2,0l-0.2,0c0,0-0.1,0-0.1,0
	l-1.5,0.1c-0.1,0-0.1-0.1-0.1-0.1c0,0-0.1-0.1-0.1-0.1c0,0,0-0.1,0-0.2c0-0.1,0-0.2,0-0.3c0-0.1,0-0.2,0-0.4c0-0.1,0-0.2,0-0.2
	c0-0.1,0-0.2,0-0.3c0-0.1,0-0.2,0-0.2c0-0.1,0-0.1,0-0.2c0-0.1,0-0.2,0-0.2l0-0.2c0-0.1,0-0.2,0-0.2c0-0.1,0-0.1,0-0.2
	c0-0.1,0-0.2,0-0.3c0-0.1,0-0.2,0-0.3c0-0.1,0-0.1,0.1-0.2c0.1,0,0.2,0,0.2,0l0.3,0l0.4,0l0.2,0l0.2,0l0.2,0l0.2,0
	c0.1,0,0.1,0,0.2,0c0.1,0,0.1-0.1,0.2-0.1c0.1,0,0.1,0,0.2,0c0.1,0,0.1,0.1,0.2,0.1c0,0.1,0.1,0.2,0.1,0.2c0,0.1,0,0.1-0.1,0.2
	c0,0.1-0.1,0.1-0.2,0.1c-0.1,0-0.2,0-0.3,0C16,3.3,15.9,3.3,15.8,3.4L15.8,3.4z M15.3,3.6l-0.2,0c-0.1,0-0.1,0-0.2,0
	c0,0-0.1,0-0.1,0c0,0,0,0.1,0,0.2c0,0.1,0,0.2,0.1,0.2c0,0.1,0.1,0.1,0.1,0.1l0.2,0c0.1,0,0.1,0,0.2,0l0.1,0c-0.1,0-0.1,0-0.2,0
	c-0.1,0-0.2,0-0.2,0l-0.4,0c0,0,0-0.1,0-0.1c0,0,0-0.1,0-0.1l0-0.3c0-0.1,0-0.2,0-0.2L15.3,3.6z M14.7,5.2c0,0.1,0,0.1,0.1,0.2
	c0,0.1,0,0.1,0,0.2c0,0.1,0,0.2,0,0.2c0,0.1,0,0.2,0,0.2c0,0,0,0,0,0c0,0,0,0,0.1,0l-0.2,0c0-0.1,0-0.2,0-0.3c0-0.1,0-0.2,0-0.3
	C14.6,5.3,14.7,5.2,14.7,5.2L14.7,5.2z M14.9,5.3L14.9,5.3c0.1,0,0.1,0,0.2,0l0.2,0c0,0,0.1,0,0.1,0l-0.1,0c-0.1,0-0.1,0-0.2,0
	L14.9,5.3L14.9,5.3z M15.8,4.2C15.8,4.2,15.8,4.2,15.8,4.2C15.9,4.3,16,4.3,16,4.4L15.8,4.2z"/>
<path id="path52" inkscape:connector-curvature="0" d="M18.7,2.7c0.1,0,0.2,0,0.2,0l0.9,0l0.3,0c0.1,0,0.1,0,0.2,0c0,0,0.1,0,0,0
	s0,0,0,0c0.1,0,0.1,0,0.2,0.1c0.2,0.1,0.3,0.3,0.5,0.5c0.1,0.1,0.1,0.3,0.1,0.5c0,0.1,0,0.2-0.1,0.3C21,4.1,21,4.2,20.9,4.3
	c-0.1,0.1-0.1,0.2-0.2,0.3c0,0-0.1,0.1-0.1,0.1c0,0,0,0,0,0c0,0,0,0,0,0.1c0,0.2,0.1,0.3,0.2,0.5c0,0.1,0.1,0.2,0.1,0.2L21,5.7
	l0.2,0.2c0,0,0.1,0.1,0.1,0.1c0,0.1,0,0.1,0,0.2c0,0.1-0.1,0.1-0.2,0.2c-0.1,0-0.1,0-0.2,0c-0.1-0.1-0.1-0.1-0.2-0.2
	c-0.1-0.1-0.1-0.1-0.1-0.2c0-0.1-0.1-0.2-0.1-0.2c0-0.1-0.1-0.2-0.1-0.2l-0.1-0.4c-0.1-0.1-0.1-0.2-0.2-0.3c0-0.1-0.1-0.1-0.1-0.1
	c-0.1,0-0.2,0-0.2,0c-0.1,0-0.2,0.1-0.2,0.1c-0.1,0-0.2,0-0.3,0c-0.1,0-0.2,0-0.2,0c0,0,0,0.1,0,0.2c0,0.1,0,0.1,0,0.2
	c0,0,0,0.1,0,0.1c0,0.1,0,0.1,0,0.2c0,0.1,0,0.1,0,0.2c0,0,0,0.1,0,0.1c0,0.1,0,0.1,0.1,0.2c0,0.1,0.1,0.2,0.1,0.2
	c0,0.1-0.1,0.1-0.1,0.2c-0.1,0.1-0.1,0.1-0.2,0.1c-0.1,0-0.1,0-0.1,0c0,0,0-0.1-0.1-0.1c0-0.1,0-0.2,0-0.2c0-0.1,0-0.2,0-0.3
	c0-0.1,0-0.2,0-0.3c0-0.1,0-0.2,0-0.2l0-0.3c0-0.2,0-0.4,0-0.6c0-0.2,0-0.5,0-0.6l0-0.4c0-0.1,0-0.2,0-0.3
	C18.6,2.8,18.7,2.7,18.7,2.7L18.7,2.7z M19.2,5c0,0,0-0.1,0-0.1c0-0.1,0-0.1,0.1-0.1c0.1,0,0.1,0,0.2,0.1c0.1,0,0.1,0,0.2,0
	c0.1,0,0.1,0,0.1,0.1c0,0,0,0.1,0,0.1c-0.1,0-0.1,0-0.2,0l-0.1,0c0,0,0,0.1,0,0.1c0,0.1,0,0.1,0,0.2c0,0.1,0,0.1,0,0.2
	c0,0.1,0,0.2,0,0.2L19.3,6c0,0.1,0,0.2-0.1,0.3c0,0.1,0,0.1-0.1,0.2c0,0-0.1,0-0.2,0l-0.1-0.1l0.1,0c0,0,0.1,0,0.1,0c0,0,0,0,0,0
	c0,0,0-0.1,0.1-0.1c0,0,0.1-0.1,0.1-0.1c0-0.1,0-0.1,0-0.2c0,0,0-0.1,0-0.2c0-0.1,0-0.2,0-0.3c0-0.1,0-0.2,0-0.3
	C19.2,5.1,19.2,5,19.2,5L19.2,5z M20.2,3L20.2,3c-0.1,0-0.1,0-0.2,0c-0.1,0-0.2,0-0.2,0c-0.1,0-0.2,0-0.2,0c-0.1,0-0.1,0-0.2,0
	c0,0-0.1,0-0.1,0c0,0-0.1,0-0.1,0c0,0,0,0-0.1,0c-0.1,0-0.1,0-0.2,0c0,0,0,0.1,0,0.1c0,0,0,0,0,0.1c0,0,0,0.1,0,0.2
	c0,0.1,0,0.1,0,0.2c0,0,0,0.1,0,0.1c0,0,0,0.1,0,0.1c0,0,0,0,0,0.1c0,0,0,0.1-0.1,0.1c0,0.1,0,0.1,0,0.1c0,0,0.1,0,0.2,0
	c0,0,0.1,0,0.1-0.1c0,0,0.1,0,0.1,0l0.2,0l0.2,0c0.1,0,0.1,0,0.2,0c0.1,0,0.2,0,0.3,0c0.1,0,0.2-0.1,0.2-0.1
	c0.1-0.1,0.1-0.2,0.2-0.3c0.1-0.1,0.1-0.2,0-0.3c0-0.1,0-0.2-0.1-0.2c0-0.1-0.1-0.1-0.2-0.2C20.5,3,20.3,3,20.2,3L20.2,3z M19.2,3.4
	C19.2,3.4,19.2,3.3,19.2,3.4c0.1,0,0.1,0,0.2,0l0.2,0l-0.1,0C19.3,3.4,19.3,3.4,19.2,3.4c0,0.1,0,0.1,0.1,0.2c0,0,0,0.1,0,0.1l0,0
	c0,0,0-0.1,0-0.1C19.2,3.5,19.2,3.5,19.2,3.4C19.2,3.4,19.2,3.4,19.2,3.4L19.2,3.4z M19.3,3.8L19.3,3.8c0.1,0.1,0.1,0.1,0.2,0.1
	l0.1,0c0.1,0,0.1,0,0.2,0l-0.4,0L19.3,3.8L19.3,3.8C19.2,3.9,19.3,3.8,19.3,3.8L19.3,3.8z M20.5,2.4c0.2,0.1,0.4,0.2,0.5,0.3
	c0.1,0.1,0.2,0.2,0.3,0.3c0.1,0.1,0.1,0.2,0.1,0.3c0,0.1,0,0.2,0,0.3c0,0.1,0,0.2,0,0.4c0,0.1-0.1,0.2-0.1,0.3
	c-0.1,0.1-0.1,0.2-0.2,0.3c0,0-0.1,0.1-0.1,0.1c0,0.1,0,0.1,0,0.2c0,0.1,0.1,0.2,0.1,0.3c0,0.1,0.1,0.3,0.2,0.4L21,5.2
	C21,5.1,20.9,5,20.9,4.9c0-0.1-0.1-0.1-0.1-0.2c0,0,0-0.1,0.1-0.1c0.1-0.1,0.1-0.1,0.2-0.2c0.1-0.1,0.2-0.3,0.2-0.5
	c0-0.2,0-0.5-0.1-0.7c0-0.1-0.1-0.2-0.2-0.3c-0.1-0.1-0.2-0.2-0.3-0.2C20.7,2.5,20.6,2.4,20.5,2.4L20.5,2.4z M21.3,6.4L21.3,6.4
	c0.1,0,0.1-0.1,0.1-0.1c0,0,0.1-0.1,0.1-0.1c0,0,0-0.1,0-0.1l0-0.2c0,0,0,0.1,0,0.1c0,0.1,0,0.2-0.1,0.2C21.4,6.3,21.4,6.4,21.3,6.4
	C21.3,6.4,21.3,6.5,21.3,6.4L21.3,6.4z"/>
<path id="path54" inkscape:connector-curvature="0" d="M28.7,4.5C28.7,4.5,28.6,4.5,28.7,4.5l-0.2,0l-0.1,0c0,0.1,0,0.2,0,0.3
	c0,0.1,0,0.2,0,0.2l0,0.2c0,0.1,0,0.2,0,0.2c0,0.1,0,0.1,0.1,0.2c0,0,0,0.1,0.1,0.1c0,0.1,0,0.1,0,0.2c0,0.1,0,0.1-0.1,0.2
	c0,0.1-0.1,0.1-0.2,0c-0.1-0.1-0.2-0.1-0.3-0.2c0-0.1,0-0.2,0-0.3c0,0,0-0.1,0-0.2l0-0.3c0-0.1,0-0.2,0-0.3c0-0.1,0-0.2,0-0.4
	c0-0.1,0-0.2,0-0.3c0-0.1,0-0.2,0-0.3c0-0.1,0-0.2,0-0.3c0-0.1,0-0.2,0-0.3c0-0.1,0-0.2,0-0.3c0-0.1,0-0.2,0-0.2c0-0.1,0-0.1,0-0.1
	c0-0.1,0-0.1,0-0.1c0,0,0.1-0.1,0.1-0.1c0.1,0,0.1,0,0.2,0l1,0c0.1,0,0.2,0,0.2,0c0.1,0,0.2,0.1,0.4,0.1c0.2,0.1,0.3,0.2,0.4,0.4
	c0.1,0.2,0.2,0.5,0.2,0.7c0,0.2,0,0.5-0.2,0.7c-0.1,0.1-0.3,0.2-0.5,0.3c-0.2,0-0.4,0.1-0.5,0.1c-0.1,0-0.2,0-0.3,0c0,0-0.1,0-0.1,0
	C28.7,4.5,28.7,4.5,28.7,4.5L28.7,4.5z M28.5,3.5c0,0,0,0.1,0,0.1c0,0.1,0,0.1,0,0.2c0,0.1,0,0.1,0,0.2c0,0.1,0.1,0.1,0.2,0l0.1,0
	c0,0,0.1,0,0.1,0c0,0,0.1,0,0.1,0l0.3,0c0.1,0,0.2,0,0.2,0l0.2,0c0.1,0,0.1,0,0.1,0c0.1,0,0.1-0.1,0.2-0.1C29.9,3.7,30,3.6,30,3.6
	c0.1-0.1,0.1-0.2,0.1-0.2c0-0.2,0-0.3-0.1-0.4c-0.1-0.1-0.1-0.1-0.2-0.2c0,0-0.1,0-0.2,0l-0.9,0c-0.1,0-0.1,0-0.2,0c0,0-0.1,0-0.1,0
	c0,0,0,0-0.1,0c0,0,0,0,0,0c0,0,0,0.1,0,0.1c0,0.1,0,0.2,0,0.2l0,0.2C28.5,3.4,28.5,3.5,28.5,3.5L28.5,3.5z M28.6,2.9
	c0.1,0,0.1,0,0.1,0.1c0,0.1,0.1,0.2,0,0.3c0,0,0,0.1-0.1,0.1c0,0,0,0.1-0.1,0.1c0,0,0,0.1-0.1,0.1c0,0,0,0,0,0c0,0,0-0.1,0-0.1
	c0-0.1,0-0.1,0-0.2c0-0.1,0-0.1,0-0.2c0-0.1,0-0.1,0-0.2C28.6,3,28.6,2.9,28.6,2.9L28.6,2.9z M28.6,4.6c0,0,0.1,0.1,0.2,0.1
	c0.1,0,0.2,0,0.2,0c0.1,0,0.2,0,0.3,0l-0.5,0.1l0,0.8l0-0.3c0-0.1,0-0.2,0-0.2c0-0.1,0-0.1,0-0.1c0,0,0-0.1,0-0.1c0,0,0-0.1,0-0.1
	L28.6,4.6z M29.3,2.9C29.3,3,29.2,3,29.3,2.9C29.1,3,29.1,3,29,3c0,0,0,0,0,0c0,0,0.1,0,0.1,0L29.3,2.9z M29.3,3.8c0,0-0.1,0-0.2,0
	c0,0-0.1,0-0.1-0.1L29.3,3.8z M30.7,3.8c-0.1,0.2-0.2,0.3-0.3,0.4c-0.1,0.1-0.3,0.2-0.5,0.3c0.1-0.1,0.1-0.1,0.2-0.1
	c0.1,0,0.1-0.1,0.2-0.1c0.1,0,0.1-0.1,0.1-0.1c0.1-0.1,0.1-0.3,0.2-0.4c0.1-0.2,0-0.3,0-0.5c0-0.2,0-0.3-0.1-0.4
	c0-0.1-0.1-0.2-0.2-0.3c0,0-0.1-0.1-0.1-0.1c0,0,0,0-0.1-0.1c0,0,0,0-0.1,0c0.1,0,0.1,0.1,0.2,0.1c0,0.1,0.1,0.1,0.1,0.1
	c0,0.1,0.1,0.1,0.1,0.2c0.1,0.2,0.1,0.4,0.1,0.5C30.8,3.4,30.7,3.6,30.7,3.8L30.7,3.8z"/>
<path id="path56" inkscape:connector-curvature="0" d="M32.5,2.1c0.1,0,0.2,0,0.2,0l0.9,0l0.3,0C34,2,34,2,34.1,2c0,0,0.1,0,0,0
	c0,0,0,0,0,0c0.1,0,0.1,0,0.2,0.1c0.1,0.1,0.2,0.1,0.2,0.1c0.1,0.1,0.2,0.2,0.3,0.3c0.1,0.1,0.1,0.3,0.1,0.5c0,0.1,0,0.2-0.1,0.3
	c-0.1,0.1-0.1,0.2-0.2,0.3c-0.1,0.1-0.1,0.2-0.2,0.3c0,0-0.1,0.1-0.1,0.1c0,0,0,0,0,0s0,0,0,0.1c0,0.2,0.1,0.3,0.2,0.5
	c0,0.1,0.1,0.2,0.1,0.2l0.2,0.2c0.1,0.1,0.1,0.1,0.2,0.2c0,0,0.1,0.1,0.1,0.1c0,0.1,0,0.1,0,0.2c0,0.1-0.1,0.1-0.1,0.2
	c-0.1,0-0.1,0-0.2,0c-0.1-0.1-0.1-0.1-0.2-0.2c-0.1-0.1-0.1-0.1-0.1-0.2c0-0.1-0.1-0.2-0.1-0.2c0-0.1-0.1-0.2-0.1-0.2L34,4.5
	c-0.1-0.1-0.1-0.2-0.2-0.3c0-0.1-0.1-0.1-0.1-0.1c-0.1,0-0.2,0-0.2,0c-0.1,0-0.2,0.1-0.2,0.1c-0.1,0-0.2,0-0.3,0c-0.1,0-0.2,0-0.2,0
	c0,0,0,0.1,0,0.2c0,0.1,0,0.1,0,0.2c0,0.1,0,0.1,0,0.1c0,0.1,0,0.1,0,0.2c0,0.1,0,0.1,0,0.2c0,0.1,0,0.1,0,0.1c0,0.1,0,0.1,0.1,0.2
	c0,0.1,0.1,0.2,0.1,0.2c0,0.1,0,0.1-0.1,0.2c-0.1,0.1-0.1,0.1-0.2,0.1c-0.1,0-0.1,0-0.1,0c0,0,0-0.1-0.1-0.1c0-0.1,0-0.2,0-0.2
	c0-0.1,0-0.2,0-0.3c0-0.1,0-0.2,0-0.3c0-0.1,0-0.2,0-0.2l0-0.4c0-0.2,0-0.4,0-0.6c0-0.2,0-0.5,0-0.6l0-0.4c0-0.1,0-0.2,0-0.3
	C32.4,2.2,32.5,2.1,32.5,2.1L32.5,2.1z M33,4.5c0,0,0-0.1,0-0.1c0-0.1,0-0.1,0.1-0.1c0.1,0,0.1,0,0.2,0.1c0.1,0,0.1,0,0.2,0
	c0.1,0,0.1,0,0.1,0.1c0,0,0,0.1,0,0.1c-0.1,0-0.1,0-0.2,0l-0.1,0c0,0,0,0.1,0,0.1c0,0.1,0,0.1,0,0.2c0,0.1,0,0.1,0,0.2
	c0,0.1,0,0.2,0,0.2l0,0.3c0,0.1,0,0.2-0.1,0.3c0,0.1,0,0.1-0.1,0.2c0,0-0.1,0-0.2,0l-0.1-0.1l0.1,0c0,0,0.1,0,0.1,0c0,0,0.1,0,0.1,0
	c0,0,0-0.1,0.1-0.1c0,0,0.1-0.1,0.1-0.1c0,0,0-0.1,0-0.2c0-0.1,0-0.1,0-0.2c0-0.1,0-0.2,0-0.3c0-0.1,0-0.2,0-0.3
	C33,4.5,33,4.5,33,4.5L33,4.5z M34,2.5l-0.1,0c0,0,0,0-0.1,0c-0.1,0-0.2,0-0.2,0c-0.1,0-0.2,0-0.2,0c-0.1,0-0.1,0-0.2,0
	c0,0-0.1,0-0.1,0c0,0-0.1,0-0.1,0c0,0,0,0-0.1,0c-0.1,0-0.1,0-0.2,0c0,0,0,0.1,0,0.1c0,0,0,0,0,0.1c0,0,0,0.1,0,0.2
	c0,0.1,0,0.1,0,0.2c0,0.1,0,0.1,0,0.1c0,0,0,0.1,0,0.1c0,0,0,0,0,0.1c0,0,0,0.1-0.1,0.1c0,0.1,0,0.1,0,0.1c0,0,0.1,0,0.2,0
	c0,0,0.1,0,0.2-0.1c0,0,0.1,0,0.1,0l0.2,0l0.2,0c0.1,0,0.1,0,0.2,0c0.1,0,0.2,0,0.3,0c0.1,0,0.2-0.1,0.2-0.1
	c0.1-0.1,0.1-0.2,0.2-0.3c0.1-0.1,0.1-0.2,0-0.3c0-0.1,0-0.2-0.1-0.2c0-0.1-0.1-0.1-0.2-0.2C34.3,2.5,34.1,2.5,34,2.5L34,2.5z
	 M33,2.8C33,2.8,33,2.8,33,2.8c0.1,0,0.1,0,0.2,0l0.2,0l-0.1,0C33.2,2.8,33.1,2.8,33,2.8C33,2.9,33,2.9,33.1,3c0,0,0,0.1,0,0.1l0,0
	C33,3,33,3,33,3C33,3,33,2.9,33,2.8C33,2.8,33,2.8,33,2.8L33,2.8z M33.1,3.3L33.1,3.3c0.1,0.1,0.1,0.1,0.1,0.1l0.1,0
	c0.1,0,0.1,0,0.2,0l-0.4,0L33.1,3.3L33.1,3.3C33,3.3,33,3.3,33.1,3.3L33.1,3.3z M34.2,1.8c0.2,0.1,0.4,0.2,0.5,0.3
	c0.1,0.1,0.2,0.2,0.3,0.3c0.1,0.1,0.1,0.2,0.1,0.3c0,0.1,0,0.2,0,0.3c0,0.1,0,0.2,0,0.4c0,0.1-0.1,0.2-0.1,0.3
	C35,3.8,34.9,3.9,34.8,4c0,0-0.1,0.1-0.1,0.1c0,0.1,0,0.1,0,0.2c0,0.1,0.1,0.2,0.1,0.3C35,4.7,35,4.9,35.1,5l-0.3-0.4
	c-0.1-0.1-0.1-0.2-0.2-0.3c0-0.1-0.1-0.1-0.1-0.2c0,0,0-0.1,0.1-0.1c0.1-0.1,0.1-0.2,0.2-0.2c0.1-0.1,0.2-0.3,0.2-0.5
	c0-0.2,0-0.5-0.1-0.7c0-0.1-0.1-0.2-0.2-0.3c-0.1-0.1-0.2-0.2-0.3-0.2C34.5,1.9,34.4,1.9,34.2,1.8L34.2,1.8z M35.1,5.9L35.1,5.9
	c0.1,0,0.1-0.1,0.1-0.1c0,0,0-0.1,0.1-0.1c0,0,0-0.1,0-0.1l0-0.2c0,0,0,0.1,0,0.1c0,0.1,0,0.2-0.1,0.2C35.2,5.7,35.2,5.8,35.1,5.9
	C35.1,5.9,35.1,5.9,35.1,5.9L35.1,5.9z"/>
<path id="path58" inkscape:connector-curvature="0" d="M38.9,2.1c0.3,0.3,0.5,0.7,0.7,1.1c0,0.2,0.1,0.3,0.1,0.5c0,0.2,0,0.3,0,0.5
	c0,0.2,0,0.3-0.1,0.5c-0.1,0.2-0.1,0.3-0.2,0.5c-0.1,0.1-0.2,0.3-0.3,0.3c-0.1,0.1-0.3,0.2-0.4,0.2c-0.2,0-0.4,0-0.6,0
	c-0.2-0.1-0.4-0.2-0.6-0.3C37.3,5.3,37.1,5,37,4.8c-0.1-0.2-0.1-0.5-0.2-0.8c0-0.3,0-0.5,0-0.8c0.1-0.2,0.1-0.4,0.2-0.7
	c0.1-0.2,0.2-0.3,0.4-0.4c0.2-0.1,0.3-0.1,0.5-0.2c0.1,0,0.3,0,0.4,0c0.1,0,0.2,0,0.2,0c0-0.1,0-0.1,0.1-0.1
	C38.7,1.9,38.8,2,38.9,2.1L38.9,2.1z M38.3,2.3c-0.1,0-0.2,0-0.2,0c-0.2,0-0.3,0.1-0.4,0.2c-0.1,0.1-0.3,0.3-0.4,0.4
	c-0.1,0.2-0.2,0.5-0.2,0.7c0,0.2,0,0.5,0.1,0.7c0.1,0.2,0.2,0.3,0.3,0.5c0.1,0.1,0.3,0.2,0.4,0.3c0.1,0.1,0.3,0.1,0.4,0.1
	c0.1,0,0.2-0.1,0.3-0.1C38.9,5,39,4.9,39,4.8c0.1-0.2,0.1-0.3,0.2-0.5c0-0.2,0-0.3,0-0.5c0-0.2,0-0.3-0.1-0.5c0-0.2-0.1-0.3-0.2-0.5
	c-0.1-0.1-0.2-0.2-0.3-0.3C38.6,2.4,38.5,2.3,38.3,2.3L38.3,2.3z M37.9,2.6c-0.1,0.1-0.2,0.2-0.3,0.3c-0.1,0.1-0.1,0.3-0.2,0.4
	c-0.1,0.2,0,0.3,0,0.5c0,0.2,0,0.3,0.1,0.5c0,0.1,0.1,0.2,0.1,0.3c0,0.1,0.1,0.1,0.1,0.1L38,4.8l0.2,0.1C38.2,5,38.2,5,38.2,5.1
	c0,0-0.1,0-0.1,0C38.1,5,38,5,38,5c-0.1,0-0.1-0.1-0.2-0.1c-0.1-0.1-0.1-0.1-0.2-0.2c-0.1-0.2-0.1-0.4-0.2-0.6c0-0.2-0.1-0.5,0-0.7
	c0-0.1,0.1-0.2,0.1-0.3c0.1-0.1,0.1-0.2,0.2-0.2C37.8,2.7,37.9,2.7,37.9,2.6L37.9,2.6z M39.1,1.8c0.1,0.1,0.2,0.2,0.3,0.3
	c0.1,0.1,0.2,0.3,0.2,0.4c0.1,0.1,0.1,0.3,0.2,0.4l0.1,0.3c0,0.1,0,0.2,0,0.3c0,0.2,0,0.3,0,0.5c0,0.2,0,0.4-0.1,0.6
	c0,0.2-0.1,0.3-0.2,0.5c-0.1,0.2-0.2,0.3-0.3,0.4c-0.1,0.1-0.3,0.2-0.4,0.3c-0.2,0.1-0.3,0.1-0.5,0.2c0.1,0,0.2-0.1,0.3-0.1
	c0.1-0.1,0.2-0.1,0.3-0.2c0.1-0.1,0.2-0.2,0.3-0.3c0.2-0.2,0.3-0.4,0.4-0.6c0.1-0.2,0.1-0.4,0.1-0.7c0-0.1,0-0.2,0-0.4
	c0-0.2,0-0.3-0.1-0.5c0-0.2-0.1-0.3-0.1-0.4c0-0.1-0.1-0.2-0.1-0.4c0-0.1-0.1-0.2-0.2-0.3C39.2,2.1,39.1,2,39.1,1.8
	c-0.2,0-0.3-0.1-0.3-0.1c-0.1,0-0.1-0.1-0.2-0.1l-0.3-0.1c0.1,0,0.2,0,0.2,0c0.1,0,0.2,0.1,0.2,0.1C38.8,1.7,38.9,1.8,39.1,1.8
	L39.1,1.8z M40.2,4.5C40.2,4.5,40.2,4.4,40.2,4.5C40.2,4.4,40.2,4.4,40.2,4.5c0-0.1,0-0.1,0-0.1L40.2,4.5z"/>
<path id="path60" inkscape:connector-curvature="0" d="M43.9,2.1c0,0.4,0,0.8,0,1.2c0,0.3,0,0.6,0,0.9c0,0.3,0,0.5,0,0.6
	c0,0.2-0.1,0.4-0.3,0.6c-0.1,0.1-0.3,0.2-0.5,0.2c-0.2,0-0.4,0-0.6-0.2c-0.2-0.1-0.4-0.4-0.4-0.6c-0.1-0.1-0.1-0.2-0.1-0.3
	c0-0.1,0-0.2,0.1-0.2c0,0,0.1-0.1,0.1-0.1c0,0,0.1,0,0.1-0.1c0,0,0,0,0,0c0,0,0,0,0.1-0.1l0.1,0l0.1,0.1c0,0-0.1,0-0.1,0
	c0,0-0.1,0-0.1,0.1c0,0.1,0,0.1,0,0.2c0,0.1,0,0.2,0,0.3c0,0.1,0.1,0.2,0.2,0.3c0.1,0.1,0.2,0.1,0.2,0.1c0.1,0,0.1,0.1,0.2,0.1
	c0,0,0.1,0,0.1,0L43,5.3c0,0,0.1,0,0.1,0c0,0,0.1,0,0.1,0c0.1,0,0.1,0,0.2,0c0.1,0,0.2-0.1,0.2-0.2c0-0.1,0-0.2,0-0.3
	c0-0.1,0-0.2,0-0.3c0-0.1,0-0.3,0-0.5c0-0.2,0-0.4,0-0.6c0-0.2,0-0.4,0-0.6c0-0.2,0-0.3,0-0.5l0-0.2c0-0.1,0.1-0.1,0.1-0.2
	c0-0.1,0.1-0.1,0.1-0.1c0,0,0.1,0,0.1,0.1C43.9,2,43.9,2.1,43.9,2.1L43.9,2.1z M42.6,4.5c0,0.1,0,0.2,0.1,0.2l0.2,0.1
	c0,0,0.1,0.1,0.1,0.1c0,0,0.1,0,0.1,0c0,0,0,0,0,0c0,0-0.1,0-0.1,0c0,0-0.1,0-0.1-0.1c0,0-0.1-0.1-0.1-0.1
	C42.7,4.7,42.7,4.6,42.6,4.5C42.6,4.5,42.6,4.4,42.6,4.5L42.6,4.5z M44.1,1.7C44,1.8,44,1.8,44.1,1.7c-0.1,0.1-0.2,0.1-0.1,0
	C44,1.7,44,1.7,44.1,1.7C44.1,1.7,44.1,1.7,44.1,1.7L44.1,1.7z M44.1,2.4c0,0.4,0,0.7,0.1,1c0,0.2,0,0.5,0,0.7c0,0.2,0,0.3,0,0.4
	c0,0.1,0,0.2-0.1,0.3c0,0,0,0.1,0,0.1l0,0c0,0,0-0.1,0-0.1c0,0,0-0.1,0-0.1c0,0,0-0.1,0-0.1l0-1.1C44.2,3.1,44.2,2.8,44.1,2.4
	L44.1,2.4z M44.1,2C44.1,2,44.1,2,44.1,2L44.1,2C44.1,1.9,44.1,1.9,44.1,2L44.1,2L44.1,2C44.1,1.9,44.1,1.9,44.1,2L44.1,2z"/>
<path id="path62" inkscape:connector-curvature="0" d="M48,2.1l-0.3,0l-0.5,0c-0.2,0-0.4,0-0.6,0.1c0,0.1,0,0.2,0,0.2l0,0.9
	c0.1,0,0.1,0,0.2,0c0.1,0,0.1,0,0.2,0c0,0,0.1,0,0.1,0c0,0,0.1,0,0.1,0l0.2,0c0.1,0,0.1,0,0.2,0l0.1,0c0.1,0,0.2,0,0.2-0.1
	c0.1,0,0.2,0,0.2,0c0.1,0,0.1,0.1,0.2,0.1c0.1,0,0.1,0.1,0.1,0.2c0,0.1,0,0.2,0,0.2c0,0.1-0.1,0.1-0.2,0.1c-0.1,0-0.1,0-0.2,0
	l-0.1-0.1c-0.1,0-0.1,0-0.2,0l-0.2,0c-0.1,0-0.2,0-0.2,0l-0.1,0c-0.1,0-0.1,0-0.2,0c0,0-0.1,0-0.1,0c0,0,0,0,0,0.1
	c0,0.1,0,0.2,0,0.2c0,0.1,0,0.2,0,0.2c0,0.1,0,0.1,0,0.2c0,0.1,0,0.1,0,0.2c0,0.1,0,0.1,0,0.1c0,0,0,0.1,0,0.1c0,0.1,0,0.1,0,0.1
	c0.1,0,0.1,0,0.2,0c0.1,0,0.1,0,0.2,0l0.2,0c0.1,0,0.2,0,0.3,0l0.3,0c0.1,0,0.2,0,0.2,0c0.1,0,0.2-0.1,0.3-0.1
	c0.1-0.1,0.2-0.1,0.3-0.1c0.1,0,0.1,0.1,0.1,0.2c0,0.1,0,0.2,0,0.2c0,0.1-0.1,0.1-0.1,0.2c-0.1,0-0.1,0.1-0.2,0.1c0,0-0.1,0-0.1,0
	c-0.1,0-0.1,0-0.2,0l-0.2,0c0,0-0.1,0-0.1,0l-1.5,0.1c-0.1,0-0.1-0.1-0.2-0.1c0,0,0-0.1-0.1-0.1c0,0,0-0.1,0-0.2c0-0.1,0-0.2,0-0.3
	c0-0.1,0-0.2,0-0.4c0-0.1,0-0.2,0-0.2c0-0.1,0-0.2,0-0.3c0-0.1,0-0.2,0-0.2c0-0.1,0-0.1,0-0.2c0-0.1,0-0.2,0-0.2c0-0.1,0-0.2,0-0.2
	c0-0.1,0-0.2,0-0.2c0-0.1,0-0.1,0-0.2c0-0.1,0-0.2,0-0.3c0-0.1,0-0.2,0-0.3c0-0.1,0-0.1,0.1-0.2c0.1,0,0.2,0,0.2,0l0.3,0l0.4,0
	l0.2,0l0.2,0l0.2,0l0.2,0c0.1,0,0.1,0,0.1,0c0.1,0,0.1-0.1,0.2-0.1c0.1,0,0.1,0,0.2,0c0.1,0,0.1,0.1,0.2,0.1c0,0.1,0.1,0.2,0.1,0.2
	c0,0.1,0,0.1-0.1,0.2c0,0.1-0.1,0.1-0.2,0.1c-0.1,0-0.2,0-0.3,0C48.2,2,48.1,2,48,2.1L48,2.1z M47.5,2.3l-0.2,0c-0.1,0-0.1,0-0.2,0
	c0,0-0.1,0-0.1,0c0,0,0,0.1,0,0.2c0,0.1,0,0.2,0,0.2c0,0.1,0.1,0.1,0.1,0.1l0.2,0c0.1,0,0.1,0,0.2,0l0.1,0c-0.1,0-0.1,0-0.2,0
	c-0.1,0-0.2,0-0.2,0l-0.4,0c0,0,0-0.1,0-0.1c0,0,0-0.1,0-0.1l0-0.3c0-0.1,0-0.2,0-0.2L47.5,2.3z M46.9,3.9c0,0.1,0,0.1,0.1,0.2
	c0,0.1,0,0.1,0,0.2c0,0.1,0,0.2,0,0.2c0,0.1,0,0.2,0,0.2c0,0,0,0,0,0c0,0,0,0,0,0l-0.2,0c0-0.1,0-0.2,0-0.3c0-0.1,0-0.2,0-0.3
	C46.9,4,46.9,3.9,46.9,3.9L46.9,3.9z M47.1,4L47.1,4c0.1,0,0.1,0,0.2,0c0.1,0,0.1,0,0.2,0c0,0,0.1,0,0.1,0l-0.1,0
	c-0.1,0-0.1,0-0.2,0L47.1,4L47.1,4z M48,2.9C48,2.9,48,2.9,48,2.9C48.1,3,48.2,3,48.2,3.1L48,2.9z"/>
<path id="path64" inkscape:connector-curvature="0" d="M53.1,2.6c0,0-0.1-0.1-0.1-0.2c0-0.1,0-0.1-0.1-0.2c0-0.1,0-0.1-0.1-0.2
	c0-0.1-0.1-0.1-0.1-0.1L52.6,2c-0.1,0-0.2-0.1-0.3-0.1c-0.1,0-0.2,0-0.3,0c-0.1,0-0.1,0-0.2,0c-0.1,0-0.1,0.1-0.2,0.1
	c-0.1,0.1-0.2,0.2-0.2,0.3c-0.1,0.1-0.1,0.3-0.2,0.4c-0.1,0.2-0.1,0.4-0.1,0.6c0,0.4,0.2,0.7,0.4,1c0.2,0.2,0.4,0.4,0.7,0.4
	c0.1,0,0.2,0,0.3,0c0.1,0,0.2-0.1,0.3-0.2c0.1-0.1,0.1-0.1,0.2-0.2l0.1-0.2c0,0,0-0.1,0-0.1c0-0.1,0-0.1,0-0.2c0-0.1,0-0.1,0-0.2
	c0-0.1,0-0.1,0-0.1c0-0.1,0-0.1,0.1-0.1c0,0,0.1,0,0.2,0c0,0,0.1,0,0.1,0.1c0,0.1,0,0.2,0,0.2c0,0.1,0,0.2,0,0.2
	c0,0.1-0.1,0.2-0.1,0.4c-0.1,0.1-0.1,0.3-0.2,0.4C53.1,5,53,5.1,52.8,5.1c-0.3,0.1-0.6,0.1-0.9,0c-0.3-0.1-0.6-0.4-0.7-0.7
	c-0.2-0.3-0.3-0.7-0.3-1.1c0-0.4,0-0.7,0.1-1.1C51,2.1,51.1,2,51.2,1.9c0.1-0.1,0.2-0.2,0.3-0.3c0.1,0,0.2-0.1,0.3-0.1
	c0.1,0,0.1,0,0.2,0c0.1,0,0.1,0,0.2,0c0.1,0,0.1,0,0.2-0.1c0,0,0.1,0,0.1,0s0,0,0.1,0.1l0.2,0.1c0.1,0.1,0.2,0.1,0.3,0.2
	c0.1,0.1,0.2,0.2,0.3,0.3c0.1,0.1,0.1,0.1,0.2,0.2c0,0.1,0,0.2,0,0.3c0,0.1-0.1,0.1-0.1,0.2c0,0,0,0-0.1,0
	C53.2,2.7,53.1,2.7,53.1,2.6L53.1,2.6z M51.4,2.8c0-0.2,0.1-0.3,0.2-0.4c0.1-0.1,0.1-0.2,0.2-0.3c0.1,0,0.1-0.1,0.2-0.1
	c0,0,0.1,0,0.1,0c-0.1,0.1-0.2,0.1-0.3,0.2c-0.1,0.1-0.1,0.2-0.2,0.3c-0.1,0.2-0.1,0.3-0.1,0.5c0,0.3,0,0.6,0.1,0.8
	c0.1,0.2,0.1,0.2,0.1,0.2c0,0,0-0.1-0.1-0.1c0-0.1-0.1-0.2-0.1-0.3c0-0.1-0.1-0.3-0.1-0.4C51.4,3.1,51.4,3,51.4,2.8z M53.4,2.8
	C53.4,2.8,53.5,2.8,53.4,2.8c0.1-0.1,0.1-0.1,0.2-0.2c0-0.1,0-0.2,0-0.3c0-0.2-0.1-0.4-0.2-0.5c-0.1-0.1-0.2-0.2-0.3-0.3
	c-0.1-0.1-0.2-0.1-0.3-0.2c-0.1-0.1-0.3-0.1-0.4-0.2c0,0,0.1,0,0.1,0l0.1,0.1c0,0,0.1,0,0.1,0.1c0.1,0.1,0.3,0.1,0.3,0.2
	c0.2,0.1,0.3,0.3,0.4,0.4c0.1,0.1,0.2,0.3,0.2,0.5c0,0.1,0,0.2,0,0.3C53.6,2.7,53.6,2.8,53.4,2.8C53.5,2.8,53.4,2.8,53.4,2.8
	L53.4,2.8z M53.7,3.6c0,0.1,0,0.2,0,0.3c0,0.1,0,0.2,0,0.3c0,0.1-0.1,0.2-0.1,0.4c-0.1,0.1-0.1,0.3-0.3,0.4
	c-0.1,0.1-0.2,0.2-0.3,0.2c-0.1,0.1-0.3,0.1-0.4,0.2c0.1,0,0.2-0.1,0.3-0.1L53,5.1c0.1-0.1,0.2-0.2,0.3-0.3c0.1-0.1,0.2-0.2,0.2-0.4
	C53.7,4.2,53.7,3.9,53.7,3.6L53.7,3.6z"/>
<path id="path66" inkscape:connector-curvature="0" d="M56.7,1.1l0.1,0l0.1,0c0,0,0.1,0,0.1,0l0.2,0c0.1,0,0.1,0,0.2,0
	c0,0,0.1,0,0.1-0.1c0.1,0,0.1-0.1,0.2-0.1c0.1,0,0.1,0,0.2,0c0.1,0,0.1,0.1,0.1,0.1C58,1.1,58,1.2,58,1.4c0,0.1-0.1,0.1-0.2,0.2
	c-0.1,0-0.1,0-0.2,0c0,0-0.1,0-0.1,0c-0.1,0-0.1-0.1-0.2,0l-0.2,0c0,0-0.1,0-0.1,0c0,0-0.1,0-0.1,0c0,0-0.1,0-0.1,0c0,0-0.1,0-0.1,0
	l-0.1,0l-0.1,0l0,0l0.1,2.7l0.1,0.2c0,0.1,0,0.1,0,0.2c0,0,0,0.1,0,0.1c0,0-0.1,0.1-0.1,0.1c-0.1,0-0.1,0-0.2,0c0,0-0.1-0.1-0.1-0.2
	c-0.1-0.2-0.1-0.3-0.1-0.5c0-0.1,0-0.3,0-0.5c0-0.2,0-0.5,0-0.7c0-0.2,0-0.4,0-0.6c0-0.1,0-0.2,0-0.4c0-0.1,0-0.1,0-0.2
	c0-0.1,0-0.1,0-0.2c0-0.1,0-0.1-0.1-0.2c0,0-0.1-0.1-0.1-0.1c-0.1,0-0.2,0-0.2,0c0,0.1-0.1,0.1-0.2,0.1l-0.2,0l-0.2,0
	c0,0-0.1,0-0.1,0c-0.1,0-0.1-0.1-0.2-0.1c-0.1-0.1-0.1-0.1-0.1-0.2c0,0,0-0.1,0-0.1c0,0,0.1,0,0.1,0l0.2,0l0.4,0l0.4,0L56.7,1.1z
	 M57,1.7c0,0,0.1,0,0.1,0l0.2,0l0.2,0c0.1,0,0.1,0,0.2,0c0.1,0,0.2,0,0.2-0.1c0,0,0.1-0.1,0.1-0.1c0,0,0,0.1-0.1,0.1
	c0,0-0.1,0.1-0.1,0.1c-0.1,0-0.1,0-0.2,0c-0.1,0-0.2,0-0.2,0c-0.1,0-0.2,0-0.2,0l-0.1,0C57.1,1.7,57.1,1.8,57,1.7l0.1,1.1
	c0,0.3,0,0.5,0,0.8c0,0.3,0,0.5,0,0.6c0,0.1,0,0.2,0,0.3c0,0.1,0,0.1,0,0.1c0,0,0,0.1-0.1,0.1c0,0,0,0,0-0.1c0-0.1,0-0.1,0-0.2
	l0-0.2c0-0.1,0-0.2,0-0.3c0-0.1,0-0.3,0-0.5c0-0.2,0-0.3,0-0.5C57,2.7,57,2.2,57,1.7L57,1.7z"/>
<path id="path68" inkscape:connector-curvature="0" d="M62.1,2C62.1,2,62.1,2,62.1,2C62,2,62,2,61.9,2c0,0-0.1-0.1-0.1-0.1
	c0,0,0-0.1,0-0.1c0-0.1-0.1-0.1-0.2-0.2c-0.1-0.1-0.1-0.1-0.2-0.2c-0.1-0.1-0.2-0.1-0.3,0c-0.1,0-0.2,0-0.4,0c-0.1,0-0.1,0-0.2,0.1
	c-0.1,0-0.2,0.1-0.2,0.1c-0.1,0-0.1,0.1-0.2,0.1c-0.1,0-0.1,0.1-0.1,0.2c0,0.1,0.1,0.2,0.1,0.3c0.1,0.1,0.1,0.1,0.2,0.1l0.1,0
	c0,0,0,0,0.1,0.1c0.1,0.1,0.2,0.1,0.3,0.1c0.1,0,0.2,0,0.3,0c0.1,0,0.2,0,0.3,0c0.1,0,0.1,0,0.2,0l0,0c0,0,0,0,0-0.1
	c0,0,0.1,0,0.1,0C61.9,2.5,62,2.5,62,2.6c0.1,0.1,0.2,0.2,0.3,0.3c0.1,0.1,0.2,0.3,0.2,0.5c0,0.2,0,0.4-0.1,0.6
	c-0.1,0.2-0.2,0.3-0.3,0.4c-0.1,0.1-0.2,0.1-0.3,0.2c-0.1,0-0.2,0.1-0.4,0.1c-0.2,0-0.3,0-0.4,0c-0.1,0-0.3,0-0.4-0.1
	c-0.1-0.1-0.2-0.1-0.3-0.2c-0.1-0.1-0.2-0.2-0.3-0.3C60,4,59.9,3.9,59.9,3.8c0-0.1-0.1-0.2-0.1-0.3c0-0.1,0-0.1,0.1-0.2
	c0,0,0.1-0.1,0.1-0.1c0,0,0.1,0,0.1,0c0,0,0,0,0,0c0,0,0-0.1,0-0.1c0,0,0-0.1,0.1-0.1c0,0,0.1,0,0.1,0l0,0c0,0,0,0.1,0,0.1
	c0,0,0,0.1,0,0.1c0,0,0,0.1,0.1,0.1c0,0,0,0,0.1,0c0,0,0.1,0,0.1,0.1c0,0,0,0.1,0,0.1c0,0,0,0.1,0,0.1c0,0,0,0.1,0,0.1l0.2,0.2
	c0,0,0.1,0.1,0.1,0.1c0,0,0.1,0.1,0.1,0.1c0.1,0,0.1,0.1,0.2,0.1c0.1,0,0.2,0,0.3,0c0.2,0,0.4-0.1,0.6-0.2C62,3.9,62,3.8,62.1,3.7
	c0-0.1,0-0.2,0-0.3c0-0.1-0.1-0.2-0.2-0.3c-0.1-0.1-0.1-0.1-0.2-0.1c-0.1,0-0.2-0.1-0.3,0l-0.3,0c-0.1,0-0.2,0-0.3-0.1l-0.2-0.1
	c-0.1,0-0.2-0.1-0.3-0.1c-0.1-0.1-0.2-0.2-0.2-0.3c-0.1-0.2-0.1-0.3-0.1-0.5c0-0.2,0-0.4,0.2-0.5C60.2,1.2,60.3,1,60.5,1
	c0.2-0.1,0.3-0.1,0.5-0.2c0.2,0,0.3,0,0.4,0c0.1,0,0.2,0.1,0.3,0.1C61.8,0.9,61.9,1,62,1.1c0.1,0.1,0.1,0.1,0.2,0.2
	c0,0.1,0.1,0.1,0.1,0.2c0,0.1,0,0.2,0,0.3C62.3,1.9,62.2,2,62.1,2L62.1,2z M60.6,3.1C60.6,3.1,60.6,3.1,60.6,3.1l0.2,0.1
	c0,0,0.1,0,0.1,0l-0.2,0C60.7,3.2,60.7,3.2,60.6,3.1C60.6,3.2,60.5,3.2,60.6,3.1l-0.1,0.1c0,0-0.1,0-0.1,0l-0.1,0c0,0,0,0,0,0.1
	c0,0,0.1,0.1,0.1,0.1c0,0.1,0,0.1,0.1,0.2c0,0.1,0,0.1,0.1,0.1c0,0,0.1,0,0.1,0.1c0,0,0.1,0,0.1,0c0,0,0.1,0,0.1,0l0.1,0
	c0,0,0.1,0,0.1,0l-0.2,0c-0.1,0-0.1,0-0.2,0c-0.1,0-0.1,0-0.2-0.1c-0.1-0.1-0.2-0.2-0.2-0.3c0-0.1-0.1-0.2-0.2-0.3
	c0,0-0.1-0.1-0.1-0.1c0,0,0,0,0,0c0.1,0,0.1,0,0.2,0.1C60.4,3.1,60.5,3.1,60.6,3.1L60.6,3.1z M61.5,2.2c-0.1,0-0.2,0-0.2,0l-0.2,0
	c0,0-0.1,0-0.1,0l-0.1,0c-0.1,0-0.1,0-0.2,0c-0.1,0-0.1,0-0.2-0.1c-0.1,0-0.1-0.1-0.1-0.1c0-0.1,0-0.2,0.1-0.3
	c0.1-0.1,0.1-0.1,0.2-0.1l0.1,0l0.2,0c0.1,0,0.1,0,0.2,0l-0.3,0c-0.1,0-0.2,0-0.2,0.1c-0.1,0-0.1,0.1,0,0.2c0,0,0,0,0,0
	c0,0,0.1,0.1,0.1,0.1C60.7,2,60.8,2,60.9,2l0.2,0c0,0,0.1,0,0.1,0c0.1,0,0.1,0,0.2,0.1L61.5,2.2z M62.2,2.5c0,0,0.1,0,0.1,0.1
	l0.2,0.2c0.1,0.1,0.1,0.1,0.2,0.2c0,0.1,0.1,0.2,0.1,0.2c0,0.1,0,0.2,0,0.3c0,0.1,0,0.2,0,0.4c0,0.2-0.1,0.3-0.1,0.4
	c-0.1,0.2-0.2,0.3-0.3,0.3c-0.1,0.1-0.3,0.2-0.5,0.2c-0.2,0-0.3,0.1-0.5,0.1c-0.1,0-0.2,0-0.4,0l-0.2,0c0,0,0,0,0.1,0
	c0.1,0,0.2,0,0.3,0c0.1,0,0.2,0,0.4-0.1c0.2-0.1,0.3-0.1,0.4-0.2c0.1-0.1,0.3-0.2,0.4-0.3c0.1-0.2,0.2-0.4,0.3-0.6
	c0-0.1,0-0.3,0-0.4c0-0.1-0.1-0.2-0.1-0.3c-0.1-0.1-0.1-0.2-0.2-0.3L62.2,2.5C62.1,2.5,62.1,2.5,62.2,2.5L62.2,2.5z M62.3,2.1
	C62.3,2.1,62.3,2.1,62.3,2.1c0.1,0,0.2-0.1,0.2-0.1c0,0,0.1-0.1,0.1-0.1c0-0.1,0-0.1,0-0.2c0-0.1,0-0.2,0-0.2l0-0.1l0-0.1
	c0,0,0-0.1,0-0.1c0,0,0-0.1-0.1-0.1c0,0,0-0.1-0.1-0.1C62.1,1,62.1,1,62,0.9c-0.1-0.1-0.2-0.1-0.3-0.2l-0.5-0.1l0,0l0.1,0
	c0.1,0,0.2,0.1,0.3,0.1c0.1,0.1,0.2,0.1,0.3,0.1C62.1,0.9,62.1,1,62.2,1c0.1,0.1,0.1,0.2,0.1,0.2c0,0,0,0,0,0.1c0,0,0,0,0,0l0.1,0
	c0,0,0.1,0,0.1,0l0,0c0,0,0,0,0,0c0,0.1,0,0.1,0,0.2c0,0.1,0,0.1,0,0.2c0,0.1,0,0.1,0,0.1c0,0.1,0,0.2-0.1,0.2
	C62.4,2.1,62.4,2.1,62.3,2.1C62.3,2.2,62.3,2.2,62.3,2.1C62.2,2.1,62.2,2.1,62.3,2.1L62.3,2.1z"/>
</svg>
