<?xml version="1.0" encoding="UTF-8" standalone="no"?>
<!-- Generator: Adobe Illustrator 24.2.0, SVG Export Plug-In . SVG Version: 6.00 Build 0)  -->

<svg
   xmlns:dc="http://purl.org/dc/elements/1.1/"
   xmlns:cc="http://creativecommons.org/ns#"
   xmlns:rdf="http://www.w3.org/1999/02/22-rdf-syntax-ns#"
   xmlns:svg="http://www.w3.org/2000/svg"
   xmlns="http://www.w3.org/2000/svg"
   xmlns:sodipodi="http://sodipodi.sourceforge.net/DTD/sodipodi-0.dtd"
   xmlns:inkscape="http://www.inkscape.org/namespaces/inkscape"
   version="1.1"
   id="Layer_1"
   x="0px"
   y="0px"
   viewBox="0 0 71.910001 43.739998"
   xml:space="preserve"
   sodipodi:docname="course.svg"
   width="79.900002"
   height="48.599998"
   inkscape:version="0.92.2 5c3e80d, 2017-08-06"><metadata
     id="metadata21"><rdf:RDF><cc:Work
         rdf:about=""><dc:format>image/svg+xml</dc:format><dc:type
           rdf:resource="http://purl.org/dc/dcmitype/StillImage" /><dc:title></dc:title></cc:Work></rdf:RDF></metadata><defs
     id="defs19" /><sodipodi:namedview
     pagecolor="#ffffff"
     bordercolor="#666666"
     borderopacity="1"
     objecttolerance="10"
     gridtolerance="10"
     guidetolerance="10"
     inkscape:pageopacity="0"
     inkscape:pageshadow="2"
     inkscape:window-width="1873"
     inkscape:window-height="1057"
     id="namedview17"
     showgrid="false"
     inkscape:pagecheckerboard="true"
     fit-margin-top="0"
     fit-margin-left="0"
     fit-margin-right="0"
     fit-margin-bottom="0"
     inkscape:zoom="1"
     inkscape:cx="-97.798306"
     inkscape:cy="265.88708"
     inkscape:window-x="0"
     inkscape:window-y="1"
     inkscape:window-maximized="1"
     inkscape:current-layer="Layer_1"
     scale-x="0.9" /><g
     id="g14"
     transform="translate(-220.9,-129.33)"><path
       d="m 233.5,175.5 h -12.6 v -24.3 h 12.6 z M 229.6,162 c 0.1,0.2 0.2,0.3 0.4,0.3 0.1,0 0.2,0 0.3,0 0.1,-0.1 0.1,-0.2 0.2,-0.5 0.1,-0.3 0.1,-0.5 0,-0.8 -0.1,-0.1 -0.2,-0.3 -0.4,-0.6 -0.2,-0.3 -0.4,-0.5 -0.7,-0.7 -0.3,-0.2 -0.5,-0.4 -0.7,-0.6 -0.2,-0.2 -0.3,-0.3 -0.4,-0.3 -0.1,0 -0.2,-0.1 -0.2,-0.1 0,0 -0.1,0 -0.1,0 -0.1,0.1 -0.2,0.1 -0.4,0.1 -0.2,0 -0.4,0.1 -0.5,0.1 -0.1,0 -0.2,0 -0.4,0.1 -0.2,0 -0.5,0.1 -0.7,0.3 -0.3,0.1 -0.6,0.3 -0.9,0.6 -0.3,0.3 -0.5,0.6 -0.7,1.1 -0.3,0.9 -0.5,1.8 -0.5,2.8 0,1 0.2,1.9 0.7,2.8 0.5,0.9 1.1,1.5 1.8,1.9 0.7,0.4 1.5,0.4 2.4,0.1 0.4,-0.1 0.7,-0.4 1,-0.7 0.3,-0.3 0.5,-0.6 0.6,-1 0.1,-0.4 0.2,-0.7 0.3,-1 0,-0.3 0.1,-0.5 0.1,-0.6 0,-0.2 0,-0.4 -0.1,-0.6 -0.1,-0.2 -0.2,-0.3 -0.3,-0.3 -0.1,0 -0.2,0 -0.4,0.1 -0.1,0 -0.2,0.1 -0.2,0.3 0,0 -0.1,0.1 -0.1,0.3 0,0.1 0,0.3 -0.1,0.5 0,0.2 -0.1,0.3 -0.1,0.5 0,0.2 -0.1,0.3 -0.1,0.3 -0.1,0.1 -0.1,0.2 -0.3,0.4 -0.2,0.2 -0.3,0.3 -0.5,0.5 -0.2,0.2 -0.4,0.3 -0.7,0.4 -0.3,0.1 -0.5,0.1 -0.8,0.1 -0.6,-0.1 -1.2,-0.5 -1.7,-1.2 -0.6,-0.7 -0.9,-1.6 -0.9,-2.7 0,-0.5 0.1,-1 0.2,-1.4 0.2,-0.4 0.3,-0.7 0.6,-1 0.2,-0.3 0.4,-0.5 0.7,-0.7 0.2,-0.2 0.4,-0.3 0.5,-0.3 0.1,0 0.3,-0.1 0.5,-0.1 0.2,0 0.5,0 0.8,0.1 0.3,0 0.5,0.1 0.7,0.2 0.2,0.1 0.3,0.1 0.4,0.1 0.1,0.1 0.2,0.2 0.3,0.3 0.1,0.1 0.1,0.3 0.2,0.4 0.1,0.1 0.1,0.2 0.1,0.4 -0.1,-0.1 0,0.1 0.1,0.1 z m -4.3,0.4 c -0.1,0.4 -0.2,0.8 -0.2,1.2 0,0.4 0.1,0.7 0.2,1 0.1,0.3 0.2,0.5 0.3,0.7 0.1,0.2 0.1,0.3 0.1,0.3 0,0.1 -0.1,-0.2 -0.2,-0.6 -0.2,-0.5 -0.2,-1.2 -0.2,-2.1 0,-0.5 0.1,-0.9 0.3,-1.2 0.2,-0.3 0.4,-0.6 0.6,-0.7 0.3,-0.2 0.5,-0.4 0.8,-0.5 0,0 -0.1,0 -0.2,0 -0.1,0 -0.3,0.1 -0.5,0.2 -0.2,0.1 -0.4,0.3 -0.6,0.6 -0.1,0.4 -0.3,0.7 -0.4,1.1 z m 5.1,0.1 c 0.1,0 0.1,0 0.2,0 0.2,0 0.3,-0.1 0.3,-0.2 0.1,-0.1 0.1,-0.4 0.1,-0.8 0,-0.4 -0.1,-0.8 -0.4,-1.3 -0.3,-0.5 -0.6,-0.9 -1,-1.2 -0.4,-0.3 -0.7,-0.5 -0.9,-0.7 -0.1,-0.1 -0.2,-0.1 -0.3,-0.1 -0.1,0 -0.2,-0.1 -0.3,-0.1 -0.1,-0.1 -0.2,-0.1 -0.3,-0.1 0.3,0.1 0.7,0.3 1,0.5 0.3,0.2 0.5,0.4 0.8,0.6 0.3,0.3 0.5,0.5 0.7,0.8 0.3,0.6 0.5,1.1 0.6,1.4 0.1,0.3 0,0.6 0,0.7 -0.1,0.2 -0.2,0.3 -0.3,0.3 -0.1,0.2 -0.2,0.2 -0.2,0.2 z m 0.7,2.2 c 0,0.4 0,0.7 -0.1,1.1 -0.1,0.3 -0.1,0.7 -0.3,1 -0.1,0.4 -0.3,0.7 -0.6,0.9 -0.3,0.3 -0.5,0.5 -0.8,0.6 -0.3,0.2 -0.5,0.3 -0.7,0.4 -0.3,0.1 -0.5,0.2 -0.7,0.2 0.4,-0.1 0.7,-0.2 1.1,-0.4 0.3,-0.1 0.6,-0.3 0.9,-0.5 0.3,-0.2 0.5,-0.5 0.7,-0.9 0.2,-0.3 0.3,-0.7 0.4,-1 0.1,-0.3 0.1,-0.6 0.1,-0.8 0,-0.1 0,-0.3 0,-0.6 z"
       id="path2"
       inkscape:connector-curvature="0" /><path
       d="m 245.3,175.5 h -12.6 v -24.3 h 12.6 z m -4.9,-16.3 c -0.3,-0.3 -0.6,-0.5 -0.8,-0.6 -0.2,-0.1 -0.3,-0.1 -0.2,0.1 0,0 -0.1,0.1 -0.4,0.1 -0.3,0 -0.6,0 -1.1,0.1 -0.4,0.1 -0.8,0.2 -1.3,0.4 -0.4,0.2 -0.7,0.5 -1,1 -0.3,0.5 -0.5,1 -0.6,1.7 -0.2,0.7 -0.2,1.4 -0.2,2.1 0,0.7 0.1,1.4 0.4,2 0.2,0.6 0.6,1.2 1.1,1.6 0.5,0.4 1.1,0.7 1.6,0.8 0.5,0.1 1,0.2 1.4,0.1 0.4,-0.1 0.8,-0.2 1.2,-0.5 0.3,-0.3 0.6,-0.6 0.8,-0.9 0.2,-0.3 0.3,-0.7 0.5,-1.2 0.1,-0.4 0.3,-0.9 0.3,-1.4 0.1,-0.5 0.1,-0.9 0.1,-1.3 0,-0.4 -0.1,-0.8 -0.1,-1.2 -0.4,-1.3 -1,-2.3 -1.7,-2.9 z m -1.4,0.6 c 0.4,0 0.7,0.2 1,0.4 0.3,0.2 0.5,0.5 0.7,0.9 0.2,0.4 0.4,0.7 0.5,1.2 0.1,0.4 0.2,0.8 0.2,1.3 0,0.4 -0.1,0.8 -0.2,1.3 -0.1,0.5 -0.3,0.9 -0.5,1.2 -0.2,0.4 -0.5,0.7 -0.7,0.9 -0.3,0.2 -0.6,0.4 -0.9,0.4 -0.3,0 -0.7,-0.1 -1,-0.2 -0.3,-0.1 -0.7,-0.4 -1.1,-0.7 -0.3,-0.3 -0.6,-0.7 -0.8,-1.3 -0.2,-0.6 -0.3,-1.2 -0.2,-1.9 0,-0.8 0.2,-1.4 0.5,-1.8 0.3,-0.5 0.6,-0.8 1,-1.1 0.4,-0.2 0.7,-0.4 1,-0.5 0.2,-0.1 0.4,-0.2 0.5,-0.1 z m -1,0.7 c -0.2,0.1 -0.4,0.2 -0.6,0.4 -0.2,0.1 -0.3,0.3 -0.5,0.6 -0.2,0.2 -0.3,0.5 -0.4,0.8 -0.2,0.6 -0.2,1.3 -0.1,1.9 0.1,0.7 0.2,1.2 0.4,1.6 0.1,0.2 0.2,0.4 0.4,0.5 0.2,0.1 0.3,0.3 0.5,0.3 0.2,0.1 0.3,0.1 0.4,0.2 0.1,0 0.2,0 0.3,0 0,-0.1 0,-0.2 -0.1,-0.3 -0.1,-0.1 -0.3,-0.3 -0.4,-0.4 -0.1,-0.1 -0.2,-0.1 -0.3,-0.2 -0.1,-0.1 -0.2,-0.2 -0.3,-0.4 -0.1,-0.2 -0.2,-0.4 -0.3,-0.7 -0.1,-0.3 -0.1,-0.7 -0.1,-1.2 -0.1,-0.5 0,-0.9 0.1,-1.3 0.1,-0.4 0.3,-0.7 0.5,-1 0,-0.3 0.3,-0.6 0.5,-0.8 z m 3,-1.9 c -0.3,-0.2 -0.6,-0.3 -0.8,-0.4 -0.2,-0.1 -0.4,-0.2 -0.6,-0.3 -0.2,-0.1 -0.4,-0.1 -0.6,-0.1 l 0.7,0.2 c 0,0 0.2,0.1 0.4,0.2 0.2,0.1 0.5,0.3 0.8,0.5 0.3,0.2 0.5,0.4 0.8,0.7 0.2,0.3 0.4,0.5 0.5,0.8 0.1,0.3 0.2,0.6 0.3,1 0.1,0.4 0.2,0.7 0.2,1.1 0.1,0.4 0.1,0.8 0.1,1.2 0,0.4 0,0.7 0,1 -0.1,0.6 -0.2,1.2 -0.4,1.7 -0.2,0.5 -0.5,1 -1,1.6 -0.3,0.3 -0.6,0.5 -0.8,0.7 -0.3,0.2 -0.5,0.3 -0.8,0.4 -0.3,0.1 -0.6,0.2 -0.8,0.3 0.5,-0.1 0.9,-0.3 1.3,-0.5 0.3,-0.2 0.7,-0.4 1.1,-0.6 0.4,-0.3 0.7,-0.6 0.9,-1 0.2,-0.4 0.4,-0.8 0.5,-1.3 0.1,-0.5 0.2,-1 0.2,-1.4 0.1,-0.5 0.1,-0.9 0.1,-1.2 0,-0.4 0,-0.6 0,-0.8 0,-0.1 -0.1,-0.4 -0.2,-0.7 -0.1,-0.3 -0.2,-0.7 -0.4,-1.1 -0.2,-0.4 -0.4,-0.7 -0.6,-1.1 -0.4,-0.5 -0.7,-0.7 -0.9,-0.9 z m 2.6,6.5 c -0.1,0.1 -0.1,0.1 -0.1,0.1 0,0.1 0,0.1 0,0.2 0,0 0.1,0.1 0.1,0.1 z"
       id="path4"
       inkscape:connector-curvature="0" /><path
       d="m 257.1,175.5 h -12.6 v -24.3 h 12.6 z M 253.9,158 c -0.1,0 -0.2,0.1 -0.4,0.2 -0.2,0.1 -0.3,0.3 -0.4,0.4 -0.1,0.1 -0.1,0.4 -0.1,0.8 0,0.4 0,0.9 0,1.5 0,0.6 0,1.1 0.1,1.7 0,0.5 0,0.9 0,1.2 0,0.3 0,0.6 0,1 0,0.3 0,0.7 -0.1,1 -0.1,0.3 -0.2,0.6 -0.4,0.8 -0.2,0.2 -0.5,0.4 -1,0.5 -0.4,0.1 -0.7,0.1 -1,0.1 -0.2,0 -0.4,0 -0.5,0 -0.1,0 -0.2,-0.1 -0.2,-0.1 0,-0.1 -0.1,-0.1 -0.1,-0.2 -0.1,-0.1 -0.2,-0.2 -0.2,-0.2 0,0 0,0 -0.1,0 -0.1,0 -0.2,0 -0.3,-0.1 -0.1,-0.1 -0.2,-0.2 -0.4,-0.4 -0.1,-0.1 -0.2,-0.2 -0.2,-0.3 0,-0.1 0,-0.1 0,-0.2 0,0 0,-0.1 0.1,-0.1 0,-0.1 0,-0.2 0,-0.3 0,-0.2 -0.1,-0.4 -0.1,-0.6 -0.1,-0.2 -0.1,-0.5 -0.1,-0.8 0,-0.1 0,-0.4 0,-0.9 0,-0.4 0,-0.9 0,-1.4 0,-0.5 0,-0.9 0,-1.3 0,-0.4 0,-0.6 0,-0.6 0,-0.1 0.1,-0.2 0.2,-0.4 0.1,-0.2 0.1,-0.4 0,-0.6 -0.2,-0.4 -0.4,-0.6 -0.6,-0.5 -0.1,0 -0.2,0.1 -0.4,0.2 -0.2,0.1 -0.3,0.2 -0.4,0.4 -0.1,0.1 0,0.4 0.1,0.7 0.1,0.3 0.1,0.7 0.1,1 0,0.1 0,0.3 0,0.7 0,0.4 0,0.7 0,1.2 0,0.4 0,0.9 0,1.4 0,0.5 0,0.9 0.1,1.4 0,0.4 0.1,0.8 0.2,1.2 0.1,0.3 0.1,0.5 0.2,0.6 0.1,0.1 0.3,0.3 0.6,0.5 0.3,0.2 0.5,0.4 0.9,0.5 0.3,0.1 0.7,0.2 1.1,0.3 0.4,0 0.8,0 1.2,-0.2 0.8,-0.3 1.4,-0.6 1.8,-0.9 0.4,-0.3 0.6,-0.6 0.6,-0.8 0,-0.3 0,-0.5 -0.1,-0.7 -0.1,-0.2 -0.1,-0.4 -0.1,-0.5 0,0 0,-0.2 0,-0.7 0,-0.5 0,-0.9 0,-1.4 0,-0.5 0,-1 0,-1.4 0,-0.4 0,-0.7 0,-0.8 0.1,-0.2 0.1,-0.5 0.2,-0.8 0.1,-0.4 0.1,-0.6 0.2,-0.7 0,-0.1 0,-0.4 -0.1,-0.6 -0.2,-0.7 -0.3,-0.8 -0.4,-0.8 z m -4.7,6.1 c -0.1,0.5 -0.1,0.9 0,1.1 0,0.1 0.1,0.2 0.1,0.3 0,-0.4 0,-0.9 0,-1.3 0,-0.3 0,-0.6 0,-1 0,-0.3 0,-0.6 0,-0.8 0,-0.2 0,-0.5 0,-0.9 0,-0.4 0,-0.9 -0.1,-1.3 -0.1,-0.5 -0.1,-1.1 -0.2,-1.7 0,0 0,0.3 0,0.8 0,0.5 0,1.1 0,1.7 0,0.7 0,1.3 0,1.9 0.2,0.5 0.2,0.9 0.2,1.2 z m 5.6,-5 v 3 c 0,0.4 0,0.8 0,1.2 0,0.4 0,0.7 0,1 0,0.3 0,0.6 0,0.8 0,0.2 0,0.3 0,0.4 0,0.1 -0.1,0.2 -0.1,0.4 0,0.2 -0.1,0.4 -0.2,0.7 -0.1,0.2 -0.2,0.5 -0.4,0.7 -0.2,0.2 -0.4,0.4 -0.7,0.6 -0.3,0.2 -0.6,0.3 -0.9,0.4 -0.3,0.1 -0.6,0.2 -0.8,0.3 -0.3,0.1 -0.5,0.2 -0.8,0.2 0.6,-0.1 1.1,-0.2 1.6,-0.4 0.4,-0.2 0.8,-0.4 1.3,-0.7 0.4,-0.3 0.7,-0.7 1,-1.3 0.1,-0.4 0.2,-1 0.2,-1.9 0,-0.8 0,-1.6 0,-2.5 -0.1,-0.7 -0.1,-1.8 -0.2,-2.9 z"
       id="path6"
       inkscape:connector-curvature="0" /><path
       d="m 268.9,175.5 h -12.6 v -24.3 h 12.6 z m -9.4,-16.9 c -0.1,0.1 -0.2,0.2 -0.2,0.5 0,0.3 -0.1,0.5 -0.1,0.7 0,0.1 0,0.4 0,0.9 0,0.5 0,1.1 0,1.7 0,0.6 0,1.2 0,1.7 0,0.5 0,0.8 0,0.9 0,0.1 0,0.2 0,0.5 0,0.3 0,0.6 0,0.9 0,0.3 0,0.6 0,0.9 0,0.3 0,0.5 0.1,0.6 0.1,0.2 0.1,0.3 0.1,0.3 0,0 0.1,0 0.2,0.1 0.2,0 0.3,0 0.5,-0.1 0.2,-0.1 0.2,-0.3 0.3,-0.4 0,-0.2 0,-0.4 -0.1,-0.6 -0.1,-0.2 -0.1,-0.4 -0.1,-0.5 0,-0.1 0,-0.2 0,-0.4 0,-0.2 0,-0.3 0,-0.5 0,-0.2 0,-0.3 0,-0.5 0,-0.1 0,-0.3 0,-0.3 0,-0.1 0,-0.3 -0.1,-0.5 0,-0.2 0,-0.3 0.1,-0.4 0.1,0 0.3,-0.1 0.6,-0.1 0.3,0 0.6,0 0.8,-0.1 0.2,0 0.4,-0.1 0.5,-0.2 0.2,-0.1 0.3,-0.1 0.5,0 0.1,0.1 0.2,0.2 0.3,0.4 0.1,0.2 0.2,0.5 0.4,0.8 0.1,0.3 0.2,0.6 0.4,0.9 0.1,0.3 0.2,0.5 0.3,0.7 0.1,0.2 0.1,0.4 0.2,0.6 0.1,0.2 0.2,0.4 0.3,0.6 0.1,0.2 0.2,0.4 0.4,0.5 0.1,0.1 0.2,0.2 0.4,0.1 0.3,-0.1 0.4,-0.2 0.4,-0.4 0,-0.1 0,-0.3 0,-0.5 0,-0.1 -0.1,-0.2 -0.2,-0.3 -0.1,-0.2 -0.2,-0.4 -0.4,-0.6 -0.1,-0.2 -0.3,-0.4 -0.4,-0.6 -0.1,-0.2 -0.2,-0.4 -0.3,-0.6 -0.3,-0.7 -0.4,-1.1 -0.4,-1.3 0,-0.1 0,-0.1 0,-0.1 0,0 0,-0.1 0,-0.1 0,0 0.1,-0.1 0.3,-0.3 0.2,-0.1 0.4,-0.3 0.6,-0.6 0.2,-0.3 0.4,-0.5 0.6,-0.8 0.2,-0.3 0.2,-0.6 0.2,-0.9 0,-0.6 -0.1,-1 -0.3,-1.4 -0.2,-0.4 -0.4,-0.6 -0.7,-0.8 -0.2,-0.2 -0.4,-0.3 -0.5,-0.4 -0.2,-0.1 -0.3,-0.1 -0.4,-0.1 -0.1,-0.1 -0.1,-0.1 -0.1,-0.1 0,0 0,0 -0.1,0 0,0 -0.2,0.1 -0.4,0.1 -0.3,0 -0.5,0 -0.8,0 -0.3,0 -0.6,0 -0.9,0 -0.3,0 -0.5,0 -0.6,0 -0.2,0 -0.5,0 -0.8,0 -0.3,0 -0.5,0 -0.6,0.1 z m 1.1,6.1 c 0,0 0,0.2 0,0.4 0,0.2 0,0.5 0.1,0.8 0,0.3 0,0.6 0.1,0.8 0,0.3 0,0.4 0,0.5 0,0.2 0,0.3 0,0.4 0,0.1 -0.1,0.2 -0.1,0.3 -0.1,0.1 -0.2,0.2 -0.2,0.2 0,0 0,0 -0.1,0 -0.1,0 -0.2,0 -0.3,-0.1 -0.1,0 -0.2,-0.1 -0.2,-0.1 0.1,0.1 0.2,0.2 0.3,0.3 0.2,0.2 0.4,0.2 0.5,0.1 0.1,-0.1 0.1,-0.2 0.2,-0.4 0.1,-0.2 0.1,-0.4 0.1,-0.7 0,-0.3 0.1,-0.5 0.1,-0.8 0,-0.3 0.1,-0.5 0.1,-0.7 0,-0.2 0,-0.3 0,-0.5 0,-0.1 0,-0.3 0,-0.4 0,-0.1 0,-0.2 0.1,-0.3 l 0.2,0.1 c 0.2,0.1 0.4,0.1 0.5,0.1 0.1,0 0.1,-0.1 0,-0.2 -0.1,-0.1 -0.2,-0.2 -0.3,-0.2 -0.1,0 -0.3,0 -0.4,-0.1 -0.1,-0.1 -0.3,-0.1 -0.4,-0.2 -0.1,0 -0.2,0 -0.1,0.1 -0.2,0.5 -0.2,0.6 -0.2,0.6 z m 2.8,-5 c 0.3,0 0.5,0.1 0.8,0.3 0.2,0.1 0.3,0.2 0.4,0.4 0.1,0.2 0.2,0.4 0.2,0.7 0.1,0.2 0,0.5 -0.1,0.7 -0.1,0.3 -0.3,0.5 -0.5,0.6 -0.2,0.2 -0.4,0.3 -0.7,0.3 -0.3,0 -0.6,0.1 -0.9,0 -0.1,0 -0.3,0 -0.5,-0.1 -0.2,0 -0.4,-0.1 -0.5,-0.1 -0.2,0 -0.3,-0.1 -0.4,-0.1 -0.1,0 -0.2,0 -0.2,0 0,0 -0.1,0 -0.4,0.1 -0.2,0.1 -0.3,0.1 -0.4,0 -0.1,-0.1 -0.1,-0.2 0,-0.3 0.1,-0.2 0.1,-0.3 0.1,-0.4 0.1,-0.1 0.1,-0.1 0,-0.2 0,0 0,-0.1 0,-0.3 0,-0.1 0,-0.2 0,-0.3 0,-0.1 0,-0.3 -0.1,-0.4 0,-0.2 0,-0.3 0,-0.4 0,-0.1 0,-0.2 0,-0.2 0,-0.1 0,-0.3 0,-0.3 0.1,-0.1 0.2,-0.1 0.4,0 0.1,0.1 0.2,0.1 0.2,0.1 0,0 0.1,0 0.3,0 0.1,0 0.2,0 0.3,0 0.1,0 0.2,0 0.4,0 0.1,0 0.3,0 0.6,0 0.3,0 0.5,0 0.6,0 0,-0.1 0.1,-0.1 0.1,-0.1 0.1,0 0.2,0 0.3,0 z m -2.7,0.7 c -0.1,0.1 0,0.1 0,0.2 0.1,0.1 0.1,0.2 0.1,0.2 0,0.1 0,0.1 0.1,0.2 v 0 c -0.1,-0.1 -0.1,-0.2 -0.1,-0.3 -0.1,-0.2 -0.1,-0.3 0,-0.3 0.1,0 0.2,0 0.4,0 h 0.3 l -0.4,-0.1 c -0.1,0 -0.2,0 -0.3,0 -0.1,0.1 -0.1,0.1 -0.1,0.1 z m 0.1,1.1 c 0,0.1 0,0.2 -0.1,0.2 0,0.1 0,0.1 0,0.1 l 0.3,0.2 1.1,0.1 c -0.2,0 -0.3,0 -0.5,-0.1 -0.1,0 -0.2,-0.1 -0.3,-0.1 -0.1,0 -0.2,-0.1 -0.2,-0.1 z m 3.3,-3.6 c 0.3,0.2 0.7,0.4 1,0.6 0.3,0.2 0.5,0.4 0.7,0.7 0.2,0.2 0.4,0.5 0.4,0.8 0.1,0.6 0.1,1.2 0.1,1.8 -0.1,0.6 -0.3,1.1 -0.5,1.3 -0.3,0.2 -0.5,0.4 -0.6,0.6 -0.2,0.2 -0.3,0.3 -0.3,0.3 0,0.1 0.1,0.2 0.2,0.4 0.1,0.2 0.2,0.5 0.4,0.8 0.2,0.3 0.4,0.7 0.6,1.1 -0.2,-0.4 -0.3,-0.8 -0.4,-1.1 -0.1,-0.3 -0.2,-0.6 -0.3,-0.8 -0.1,-0.2 -0.1,-0.4 -0.1,-0.5 0,0 0.1,-0.1 0.2,-0.3 0.1,-0.2 0.3,-0.4 0.5,-0.6 0.2,-0.2 0.3,-0.5 0.4,-0.8 0.1,-0.3 0.2,-0.6 0.1,-0.9 0,-0.3 -0.1,-0.6 -0.1,-0.9 0,-0.3 -0.1,-0.6 -0.2,-0.8 -0.1,-0.2 -0.4,-0.5 -0.7,-0.8 -0.4,-0.3 -0.8,-0.6 -1.4,-0.9 z m 1.7,10.6 c 0,0.1 0,0.1 0.2,0 0.1,0 0.3,-0.2 0.4,-0.4 0.1,-0.2 0.1,-0.3 0.1,-0.5 0,-0.1 0,-0.2 0,-0.2 l -0.1,0.4 c 0,0.1 -0.1,0.2 -0.1,0.3 0,0.1 -0.1,0.2 -0.1,0.2 -0.1,0.1 -0.2,0.1 -0.2,0.1 -0.1,0.1 -0.1,0.1 -0.2,0.1 z"
       id="path8"
       inkscape:connector-curvature="0" /><path
       d="m 280.9,175.5 h -12.6 v -24.3 h 12.6 z m -3.8,-14.1 c 0.1,-0.1 0.3,-0.2 0.4,-0.4 0.1,-0.2 0.1,-0.5 0,-0.7 0,-0.1 -0.1,-0.3 -0.2,-0.5 -0.1,-0.2 -0.3,-0.4 -0.5,-0.6 -0.2,-0.2 -0.4,-0.4 -0.7,-0.6 -0.2,-0.2 -0.5,-0.3 -0.8,-0.3 -0.3,-0.1 -0.7,-0.1 -1.1,0 -0.5,0.1 -0.9,0.2 -1.4,0.4 -0.4,0.2 -0.8,0.5 -1.1,0.8 -0.3,0.3 -0.5,0.8 -0.5,1.3 0,0.5 0.1,1 0.2,1.3 0.1,0.3 0.3,0.6 0.5,0.8 0.2,0.2 0.4,0.3 0.7,0.4 0.2,0.1 0.5,0.1 0.6,0.2 0.2,0 0.4,0.1 0.7,0.1 0.3,0 0.6,0.1 0.9,0.2 0.3,0.1 0.6,0.1 0.8,0.2 0.3,0.1 0.4,0.2 0.6,0.2 0.2,0.2 0.4,0.5 0.5,0.8 0.1,0.4 0.1,0.7 0,0.9 -0.1,0.2 -0.3,0.5 -0.7,0.8 -0.4,0.3 -0.9,0.5 -1.5,0.5 -0.3,0 -0.6,0 -0.8,0 -0.2,0 -0.4,-0.1 -0.5,-0.1 -0.1,-0.1 -0.2,-0.1 -0.3,-0.2 -0.1,-0.1 -0.2,-0.2 -0.3,-0.3 -0.2,-0.2 -0.3,-0.4 -0.4,-0.5 -0.1,-0.1 -0.1,-0.2 -0.1,-0.3 0,-0.1 0,-0.2 0.1,-0.3 0.1,-0.1 0.1,-0.2 0,-0.3 -0.1,-0.1 -0.1,-0.2 -0.2,-0.2 -0.1,0 -0.1,0 -0.1,-0.1 -0.1,0 -0.1,-0.1 -0.2,-0.2 0,-0.1 -0.1,-0.2 0,-0.3 0,-0.1 0,-0.2 0.1,-0.3 0,-0.1 0,-0.1 0,-0.1 -0.1,0 -0.1,0 -0.2,0.1 -0.1,0.1 -0.2,0.1 -0.2,0.2 0,0.1 0,0.1 0,0.2 0,0 0,0 0,0.1 -0.1,0 -0.2,0 -0.4,0 -0.1,0.1 -0.2,0.1 -0.2,0.2 -0.1,0.1 -0.1,0.2 -0.1,0.5 0,0.2 0,0.4 0.1,0.7 0.1,0.3 0.2,0.5 0.4,0.8 0.2,0.3 0.4,0.5 0.6,0.7 0.2,0.2 0.5,0.4 0.8,0.5 0.3,0.1 0.6,0.2 1,0.3 0.4,0 0.7,0 1.1,0 0.4,0 0.7,-0.1 1,-0.2 0.3,-0.1 0.6,-0.2 0.7,-0.4 0.3,-0.3 0.6,-0.7 0.9,-1.1 0.3,-0.5 0.4,-0.9 0.3,-1.4 0,-0.5 -0.2,-0.9 -0.4,-1.3 -0.2,-0.4 -0.5,-0.6 -0.6,-0.8 -0.2,-0.2 -0.3,-0.3 -0.5,-0.4 -0.1,-0.1 -0.2,-0.1 -0.3,-0.1 0,0 0,0.1 0,0.2 0,0 0,0 0,0 -0.1,0 -0.3,0 -0.4,0 -0.2,0 -0.5,0 -0.7,-0.1 -0.2,-0.1 -0.5,-0.1 -0.8,-0.2 -0.4,-0.1 -0.6,-0.1 -0.9,-0.3 -0.2,-0.1 -0.3,-0.2 -0.3,-0.2 0,0 0,0 -0.2,0 -0.1,0 -0.2,-0.1 -0.5,-0.3 -0.2,-0.2 -0.3,-0.4 -0.3,-0.7 0,-0.1 0.1,-0.3 0.2,-0.4 0.1,-0.1 0.3,-0.2 0.5,-0.4 0.2,-0.1 0.4,-0.2 0.5,-0.3 0.2,-0.1 0.3,-0.1 0.5,-0.1 0.2,-0.1 0.5,-0.1 0.9,-0.1 0.4,0 0.7,0 0.8,0.1 0.2,0.1 0.4,0.2 0.5,0.4 0.1,0.2 0.3,0.4 0.4,0.5 0.1,0.1 0.1,0.2 0.1,0.3 0,0.1 0,0.2 0.2,0.3 0.1,0.1 0.2,0.1 0.4,0.1 0.3,0.1 0.3,0.1 0.4,0 z m -4.2,2.8 c -0.1,0 -0.3,-0.1 -0.6,-0.2 -0.3,-0.1 -0.4,-0.1 -0.5,-0.1 -0.1,0 0,0 0.1,0.1 0.1,0.1 0.2,0.1 0.2,0.2 0.1,0.1 0.2,0.4 0.4,0.8 0.2,0.4 0.3,0.7 0.5,0.9 0.1,0.1 0.2,0.2 0.4,0.2 0.1,0 0.3,0 0.5,0 h 0.6 c -0.1,0 -0.2,-0.1 -0.3,-0.1 -0.1,0 -0.2,0 -0.3,0 -0.1,0 -0.2,0 -0.2,0 -0.1,0 -0.2,0 -0.3,-0.1 -0.1,0 -0.2,-0.1 -0.3,-0.1 -0.1,-0.1 -0.1,-0.2 -0.2,-0.4 -0.1,-0.2 -0.1,-0.4 -0.2,-0.5 -0.1,-0.1 -0.1,-0.2 -0.2,-0.3 0,-0.1 -0.1,-0.1 -0.1,-0.1 0.1,0 0.1,0 0.2,0.1 0.1,0 0.1,0 0.2,0 0.1,0 0.1,0 0.1,0 0.1,0 0.1,0 0.2,0 0.1,0 0.2,0 0.3,0 h 0.4 c -0.1,0 -0.2,-0.1 -0.3,-0.1 -0.1,0 -0.2,0 -0.3,-0.1 -0.2,-0.2 -0.3,-0.2 -0.3,-0.2 z m 2.5,-2.3 -0.3,-0.1 c -0.1,-0.1 -0.3,-0.1 -0.4,-0.2 0,0 -0.1,0 -0.3,0 -0.2,0 -0.3,-0.1 -0.5,-0.1 -0.2,0 -0.4,-0.1 -0.5,-0.2 -0.2,-0.1 -0.2,-0.1 -0.3,-0.2 -0.1,-0.2 -0.1,-0.3 0.1,-0.5 0.2,-0.1 0.4,-0.2 0.6,-0.2 h 0.8 c -0.1,0 -0.3,0 -0.4,-0.1 -0.1,0 -0.2,0 -0.4,0 -0.1,0 -0.3,0 -0.4,0 -0.2,0 -0.4,0.1 -0.6,0.3 -0.2,0.2 -0.3,0.4 -0.2,0.7 0.1,0.1 0.1,0.3 0.3,0.3 0.2,0 0.3,0.1 0.4,0.2 0.2,0 0.3,0.1 0.5,0.1 0.2,0 0.3,0 0.3,0 0.1,0 0.2,0 0.3,0 0.1,0 0.3,0 0.5,0 0.2,-0.1 0.4,-0.1 0.5,0 z m 1.7,0.7 c -0.1,0 0,0.1 0.1,0.2 l 0.2,0.1 c 0.2,0.3 0.4,0.6 0.5,0.9 0.1,0.3 0.2,0.6 0.3,0.9 0.1,0.4 0.1,0.7 0,1.1 -0.2,0.8 -0.4,1.3 -0.7,1.6 -0.3,0.3 -0.6,0.5 -1,0.8 -0.4,0.2 -0.7,0.4 -1.1,0.5 -0.4,0.1 -0.7,0.2 -1,0.2 -0.3,0 -0.5,0 -0.8,0 -0.3,0 -0.4,0 -0.3,0 0,0 0.2,0 0.4,0 0.3,0 0.6,0 0.9,0 0.4,0 0.7,-0.1 1.2,-0.2 0.4,-0.1 0.8,-0.3 1.2,-0.5 0.3,-0.3 0.6,-0.6 0.8,-0.9 0.2,-0.4 0.3,-0.7 0.4,-1.1 0.1,-0.4 0.1,-0.7 0.2,-1 0,-0.3 0,-0.5 0,-0.7 0,-0.1 -0.1,-0.3 -0.2,-0.6 -0.1,-0.2 -0.3,-0.4 -0.4,-0.6 -0.1,-0.2 -0.3,-0.3 -0.4,-0.5 -0.1,-0.2 -0.2,-0.2 -0.3,-0.2 z m 0.1,-0.9 c 0,0.1 0,0.2 0.1,0.2 0.1,0.1 0.1,0.1 0.2,0 0,-0.1 0.1,-0.2 0.3,-0.3 0.2,-0.2 0.2,-0.3 0.2,-0.5 0,-0.1 0,-0.2 0,-0.3 0,-0.1 0,-0.3 0,-0.4 0,-0.1 -0.1,-0.3 -0.1,-0.4 0,0 0.1,0 0.1,0 l 0.1,-0.1 c 0,0 -0.1,-0.1 -0.2,-0.1 l -0.1,-0.1 c 0,0 0,0 -0.1,-0.1 -0.1,-0.1 -0.1,-0.1 0,-0.2 0,-0.1 -0.1,-0.2 -0.3,-0.5 -0.2,-0.3 -0.4,-0.5 -0.6,-0.6 -0.2,-0.1 -0.5,-0.3 -0.9,-0.4 -0.4,-0.2 -0.7,-0.2 -0.8,-0.2 h -0.3 c -0.1,0 -0.1,0 -0.1,0 0.4,0.1 0.8,0.3 1.2,0.4 0.3,0.1 0.6,0.3 0.9,0.4 0.3,0.2 0.5,0.3 0.6,0.5 0.1,0.2 0.2,0.3 0.2,0.4 0,0.1 0.1,0.2 0.1,0.3 0,0.1 0.1,0.1 0.1,0.2 v 0.2 l 0.1,0.2 c 0.1,0.2 0.1,0.4 0.1,0.5 0,0.1 0,0.3 0,0.4 0,0.1 -0.1,0.3 -0.2,0.3 -0.1,0.1 -0.2,0.1 -0.3,0.2 -0.1,0 -0.1,0.1 -0.2,0.1 z"
       id="path10"
       inkscape:connector-curvature="0" /><path
       d="m 292.8,175.5 h -12.6 v -24.3 h 12.6 z m -5,-15.4 c 0.2,0 0.4,0 0.6,0.1 0.3,0 0.5,0 0.7,0 0.2,0 0.4,-0.1 0.5,-0.2 0.1,-0.1 0.1,-0.3 0.2,-0.4 0,-0.1 0,-0.3 -0.1,-0.6 -0.1,-0.2 -0.2,-0.4 -0.4,-0.4 -0.1,-0.1 -0.2,-0.1 -0.4,0 -0.2,0 -0.3,0.1 -0.4,0.1 -0.1,0 -0.2,0.1 -0.4,0.1 -0.2,0 -0.3,0.1 -0.5,0.1 -0.2,0 -0.3,0 -0.5,0.1 -0.2,0 -0.3,0 -0.4,0 -0.1,0 -0.3,0 -0.6,0 -0.3,0 -0.6,0 -0.9,0 -0.3,0 -0.6,0 -0.9,0 -0.3,0 -0.5,0 -0.6,0.1 -0.1,0.1 -0.2,0.2 -0.2,0.4 -0.1,0.2 -0.1,0.5 -0.1,0.8 0,0.3 -0.1,0.6 -0.1,0.8 0,0.3 0,0.5 0,0.6 0,0.1 0,0.3 0,0.6 0,0.2 0,0.5 0.1,0.7 0,0.2 0,0.4 0,0.6 0,0.2 0,0.3 0,0.4 0,0.1 -0.1,0.3 -0.1,0.6 -0.1,0.3 -0.1,0.5 -0.1,0.8 0,0.1 0,0.3 0,0.6 0,0.3 0,0.6 0.1,0.9 0,0.3 0.1,0.6 0.1,0.9 0,0.3 0,0.4 0,0.4 0,0.1 0,0.2 0.1,0.4 0.1,0.2 0.2,0.3 0.4,0.3 0.1,0 0.3,0 0.7,0 0.4,0 0.8,0 1.3,0 0.5,0 0.9,0 1.3,0 0.4,0 0.6,0 0.7,0 0.1,0 0.2,0 0.3,0.1 0.2,0 0.3,0.1 0.5,0.1 0.2,0 0.3,0.1 0.5,0.1 0.1,0 0.2,0 0.3,0 0.1,0 0.3,-0.1 0.5,-0.2 0.2,-0.1 0.3,-0.3 0.3,-0.4 0,-0.2 0,-0.4 -0.1,-0.6 0,-0.3 -0.2,-0.4 -0.3,-0.4 -0.2,-0.1 -0.4,0 -0.8,0.1 -0.4,0.1 -0.7,0.2 -0.9,0.3 -0.1,0 -0.3,0 -0.6,0 -0.3,0 -0.6,-0.1 -0.9,-0.1 -0.3,0 -0.6,-0.1 -0.9,-0.1 -0.3,0 -0.4,0 -0.5,0 -0.1,0 -0.3,0 -0.5,0.1 -0.2,0.1 -0.4,0.1 -0.4,0 -0.1,-0.1 -0.1,-0.2 -0.1,-0.3 0.1,-0.2 0.1,-0.3 0.1,-0.3 0,0 0,-0.1 0,-0.2 0,-0.1 0,-0.3 -0.1,-0.4 0,0 0,-0.1 0,-0.4 0,-0.2 0,-0.4 0,-0.7 0,-0.2 0,-0.4 0.1,-0.6 0,-0.2 0.1,-0.3 0.1,-0.3 0.1,-0.1 0.2,-0.1 0.3,0 0.1,0 0.3,0 0.4,0 0,0 0.2,0 0.4,0 0.2,0 0.4,0 0.6,0 0.2,0 0.4,0 0.6,0 0.2,0 0.3,0 0.4,0 0.1,0.1 0.2,0.1 0.3,0.1 0.1,0 0.2,0 0.5,0 0.3,0 0.4,-0.1 0.5,-0.3 0.1,-0.2 0.1,-0.4 0.1,-0.6 0,-0.3 0,-0.4 -0.2,-0.5 -0.2,-0.1 -0.3,-0.1 -0.4,-0.2 -0.1,0 -0.3,0 -0.6,0.1 -0.2,0.1 -0.4,0.1 -0.5,0.2 -0.1,0 -0.2,0 -0.3,0 -0.2,0 -0.3,0 -0.5,0 -0.2,0 -0.3,0 -0.4,-0.1 -0.1,0 -0.2,0 -0.3,0 -0.1,0 -0.2,0.1 -0.3,0.1 -0.1,0 -0.2,0 -0.4,0 -0.1,0 -0.2,0 -0.4,0 v -1.3 c 0,-0.3 0,-0.6 0,-0.9 0,-0.3 0,-0.5 0,-0.5 0.6,0 1.2,0 1.7,-0.1 0.4,0 0.8,0 1.2,0 0.3,-0.6 0.6,-0.6 0.6,-0.6 z m -1.3,0.5 h -1.9 c 0,0.2 0,0.4 0,0.5 v 0.7 c 0,0.2 0,0.3 0,0.4 0,0.1 -0.1,0.1 -0.1,0.2 0.4,0 0.7,0 0.9,0 0.3,0 0.5,-0.1 0.7,-0.1 0.2,0 0.3,0 0.4,0 0,0 0,0 -0.1,0 -0.1,0 -0.2,0 -0.4,0 -0.2,0 -0.3,-0.1 -0.5,-0.1 -0.2,0 -0.2,-0.1 -0.3,-0.2 -0.1,-0.2 -0.1,-0.4 -0.1,-0.6 0,-0.2 0,-0.3 0.1,-0.4 0,0 0.1,-0.1 0.3,-0.1 0.1,0 0.3,0 0.4,-0.1 0.2,-0.1 0.4,-0.1 0.6,-0.2 z m -1.9,4.1 c 0,0.1 0,0.2 0,0.4 0,0.2 0,0.4 0.1,0.7 0,0.3 0,0.6 0.1,0.9 l 0.4,-0.1 c -0.1,0.1 -0.1,0.1 -0.1,0.1 -0.1,0 -0.1,0 -0.1,-0.1 0,-0.1 0,-0.2 0,-0.4 0,-0.2 -0.1,-0.4 -0.1,-0.6 0,-0.2 -0.1,-0.3 -0.1,-0.5 -0.1,-0.2 -0.1,-0.3 -0.2,-0.4 z m 0.5,0.2 c 0,0 0.1,0 0.2,0 0.2,0 0.3,0 0.5,-0.1 0.2,-0.1 0.3,0 0.5,-0.1 0.1,0 0.2,0 0.2,0 -0.1,-0.1 -0.2,-0.1 -0.3,0 -0.2,0 -0.3,0 -0.5,0.1 -0.2,0 -0.3,0.1 -0.4,0.1 -0.2,0 -0.2,0 -0.2,0 z m 2.5,-2.6 0.6,0.4 c -0.1,-0.1 -0.2,-0.2 -0.3,-0.3 -0.1,-0.1 -0.2,-0.1 -0.3,-0.1 z"
       id="path12"
       inkscape:connector-curvature="0" /></g></svg>