<?xml version="1.0" encoding="UTF-8" standalone="no"?>
<!-- Generator: Adobe Illustrator 24.2.0, SVG Export Plug-In . SVG Version: 6.00 Build 0)  -->

<svg
   xmlns:dc="http://purl.org/dc/elements/1.1/"
   xmlns:cc="http://creativecommons.org/ns#"
   xmlns:rdf="http://www.w3.org/1999/02/22-rdf-syntax-ns#"
   xmlns:svg="http://www.w3.org/2000/svg"
   xmlns="http://www.w3.org/2000/svg"
   xmlns:sodipodi="http://sodipodi.sourceforge.net/DTD/sodipodi-0.dtd"
   xmlns:inkscape="http://www.inkscape.org/namespaces/inkscape"
   version="1.1"
   id="Layer_1"
   x="0px"
   y="0px"
   viewBox="0 0 56.940311 29.364001"
   xml:space="preserve"
   sodipodi:docname="gallery.svg"
   width="56.940311"
   height="29.364"
   inkscape:version="0.92.2 5c3e80d, 2017-08-06"><metadata
     id="metadata23"><rdf:RDF><cc:Work
         rdf:about=""><dc:format>image/svg+xml</dc:format><dc:type
           rdf:resource="http://purl.org/dc/dcmitype/StillImage" /><dc:title></dc:title></cc:Work></rdf:RDF></metadata><defs
     id="defs21" /><sodipodi:namedview
     pagecolor="#ffffff"
     bordercolor="#666666"
     borderopacity="1"
     objecttolerance="10"
     gridtolerance="10"
     guidetolerance="10"
     inkscape:pageopacity="0"
     inkscape:pageshadow="2"
     inkscape:window-width="1715"
     inkscape:window-height="889"
     id="namedview19"
     showgrid="false"
     inkscape:pagecheckerboard="true"
     fit-margin-top="0"
     fit-margin-left="0"
     fit-margin-right="0"
     fit-margin-bottom="0"
     inkscape:zoom="3.3712566"
     inkscape:cx="-2.8599845"
     inkscape:cy="-4.3891314"
     inkscape:window-x="676"
     inkscape:window-y="38"
     inkscape:window-maximized="0"
     inkscape:current-layer="Layer_1" /><g
     id="g16"
     transform="translate(-65.159688,-136.436)"><path
       d="M 79.6,165.8 H 72 v -14.7 h 7.6 z M 77.3,158 c 0.1,0 0.1,-0.1 0.2,-0.2 0.1,-0.1 0.1,-0.3 0.1,-0.4 0,-0.1 0,-0.2 -0.1,-0.3 -0.1,-0.1 -0.1,-0.2 -0.2,-0.3 -0.1,-0.1 -0.2,-0.2 -0.3,-0.3 -0.1,-0.1 -0.2,-0.2 -0.2,-0.2 -0.1,-0.1 -0.3,-0.3 -0.6,-0.3 -0.2,-0.1 -0.5,-0.1 -0.9,-0.1 -0.2,0 -0.3,0.1 -0.6,0.2 -0.2,0.1 -0.4,0.3 -0.6,0.5 -0.2,0.3 -0.4,0.6 -0.5,1 -0.1,0.4 -0.2,0.9 -0.2,1.4 0,0.5 0.1,1.1 0.3,1.4 0.2,0.4 0.4,0.7 0.6,0.9 0.2,0.2 0.5,0.4 0.8,0.5 0.3,0.1 0.5,0.1 0.6,0.1 0.1,0 0.3,0 0.5,-0.1 0.2,-0.1 0.4,-0.2 0.5,-0.3 0.2,-0.1 0.3,-0.2 0.4,-0.3 0.1,-0.1 0.2,-0.2 0.2,-0.2 0,0 0,-0.1 0,-0.3 0,-0.1 0,-0.2 0,-0.4 0,-0.1 0,-0.2 0,-0.4 0,-0.1 0,-0.2 0,-0.3 0,-0.1 0,-0.2 0,-0.3 0,-0.1 0,-0.2 0,-0.3 0,-0.1 0,-0.2 -0.1,-0.2 -0.1,-0.1 -0.1,-0.1 -0.2,-0.2 0,0 -0.1,0 -0.1,-0.1 0,0 0,0 0,-0.1 0,0 0,0 0,0 -0.1,0.1 -0.1,0.2 -0.2,0.2 -0.1,0 -0.1,0.1 -0.2,0.1 -0.1,0 -0.2,0.1 -0.3,0.1 -0.2,0 -0.4,0 -0.5,0 -0.1,0 -0.2,0.1 -0.3,0.2 -0.1,0.2 0,0.3 0.1,0.4 0.1,0.1 0.2,0.2 0.3,0.2 0.1,0 0.1,0 0.2,0 0.1,0 0.1,-0.1 0.2,-0.1 0.1,0 0.1,-0.1 0.1,-0.1 0,0 0,0 0.1,0 0.1,0.1 0.1,0.1 0.2,0.2 0.1,0.1 0.1,0.3 0,0.5 -0.1,0.3 -0.2,0.5 -0.4,0.6 -0.2,0.2 -0.4,0.2 -0.8,0.2 -0.2,0 -0.3,-0.1 -0.5,-0.2 -0.2,-0.1 -0.4,-0.3 -0.5,-0.4 -0.2,-0.2 -0.3,-0.4 -0.4,-0.6 -0.1,-0.2 -0.2,-0.4 -0.2,-0.7 0,-0.2 0,-0.5 0,-0.7 0,-0.2 0,-0.5 0.1,-0.7 0,-0.2 0.1,-0.4 0.2,-0.6 0.1,-0.2 0.2,-0.3 0.3,-0.4 0.3,-0.2 0.5,-0.3 0.7,-0.3 0.2,0 0.4,0 0.6,0.1 0.2,0.1 0.3,0.2 0.4,0.3 0.1,0.2 0.2,0.3 0.3,0.3 0.1,0.1 0.1,0.2 0.1,0.3 0,0.1 0,0.2 0.2,0.3 0.4,0.5 0.5,0.5 0.6,0.4 z m -2.8,1 c 0,0.4 0.1,0.7 0.2,0.9 0.1,0.2 0.2,0.4 0.3,0.5 0.1,0.1 0.2,0.2 0.3,0.3 0.1,0 0.2,0.1 0.2,0.1 0,0 0.1,0 0.2,-0.1 0,-0.1 0.1,-0.1 0.2,-0.2 -0.1,0 -0.1,0 -0.2,0 -0.1,0 -0.1,0 -0.2,0 -0.1,0 -0.1,-0.1 -0.2,-0.1 -0.1,-0.1 -0.3,-0.2 -0.4,-0.4 -0.1,-0.2 -0.2,-0.5 -0.2,-1 0,-0.2 0,-0.5 0,-0.7 0,-0.2 0.1,-0.4 0.1,-0.5 0.1,-0.2 0.1,-0.3 0.2,-0.5 -0.1,0.1 -0.2,0.3 -0.3,0.4 -0.1,0.2 -0.1,0.3 -0.2,0.6 0,0.1 0,0.4 0,0.7 z m 1.3,-3.5 c 0,0 0.1,0.1 0.3,0.1 0.2,0 0.4,0.1 0.5,0.2 0.2,0.1 0.3,0.2 0.5,0.4 0.2,0.1 0.3,0.3 0.4,0.4 0.1,0.1 0.1,0.2 0.2,0.4 0,0.1 0.1,0.2 0.1,0.2 0,0 0,0.1 0,0.1 0,0 0,0 0,0 v 0 c 0,-0.2 -0.1,-0.4 -0.1,-0.5 -0.1,-0.2 -0.2,-0.3 -0.3,-0.5 -0.1,-0.2 -0.3,-0.3 -0.4,-0.4 -0.2,-0.1 -0.4,-0.2 -0.5,-0.3 -0.1,-0.1 -0.3,-0.1 -0.4,-0.1 -0.1,0 -0.2,0 -0.3,0 z m 0.6,2.9 h 0.7 c -0.1,0 -0.2,0 -0.3,0 -0.1,0 -0.2,0 -0.3,0 0,-0.1 0,-0.1 -0.1,0 z m 1,0.1 0.2,0.2 c 0,0.1 0.1,0.1 0.1,0.2 0,0.1 0.1,0.1 0.1,0.2 0,0 0,0.1 0.1,0.2 0,0.1 0,0.3 0,0.4 0,0.1 0,0.3 0,0.4 0,0.1 0,0.2 0,0.3 0,0.2 0,0.3 0,0.4 0,0.1 0,0.2 -0.1,0.3 0,0 -0.1,0.1 -0.2,0.2 -0.1,0.1 -0.2,0.2 -0.2,0.2 l -0.3,0.3 c 0.1,-0.1 0.3,-0.2 0.4,-0.3 0.1,-0.1 0.2,-0.2 0.3,-0.3 0.1,-0.1 0.2,-0.3 0.2,-0.4 0,-0.1 0,-0.3 0,-0.5 0,-0.2 0,-0.4 0,-0.6 0,-0.2 0,-0.3 -0.1,-0.5 0,-0.1 -0.1,-0.2 -0.1,-0.2 0,0 0,-0.1 -0.1,-0.1 0,-0.1 -0.1,-0.1 -0.1,-0.2 0,-0.2 -0.1,-0.2 -0.2,-0.2 0,-0.1 0,-0.1 0,0 z"
       id="path2"
       inkscape:connector-curvature="0" /><path
       d="M 86.6,165.8 H 79 v -14.7 h 7.6 z m -5.7,-4.2 c 0,0 0.1,0 0.2,0.1 0.1,0 0.1,0 0.2,-0.1 0.1,-0.1 0.1,-0.2 0.2,-0.4 0,-0.1 0.1,-0.3 0.1,-0.3 0,-0.1 0,-0.1 0,-0.2 0,-0.1 0,-0.1 0.1,-0.1 0.1,0 0.1,0 0.2,0.1 0,0.1 0.1,0.1 0.2,0.1 0.1,0 0.2,0 0.3,-0.1 0.1,0 0.3,-0.1 0.6,-0.1 0.3,0 0.5,0 0.6,0 0.1,0 0.2,0 0.3,0 0.1,0 0.2,-0.1 0.3,-0.2 0.1,-0.1 0.2,-0.1 0.2,0 0,0 0,0 0.1,0.1 0,0.1 0.1,0.1 0.1,0.2 0,0.1 0.1,0.1 0.1,0.2 0,0.1 0.1,0.1 0.1,0.2 0,0.1 0.1,0.2 0.1,0.3 0,0.1 0.1,0.2 0.3,0.2 0.2,0 0.3,0 0.3,0 0.1,0 0.1,-0.1 0.1,-0.3 0,-0.1 0,-0.2 -0.1,-0.3 -0.1,-0.1 -0.2,-0.2 -0.2,-0.3 0,0 -0.1,-0.2 -0.1,-0.4 -0.1,-0.2 -0.2,-0.4 -0.3,-0.6 -0.1,-0.2 -0.2,-0.5 -0.3,-0.7 -0.1,-0.2 -0.1,-0.4 -0.2,-0.5 0,-0.1 -0.1,-0.3 -0.2,-0.5 -0.1,-0.2 -0.2,-0.4 -0.3,-0.6 -0.1,-0.2 -0.2,-0.4 -0.2,-0.5 -0.1,-0.2 -0.1,-0.3 -0.1,-0.3 0,0 0,-0.1 0,-0.2 0,-0.1 0,-0.2 0,-0.3 0,-0.1 0,-0.2 -0.1,-0.3 0,-0.1 -0.1,-0.2 -0.1,-0.2 0,0 -0.1,0 -0.2,0 -0.1,0 -0.1,0.1 -0.2,0.1 0,0.1 -0.1,0.1 -0.1,0.2 0,0.1 -0.1,0.1 -0.1,0.2 0,0.1 0,0.2 0,0.3 0,0.1 0,0.1 0,0.2 0,0 0,0.1 -0.1,0.2 0,0.1 -0.1,0.1 -0.1,0.2 0,0.1 -0.1,0.1 -0.1,0.2 0,0.1 0,0.1 0,0.2 0,0.1 -0.1,0.2 -0.2,0.5 -0.1,0.3 -0.3,0.6 -0.4,0.9 -0.1,0.3 -0.1,0.5 -0.2,0.6 0,0.1 0,0.2 0,0.3 0,0.1 0,0.2 -0.1,0.3 0,0.1 -0.1,0.3 -0.2,0.4 0,0.1 -0.1,0.2 -0.2,0.3 -0.1,0.1 -0.1,0.3 -0.2,0.4 -0.1,0.1 -0.1,0.3 -0.1,0.4 -0.1,0 -0.1,0.1 0,0.1 z m 0.9,-0.5 c 0,0.1 -0.1,0.1 -0.1,0.2 -0.1,0.1 -0.1,0.2 -0.1,0.3 0,0 -0.1,0 -0.1,0.1 0,0.1 0,0 0,0.1 0,0 0,0 0,0.1 0.1,-0.1 0.2,-0.2 0.2,-0.2 0.1,-0.3 0.1,-0.4 0.1,-0.6 z m 2.1,-2 c 0.1,0.1 0.1,0.3 0.1,0.4 0,0.1 0,0.3 0,0.4 0,0 0,0.1 -0.1,0.1 -0.1,0 -0.1,0 -0.2,0 -0.1,0 -0.2,0 -0.3,-0.1 -0.1,0 -0.2,0 -0.2,0 -0.2,0 -0.4,0 -0.5,-0.1 0,0 -0.1,0 -0.2,0 -0.1,0 -0.2,0.1 -0.3,0.1 -0.2,0.1 -0.3,0.1 -0.3,0.1 -0.1,0 -0.1,0 -0.2,-0.1 0,0 0,0 0,-0.1 0,-0.1 0.1,-0.1 0.1,-0.2 0,-0.1 0.1,-0.1 0.1,-0.2 0,-0.1 0.1,-0.2 0.1,-0.2 0,-0.1 0.1,-0.2 0.1,-0.4 0.1,-0.2 0.1,-0.3 0.2,-0.5 0.1,-0.2 0.1,-0.3 0.2,-0.5 0,-0.1 0.1,-0.2 0.1,-0.2 0,0 0,-0.1 -0.1,-0.1 0,0 -0.1,-0.1 -0.1,-0.1 0,0 0,0 0,-0.1 0.1,-0.1 0.1,-0.1 0.2,-0.2 0.1,-0.1 0.1,-0.1 0.1,-0.2 0,0 0.1,-0.1 0.1,0 0,0 0.1,0.1 0.2,0.3 0.1,0.2 0.2,0.4 0.3,0.7 0.1,0.2 0.2,0.5 0.3,0.7 0.2,0.3 0.2,0.5 0.3,0.5 z m -2,1.9 1.7,-0.1 c -0.1,0 -0.2,0 -0.4,0 -0.2,0 -0.4,0 -0.6,0 -0.2,0.1 -0.5,0.1 -0.7,0.1 z m 0.5,-1.7 0.1,-0.2 c 0,-0.1 0.1,-0.1 0.1,-0.2 0,-0.1 0,-0.1 0,-0.1 0,-0.1 0.1,-0.1 0.1,-0.2 0,-0.1 0,-0.1 0,-0.2 0,0 -0.1,0.1 -0.1,0.2 0,0.1 -0.1,0.2 -0.1,0.3 0,0.1 -0.1,0.3 -0.1,0.4 z m 0.6,0.4 c 0,-0.1 0,-0.1 -0.1,-0.2 0,-0.1 -0.1,-0.1 -0.1,-0.1 0,0 -0.1,0 -0.1,0 h -0.1 z m 2.4,0.7 c 0,0 0,0 0,-0.1 0,-0.1 -0.1,-0.3 -0.2,-0.5 -0.1,-0.2 -0.2,-0.4 -0.3,-0.7 -0.1,-0.3 -0.2,-0.6 -0.3,-0.8 -0.3,-0.7 -0.6,-1.5 -1,-2.3 0.3,0.8 0.6,1.5 0.8,2.2 0.1,0.3 0.2,0.6 0.3,0.8 0.1,0.3 0.2,0.5 0.3,0.7 0.1,0.2 0.1,0.4 0.2,0.5 0.1,0.2 0.1,0.2 0.2,0.2 z"
       id="path4"
       inkscape:connector-curvature="0" /><path
       d="M 93.6,165.8 H 86 v -14.7 h 7.6 z m -5.1,-10.2 c -0.1,0 -0.2,0 -0.3,0.1 -0.1,0.1 -0.2,0.1 -0.2,0.2 0,0.1 0,0.2 0,0.2 0,0.1 0.1,0.1 0.1,0.2 0,0 0,0.1 0,0.3 0,0.2 0,0.5 0,0.7 0,0.3 0,0.5 0,0.8 0,0.3 0,0.4 0,0.5 0,0.1 0,0.3 0,0.6 0,0.3 0,0.6 0.1,0.9 0,0.3 0,0.6 0.1,0.9 0,0.3 0,0.4 0,0.4 0,0.1 0.1,0.1 0.2,0.2 0.1,0 0.2,0.1 0.2,0.1 0,0 0.2,0 0.4,0 0.3,0 0.6,0 0.9,0 0.3,0 0.6,0 0.9,0 0.3,0 0.4,0 0.4,0 0.1,0 0.1,0 0.2,0 0,0 0.1,0 0.2,0 0.1,0 0.1,0 0.3,-0.1 0.1,-0.1 0.2,-0.1 0.2,-0.3 0,-0.1 0,-0.3 -0.1,-0.4 -0.1,-0.1 -0.2,-0.2 -0.3,-0.2 -0.1,0 -0.3,0 -0.5,0.1 -0.2,0.1 -0.4,0.1 -0.5,0.1 H 89 c 0,0 -0.1,0 -0.2,0 -0.1,0 -0.1,0 -0.1,-0.1 0,0 0,-0.2 0,-0.4 0,-0.2 0,-0.4 0,-0.4 0,0 0,-0.1 0,-0.2 0,-0.1 0,-0.3 0,-0.5 0,-0.2 0,-0.4 0,-0.6 0,-0.2 0,-0.4 0,-0.6 v -1.8 c 0.1,-0.1 0.1,-0.2 0.1,-0.4 -0.1,-0.2 -0.2,-0.3 -0.3,-0.3 z m 0.5,0.3 c 0,0.8 0,1.5 0,2.2 0,0.3 0,0.5 0,0.8 0,0.3 0,0.5 0,0.7 0,0.2 0,0.4 0,0.5 0,0.1 0,0.2 0,0.2 h 0.1 z m 2.4,6.1 h -1.7 c 0.1,0 0.2,0.1 0.4,0.1 0.2,0 0.4,0 0.6,0 0.1,-0.1 0.4,-0.1 0.7,-0.1 z m 0.9,-0.7 c 0,0.1 -0.1,0.2 -0.1,0.2 0,0.1 -0.1,0.1 -0.1,0.2 0,0 -0.1,0.1 -0.1,0.1 -0.1,0 -0.1,0 -0.2,0 0,0 -0.1,0 -0.1,0 0.1,0.1 0.2,0.1 0.3,0.1 0.1,0 0.1,-0.1 0.2,-0.1 0,-0.1 0.1,-0.3 0.1,-0.5 z"
       id="path6"
       inkscape:connector-curvature="0" /><path
       d="m 100.5,165.8 h -7.6 v -14.7 h 7.6 z m -5.1,-10.2 c -0.1,0 -0.2,0 -0.3,0.1 -0.1,0.1 -0.2,0.1 -0.2,0.2 0,0.1 0,0.2 0,0.2 0,0.1 0.1,0.1 0.1,0.2 0,0 0,0.1 0,0.3 0,0.2 0,0.5 0,0.7 0,0.3 0,0.5 0,0.8 0,0.3 0,0.4 0,0.5 0,0.1 0,0.3 0,0.6 0,0.3 0,0.6 0.1,0.9 0,0.3 0,0.6 0.1,0.9 0,0.3 0,0.4 0,0.4 0,0.1 0.1,0.1 0.2,0.2 0.1,0 0.2,0.1 0.2,0.1 0,0 0.2,0 0.4,0 0.3,0 0.6,0 0.9,0 0.3,0 0.6,0 0.9,0 0.3,0 0.4,0 0.4,0 0.1,0 0.1,0 0.2,0 0,0 0.1,0 0.2,0 0.1,0 0.1,0 0.3,-0.1 0.1,-0.1 0.2,-0.1 0.2,-0.3 0,-0.1 0,-0.3 -0.1,-0.4 -0.1,-0.1 -0.2,-0.2 -0.3,-0.2 -0.1,0 -0.3,0 -0.5,0.1 -0.2,0.1 -0.4,0.1 -0.5,0.1 H 96 c 0,0 -0.1,0 -0.2,0 -0.1,0 -0.1,0 -0.1,-0.1 0,0 0,-0.2 0,-0.4 0,-0.2 0,-0.4 0,-0.4 0,0 0,-0.1 0,-0.2 0,-0.1 0,-0.3 0,-0.5 0,-0.2 0,-0.4 0,-0.6 0,-0.2 0,-0.4 0,-0.6 v -1.8 c 0.1,-0.1 0.1,-0.2 0.1,-0.4 -0.2,-0.2 -0.3,-0.3 -0.4,-0.3 z m 0.5,0.3 c 0,0.8 0,1.5 0,2.2 0,0.3 0,0.5 0,0.8 0,0.3 0,0.5 0,0.7 0,0.2 0,0.4 0,0.5 0,0.1 0,0.2 0,0.2 H 96 Z m 2.4,6.1 h -1.7 c 0.1,0 0.2,0.1 0.4,0.1 0.2,0 0.4,0 0.6,0 0.2,-0.1 0.4,-0.1 0.7,-0.1 z m 0.9,-0.7 c 0,0.1 -0.1,0.2 -0.1,0.2 0,0.1 -0.1,0.1 -0.1,0.2 0,0 -0.1,0.1 -0.1,0.1 -0.1,0 -0.1,0 -0.2,0 0,0 -0.1,0 -0.1,0 0.1,0.1 0.2,0.1 0.3,0.1 0.1,0 0.1,-0.1 0.2,-0.1 0.1,-0.1 0.1,-0.3 0.1,-0.5 z"
       id="path8"
       inkscape:connector-curvature="0" /><path
       d="M 107.6,165.8 H 100 v -14.7 h 7.6 z m -3,-9.2 c 0.1,0 0.2,0 0.4,0 0.2,0 0.3,0 0.4,0 0.1,0 0.2,-0.1 0.3,-0.1 0.1,-0.1 0.1,-0.2 0.1,-0.2 0,-0.1 0,-0.2 -0.1,-0.3 -0.1,-0.1 -0.1,-0.2 -0.2,-0.3 -0.1,0 -0.1,0 -0.3,0 -0.1,0 -0.2,0 -0.3,0.1 0,0 -0.1,0 -0.2,0.1 -0.1,0 -0.2,0 -0.3,0 -0.1,0 -0.2,0 -0.3,0 -0.1,0 -0.2,0 -0.2,0 -0.1,0 -0.2,0 -0.3,0 -0.2,0 -0.4,0 -0.6,0 -0.2,0 -0.4,0 -0.6,0 -0.2,0 -0.3,0 -0.3,0 -0.1,0 -0.1,0.1 -0.1,0.3 0,0.1 -0.1,0.3 -0.1,0.5 0,0.2 0,0.3 0,0.5 0,0.2 0,0.3 0,0.4 0,0.1 0,0.2 0,0.3 0,0.1 0,0.3 0,0.4 0,0.1 0,0.2 0,0.4 0,0.1 0,0.2 0,0.2 0,0.1 0,0.2 -0.1,0.3 0,0.2 0,0.3 0,0.5 0,0.1 0,0.2 0,0.4 0,0.2 0,0.4 0,0.6 0,0.2 0,0.4 0.1,0.5 0,0.2 0,0.3 0,0.3 0,0 0,0.1 0.1,0.2 0.1,0.1 0.1,0.2 0.2,0.2 0,0 0.2,0 0.4,0 0.2,0 0.5,0 0.8,0 0.3,0 0.5,0 0.8,0 0.2,0 0.4,0 0.4,0 0,0 0.1,0 0.2,0 0.1,0 0.2,0 0.3,0.1 0.1,0 0.2,0 0.3,0 0.1,0 0.1,0 0.2,0 0.1,0 0.2,0 0.3,-0.1 0.1,-0.1 0.2,-0.2 0.2,-0.3 0,-0.1 0,-0.2 0,-0.4 0,-0.2 -0.1,-0.2 -0.2,-0.3 -0.1,0 -0.3,0 -0.5,0.1 -0.2,0.1 -0.4,0.1 -0.6,0.2 -0.1,0 -0.2,0 -0.4,0 -0.2,0 -0.4,0 -0.5,-0.1 -0.2,0 -0.4,0 -0.5,-0.1 -0.2,0 -0.3,0 -0.3,0 -0.1,0 -0.2,0 -0.3,0.1 -0.1,0 -0.2,0 -0.3,0 -0.1,0 -0.1,-0.1 0,-0.2 0,-0.1 0,-0.2 0,-0.2 0,0 0,-0.1 0,-0.2 0,-0.1 0,-0.2 -0.1,-0.2 0,0 0,-0.1 0,-0.2 0,-0.1 0,-0.3 0,-0.4 0,-0.1 0,-0.3 0,-0.4 0,-0.1 0,-0.2 0.1,-0.2 0,0 0.1,0 0.2,0 0.1,0 0.2,0 0.2,0 0,0 0.1,0 0.2,0 0.1,0 0.2,0 0.4,0 0.1,0 0.3,0 0.4,0 0.1,0 0.2,0 0.2,0 0.1,0 0.1,0.1 0.2,0.1 0,0 0.1,0 0.3,0 0.2,0 0.3,-0.1 0.3,-0.2 0,-0.1 0.1,-0.2 0.1,-0.4 0,-0.2 0,-0.3 -0.1,-0.3 -0.1,0 -0.2,-0.1 -0.3,-0.1 -0.1,0 -0.2,0 -0.3,0.1 -0.1,0.1 -0.2,0.1 -0.3,0.1 0,0 -0.1,0 -0.2,0 -0.1,0 -0.2,0 -0.3,0 -0.1,0 -0.2,0 -0.3,0 -0.1,0 -0.1,0 -0.2,0 0,0 -0.1,0 -0.2,0 -0.1,0 -0.1,0 -0.2,0 -0.1,0 -0.1,0 -0.2,0 v -0.8 c 0,-0.2 0,-0.4 0,-0.6 0,-0.2 0,-0.3 0,-0.3 0.4,0 0.7,0 1,0 0.3,0 0.5,0 0.7,0 0.3,-0.1 0.4,-0.1 0.5,-0.1 z m -0.8,0.3 h -1.1 c 0,0.1 0,0.2 0,0.3 v 0.4 c 0,0.1 0,0.2 0,0.2 0,0 0,0.1 0,0.1 0.2,0 0.4,0 0.6,0 0.2,0 0.3,0 0.4,0 0.1,0 0.2,0 0.2,0 0,0 0,0 -0.1,0 -0.1,0 -0.1,0 -0.2,0 -0.1,0 -0.2,0 -0.3,0 -0.1,0 -0.1,-0.1 -0.2,-0.1 0,-0.1 -0.1,-0.3 -0.1,-0.4 0,-0.1 0,-0.2 0.1,-0.2 0,0 0.1,0 0.2,0 0.1,0 0.2,0 0.3,-0.1 -0.1,-0.2 0.1,-0.2 0.2,-0.2 z m -1.2,2.4 c 0,0 0,0.1 0,0.2 0,0.1 0,0.3 0,0.4 0,0.2 0,0.4 0,0.6 h 0.3 c 0,0 -0.1,0.1 -0.1,0.1 0,0 0,0 -0.1,-0.1 0,0 0,-0.1 0,-0.3 0,-0.1 0,-0.3 -0.1,-0.4 0,-0.1 0,-0.2 -0.1,-0.3 0.2,0 0.2,-0.1 0.1,-0.2 z m 0.3,0.2 c 0,0 0.1,0 0.2,0 0.1,0 0.2,0 0.3,0 0.1,0 0.2,0 0.3,0 0.1,0 0.1,0 0.1,0 0,0 -0.1,0 -0.2,0 -0.1,0 -0.2,0 -0.3,0 -0.2,-0.1 -0.2,-0.1 -0.4,0 0,0 0,0 0,0 z m 1.5,-1.6 0.3,0.2 c -0.1,-0.1 -0.1,-0.1 -0.2,-0.2 0,0 0,0 -0.1,0 z"
       id="path10"
       inkscape:connector-curvature="0" /><path
       d="m 114.8,165.8 h -7.6 v -14.7 h 7.6 z m -5.7,-10.2 c -0.1,0 -0.1,0.1 -0.1,0.3 0,0.2 0,0.3 0,0.4 0,0.1 0,0.2 0,0.6 0,0.4 0,0.7 0,1 0,0.4 0,0.7 0,1 0,0.3 0,0.5 0,0.5 0,0 0,0.1 0,0.3 0,0.2 0,0.3 0,0.5 0,0.2 0,0.4 0,0.6 0,0.2 0,0.3 0.1,0.4 0.1,0.1 0.1,0.2 0.1,0.2 0,0 0,0 0.1,0.1 0.1,0 0.2,0 0.3,-0.1 0.1,-0.1 0.1,-0.2 0.2,-0.3 0,-0.1 0,-0.2 -0.1,-0.3 -0.1,-0.1 -0.1,-0.2 -0.1,-0.3 0,0 0,-0.1 0,-0.2 0,-0.1 0,-0.2 0,-0.3 0,-0.1 0,-0.2 0,-0.3 0,-0.1 0,-0.2 0,-0.2 0,-0.1 0,-0.2 0,-0.3 0,-0.1 0,-0.2 0.1,-0.2 0,0 0.2,0 0.4,0 0.2,0 0.4,0 0.5,0 0.1,0 0.2,0 0.3,-0.1 0.1,0 0.2,0 0.3,0 0.1,0 0.1,0.1 0.2,0.3 0.1,0.1 0.1,0.3 0.2,0.5 0.1,0.2 0.1,0.3 0.2,0.5 0.1,0.2 0.1,0.3 0.2,0.4 0,0.1 0.1,0.2 0.1,0.4 0.1,0.1 0.1,0.3 0.2,0.4 0.1,0.1 0.1,0.2 0.2,0.3 0.1,0.1 0.1,0.1 0.2,0.1 0.2,-0.1 0.2,-0.1 0.3,-0.2 0,-0.1 0,-0.2 0,-0.3 0,0 -0.1,-0.1 -0.1,-0.2 -0.1,-0.1 -0.1,-0.2 -0.2,-0.3 -0.1,-0.1 -0.2,-0.2 -0.3,-0.4 -0.1,-0.1 -0.1,-0.2 -0.2,-0.4 -0.2,-0.4 -0.2,-0.7 -0.2,-0.8 0,0 0,-0.1 0,-0.1 0,0 0,0 0,-0.1 0,0 0.1,-0.1 0.2,-0.2 0.1,-0.1 0.2,-0.2 0.4,-0.4 0.1,-0.2 0.2,-0.3 0.3,-0.5 0.1,-0.2 0.1,-0.3 0.1,-0.5 0,-0.3 -0.1,-0.6 -0.2,-0.8 -0.1,-0.2 -0.3,-0.4 -0.4,-0.5 -0.1,-0.1 -0.2,-0.2 -0.3,-0.3 -0.1,-0.1 -0.2,-0.1 -0.3,-0.1 -0.1,0 -0.1,-0.1 -0.1,-0.1 0,0 0,0 -0.1,0 0,0 -0.1,0 -0.3,0 -0.2,0 -0.3,0 -0.5,0 -0.2,0 -0.3,0 -0.5,0 -0.2,0 -0.3,0 -0.4,0 -0.1,0 -0.3,0 -0.5,0 -0.1,0 -0.3,0 -0.3,0 z m 0.7,3.7 c 0,0 0,0.1 0,0.2 0,0.1 0,0.3 0,0.5 0,0.2 0,0.3 0,0.5 0,0.2 0,0.3 0,0.3 0,0.1 0,0.2 0,0.3 0,0.1 0,0.1 -0.1,0.2 -0.1,0.1 -0.1,0.1 -0.1,0.1 0,0 0,0 -0.1,0 0,0 -0.1,0 -0.2,0 -0.1,0 -0.1,0 -0.1,-0.1 0.1,0.1 0.1,0.1 0.2,0.2 0.1,0.1 0.2,0.1 0.3,0 0,0 0.1,-0.1 0.1,-0.3 0,-0.1 0.1,-0.3 0.1,-0.4 0,-0.2 0,-0.3 0.1,-0.5 0,-0.2 0,-0.3 0,-0.4 0,-0.1 0,-0.2 0,-0.3 0,-0.1 0,-0.2 0,-0.2 0,-0.1 0,-0.1 0,-0.2 l 0.1,0.1 c 0.1,0.1 0.2,0.1 0.3,0.1 0.1,0 0.1,0 0,-0.1 -0.1,-0.1 -0.1,-0.1 -0.2,-0.1 -0.1,0 -0.2,0 -0.2,-0.1 -0.1,0 -0.2,-0.1 -0.2,-0.1 -0.1,0 -0.1,0 -0.1,0.1 0,0.1 0.1,0.2 0.1,0.2 z m 1.7,-3 c 0.2,0 0.3,0.1 0.5,0.2 0.1,0.1 0.2,0.1 0.2,0.3 0.1,0.1 0.1,0.3 0.1,0.4 0,0.1 0,0.3 -0.1,0.4 -0.1,0.2 -0.2,0.3 -0.3,0.4 -0.1,0.1 -0.2,0.2 -0.4,0.2 -0.2,0 -0.3,0 -0.5,0 -0.1,0 -0.2,0 -0.3,0 -0.1,0 -0.2,0 -0.3,-0.1 -0.1,0 -0.2,0 -0.3,0 -0.1,0 -0.1,0 -0.2,0 0,0 -0.1,0 -0.2,0.1 -0.1,0.1 -0.2,0.1 -0.2,0 0,0 0,-0.1 0,-0.2 0,-0.1 0.1,-0.2 0.1,-0.2 0,0 0,-0.1 0,-0.1 0,0 0,-0.1 0,-0.2 0,0 0,-0.1 0,-0.2 0,-0.1 0,-0.2 0,-0.3 0,-0.1 0,-0.2 0,-0.2 0,-0.1 0,-0.1 0,-0.1 0,-0.1 0,-0.2 0,-0.2 0,0 0.1,0 0.3,0 0.1,0 0.1,0 0.1,0 0,0 0.1,0 0.2,0 0.1,0 0.1,0 0.2,0 0.1,0 0.1,0 0.2,0 0.1,0 0.2,0 0.4,0 0.2,0 0.3,0 0.3,0 0,0 0.1,0 0.1,-0.1 -0.1,-0.1 0,-0.1 0.1,-0.1 z m -1.7,0.5 c 0,0 0,0.1 0,0.1 0,0.1 0.1,0.1 0.1,0.1 0,0 0,0.1 0.1,0.1 v 0 c 0,0 -0.1,-0.1 -0.1,-0.2 -0.1,-0.1 -0.1,-0.2 0,-0.2 0,0 0.1,0 0.2,0 h 0.2 -0.3 c 0,0 -0.1,0 -0.2,0.1 0,-0.1 0,-0.1 0,0 z m 0.1,0.6 c 0,0 0,0.1 0,0.1 0,0 0,0.1 0,0.1 l 0.2,0.1 h 0.6 c -0.1,0 -0.2,0 -0.3,-0.1 -0.1,0 -0.1,0 -0.2,-0.1 -0.1,0 -0.1,-0.1 -0.1,-0.1 z m 2,-2.2 c 0.2,0.1 0.4,0.2 0.6,0.4 0.2,0.1 0.3,0.3 0.4,0.4 0.1,0.1 0.2,0.3 0.3,0.5 0.1,0.4 0.1,0.7 0,1.1 0,0.4 -0.2,0.6 -0.3,0.8 -0.2,0.1 -0.3,0.2 -0.4,0.3 -0.1,0.1 -0.2,0.2 -0.2,0.2 0,0 0,0.1 0.1,0.3 0.1,0.1 0.1,0.3 0.3,0.5 0.1,0.2 0.2,0.4 0.4,0.7 -0.1,-0.2 -0.2,-0.5 -0.3,-0.6 -0.1,-0.2 -0.1,-0.3 -0.2,-0.5 0,-0.1 -0.1,-0.2 0,-0.3 0,0 0.1,-0.1 0.1,-0.2 0.1,-0.1 0.2,-0.2 0.3,-0.4 0.1,-0.1 0.2,-0.3 0.3,-0.5 0.1,-0.2 0.1,-0.4 0.1,-0.6 0,-0.2 0,-0.4 -0.1,-0.6 0,-0.2 -0.1,-0.3 -0.1,-0.5 -0.1,-0.2 -0.2,-0.3 -0.4,-0.5 -0.3,-0.1 -0.6,-0.3 -0.9,-0.5 z m 1,6.4 c 0,0.1 0,0.1 0,0 0.2,0 0.3,-0.1 0.3,-0.2 0.1,-0.1 0.1,-0.2 0.1,-0.3 0,-0.1 0,-0.1 0,-0.1 v 0.3 c 0,0.1 0,0.1 -0.1,0.2 0,0.1 0,0.1 -0.1,0.1 -0.1,0 -0.1,0 -0.2,0 0.1,0 0,0 0,0 z"
       id="path12"
       inkscape:connector-curvature="0" /><path
       d="m 122.1,165.8 h -7.6 v -14.7 h 7.6 z m -3.8,-7.8 c -0.1,0 -0.1,0 -0.1,0 0,0 0,0 0,-0.1 0,-0.1 0,-0.1 0,-0.1 0,0 0,-0.1 0,-0.2 0,0 -0.1,-0.1 -0.1,-0.2 -0.1,-0.1 -0.2,-0.2 -0.3,-0.3 -0.1,-0.1 -0.2,-0.2 -0.3,-0.3 -0.1,-0.1 -0.1,-0.2 -0.1,-0.2 0,0 -0.1,-0.1 -0.1,-0.2 0,-0.1 -0.1,-0.2 -0.1,-0.3 0,-0.1 -0.1,-0.2 -0.1,-0.3 -0.1,-0.1 -0.1,-0.2 -0.1,-0.2 -0.1,-0.1 -0.2,-0.1 -0.3,-0.1 -0.1,0 -0.2,0.1 -0.2,0.2 0,0.1 0,0.2 0.1,0.4 0.1,0.2 0.2,0.3 0.3,0.5 0.1,0.2 0.2,0.4 0.4,0.6 0.2,0.2 0.2,0.3 0.3,0.4 0.2,0.2 0.3,0.4 0.5,0.6 0.1,0.2 0.2,0.3 0.2,0.3 0,0 0,0.1 0,0.3 0,0.2 0,0.4 0,0.6 0,0.2 0,0.4 0,0.6 0,0.2 0,0.3 0,0.4 0,0.1 0,0.1 0,0.3 0,0.1 0,0.2 0,0.3 0,0.1 0,0.2 0.1,0.3 0.1,0.1 0.2,0.1 0.3,0.1 0.1,0 0.2,0 0.3,-0.1 0,-0.1 0.1,-0.2 0,-0.3 0,-0.1 0,-0.2 0,-0.3 0,-0.1 0,-0.2 -0.1,-0.3 0,0 0,-0.2 -0.1,-0.3 0,-0.2 0,-0.3 0,-0.5 0,-0.2 0,-0.4 0,-0.6 0,-0.2 0,-0.3 0,-0.4 0,-0.1 0.1,-0.2 0.2,-0.4 0.1,-0.2 0.3,-0.4 0.4,-0.6 0.2,-0.2 0.3,-0.4 0.5,-0.6 0.2,-0.2 0.3,-0.3 0.3,-0.4 0.1,-0.1 0.2,-0.3 0.4,-0.4 0.1,-0.2 0.2,-0.3 0.2,-0.4 0,-0.1 0,-0.2 -0.1,-0.2 -0.1,-0.1 -0.2,-0.1 -0.2,-0.2 0,0 -0.1,0 -0.2,0 -0.1,0.1 -0.2,0.2 -0.3,0.3 0,0.1 -0.1,0.2 -0.2,0.3 -0.1,0.1 -0.2,0.3 -0.3,0.4 -0.1,0.1 -0.2,0.3 -0.2,0.4 -0.1,0.1 -0.1,0.2 -0.1,0.3 0,0 -0.1,0.1 -0.2,0.2 -0.1,0.1 -0.1,0.2 -0.2,0.3 -0.1,0.1 -0.1,0.2 -0.2,0.3 -0.3,0.1 -0.3,0.1 -0.3,0.1 z m -0.9,-2.2 0.8,1.3 c 0,0 -0.1,-0.1 -0.1,-0.2 -0.1,-0.1 -0.2,-0.3 -0.3,-0.4 -0.2,-0.2 -0.3,-0.4 -0.4,-0.7 z m 3.3,0.4 c -0.3,0.4 -0.6,0.8 -0.8,1.2 -0.2,0.3 -0.4,0.6 -0.6,0.8 -0.2,0.2 -0.3,0.4 -0.3,0.4 0,0 0,0.2 0,0.4 0,0.3 0,0.5 0,0.8 0,0.4 0,0.8 0,1.2 0,0.1 -0.1,0.1 -0.1,0.1 0,0.1 -0.1,0.1 -0.1,0.2 l -0.1,0.1 c 0.1,0 0.1,-0.1 0.2,-0.1 0,-0.1 0.1,-0.1 0.1,-0.2 0,-0.1 0.1,-0.2 0.1,-0.4 0,-0.1 0,-0.3 0,-0.6 0,-0.3 0,-0.5 0,-0.8 v -0.9 c 0.3,-0.4 0.5,-0.8 0.8,-1.1 0.2,-0.3 0.4,-0.6 0.5,-0.8 0.2,-0.1 0.3,-0.3 0.3,-0.3 z"
       id="path14"
       inkscape:connector-curvature="0" /></g><g
     aria-label="Project"
     style="font-style:normal;font-weight:normal;font-size:40px;line-height:1.25;font-family:sans-serif;letter-spacing:0px;word-spacing:0px;fill:#000000;fill-opacity:1;stroke:none"
     id="text16"
     transform="translate(-0.22125063,15.65327)"><path
       d="M 7.8172506,-0.98926974 H 0.22125063 V -15.65327 H 7.8172506 Z m -4.572,-6.74399996 q 0.096,0.048 0.156,0.048 0.072,0 0.216,-0.048 0.06,-0.012 0.48,0.012 0.42,0.024 0.864,-0.084 0.444,-0.108 0.816,-0.42 0.384,-0.312 0.384,-1.02 0,-0.708 -0.228,-1.1040003 -0.228,-0.396 -0.528,-0.576 -0.288,-0.192 -0.564,-0.228 -0.276,-0.048 -0.396,-0.048 -0.108,0 -0.384,0 -0.264,0 -0.576,0 -0.312,0 -0.564,0 -0.24,0 -0.3,0.024 -0.096,0.024 -0.168,0.132 -0.06,0.108 -0.06,0.216 0,0.036 -0.024,0.204 -0.012,0.156 -0.036,0.372 -0.012,0.216 -0.024,0.4320003 0,0.216 0,0.42 0,0.18 0,0.456 0.012,0.264 0.036,0.504 0.024,0.24 0.048,0.444 0.036,0.204 0.036,0.264 0,0.096 -0.036,0.3 -0.024,0.204 -0.06,0.456 -0.024,0.252 -0.06,0.492 -0.024,0.24 -0.048,0.336 -0.048,0.216 0.024,0.432 0.072,0.216 0.372,0.384 0.276,0.168 0.348,0.024 0.072,-0.156 0.108,-0.264 0,-0.096 -0.048,-0.228 -0.048,-0.132 -0.084,-0.204 -0.048,-0.048 -0.096,-0.24 -0.036,-0.192 -0.036,-0.372 0,-0.12 0,-0.3 0,-0.192 0.024,-0.408 0,-0.228 0.024,-0.504 0.036,0.012 0.12,0.036 0.048,0.024 0.12,0.048 0.072,0.012 0.144,0.012 z m -0.264,-1.524 q 0,-0.06 -0.012,-0.24 -0.012,-0.18 -0.024,-0.36 0,-0.1800003 -0.012,-0.3360003 0,-0.168 0.012,-0.204 0.036,-0.084 0.06,-0.06 0.036,0.012 0.084,0.012 0.072,0 0.204,0.036 0.144,0.024 0.24,0.024 h 0.624 q 0.048,0 0.18,0 0.132,-0.012 0.264,-0.012 0.144,0 0.288,0.012 0.144,0 0.228,0.048 0.168,0.096 0.3,0.276 0.144,0.1800003 0.144,0.6600003 0,0.228 -0.12,0.396 -0.108,0.156 -0.252,0.288 -0.144,0.132 -0.288,0.204 -0.144,0.06 -0.204,0.06 -0.072,0 -0.264,0 -0.18,0 -0.372,-0.036 -0.228,0 -0.48,-0.012 -0.048,0 -0.108,0.012 -0.036,0.036 -0.108,0.048 -0.06,0 -0.108,0.012 -0.228,0.072 -0.324,-0.072 0,-0.168 0.012,-0.312 0.012,-0.132 0.024,-0.24 0.012,-0.12 0.012,-0.204 z m 0.192,-0.9240003 q -0.036,0.012 0,0.1920003 0.048,0.18 0.048,0.276 0,0.108 0.012,0.24 0.024,0.12 -0.012,0.216 -0.048,0.12 -0.06,0.168 -0.024,0.048 -0.024,0.072 0.048,-0.012 0.12,-0.096 0.048,-0.048 0.096,-0.144 0.048,-0.096 0.084,-0.192 0.012,-0.228 -0.072,-0.504 -0.072,-0.2880003 -0.192,-0.2280003 z m 1.092,0.108 h -0.204 q -0.084,0 -0.132,0.024 -0.048,0.012 -0.024,0.024 0.12,0.072 0.264,0.012 0.06,-0.012 0.096,-0.06 z m 0.048,1.3200003 -0.372,-0.096 q 0.06,0.06 0.144,0.096 0.12,0.072 0.228,0 z m -1.152,1.2 0.084,0.216 q 0.048,0.084 0.072,0.168 0.024,0.072 0.024,0.12 0,0.036 0.012,0.216 0.012,0.168 0.012,0.36 v 0.504 l 0.036,-1.284 0.804,-0.12 q -0.228,0.036 -0.444,0 -0.168,-0.012 -0.348,-0.048 -0.168,-0.036 -0.252,-0.132 z m 3.24,-1.128 q 0.156,-0.348 0.144,-0.816 -0.012,-0.48 -0.144,-0.8640003 -0.072,-0.18 -0.18,-0.324 -0.096,-0.144 -0.192,-0.252 -0.108,-0.096 -0.264,-0.18 0.048,0.012 0.084,0.06 0.048,0.036 0.084,0.096 0.048,0.06 0.132,0.12 0.18,0.168 0.3,0.528 0.12,0.3600003 0.12,0.6960003 0.036,0.324 -0.108,0.756 -0.132,0.432 -0.312,0.66 -0.096,0.096 -0.24,0.204 -0.132,0.108 -0.288,0.18 -0.156,0.084 -0.336,0.204 0.36,-0.048 0.708,-0.396 0.36,-0.348 0.492,-0.672 z"
       style="font-style:normal;font-variant:normal;font-weight:normal;font-stretch:normal;font-size:12px;font-family:'Impact Label';-inkscape-font-specification:'Impact Label'"
       id="path18"
       inkscape:connector-curvature="0" /><path
       d="M 15.013688,-0.98926974 H 7.4296881 V -15.65327 H 15.013688 Z M 9.3736881,-11.20127 q -0.096,0.06 -0.132,0.312 -0.036,0.252 -0.036,0.432 0,0.084 0,0.5640003 0,0.468 0.012,1.008 0.012,0.54 0.012,1.008 0,0.456 0,0.528 0,0.06 -0.012,0.312 -0.012,0.252 -0.012,0.54 0,0.288 0.012,0.552 0.012,0.264 0.06,0.36 0.084,0.156 0.084,0.168 0,0.012 0.144,0.06 0.144,0.036 0.276,-0.072 0.144,-0.12 0.168,-0.276 0.012,-0.144 -0.084,-0.348 -0.084,-0.204 -0.084,-0.3 0,-0.072 0.012,-0.216 0.024,-0.144 0.036,-0.3 0.012,-0.168 0.024,-0.3 0.012,-0.132 0.012,-0.192 -0.024,-0.12 -0.036,-0.3 -0.012,-0.18 0.06,-0.24 0.072,-0.036 0.3839999,-0.036 0.324,0 0.468,-0.048 0.18,-0.024 0.324,-0.096 0.156,-0.072 0.336,0.012 0.084,0.048 0.192,0.264 0.108,0.204 0.216,0.468 0.12,0.264 0.228,0.516 0.108,0.252 0.168,0.396 0.06,0.156 0.144,0.372 0.084,0.204 0.192,0.384 0.108,0.18 0.216,0.3 0.12,0.108 0.228,0.048 0.228,-0.108 0.264,-0.216 0.036,-0.12 -0.012,-0.3 -0.024,-0.06 -0.132,-0.204 -0.096,-0.156 -0.228,-0.336 -0.132,-0.192 -0.264,-0.372 -0.12,-0.192 -0.18,-0.372 -0.24,-0.66 -0.24,-0.756 0,-0.072 -0.024,-0.084 -0.012,-0.024 0.036,-0.06 0.012,-0.036 0.18,-0.156 0.18,-0.132 0.36,-0.36 0.192,-0.24 0.336,-0.492 0.156,-0.264 0.132,-0.528 -0.012,-0.5040003 -0.216,-0.8400003 -0.192,-0.336 -0.396,-0.492 -0.18,-0.18 -0.324,-0.252 -0.132,-0.084 -0.252,-0.096 -0.096,-0.048 -0.072,-0.06 0.024,-0.024 -0.072,0.012 -0.036,0.036 -0.276,0.048 -0.228,0 -0.492,0 -0.252,0 -0.528,0.012 -0.264,0 -0.36,0 -0.216,0 -0.5159999,0 -0.288,0 -0.336,0.024 z m 2.3639999,0.672 q 0.24,0 0.504,0.156 0.144,0.084 0.228,0.276 0.084,0.1800003 0.108,0.3960003 0.048,0.216 -0.072,0.444 -0.12,0.228 -0.288,0.372 -0.156,0.144 -0.408,0.192 -0.24,0.036 -0.516,0.024 -0.12,0 -0.3,-0.036 -0.168,-0.036 -0.324,-0.06 -0.156,-0.024 -0.276,-0.048 -0.108,-0.024 -0.144,-0.024 -0.024,0 -0.216,0.084 -0.1919999,0.084 -0.2399999,0.012 -0.048,-0.048 0,-0.204 0.048,-0.156 0.084,-0.216 0.048,-0.072 0.024,-0.108 -0.012,-0.036 -0.024,-0.156 0,-0.06 -0.024,-0.18 -0.012,-0.132 -0.024,-0.264 -0.012,-0.1440003 -0.024,-0.2520003 -0.012,-0.108 -0.012,-0.12 0,-0.132 0.024,-0.192 0.06,-0.072 0.2519999,0 0.084,0.048 0.12,0.036 0.048,-0.024 0.168,-0.024 0.096,0 0.204,-0.012 0.12,-0.024 0.228,-0.024 0.096,0 0.348,0.024 0.264,0.012 0.348,-0.024 0.036,-0.048 0.084,-0.048 0.048,-0.012 0.168,-0.024 z m -1.668,0.456 q -0.048,0.048 0.012,0.1440003 0.072,0.084 0.072,0.144 0,0.048 0.072,0.12 l 0.024,0.024 q -0.048,-0.072 -0.072,-0.156 -0.084,-0.144 0,-0.2040003 0.072,-0.024 0.24,-0.024 h 0.168 l -0.264,-0.048 q -0.096,-0.024 -0.18,-0.024 -0.072,0 -0.072,0.024 z m 0.084,0.6480003 q 0,0.072 -0.048,0.144 -0.012,0.048 -0.012,0.072 l 0.156,0.108 0.636,0.036 q -0.156,-0.012 -0.288,-0.06 -0.096,-0.036 -0.204,-0.072 -0.108,-0.036 -0.144,-0.084 -0.072,-0.108 -0.072,-0.108 z m 1.968,-2.1600003 q 0.312,0.18 0.576,0.36 0.228,0.18 0.42,0.408 0.204,0.216 0.264,0.492 0.108,0.5400003 0.036,1.1160003 -0.072,0.564 -0.312,0.768 -0.228,0.18 -0.396,0.336 -0.156,0.156 -0.156,0.204 0,0.048 0.096,0.264 0.096,0.216 0.252,0.48 0.156,0.3 0.36,0.672 -0.156,-0.36 -0.252,-0.648 -0.108,-0.264 -0.168,-0.48 -0.06,-0.228 -0.048,-0.288 0.012,-0.036 0.144,-0.18 0.132,-0.156 0.276,-0.372 0.156,-0.216 0.252,-0.492 0.108,-0.288 0.096,-0.576 -0.036,-0.3 -0.06,-0.5520003 -0.012,-0.252 -0.144,-0.492 -0.12,-0.252 -0.408,-0.492 -0.288,-0.24 -0.828,-0.528 z m 1.044,6.4080003 q -0.024,0.06 0.096,0.024 0.12,-0.048 0.228,-0.24 0.084,-0.156 0.084,-0.312 0,-0.084 -0.012,-0.144 l -0.048,0.264 q -0.024,0.096 -0.06,0.18 -0.024,0.084 -0.084,0.132 -0.108,0.06 -0.144,0.06 -0.024,0 -0.06,0.036 z m -3.144,-2.304 q 0,0.036 0.012,0.24 0.024,0.204 0.036,0.468 0.024,0.252 0.048,0.48 0.024,0.228 0.024,0.312 0.012,0.18 0,0.264 0,0.084 -0.084,0.18 -0.096,0.108 -0.096,0.12 0,0.012 -0.072,0.012 -0.072,0 -0.192,-0.036 -0.096,-0.036 -0.132,-0.06 0.096,0.096 0.18,0.18 0.204,0.144 0.276,0.048 0.048,-0.072 0.096,-0.252 0.06,-0.18 0.096,-0.408 0.036,-0.228 0.072,-0.456 0.036,-0.228 0.036,-0.396 -0.024,-0.156 -0.012,-0.276 0.012,-0.132 0.012,-0.228 0,-0.108 0.036,-0.192 l 0.108,0.06 q 0.18,0.084 0.276,0.072 0.12,-0.012 0.024,-0.12 -0.084,-0.108 -0.18,-0.108 -0.132,0 -0.252,-0.06 -0.108,-0.072 -0.228,-0.12 -0.096,-0.036 -0.096,0.096 0.012,0.12 0.012,0.18 z"
       style="font-style:normal;font-variant:normal;font-weight:normal;font-stretch:normal;font-size:12px;font-family:'Impact Label';-inkscape-font-specification:'Impact Label'"
       id="path20"
       inkscape:connector-curvature="0" /><path
       d="m 22.245563,-0.98926974 h -7.584 V -15.65327 h 7.584 z m -3.804,-9.48000026 q 0.336,0.036 0.588,0.264 0.264,0.2160003 0.444,0.5400003 0.18,0.312 0.276,0.696 0.096,0.384 0.096,0.756 0,0.372 -0.108,0.792 -0.096,0.408 -0.288,0.744 -0.192,0.324 -0.444,0.54 -0.252,0.216 -0.528,0.216 -0.288,0 -0.636,-0.12 -0.336,-0.132 -0.636,-0.42 -0.288,-0.3 -0.48,-0.768 -0.192,-0.48 -0.144,-1.176 0.024,-0.696 0.288,-1.104 0.276,-0.42 0.588,-0.6360003 0.324,-0.228 0.612,-0.288 0.3,-0.06 0.372,-0.036 z m 0.864,-0.372 q -0.288,-0.276 -0.492,-0.384 -0.204,-0.12 -0.108,0.072 0,0.036 -0.264,0.036 -0.252,0 -0.636,0.072 -0.372,0.072 -0.756,0.264 -0.384,0.18 -0.588,0.588 -0.24,0.4080003 -0.384,1.0200003 -0.132,0.6 -0.12,1.236 0.024,0.636 0.228,1.212 0.204,0.576 0.66,0.96 0.48,0.372 0.948,0.504 0.468,0.132 0.864,0.072 0.396,-0.072 0.696,-0.312 0.3,-0.24 0.468,-0.54 0.144,-0.312 0.276,-0.708 0.132,-0.408 0.204,-0.816 0.072,-0.42 0.06,-0.804 -0.012,-0.396 -0.084,-0.708 -0.36,-1.1760003 -0.972,-1.7640003 z m 1.908,3.5760003 q -0.048,0.048 -0.048,0.072 0,0.06 0.012,0.096 0.012,0.036 0.072,0.06 z m -1.596,-3.9240003 q -0.276,-0.156 -0.492,-0.264 -0.204,-0.108 -0.372,-0.156 -0.192,-0.06 -0.36,-0.06 l 0.444,0.144 q 0.036,0.012 0.24,0.144 0.216,0.12 0.456,0.3 0.252,0.18 0.468,0.408 0.228,0.228 0.324,0.48 0.096,0.2520003 0.168,0.5880003 0.084,0.324 0.132,0.684 0.06,0.36 0.084,0.708 0.024,0.336 -0.024,0.6 -0.084,0.552 -0.24,0.996 -0.144,0.444 -0.624,0.936 -0.252,0.24 -0.516,0.408 -0.252,0.156 -0.468,0.252 -0.264,0.12 -0.492,0.18 0.408,-0.108 0.78,-0.276 0.312,-0.144 0.636,-0.384 0.336,-0.252 0.54,-0.612 0.204,-0.36 0.3,-0.792 0.108,-0.444 0.156,-0.852 0.048,-0.408 0.036,-0.732 0,-0.324 -0.012,-0.492 -0.036,-0.12 -0.12,-0.408 -0.084,-0.3 -0.228,-0.6360003 -0.144,-0.348 -0.36,-0.66 -0.204,-0.324 -0.456,-0.504 z m -1.764,1.164 q -0.18,0.096 -0.348,0.2400003 -0.156,0.132 -0.3,0.336 -0.144,0.204 -0.228,0.468 -0.168,0.552 -0.084,1.176 0.084,0.612 0.252,0.972 0.096,0.18 0.24,0.312 0.144,0.132 0.288,0.204 0.156,0.072 0.276,0.108 0.12,0.036 0.156,0.012 0.036,-0.06 -0.096,-0.168 -0.12,-0.12 -0.264,-0.252 -0.072,-0.06 -0.18,-0.144 -0.096,-0.084 -0.204,-0.24 -0.096,-0.156 -0.18,-0.42 -0.072,-0.276 -0.084,-0.732 -0.06,-0.432 0.048,-0.792 0.12,-0.36 0.288,-0.588 0.192,-0.276 0.42,-0.4920003 z"
       style="font-style:normal;font-variant:normal;font-weight:normal;font-stretch:normal;font-size:12px;font-family:'Impact Label';-inkscape-font-specification:'Impact Label'"
       id="path22"
       inkscape:connector-curvature="0" /><path
       d="m 29.464876,-0.98926974 h -7.596 V -15.65327 h 7.596 z m -2.256,-9.48000026 q -0.024,-0.072 -0.048,-0.216 -0.024,-0.144 -0.108,-0.144 -0.072,0 -0.192,0.18 -0.108,0.18 -0.168,0.312 0,0.036 0,0.324 0,0.2880003 0.012,0.7080003 0.024,0.408 0.024,0.876 0,0.456 -0.024,0.888 -0.012,0.432 -0.024,0.756 0,0.324 -0.048,0.42 -0.096,0.348 -0.108,0.492 0,0.132 -0.288,0.216 -0.12,0.048 -0.228,0.06 -0.108,0 -0.192,0.024 -0.084,0.024 -0.144,0.024 l 0.144,-0.12 q -0.108,-0.024 -0.192,-0.06 -0.168,-0.024 -0.312,-0.096 -0.12,-0.06 -0.312,-0.168 -0.192,-0.12 -0.276,-0.444 -0.06,-0.312 -0.06,-0.516 0.012,-0.204 0.06,-0.288 0.012,-0.048 0.108,-0.084 0.06,-0.012 0.12,-0.012 l -0.084,-0.192 -0.132,0.072 q -0.048,0.048 -0.096,0.084 -0.048,0.036 -0.06,0.072 -0.036,0.048 -0.12,0.084 -0.084,0.036 -0.156,0.156 -0.072,0.108 -0.096,0.312 -0.024,0.204 0.096,0.516 0.18,0.66 0.612,0.948 0.432,0.276 0.84,0.276 0.408,0 0.816,-0.336 0.42,-0.348 0.528,-0.912 0.036,-0.288 0.048,-0.972 0.024,-0.684 0.036,-1.404 0.024,-0.84 0.024,-1.8360003 z m -2.16,3.6360003 q 0,-0.048 0.012,0.168 0.024,0.204 0.084,0.3 0.048,0.12 0.156,0.204 0.108,0.084 0.18,0.084 0.048,0 0.12,-0.036 0.048,-0.036 0.072,-0.072 -0.048,0 -0.12,-0.024 -0.108,-0.036 -0.156,-0.108 -0.084,-0.072 -0.216,-0.204 -0.132,-0.144 -0.132,-0.312 z m 2.496,-3.2040003 q -0.012,0.9480003 -0.012,1.6800003 v 1.752 q 0,0.06 -0.024,0.216 -0.024,0.144 -0.06,0.204 -0.06,0.108 -0.06,0.132 v 0.048 q 0.024,-0.096 0.072,-0.18 0.084,-0.192 0.108,-0.432 0.024,-0.132 0.012,-0.696 -0.012,-0.564 -0.012,-1.14 -0.024,-0.72 -0.024,-1.5840003 z m 0,-0.66 q 0,-0.048 -0.012,-0.048 0,-0.012 0,-0.048 l -0.036,-0.012 q 0,0.048 0.036,0.084 0,0.048 0,0.06 0.012,0 0.012,-0.036 z m -0.096,-0.384 q 0.012,-0.072 -0.084,-0.036 -0.096,0.036 -0.132,0.096 -0.048,0.072 0.06,0.036 0.12,-0.048 0.156,-0.096 z"
       style="font-style:normal;font-variant:normal;font-weight:normal;font-stretch:normal;font-size:12px;font-family:'Impact Label';-inkscape-font-specification:'Impact Label'"
       id="path24"
       inkscape:connector-curvature="0" /><path
       d="m 36.659626,-0.98926974 h -7.608 V -15.65327 h 7.608 z m -3.012,-9.27600026 q 0.144,0 0.372,0.036 0.24,0.036 0.42,0 0.204,-0.012 0.276,-0.132 0.084,-0.132 0.108,-0.252 0.024,-0.132 -0.084,-0.336 -0.096,-0.204 -0.216,-0.252 -0.084,-0.048 -0.252,-0.012 -0.168,0.024 -0.264,0.084 -0.072,0.036 -0.216,0.06 -0.144,0.024 -0.3,0.048 -0.156,0.024 -0.324,0.036 -0.156,0.012 -0.24,0.012 -0.084,0 -0.348,-0.012 -0.252,-0.012 -0.552,-0.024 -0.3,-0.012 -0.552,0 -0.252,0.012 -0.336,0.048 -0.084,0.06 -0.144,0.264 -0.048,0.204 -0.084,0.468 -0.024,0.2520003 -0.036,0.4920003 -0.012,0.228 -0.012,0.36 0,0.132 0.024,0.348 0.024,0.204 0.036,0.396 0.024,0.192 0.036,0.36 0.012,0.168 -0.012,0.228 -0.024,0.096 -0.072,0.348 -0.048,0.24 -0.048,0.456 0,0.096 0.012,0.372 0.024,0.276 0.048,0.576 0.036,0.288 0.06,0.54 0.024,0.24 0.024,0.252 0,0.06 0.084,0.216 0.084,0.156 0.216,0.192 0.06,0 0.396,0.012 0.348,0 0.756,0 0.42,0 0.768,0 0.36,0 0.408,0 0.06,0 0.204,0.036 0.156,0.036 0.312,0.072 0.168,0.024 0.288,0.048 0.12,0.012 0.192,0.012 0.108,0 0.288,-0.12 0.192,-0.132 0.216,-0.276 0,-0.144 -0.048,-0.372 -0.036,-0.24 -0.204,-0.276 -0.144,-0.048 -0.492,0.084 -0.348,0.132 -0.552,0.156 -0.096,0.036 -0.36,0.012 -0.252,-0.024 -0.54,-0.06 -0.288,-0.036 -0.528,-0.06 -0.24,-0.024 -0.312,-0.024 -0.096,0 -0.3,0.06 -0.192,0.048 -0.264,-0.012 -0.084,-0.048 -0.036,-0.192 0.048,-0.156 0.048,-0.204 0,-0.036 -0.012,-0.144 0,-0.12 -0.048,-0.24 -0.024,-0.024 -0.036,-0.216 0,-0.204 0.012,-0.396 0.024,-0.204 0.048,-0.372 0.024,-0.168 0.072,-0.18 0.06,-0.06 0.192,-0.024 0.132,0.036 0.228,-0.012 0.036,0 0.216,-0.012 0.18,-0.012 0.384,-0.012 0.204,0 0.372,0 0.18,0 0.252,0.024 0.096,0.048 0.168,0.084 0.072,0.024 0.3,-0.024 0.252,-0.024 0.3,-0.168 0.048,-0.144 0.06,-0.372 0.036,-0.24 -0.12,-0.288 -0.156,-0.06 -0.264,-0.12 -0.132,-0.024 -0.336,0.06 -0.204,0.072 -0.324,0.096 -0.06,0 -0.204,0 -0.132,0 -0.276,-0.012 -0.132,-0.024 -0.264,-0.036 -0.12,-0.024 -0.18,-0.024 -0.072,0.036 -0.18,0.036 -0.096,0 -0.216,0.012 -0.096,0.024 -0.228,0.024 v -0.78 q 0,-0.3 0,-0.552 0,-0.2640003 0.024,-0.3360003 0.552,-0.012 1.02,-0.048 0.396,-0.012 0.744,-0.024 0.348,-0.012 0.432,-0.012 z m -0.78,0.3120003 h -1.14 q -0.024,0.18 -0.024,0.324 v 0.408 q 0,0.168 -0.012,0.216 -0.036,0.06 -0.048,0.108 0.324,0 0.564,-0.012 0.228,-0.036 0.396,-0.036 0.18,0 0.228,-0.012 0.012,0 -0.096,0 -0.096,0 -0.24,-0.024 -0.132,-0.024 -0.276,-0.048 -0.132,-0.024 -0.156,-0.144 -0.06,-0.192 -0.072,-0.372 -0.012,-0.192 0.06,-0.228 0.036,-0.036 0.156,-0.048 0.132,-0.012 0.276,-0.06 0.168,-0.036 0.384,-0.072 z m 0.636,0.984 0.336,0.228 q -0.096,-0.12 -0.192,-0.168 -0.084,-0.048 -0.144,-0.06 z m -1.5,1.596 q 0.012,0 0.144,-0.012 0.144,-0.012 0.3,-0.036 0.168,-0.024 0.276,-0.024 0.12,-0.012 0.108,-0.012 -0.06,-0.048 -0.216,-0.024 -0.144,0.012 -0.3,0.036 -0.156,0.024 -0.252,0.06 -0.084,0.024 -0.06,0.012 z m -0.3,-0.144 q 0,0.06 0.012,0.252 0.012,0.18 0.036,0.408 0.024,0.264 0.036,0.552 l 0.264,-0.048 q -0.048,0.072 -0.072,0.072 -0.048,0 -0.06,-0.06 0,-0.06 -0.012,-0.264 -0.036,-0.216 -0.06,-0.372 -0.012,-0.168 -0.06,-0.3 -0.036,-0.12 -0.084,-0.24 z"
       style="font-style:normal;font-variant:normal;font-weight:normal;font-stretch:normal;font-size:12px;font-family:'Impact Label';-inkscape-font-specification:'Impact Label'"
       id="path26"
       inkscape:connector-curvature="0" /><path
       d="m 43.794938,-0.98926974 h -7.608 V -15.65327 h 7.608 z m -2.352,-8.11199996 q 0.096,0.156 0.228,0.168 0.132,0 0.156,-0.036 0.048,-0.048 0.132,-0.288 0.084,-0.252 -0.012,-0.492 -0.072,-0.132 -0.264,-0.3360003 -0.18,-0.216 -0.408,-0.42 -0.228,-0.216 -0.408,-0.372 -0.18,-0.156 -0.216,-0.192 -0.108,-0.036 -0.12,-0.072 0,-0.048 -0.084,-0.012 -0.084,0.048 -0.264,0.084 -0.18,0.036 -0.276,0.036 -0.072,0 -0.264,0.036 -0.192,0.036 -0.444,0.168 -0.252,0.12 -0.528,0.372 -0.264,0.24 -0.42,0.6480003 -0.288,0.792 -0.312,1.668 -0.024,0.876 0.432,1.668 0.444,0.804 1.104,1.128 0.672,0.312 1.464,0.084 0.372,-0.132 0.6,-0.408 0.24,-0.276 0.36,-0.588 0.132,-0.324 0.168,-0.588 0.036,-0.264 0.072,-0.36 0.012,-0.18 -0.06,-0.36 -0.072,-0.18 -0.156,-0.18 -0.108,0 -0.216,0.048 -0.108,0.036 -0.132,0.156 -0.036,0.024 -0.06,0.156 -0.012,0.132 -0.048,0.288 -0.024,0.144 -0.06,0.288 -0.036,0.132 -0.048,0.192 -0.048,0.072 -0.168,0.228 -0.108,0.144 -0.288,0.288 -0.18,0.132 -0.432,0.24 -0.24,0.096 -0.492,0.048 -0.528,-0.084 -1.044,-0.72 -0.516,-0.636 -0.552,-1.632 -0.012,-0.492 0.132,-0.852 0.144,-0.36 0.336,-0.612 0.204,-0.252 0.408,-0.3960003 0.204,-0.144 0.3,-0.192 0.096,-0.036 0.312,-0.024 0.216,0 0.456,0.048 0.252,0.036 0.444,0.108 0.192,0.06 0.24,0.072 0.084,0.084 0.156,0.2040003 0.072,0.12 0.096,0.228 0.048,0.072 0.072,0.252 0.036,0.168 0.108,0.228 z m 0.504,0.276 q 0.06,0.024 0.144,0.024 0.144,0 0.168,-0.096 0.048,-0.12 0.048,-0.48 0,-0.372 -0.228,-0.7920003 -0.252,-0.432 -0.576,-0.72 -0.324,-0.3 -0.54,-0.408 -0.096,-0.048 -0.204,-0.084 -0.108,-0.048 -0.18,-0.084 -0.096,-0.048 -0.204,-0.048 0.312,0.132 0.624,0.3 0.24,0.144 0.492,0.372 0.252,0.228 0.408,0.492 0.288,0.5640003 0.336,0.8760003 0.048,0.3 -0.012,0.408 -0.132,0.168 -0.18,0.192 -0.048,0.048 -0.096,0.048 z m -3.072,-0.048 q -0.132,0.384 -0.096,0.744 0.036,0.36 0.108,0.624 0.084,0.252 0.168,0.432 0.084,0.18 0.084,0.192 0,0.048 -0.156,-0.372 -0.144,-0.42 -0.096,-1.26 0.024,-0.42 0.18,-0.708 0.168,-0.288 0.348,-0.444 0.24,-0.216 0.492,-0.324 -0.024,-0.024 -0.144,0 -0.108,0.024 -0.276,0.156 -0.168,0.12 -0.348,0.36 -0.168,0.228 -0.264,0.6 z m 3.48,1.392 q 0,0.324 -0.072,0.672 -0.048,0.288 -0.168,0.624 -0.12,0.336 -0.372,0.564 -0.228,0.24 -0.468,0.396 -0.228,0.144 -0.408,0.252 -0.228,0.096 -0.42,0.144 0.336,-0.096 0.648,-0.252 0.276,-0.12 0.528,-0.324 0.252,-0.216 0.42,-0.564 0.18,-0.3 0.228,-0.576 0.048,-0.288 0.084,-0.492 0.012,-0.228 0,-0.444 z"
       style="font-style:normal;font-variant:normal;font-weight:normal;font-stretch:normal;font-size:12px;font-family:'Impact Label';-inkscape-font-specification:'Impact Label'"
       id="path28"
       inkscape:connector-curvature="0" /><path
       d="m 51.098813,-0.98926974 h -7.596 V -15.65327 h 7.596 z m -3.66,-10.30800026 q -0.12,0 -0.444,0 -0.324,-0.012 -0.684,-0.024 -0.36,-0.024 -0.66,-0.036 -0.288,-0.024 -0.348,-0.024 -0.132,0 -0.168,0.072 -0.036,0.06 -0.048,0.192 0,0.144 0.18,0.324 0.18,0.18 0.24,0.216 0.036,0.036 0.156,0.048 0.12,0 0.252,0.012 0.144,0 0.264,0 0.12,0 0.144,-0.012 0.096,-0.048 0.132,-0.108 0.048,-0.06 0.264,-0.06 0.084,0 0.132,0.096 0.048,0.084 0.072,0.228 0.036,0.132 0.048,0.288 0.012,0.1440003 0.036,0.2520003 0.024,0.108 0.012,0.564 -0.012,0.456 -0.036,0.996 -0.024,0.528 -0.06,1.068 -0.024,0.54 -0.048,0.792 -0.06,0.528 0.048,0.756 0.12,0.228 0.216,0.264 0.096,0.024 0.24,-0.048 0.156,-0.084 0.216,-0.156 0.048,-0.048 0.024,-0.144 -0.024,-0.108 -0.072,-0.228 l -0.084,-0.348 V -10.51727 h 0.072 q 0.048,0 0.072,0 0.036,-0.012 0.084,-0.012 0.12,0.012 0.168,0.048 0.048,0.036 0.192,0.036 0.156,0 0.168,-0.012 0.012,-0.012 0.108,-0.06 0.12,-0.012 0.276,-0.036 0.156,-0.024 0.264,0.072 0.108,0.084 0.156,0.06 0.06,-0.024 0.252,-0.048 0.216,-0.048 0.288,-0.228 0.072,-0.18 -0.072,-0.6 -0.048,-0.18 -0.18,-0.228 -0.132,-0.06 -0.276,-0.036 -0.132,0.024 -0.252,0.096 -0.108,0.06 -0.168,0.072 -0.108,0.048 -0.3,0.048 -0.192,0 -0.312,0 -0.096,0.012 -0.18,0.036 -0.072,0.012 -0.18,0.012 -0.108,0 -0.204,0 z m 0.408,1.032 q 0,1.1880003 0.024,2.1120003 0,0.42 0.012,0.816 0.012,0.384 0.012,0.708 0.012,0.312 0.012,0.528 0,0.216 0,0.228 0,0.12 -0.036,0.228 -0.024,0.072 -0.048,0.096 0.072,0 0.12,-0.096 0.036,-0.048 0.06,-0.204 0.024,-0.156 0,-0.444 0,-0.3 -0.012,-0.912 -0.012,-0.624 -0.012,-1.248 0,-0.624 0,-1.104 0,-0.4800003 0,-0.5160003 0,-0.096 0.108,-0.096 0.036,0 0.216,0 0.18,0 0.384,-0.024 0.216,-0.024 0.396,-0.036 0.18,-0.012 0.24,-0.036 0.132,-0.096 0.216,-0.18 0.072,-0.072 0.096,-0.132 -0.048,0.096 -0.144,0.144 -0.18,0.168 -0.396,0.168 -0.12,0 -0.324,-0.012 -0.204,-0.024 -0.408,-0.024 -0.192,0 -0.348,0 -0.144,0 -0.168,0.036 z"
       style="font-style:normal;font-variant:normal;font-weight:normal;font-stretch:normal;font-size:12px;font-family:'Impact Label';-inkscape-font-specification:'Impact Label'"
       id="path30"
       inkscape:connector-curvature="0" /></g></svg>